<?xml version="1.0" encoding="UTF-8" standalone="no"?>
<!DOCTYPE svg PUBLIC "-//W3C//DTD SVG 1.1//EN"
 "http://www.w3.org/Graphics/SVG/1.1/DTD/svg11.dtd">
<!-- Generated by graphviz version 3.0.0 (20220413.0242)
 -->
<!-- Title: iop/fs/libbdm/include/bd_cache.h Pages: 1 -->
<svg width="174pt" height="263pt"
 viewBox="0.00 0.00 173.50 263.00" xmlns="http://www.w3.org/2000/svg" xmlns:xlink="http://www.w3.org/1999/xlink">
<g id="graph0" class="graph" transform="scale(1 1) rotate(0) translate(4 259)">
<title>iop/fs/libbdm/include/bd_cache.h</title>
<polygon fill="white" stroke="transparent" points="-4,4 -4,-259 169.5,-259 169.5,4 -4,4"/>
<!-- Node1 -->
<g id="node1" class="node">
<title>Node1</title>
<g id="a_node1"><a xlink:title=" ">
<polygon fill="#bfbfbf" stroke="black" points="4,-224.5 4,-254.5 110,-254.5 110,-224.5 4,-224.5"/>
<text text-anchor="start" x="12" y="-242.5" font-family="Helvetica,sans-Serif" font-size="10.00">iop/fs/libbdm/include</text>
<text text-anchor="middle" x="57" y="-231.5" font-family="Helvetica,sans-Serif" font-size="10.00">/bd_cache.h</text>
</a>
</g>
</g>
<!-- Node2 -->
<g id="node2" class="node">
<title>Node2</title>
<g id="a_node2"><a xlink:href="tamtypes_8h.html" target="_top" xlink:title=" ">
<polygon fill="white" stroke="black" points="0,-0.5 0,-19.5 64,-19.5 64,-0.5 0,-0.5"/>
<text text-anchor="middle" x="32" y="-7.5" font-family="Helvetica,sans-Serif" font-size="10.00">tamtypes.h</text>
</a>
</g>
</g>
<!-- Node1&#45;&gt;Node2 -->
<g id="edge1" class="edge">
<title>Node1&#45;&gt;Node2</title>
<path fill="none" stroke="midnightblue" d="M55.44,-224.27C51.11,-184.89 38.98,-74.49 34.08,-29.97"/>
<polygon fill="midnightblue" stroke="midnightblue" points="37.55,-29.48 32.98,-19.93 30.59,-30.25 37.55,-29.48"/>
</g>
<!-- Node3 -->
<g id="node3" class="node">
<title>Node3</title>
<g id="a_node3"><a xlink:href="bdm_8h.html" target="_top" xlink:title=" ">
<polygon fill="white" stroke="black" points="61.5,-168.5 61.5,-187.5 104.5,-187.5 104.5,-168.5 61.5,-168.5"/>
<text text-anchor="middle" x="83" y="-175.5" font-family="Helvetica,sans-Serif" font-size="10.00">bdm.h</text>
</a>
</g>
</g>
<!-- Node1&#45;&gt;Node3 -->
<g id="edge2" class="edge">
<title>Node1&#45;&gt;Node3</title>
<path fill="none" stroke="midnightblue" d="M63.16,-224.4C66.74,-216.2 71.3,-205.78 75.14,-196.99"/>
<polygon fill="midnightblue" stroke="midnightblue" points="78.42,-198.22 79.22,-187.66 72.01,-195.42 78.42,-198.22"/>
</g>
<!-- Node4 -->
<g id="node4" class="node">
<title>Node4</title>
<g id="a_node4"><a xlink:href="irx_8h.html" target="_top" xlink:title=" ">
<polygon fill="white" stroke="black" points="66,-112.5 66,-131.5 100,-131.5 100,-112.5 66,-112.5"/>
<text text-anchor="middle" x="83" y="-119.5" font-family="Helvetica,sans-Serif" font-size="10.00">irx.h</text>
</a>
</g>
</g>
<!-- Node3&#45;&gt;Node4 -->
<g id="edge3" class="edge">
<title>Node3&#45;&gt;Node4</title>
<path fill="none" stroke="midnightblue" d="M83,-168.08C83,-161.01 83,-150.86 83,-141.99"/>
<polygon fill="midnightblue" stroke="midnightblue" points="86.5,-141.75 83,-131.75 79.5,-141.75 86.5,-141.75"/>
</g>
<!-- Node7 -->
<g id="node7" class="node">
<title>Node7</title>
<g id="a_node7"><a xlink:title=" ">
<polygon fill="white" stroke="#bfbfbf" points="118.5,-112.5 118.5,-131.5 165.5,-131.5 165.5,-112.5 118.5,-112.5"/>
<text text-anchor="middle" x="142" y="-119.5" font-family="Helvetica,sans-Serif" font-size="10.00">types.h</text>
</a>
</g>
</g>
<!-- Node3&#45;&gt;Node7 -->
<g id="edge7" class="edge">
<title>Node3&#45;&gt;Node7</title>
<path fill="none" stroke="midnightblue" d="M92.48,-168.32C101.2,-160.34 114.34,-148.31 124.9,-138.65"/>
<polygon fill="midnightblue" stroke="midnightblue" points="127.33,-141.17 132.35,-131.83 122.61,-136 127.33,-141.17"/>
</g>
<!-- Node5 -->
<g id="node5" class="node">
<title>Node5</title>
<g id="a_node5"><a xlink:href="types_8h_source.html" target="_top" xlink:title=" ">
<polygon fill="white" stroke="black" points="60.5,-56.5 60.5,-75.5 107.5,-75.5 107.5,-56.5 60.5,-56.5"/>
<text text-anchor="middle" x="84" y="-63.5" font-family="Helvetica,sans-Serif" font-size="10.00">types.h</text>
</a>
</g>
</g>
<!-- Node4&#45;&gt;Node5 -->
<g id="edge4" class="edge">
<title>Node4&#45;&gt;Node5</title>
<path fill="none" stroke="midnightblue" d="M83.17,-112.08C83.3,-105.01 83.48,-94.86 83.65,-85.99"/>
<polygon fill="midnightblue" stroke="midnightblue" points="87.15,-85.81 83.84,-75.75 80.15,-85.68 87.15,-85.81"/>
</g>
<!-- Node5&#45;&gt;Node2 -->
<g id="edge6" class="edge">
<title>Node5&#45;&gt;Node2</title>
<path fill="none" stroke="midnightblue" d="M75.41,-56.08C67.84,-48.22 56.62,-36.57 47.49,-27.08"/>
<polygon fill="midnightblue" stroke="midnightblue" points="49.88,-24.53 40.43,-19.75 44.84,-29.38 49.88,-24.53"/>
</g>
<!-- Node6 -->
<g id="node6" class="node">
<title>Node6</title>
<g id="a_node6"><a xlink:title=" ">
<polygon fill="white" stroke="#bfbfbf" points="82.5,-0.5 82.5,-19.5 133.5,-19.5 133.5,-0.5 82.5,-0.5"/>
<text text-anchor="middle" x="108" y="-7.5" font-family="Helvetica,sans-Serif" font-size="10.00">stddef.h</text>
</a>
</g>
</g>
<!-- Node5&#45;&gt;Node6 -->
<g id="edge5" class="edge">
<title>Node5&#45;&gt;Node6</title>
<path fill="none" stroke="midnightblue" d="M87.96,-56.08C91.21,-48.77 95.92,-38.18 99.95,-29.1"/>
<polygon fill="midnightblue" stroke="midnightblue" points="103.25,-30.31 104.11,-19.75 96.85,-27.47 103.25,-30.31"/>
</g>
</g>
</svg>
