<?xml version="1.0" encoding="UTF-8" standalone="no"?>
<!DOCTYPE svg PUBLIC "-//W3C//DTD SVG 1.1//EN"
 "http://www.w3.org/Graphics/SVG/1.1/DTD/svg11.dtd">
<!-- Generated by graphviz version 3.0.0 (20220413.0242)
 -->
<!-- Title: iop/fs/bdm/include/bdm.h Pages: 1 -->
<svg width="2204pt" height="240pt"
 viewBox="0.00 0.00 2203.50 240.00" xmlns="http://www.w3.org/2000/svg" xmlns:xlink="http://www.w3.org/1999/xlink">
<g id="graph0" class="graph" transform="scale(1 1) rotate(0) translate(4 236)">
<title>iop/fs/bdm/include/bdm.h</title>
<polygon fill="white" stroke="transparent" points="-4,4 -4,-236 2199.5,-236 2199.5,4 -4,4"/>
<!-- Node1 -->
<g id="node1" class="node">
<title>Node1</title>
<g id="a_node1"><a xlink:title=" ">
<polygon fill="#bfbfbf" stroke="black" points="928,-201.5 928,-231.5 1024,-231.5 1024,-201.5 928,-201.5"/>
<text text-anchor="start" x="936" y="-219.5" font-family="Helvetica,sans-Serif" font-size="10.00">iop/fs/bdm/include</text>
<text text-anchor="middle" x="976" y="-208.5" font-family="Helvetica,sans-Serif" font-size="10.00">/bdm.h</text>
</a>
</g>
</g>
<!-- Node2 -->
<g id="node2" class="node">
<title>Node2</title>
<g id="a_node2"><a xlink:href="bdm_8c_source.html" target="_top" xlink:title=" ">
<polygon fill="white" stroke="black" points="0,-73 0,-92 108,-92 108,-73 0,-73"/>
<text text-anchor="middle" x="54" y="-80" font-family="Helvetica,sans-Serif" font-size="10.00">iop/fs/bdm/src/bdm.c</text>
</a>
</g>
</g>
<!-- Node1&#45;&gt;Node2 -->
<g id="edge1" class="edge">
<title>Node1&#45;&gt;Node2</title>
<path fill="none" stroke="midnightblue" d="M917.83,-214.15C723.24,-209.4 105.39,-192.21 73,-165 51.31,-146.77 51.64,-109.03 53.03,-92.07"/>
<polygon fill="midnightblue" stroke="midnightblue" points="917.78,-217.65 927.86,-214.4 917.95,-210.65 917.78,-217.65"/>
</g>
<!-- Node3 -->
<g id="node3" class="node">
<title>Node3</title>
<g id="a_node3"><a xlink:href="iop_2fs_2bdm_2src_2irx__imports_8h_source.html" target="_top" xlink:title=" ">
<polygon fill="white" stroke="black" points="206,-134.5 206,-164.5 298,-164.5 298,-134.5 206,-134.5"/>
<text text-anchor="start" x="214" y="-152.5" font-family="Helvetica,sans-Serif" font-size="10.00">iop/fs/bdm/src/irx</text>
<text text-anchor="middle" x="252" y="-141.5" font-family="Helvetica,sans-Serif" font-size="10.00">_imports.h</text>
</a>
</g>
</g>
<!-- Node1&#45;&gt;Node3 -->
<g id="edge2" class="edge">
<title>Node1&#45;&gt;Node3</title>
<path fill="none" stroke="midnightblue" d="M917.63,-214.66C800.87,-212.21 530.56,-202.58 307,-165 304.08,-164.51 301.09,-163.93 298.08,-163.3"/>
<polygon fill="midnightblue" stroke="midnightblue" points="917.71,-218.17 927.78,-214.87 917.85,-211.17 917.71,-218.17"/>
</g>
<!-- Node4 -->
<g id="node4" class="node">
<title>Node4</title>
<g id="a_node4"><a xlink:href="iop_2fs_2bdm_2src_2main_8c_source.html" target="_top" xlink:title=" ">
<polygon fill="white" stroke="black" points="316,-140 316,-159 426,-159 426,-140 316,-140"/>
<text text-anchor="middle" x="371" y="-147" font-family="Helvetica,sans-Serif" font-size="10.00">iop/fs/bdm/src/main.c</text>
</a>
</g>
</g>
<!-- Node1&#45;&gt;Node4 -->
<g id="edge3" class="edge">
<title>Node1&#45;&gt;Node4</title>
<path fill="none" stroke="midnightblue" d="M917.84,-212.55C818.4,-206.96 609.55,-192.8 435,-165 425.1,-163.42 414.44,-161.22 404.72,-159"/>
<polygon fill="midnightblue" stroke="midnightblue" points="917.8,-216.05 927.97,-213.11 918.18,-209.07 917.8,-216.05"/>
</g>
<!-- Node5 -->
<g id="node5" class="node">
<title>Node5</title>
<g id="a_node5"><a xlink:href="fs_2bdm_2src_2part__driver_8c_source.html" target="_top" xlink:title=" ">
<polygon fill="white" stroke="black" points="444,-134.5 444,-164.5 542,-164.5 542,-134.5 444,-134.5"/>
<text text-anchor="start" x="452" y="-152.5" font-family="Helvetica,sans-Serif" font-size="10.00">iop/fs/bdm/src/part</text>
<text text-anchor="middle" x="493" y="-141.5" font-family="Helvetica,sans-Serif" font-size="10.00">_driver.c</text>
</a>
</g>
</g>
<!-- Node1&#45;&gt;Node5 -->
<g id="edge4" class="edge">
<title>Node1&#45;&gt;Node5</title>
<path fill="none" stroke="midnightblue" d="M917.85,-210.48C836.52,-203.02 684.35,-187.42 556,-165 551.47,-164.21 546.77,-163.3 542.08,-162.33"/>
<polygon fill="midnightblue" stroke="midnightblue" points="917.61,-213.98 927.89,-211.4 918.24,-207.01 917.61,-213.98"/>
</g>
<!-- Node6 -->
<g id="node6" class="node">
<title>Node6</title>
<g id="a_node6"><a xlink:href="diskio_8c_source.html" target="_top" xlink:title=" ">
<polygon fill="white" stroke="black" points="514.5,-67.5 514.5,-97.5 609.5,-97.5 609.5,-67.5 514.5,-67.5"/>
<text text-anchor="start" x="522.5" y="-85.5" font-family="Helvetica,sans-Serif" font-size="10.00">iop/fs/bdmfs_fatfs</text>
<text text-anchor="middle" x="562" y="-74.5" font-family="Helvetica,sans-Serif" font-size="10.00">/src/diskio.c</text>
</a>
</g>
</g>
<!-- Node1&#45;&gt;Node6 -->
<g id="edge5" class="edge">
<title>Node1&#45;&gt;Node6</title>
<path fill="none" stroke="midnightblue" d="M917.69,-213C829.17,-208.28 665.97,-195.6 617,-165 591.52,-149.08 575.08,-116.53 567.29,-97.74"/>
<polygon fill="midnightblue" stroke="midnightblue" points="917.68,-216.51 927.84,-213.53 918.04,-209.52 917.68,-216.51"/>
</g>
<!-- Node7 -->
<g id="node7" class="node">
<title>Node7</title>
<g id="a_node7"><a xlink:href="fs_2bdmfs__fatfs_2src_2fs__driver_8c_source.html" target="_top" xlink:title=" ">
<polygon fill="white" stroke="black" points="627.5,-67.5 627.5,-97.5 722.5,-97.5 722.5,-67.5 627.5,-67.5"/>
<text text-anchor="start" x="635.5" y="-85.5" font-family="Helvetica,sans-Serif" font-size="10.00">iop/fs/bdmfs_fatfs</text>
<text text-anchor="middle" x="675" y="-74.5" font-family="Helvetica,sans-Serif" font-size="10.00">/src/fs_driver.c</text>
</a>
</g>
</g>
<!-- Node1&#45;&gt;Node7 -->
<g id="edge6" class="edge">
<title>Node1&#45;&gt;Node7</title>
<path fill="none" stroke="midnightblue" d="M917.41,-215.87C827.97,-215.04 663.86,-207.58 627,-165 608.73,-143.89 635.89,-114.88 656.2,-97.77"/>
<polygon fill="midnightblue" stroke="midnightblue" points="917.64,-219.37 927.67,-215.94 917.69,-212.37 917.64,-219.37"/>
</g>
<!-- Node8 -->
<g id="node8" class="node">
<title>Node8</title>
<g id="a_node8"><a xlink:href="fs__driver_8h_source.html" target="_top" xlink:title=" ">
<polygon fill="white" stroke="black" points="636.5,-134.5 636.5,-164.5 751.5,-164.5 751.5,-134.5 636.5,-134.5"/>
<text text-anchor="start" x="644.5" y="-152.5" font-family="Helvetica,sans-Serif" font-size="10.00">iop/fs/bdmfs_fatfs</text>
<text text-anchor="middle" x="694" y="-141.5" font-family="Helvetica,sans-Serif" font-size="10.00">/src/include/fs_driver.h</text>
</a>
</g>
</g>
<!-- Node1&#45;&gt;Node8 -->
<g id="edge7" class="edge">
<title>Node1&#45;&gt;Node8</title>
<path fill="none" stroke="midnightblue" d="M918.09,-202.15C869.45,-190.94 800.29,-175 751.7,-163.8"/>
<polygon fill="midnightblue" stroke="midnightblue" points="917.31,-205.56 927.84,-204.4 918.88,-198.74 917.31,-205.56"/>
</g>
<!-- Node9 -->
<g id="node9" class="node">
<title>Node9</title>
<g id="a_node9"><a xlink:href="iop_2fs_2bdmfs__fatfs_2src_2main_8c_source.html" target="_top" xlink:title=" ">
<polygon fill="white" stroke="black" points="740.5,-67.5 740.5,-97.5 835.5,-97.5 835.5,-67.5 740.5,-67.5"/>
<text text-anchor="start" x="748.5" y="-85.5" font-family="Helvetica,sans-Serif" font-size="10.00">iop/fs/bdmfs_fatfs</text>
<text text-anchor="middle" x="788" y="-74.5" font-family="Helvetica,sans-Serif" font-size="10.00">/src/main.c</text>
</a>
</g>
</g>
<!-- Node1&#45;&gt;Node9 -->
<g id="edge12" class="edge">
<title>Node1&#45;&gt;Node9</title>
<path fill="none" stroke="midnightblue" d="M917.8,-214.61C878.35,-210.73 828.24,-198.78 799,-165 782.83,-146.32 783.49,-115.67 785.62,-97.76"/>
<polygon fill="midnightblue" stroke="midnightblue" points="917.58,-218.1 927.84,-215.45 918.17,-211.13 917.58,-218.1"/>
</g>
<!-- Node10 -->
<g id="node10" class="node">
<title>Node10</title>
<g id="a_node10"><a xlink:href="iop_2fs_2bdmfs__fatfs_2src_2irx__imports_8h_source.html" target="_top" xlink:title=" ">
<polygon fill="white" stroke="black" points="808.5,-134.5 808.5,-164.5 903.5,-164.5 903.5,-134.5 808.5,-134.5"/>
<text text-anchor="start" x="816.5" y="-152.5" font-family="Helvetica,sans-Serif" font-size="10.00">iop/fs/bdmfs_fatfs</text>
<text text-anchor="middle" x="856" y="-141.5" font-family="Helvetica,sans-Serif" font-size="10.00">/src/irx_imports.h</text>
</a>
</g>
</g>
<!-- Node1&#45;&gt;Node10 -->
<g id="edge11" class="edge">
<title>Node1&#45;&gt;Node10</title>
<path fill="none" stroke="midnightblue" d="M941.06,-196.57C922.18,-186.35 899.27,-173.94 881.99,-164.58"/>
<polygon fill="midnightblue" stroke="midnightblue" points="939.5,-199.71 949.96,-201.4 942.84,-193.56 939.5,-199.71"/>
</g>
<!-- Node11 -->
<g id="node11" class="node">
<title>Node11</title>
<g id="a_node11"><a xlink:href="fs_2bdmfs__vfat_2src_2include_2fat__driver_8h_source.html" target="_top" xlink:title=" ">
<polygon fill="white" stroke="black" points="962.5,-67.5 962.5,-97.5 1071.5,-97.5 1071.5,-67.5 962.5,-67.5"/>
<text text-anchor="start" x="970.5" y="-85.5" font-family="Helvetica,sans-Serif" font-size="10.00">iop/fs/bdmfs_vfat/src</text>
<text text-anchor="middle" x="1017" y="-74.5" font-family="Helvetica,sans-Serif" font-size="10.00">/include/fat_driver.h</text>
</a>
</g>
</g>
<!-- Node1&#45;&gt;Node11 -->
<g id="edge13" class="edge">
<title>Node1&#45;&gt;Node11</title>
<path fill="none" stroke="midnightblue" d="M1011.57,-195.69C1022.43,-187.69 1033.05,-177.39 1039,-165 1049.72,-142.67 1036.7,-114.31 1026.61,-97.6"/>
<polygon fill="midnightblue" stroke="midnightblue" points="1009.57,-192.82 1003.3,-201.36 1013.53,-198.59 1009.57,-192.82"/>
</g>
<!-- Node13 -->
<g id="node13" class="node">
<title>Node13</title>
<g id="a_node13"><a xlink:href="fs_2bdmfs__vfat_2src_2include_2scache_8h_source.html" target="_top" xlink:title=" ">
<polygon fill="white" stroke="black" points="921.5,-134.5 921.5,-164.5 1030.5,-164.5 1030.5,-134.5 921.5,-134.5"/>
<text text-anchor="start" x="929.5" y="-152.5" font-family="Helvetica,sans-Serif" font-size="10.00">iop/fs/bdmfs_vfat/src</text>
<text text-anchor="middle" x="976" y="-141.5" font-family="Helvetica,sans-Serif" font-size="10.00">/include/scache.h</text>
</a>
</g>
</g>
<!-- Node1&#45;&gt;Node13 -->
<g id="edge15" class="edge">
<title>Node1&#45;&gt;Node13</title>
<path fill="none" stroke="midnightblue" d="M976,-191.11C976,-182.15 976,-172.32 976,-164.58"/>
<polygon fill="midnightblue" stroke="midnightblue" points="972.5,-191.4 976,-201.4 979.5,-191.4 972.5,-191.4"/>
</g>
<!-- Node14 -->
<g id="node14" class="node">
<title>Node14</title>
<g id="a_node14"><a xlink:href="iop_2fs_2bdmfs__vfat_2src_2irx__imports_8h_source.html" target="_top" xlink:title=" ">
<polygon fill="white" stroke="black" points="1087.5,-134.5 1087.5,-164.5 1196.5,-164.5 1196.5,-134.5 1087.5,-134.5"/>
<text text-anchor="start" x="1095.5" y="-152.5" font-family="Helvetica,sans-Serif" font-size="10.00">iop/fs/bdmfs_vfat/src</text>
<text text-anchor="middle" x="1142" y="-141.5" font-family="Helvetica,sans-Serif" font-size="10.00">/irx_imports.h</text>
</a>
</g>
</g>
<!-- Node1&#45;&gt;Node14 -->
<g id="edge17" class="edge">
<title>Node1&#45;&gt;Node14</title>
<path fill="none" stroke="midnightblue" d="M1021.51,-197.68C1048.13,-187.26 1081.27,-174.28 1106.05,-164.58"/>
<polygon fill="midnightblue" stroke="midnightblue" points="1020.05,-194.49 1012.02,-201.4 1022.61,-201.01 1020.05,-194.49"/>
</g>
<!-- Node15 -->
<g id="node15" class="node">
<title>Node15</title>
<g id="a_node15"><a xlink:href="iop_2fs_2bdmfs__vfat_2src_2main_8c_source.html" target="_top" xlink:title=" ">
<polygon fill="white" stroke="black" points="1214.5,-134.5 1214.5,-164.5 1323.5,-164.5 1323.5,-134.5 1214.5,-134.5"/>
<text text-anchor="start" x="1222.5" y="-152.5" font-family="Helvetica,sans-Serif" font-size="10.00">iop/fs/bdmfs_vfat/src</text>
<text text-anchor="middle" x="1269" y="-141.5" font-family="Helvetica,sans-Serif" font-size="10.00">/main.c</text>
</a>
</g>
</g>
<!-- Node1&#45;&gt;Node15 -->
<g id="edge18" class="edge">
<title>Node1&#45;&gt;Node15</title>
<path fill="none" stroke="midnightblue" d="M1034.12,-202.78C1080.42,-192.62 1146.89,-177.99 1205,-165 1208,-164.33 1211.08,-163.64 1214.19,-162.94"/>
<polygon fill="midnightblue" stroke="midnightblue" points="1033.29,-199.38 1024.27,-204.94 1034.78,-206.22 1033.29,-199.38"/>
</g>
<!-- Node16 -->
<g id="node16" class="node">
<title>Node16</title>
<g id="a_node16"><a xlink:href="bd__cache_8h.html" target="_top" xlink:title=" ">
<polygon fill="white" stroke="black" points="82,-134.5 82,-164.5 188,-164.5 188,-134.5 82,-134.5"/>
<text text-anchor="start" x="90" y="-152.5" font-family="Helvetica,sans-Serif" font-size="10.00">iop/fs/libbdm/include</text>
<text text-anchor="middle" x="135" y="-141.5" font-family="Helvetica,sans-Serif" font-size="10.00">/bd_cache.h</text>
</a>
</g>
</g>
<!-- Node1&#45;&gt;Node16 -->
<g id="edge19" class="edge">
<title>Node1&#45;&gt;Node16</title>
<path fill="none" stroke="midnightblue" d="M917.71,-215C787.66,-213.17 464.25,-204.64 197,-165 194.16,-164.58 191.25,-164.09 188.33,-163.56"/>
<polygon fill="midnightblue" stroke="midnightblue" points="917.8,-218.5 927.84,-215.13 917.89,-211.5 917.8,-218.5"/>
</g>
<!-- Node18 -->
<g id="node18" class="node">
<title>Node18</title>
<g id="a_node18"><a xlink:href="bd__defrag_8h.html" target="_top" xlink:title=" ">
<polygon fill="white" stroke="black" points="1342,-134.5 1342,-164.5 1448,-164.5 1448,-134.5 1342,-134.5"/>
<text text-anchor="start" x="1350" y="-152.5" font-family="Helvetica,sans-Serif" font-size="10.00">iop/fs/libbdm/include</text>
<text text-anchor="middle" x="1395" y="-141.5" font-family="Helvetica,sans-Serif" font-size="10.00">/bd_defrag.h</text>
</a>
</g>
</g>
<!-- Node1&#45;&gt;Node18 -->
<g id="edge22" class="edge">
<title>Node1&#45;&gt;Node18</title>
<path fill="none" stroke="midnightblue" d="M1034.22,-208.88C1105.1,-200.46 1228.32,-184.6 1333,-165 1335.93,-164.45 1338.94,-163.86 1341.97,-163.23"/>
<polygon fill="midnightblue" stroke="midnightblue" points="1033.67,-205.42 1024.15,-210.07 1034.49,-212.38 1033.67,-205.42"/>
</g>
<!-- Node20 -->
<g id="node20" class="node">
<title>Node20</title>
<g id="a_node20"><a xlink:href="iop_2i_link_2_i_e_e_e1394__bd_2src_2irx__imports_8h_source.html" target="_top" xlink:title=" ">
<polygon fill="white" stroke="black" points="1465.5,-134.5 1465.5,-164.5 1572.5,-164.5 1572.5,-134.5 1465.5,-134.5"/>
<text text-anchor="start" x="1473.5" y="-152.5" font-family="Helvetica,sans-Serif" font-size="10.00">iop/iLink/IEEE1394</text>
<text text-anchor="middle" x="1519" y="-141.5" font-family="Helvetica,sans-Serif" font-size="10.00">_bd/src/irx_imports.h</text>
</a>
</g>
</g>
<!-- Node1&#45;&gt;Node20 -->
<g id="edge24" class="edge">
<title>Node1&#45;&gt;Node20</title>
<path fill="none" stroke="midnightblue" d="M1034.14,-211.75C1124.9,-205.38 1305.53,-190.56 1457,-165 1459.73,-164.54 1462.51,-164.03 1465.31,-163.49"/>
<polygon fill="midnightblue" stroke="midnightblue" points="1033.79,-208.27 1024.06,-212.45 1034.28,-215.25 1033.79,-208.27"/>
</g>
<!-- Node21 -->
<g id="node21" class="node">
<title>Node21</title>
<g id="a_node21"><a xlink:href="i_link_2_i_e_e_e1394__bd_2src_2scsi_8c_source.html" target="_top" xlink:title=" ">
<polygon fill="white" stroke="black" points="1590,-134.5 1590,-164.5 1688,-164.5 1688,-134.5 1590,-134.5"/>
<text text-anchor="start" x="1598" y="-152.5" font-family="Helvetica,sans-Serif" font-size="10.00">iop/iLink/IEEE1394</text>
<text text-anchor="middle" x="1639" y="-141.5" font-family="Helvetica,sans-Serif" font-size="10.00">_bd/src/scsi.c</text>
</a>
</g>
</g>
<!-- Node1&#45;&gt;Node21 -->
<g id="edge25" class="edge">
<title>Node1&#45;&gt;Node21</title>
<path fill="none" stroke="midnightblue" d="M1034.34,-213.85C1142.86,-210.08 1382.79,-198.4 1582,-165 1584.62,-164.56 1587.29,-164.06 1589.98,-163.52"/>
<polygon fill="midnightblue" stroke="midnightblue" points="1034.13,-210.36 1024.26,-214.2 1034.37,-217.36 1034.13,-210.36"/>
</g>
<!-- Node22 -->
<g id="node22" class="node">
<title>Node22</title>
<g id="a_node22"><a xlink:href="iop_2sio_2mx4sio__bd_2src_2irx__imports_8h_source.html" target="_top" xlink:title=" ">
<polygon fill="white" stroke="black" points="1705.5,-134.5 1705.5,-164.5 1816.5,-164.5 1816.5,-134.5 1705.5,-134.5"/>
<text text-anchor="start" x="1713.5" y="-152.5" font-family="Helvetica,sans-Serif" font-size="10.00">iop/sio/mx4sio_bd/src</text>
<text text-anchor="middle" x="1761" y="-141.5" font-family="Helvetica,sans-Serif" font-size="10.00">/irx_imports.h</text>
</a>
</g>
</g>
<!-- Node1&#45;&gt;Node22 -->
<g id="edge26" class="edge">
<title>Node1&#45;&gt;Node22</title>
<path fill="none" stroke="midnightblue" d="M1034.71,-214.42C1158.02,-211.5 1452.74,-201.01 1697,-165 1699.71,-164.6 1702.47,-164.15 1705.25,-163.66"/>
<polygon fill="midnightblue" stroke="midnightblue" points="1034.29,-210.93 1024.37,-214.66 1034.45,-217.93 1034.29,-210.93"/>
</g>
<!-- Node23 -->
<g id="node23" class="node">
<title>Node23</title>
<g id="a_node23"><a xlink:href="mx4sio_8c_source.html" target="_top" xlink:title=" ">
<polygon fill="white" stroke="black" points="1834.5,-134.5 1834.5,-164.5 1945.5,-164.5 1945.5,-134.5 1834.5,-134.5"/>
<text text-anchor="start" x="1842.5" y="-152.5" font-family="Helvetica,sans-Serif" font-size="10.00">iop/sio/mx4sio_bd/src</text>
<text text-anchor="middle" x="1890" y="-141.5" font-family="Helvetica,sans-Serif" font-size="10.00">/mx4sio.c</text>
</a>
</g>
</g>
<!-- Node1&#45;&gt;Node23 -->
<g id="edge27" class="edge">
<title>Node1&#45;&gt;Node23</title>
<path fill="none" stroke="midnightblue" d="M1034.57,-215.31C1172.95,-214.14 1530.73,-206.93 1826,-165 1828.71,-164.62 1831.47,-164.18 1834.25,-163.69"/>
<polygon fill="midnightblue" stroke="midnightblue" points="1034.18,-211.81 1024.2,-215.39 1034.23,-218.81 1034.18,-211.81"/>
</g>
<!-- Node24 -->
<g id="node24" class="node">
<title>Node24</title>
<g id="a_node24"><a xlink:href="iop_2usb_2usbmass__bd_2src_2irx__imports_8h_source.html" target="_top" xlink:title=" ">
<polygon fill="white" stroke="black" points="1963.5,-134.5 1963.5,-164.5 2070.5,-164.5 2070.5,-134.5 1963.5,-134.5"/>
<text text-anchor="start" x="1971.5" y="-152.5" font-family="Helvetica,sans-Serif" font-size="10.00">iop/usb/usbmass_bd</text>
<text text-anchor="middle" x="2017" y="-141.5" font-family="Helvetica,sans-Serif" font-size="10.00">/src/irx_imports.h</text>
</a>
</g>
</g>
<!-- Node1&#45;&gt;Node24 -->
<g id="edge28" class="edge">
<title>Node1&#45;&gt;Node24</title>
<path fill="none" stroke="midnightblue" d="M1034.23,-216.1C1186.41,-216.89 1608.25,-214.09 1955,-165 1957.74,-164.61 1960.53,-164.16 1963.34,-163.67"/>
<polygon fill="midnightblue" stroke="midnightblue" points="1034.19,-212.6 1024.17,-216.04 1034.15,-219.6 1034.19,-212.6"/>
</g>
<!-- Node25 -->
<g id="node25" class="node">
<title>Node25</title>
<g id="a_node25"><a xlink:href="usb_2usbmass__bd_2src_2scsi_8c_source.html" target="_top" xlink:title=" ">
<polygon fill="white" stroke="black" points="2088.5,-134.5 2088.5,-164.5 2195.5,-164.5 2195.5,-134.5 2088.5,-134.5"/>
<text text-anchor="start" x="2096.5" y="-152.5" font-family="Helvetica,sans-Serif" font-size="10.00">iop/usb/usbmass_bd</text>
<text text-anchor="middle" x="2142" y="-141.5" font-family="Helvetica,sans-Serif" font-size="10.00">/src/scsi.c</text>
</a>
</g>
</g>
<!-- Node1&#45;&gt;Node25 -->
<g id="edge29" class="edge">
<title>Node1&#45;&gt;Node25</title>
<path fill="none" stroke="midnightblue" d="M1034.39,-214.25C1232.04,-209.79 1875.09,-193.4 2080,-165 2082.74,-164.62 2085.53,-164.18 2088.34,-163.69"/>
<polygon fill="midnightblue" stroke="midnightblue" points="1034.13,-210.75 1024.21,-214.48 1034.28,-217.75 1034.13,-210.75"/>
</g>
<!-- Node8&#45;&gt;Node6 -->
<g id="edge8" class="edge">
<title>Node8&#45;&gt;Node6</title>
<path fill="none" stroke="midnightblue" d="M656.13,-129.85C635.26,-119.58 609.77,-107.03 590.59,-97.58"/>
<polygon fill="midnightblue" stroke="midnightblue" points="654.84,-133.12 665.36,-134.4 657.93,-126.84 654.84,-133.12"/>
</g>
<!-- Node8&#45;&gt;Node7 -->
<g id="edge9" class="edge">
<title>Node8&#45;&gt;Node7</title>
<path fill="none" stroke="midnightblue" d="M687.04,-124.7C684.38,-115.59 681.43,-105.49 679.11,-97.58"/>
<polygon fill="midnightblue" stroke="midnightblue" points="683.71,-125.78 689.88,-134.4 690.43,-123.82 683.71,-125.78"/>
</g>
<!-- Node8&#45;&gt;Node9 -->
<g id="edge10" class="edge">
<title>Node8&#45;&gt;Node9</title>
<path fill="none" stroke="midnightblue" d="M722.99,-128.45C737.45,-118.45 754.59,-106.6 767.64,-97.58"/>
<polygon fill="midnightblue" stroke="midnightblue" points="720.63,-125.83 714.4,-134.4 724.61,-131.59 720.63,-125.83"/>
</g>
<!-- Node12 -->
<g id="node12" class="node">
<title>Node12</title>
<g id="a_node12"><a xlink:href="fs_2bdmfs__vfat_2src_2include_2fat_8h_source.html" target="_top" xlink:title=" ">
<polygon fill="white" stroke="black" points="962.5,-0.5 962.5,-30.5 1071.5,-30.5 1071.5,-0.5 962.5,-0.5"/>
<text text-anchor="start" x="970.5" y="-18.5" font-family="Helvetica,sans-Serif" font-size="10.00">iop/fs/bdmfs_vfat/src</text>
<text text-anchor="middle" x="1017" y="-7.5" font-family="Helvetica,sans-Serif" font-size="10.00">/include/fat.h</text>
</a>
</g>
</g>
<!-- Node11&#45;&gt;Node12 -->
<g id="edge14" class="edge">
<title>Node11&#45;&gt;Node12</title>
<path fill="none" stroke="midnightblue" d="M1017,-57.11C1017,-48.15 1017,-38.32 1017,-30.58"/>
<polygon fill="midnightblue" stroke="midnightblue" points="1013.5,-57.4 1017,-67.4 1020.5,-57.4 1013.5,-57.4"/>
</g>
<!-- Node13&#45;&gt;Node11 -->
<g id="edge16" class="edge">
<title>Node13&#45;&gt;Node11</title>
<path fill="none" stroke="midnightblue" d="M990.28,-125.87C996.21,-116.46 1002.91,-105.83 1008.12,-97.58"/>
<polygon fill="midnightblue" stroke="midnightblue" points="987.27,-124.07 984.9,-134.4 993.19,-127.81 987.27,-124.07"/>
</g>
<!-- Node16&#45;&gt;Node2 -->
<g id="edge20" class="edge">
<title>Node16&#45;&gt;Node2</title>
<path fill="none" stroke="midnightblue" d="M109.46,-128.01C94.43,-115.94 76.19,-101.3 64.83,-92.19"/>
<polygon fill="midnightblue" stroke="midnightblue" points="107.43,-130.87 117.42,-134.4 111.82,-125.41 107.43,-130.87"/>
</g>
<!-- Node17 -->
<g id="node17" class="node">
<title>Node17</title>
<g id="a_node17"><a xlink:href="bd__cache_8c_source.html" target="_top" xlink:title=" ">
<polygon fill="white" stroke="black" points="126,-67.5 126,-97.5 228,-97.5 228,-67.5 126,-67.5"/>
<text text-anchor="start" x="134" y="-85.5" font-family="Helvetica,sans-Serif" font-size="10.00">iop/fs/libbdm/src/bd</text>
<text text-anchor="middle" x="177" y="-74.5" font-family="Helvetica,sans-Serif" font-size="10.00">_cache.c</text>
</a>
</g>
</g>
<!-- Node16&#45;&gt;Node17 -->
<g id="edge21" class="edge">
<title>Node16&#45;&gt;Node17</title>
<path fill="none" stroke="midnightblue" d="M149.62,-125.87C155.7,-116.46 162.57,-105.83 167.9,-97.58"/>
<polygon fill="midnightblue" stroke="midnightblue" points="146.6,-124.1 144.11,-134.4 152.48,-127.9 146.6,-124.1"/>
</g>
<!-- Node19 -->
<g id="node19" class="node">
<title>Node19</title>
<g id="a_node19"><a xlink:href="bd__defrag_8c_source.html" target="_top" xlink:title=" ">
<polygon fill="white" stroke="black" points="1344,-67.5 1344,-97.5 1446,-97.5 1446,-67.5 1344,-67.5"/>
<text text-anchor="start" x="1352" y="-85.5" font-family="Helvetica,sans-Serif" font-size="10.00">iop/fs/libbdm/src/bd</text>
<text text-anchor="middle" x="1395" y="-74.5" font-family="Helvetica,sans-Serif" font-size="10.00">_defrag.c</text>
</a>
</g>
</g>
<!-- Node18&#45;&gt;Node19 -->
<g id="edge23" class="edge">
<title>Node18&#45;&gt;Node19</title>
<path fill="none" stroke="midnightblue" d="M1395,-124.11C1395,-115.15 1395,-105.32 1395,-97.58"/>
<polygon fill="midnightblue" stroke="midnightblue" points="1391.5,-124.4 1395,-134.4 1398.5,-124.4 1391.5,-124.4"/>
</g>
</g>
</svg>
