<?xml version="1.0" encoding="UTF-8" standalone="no"?>
<!DOCTYPE svg PUBLIC "-//W3C//DTD SVG 1.1//EN"
 "http://www.w3.org/Graphics/SVG/1.1/DTD/svg11.dtd">
<!-- Generated by graphviz version 3.0.0 (20220413.0242)
 -->
<!-- Title: iop/kernel/include/defs.h Pages: 1 -->
<!--zoomable 106 -->
<svg id="main" version="1.1" xmlns="http://www.w3.org/2000/svg" xmlns:xlink="http://www.w3.org/1999/xlink" xml:space="preserve" onload="init(evt)">
<style type="text/css"><![CDATA[
.edge:hover path { stroke: red; }
.edge:hover polygon { stroke: red; fill: red; }
]]></style>
<script type="text/javascript"><![CDATA[
var edges = document.getElementsByTagName('g');
if (edges && edges.length) {
  for (var i=0;i<edges.length;i++) {
    if (edges[i].id.substr(0,4)=='edge') {
      edges[i].setAttribute('class','edge');
    }
  }
}
]]></script>
        <defs>
                <circle id="rim" cx="0" cy="0" r="7"/>
                <circle id="rim2" cx="0" cy="0" r="3.5"/>
                <g id="zoomPlus">
                        <use xlink:href="#rim" fill="#404040">
                                <set attributeName="fill" to="#808080" begin="zoomplus.mouseover" end="zoomplus.mouseout"/>
                        </use>
                        <path d="M-4,0h8M0,-4v8" fill="none" stroke="white" stroke-width="1.5" pointer-events="none"/>
                </g>
                <g id="zoomMin">
                        <use xlink:href="#rim" fill="#404040">
                                <set attributeName="fill" to="#808080" begin="zoomminus.mouseover" end="zoomminus.mouseout"/>
                        </use>
                        <path d="M-4,0h8" fill="none" stroke="white" stroke-width="1.5" pointer-events="none"/>
                </g>
                <g id="dirArrow">
                        <path fill="none" stroke="white" stroke-width="1.5" d="M0,-3.0v7 M-2.5,-0.5L0,-3.0L2.5,-0.5"/>
                </g>
               <g id="resetDef">
                       <use xlink:href="#rim2" fill="#404040">
                               <set attributeName="fill" to="#808080" begin="reset.mouseover" end="reset.mouseout"/>
                       </use>
               </g>
        </defs>

<script type="text/javascript">
var viewWidth = 4167;
var viewHeight = 106;
var sectionId = 'dynsection-1';
</script>
<script xlink:href="svgpan.js"/>
<svg id="graph" class="graph">
<g id="viewport">
<title>iop/kernel/include/defs.h</title>
<polygon fill="white" stroke="transparent" points="-4,4 -4,-102 4163,-102 4163,4 -4,4"/>
<!-- Node1 -->
<g id="node1" class="node">
<title>Node1</title>
<g id="a_node1"><a xlink:title=" ">
<polygon fill="#bfbfbf" stroke="black" points="2033.5,-67.5 2033.5,-97.5 2125.5,-97.5 2125.5,-67.5 2033.5,-67.5"/>
<text text-anchor="start" x="2041.5" y="-85.5" font-family="Helvetica,sans-Serif" font-size="10.00">iop/kernel/include</text>
<text text-anchor="middle" x="2079.5" y="-74.5" font-family="Helvetica,sans-Serif" font-size="10.00">/defs.h</text>
</a>
</g>
</g>
<!-- Node2 -->
<g id="node2" class="node">
<title>Node2</title>
<g id="a_node2"><a xlink:href="ioptrap_8c.html" target="_top" xlink:title=" ">
<polygon fill="white" stroke="black" points="0,-0.5 0,-30.5 107,-30.5 107,-0.5 0,-0.5"/>
<text text-anchor="start" x="8" y="-18.5" font-family="Helvetica,sans-Serif" font-size="10.00">iop/debug/ioptrap/src</text>
<text text-anchor="middle" x="53.5" y="-7.5" font-family="Helvetica,sans-Serif" font-size="10.00">/ioptrap.c</text>
</a>
</g>
</g>
<!-- Node1&#45;&gt;Node2 -->
<g id="edge1" class="edge">
<title>Node1&#45;&gt;Node2</title>
<path fill="none" stroke="midnightblue" d="M2022.89,-81.57C1742.38,-81.71 499.67,-79.52 116.5,-31 113.49,-30.62 110.42,-30.16 107.33,-29.64"/>
<polygon fill="midnightblue" stroke="midnightblue" points="2023.23,-85.07 2033.23,-81.57 2023.23,-78.07 2023.23,-85.07"/>
</g>
<!-- Node3 -->
<g id="node3" class="node">
<title>Node3</title>
<g id="a_node3"><a xlink:href="sior_8c_source.html" target="_top" xlink:title=" ">
<polygon fill="white" stroke="black" points="125.5,-0.5 125.5,-30.5 219.5,-30.5 219.5,-0.5 125.5,-0.5"/>
<text text-anchor="start" x="133.5" y="-18.5" font-family="Helvetica,sans-Serif" font-size="10.00">iop/debug/sior/src</text>
<text text-anchor="middle" x="172.5" y="-7.5" font-family="Helvetica,sans-Serif" font-size="10.00">/sior.c</text>
</a>
</g>
</g>
<!-- Node1&#45;&gt;Node3 -->
<g id="edge2" class="edge">
<title>Node1&#45;&gt;Node3</title>
<path fill="none" stroke="midnightblue" d="M2023.07,-81.68C1752.65,-82.26 587.77,-81.75 228.5,-31 225.62,-30.59 222.67,-30.09 219.7,-29.52"/>
<polygon fill="midnightblue" stroke="midnightblue" points="2023.43,-85.18 2033.42,-81.65 2023.41,-78.18 2023.43,-85.18"/>
</g>
<!-- Node4 -->
<g id="node4" class="node">
<title>Node4</title>
<g id="a_node4"><a xlink:href="ps2atad_8c.html" target="_top" xlink:title=" ">
<polygon fill="white" stroke="black" points="238,-6 238,-25 375,-25 375,-6 238,-6"/>
<text text-anchor="middle" x="306.5" y="-13" font-family="Helvetica,sans-Serif" font-size="10.00">iop/dev9/atad/src/ps2atad.c</text>
</a>
</g>
</g>
<!-- Node1&#45;&gt;Node4 -->
<g id="edge3" class="edge">
<title>Node1&#45;&gt;Node4</title>
<path fill="none" stroke="midnightblue" d="M2022.92,-81C1766.5,-78.58 711.89,-66.59 383.5,-31 371.06,-29.65 357.61,-27.4 345.5,-25.07"/>
<polygon fill="midnightblue" stroke="midnightblue" points="2023.08,-84.51 2033.12,-81.1 2023.15,-77.51 2023.08,-84.51"/>
</g>
<!-- Node5 -->
<g id="node5" class="node">
<title>Node5</title>
<g id="a_node5"><a xlink:href="ps2dev9_8c.html" target="_top" xlink:title=" ">
<polygon fill="white" stroke="black" points="393,-6 393,-25 534,-25 534,-6 393,-6"/>
<text text-anchor="middle" x="463.5" y="-13" font-family="Helvetica,sans-Serif" font-size="10.00">iop/dev9/dev9/src/ps2dev9.c</text>
</a>
</g>
</g>
<!-- Node1&#45;&gt;Node5 -->
<g id="edge4" class="edge">
<title>Node1&#45;&gt;Node5</title>
<path fill="none" stroke="midnightblue" d="M2022.85,-80.75C1781.61,-77.38 838.75,-62.44 543.5,-31 530.59,-29.62 516.62,-27.37 504.03,-25.04"/>
<polygon fill="midnightblue" stroke="midnightblue" points="2023.1,-84.25 2033.14,-80.89 2023.19,-77.25 2023.1,-84.25"/>
</g>
<!-- Node6 -->
<g id="node6" class="node">
<title>Node6</title>
<g id="a_node6"><a xlink:href="extflash_8c_source.html" target="_top" xlink:title=" ">
<polygon fill="white" stroke="black" points="552.5,-0.5 552.5,-30.5 658.5,-30.5 658.5,-0.5 552.5,-0.5"/>
<text text-anchor="start" x="560.5" y="-18.5" font-family="Helvetica,sans-Serif" font-size="10.00">iop/dev9/extflash/src</text>
<text text-anchor="middle" x="605.5" y="-7.5" font-family="Helvetica,sans-Serif" font-size="10.00">/extflash.c</text>
</a>
</g>
</g>
<!-- Node1&#45;&gt;Node6 -->
<g id="edge5" class="edge">
<title>Node1&#45;&gt;Node6</title>
<path fill="none" stroke="midnightblue" d="M2023.3,-80.95C1795.01,-78.47 936.44,-66.91 667.5,-31 664.65,-30.62 661.74,-30.17 658.81,-29.66"/>
<polygon fill="midnightblue" stroke="midnightblue" points="2023.34,-84.45 2033.38,-81.05 2023.41,-77.45 2023.34,-84.45"/>
</g>
<!-- Node7 -->
<g id="node7" class="node">
<title>Node7</title>
<g id="a_node7"><a xlink:href="hdproatad_8c_source.html" target="_top" xlink:title=" ">
<polygon fill="white" stroke="black" points="676.5,-0.5 676.5,-30.5 780.5,-30.5 780.5,-0.5 676.5,-0.5"/>
<text text-anchor="start" x="684.5" y="-18.5" font-family="Helvetica,sans-Serif" font-size="10.00">iop/dev9/hdpro_atad</text>
<text text-anchor="middle" x="728.5" y="-7.5" font-family="Helvetica,sans-Serif" font-size="10.00">/src/hdproatad.c</text>
</a>
</g>
</g>
<!-- Node1&#45;&gt;Node7 -->
<g id="edge6" class="edge">
<title>Node1&#45;&gt;Node7</title>
<path fill="none" stroke="midnightblue" d="M2023.26,-80.75C1807.58,-77.66 1033.24,-64.42 789.5,-31 786.59,-30.6 783.61,-30.12 780.62,-29.59"/>
<polygon fill="midnightblue" stroke="midnightblue" points="2023.35,-84.25 2033.4,-80.9 2023.45,-77.25 2023.35,-84.25"/>
</g>
<!-- Node8 -->
<g id="node8" class="node">
<title>Node8</title>
<g id="a_node8"><a xlink:href="iop_2dev9_2poweroff_2src_2poweroff_8c_source.html" target="_top" xlink:title=" ">
<polygon fill="white" stroke="black" points="798.5,-0.5 798.5,-30.5 908.5,-30.5 908.5,-0.5 798.5,-0.5"/>
<text text-anchor="start" x="806.5" y="-18.5" font-family="Helvetica,sans-Serif" font-size="10.00">iop/dev9/poweroff/src</text>
<text text-anchor="middle" x="853.5" y="-7.5" font-family="Helvetica,sans-Serif" font-size="10.00">/poweroff.c</text>
</a>
</g>
</g>
<!-- Node1&#45;&gt;Node8 -->
<g id="edge7" class="edge">
<title>Node1&#45;&gt;Node8</title>
<path fill="none" stroke="midnightblue" d="M2023.24,-80.39C1821.54,-76.21 1135.12,-60.14 917.5,-31 914.56,-30.61 911.56,-30.14 908.54,-29.63"/>
<polygon fill="midnightblue" stroke="midnightblue" points="2023.25,-83.89 2033.32,-80.6 2023.39,-76.9 2023.25,-83.89"/>
</g>
<!-- Node9 -->
<g id="node9" class="node">
<title>Node9</title>
<g id="a_node9"><a xlink:href="devfs_8c.html" target="_top" xlink:title=" ">
<polygon fill="white" stroke="black" points="927,-6 927,-25 1046,-25 1046,-6 927,-6"/>
<text text-anchor="middle" x="986.5" y="-13" font-family="Helvetica,sans-Serif" font-size="10.00">iop/fs/devfs/src/devfs.c</text>
</a>
</g>
</g>
<!-- Node1&#45;&gt;Node9 -->
<g id="edge8" class="edge">
<title>Node1&#45;&gt;Node9</title>
<path fill="none" stroke="midnightblue" d="M2023.05,-81.89C1867.79,-82.3 1421.49,-78.85 1054.5,-31 1043.61,-29.58 1031.87,-27.34 1021.26,-25.04"/>
<polygon fill="midnightblue" stroke="midnightblue" points="2023.3,-85.39 2033.29,-81.86 2023.28,-78.39 2023.3,-85.39"/>
</g>
<!-- Node10 -->
<g id="node10" class="node">
<title>Node10</title>
<g id="a_node10"><a xlink:href="devscan_8c.html" target="_top" xlink:title=" ">
<polygon fill="white" stroke="black" points="1064,-6 1064,-25 1193,-25 1193,-6 1064,-6"/>
<text text-anchor="middle" x="1128.5" y="-13" font-family="Helvetica,sans-Serif" font-size="10.00">iop/fs/netfs/src/devscan.c</text>
</a>
</g>
</g>
<!-- Node1&#45;&gt;Node10 -->
<g id="edge9" class="edge">
<title>Node1&#45;&gt;Node10</title>
<path fill="none" stroke="midnightblue" d="M2023.07,-80.96C1883.29,-79.04 1509.95,-70.31 1201.5,-31 1189.96,-29.53 1177.52,-27.3 1166.23,-25.03"/>
<polygon fill="midnightblue" stroke="midnightblue" points="2023.08,-84.46 2033.12,-81.09 2023.17,-77.46 2023.08,-84.46"/>
</g>
<!-- Node11 -->
<g id="node11" class="node">
<title>Node11</title>
<g id="a_node11"><a xlink:href="ps2__fio_8c.html" target="_top" xlink:title=" ">
<polygon fill="white" stroke="black" points="1211,-0.5 1211,-30.5 1312,-30.5 1312,-0.5 1211,-0.5"/>
<text text-anchor="start" x="1219" y="-18.5" font-family="Helvetica,sans-Serif" font-size="10.00">iop/fs/netfs/src/ps2</text>
<text text-anchor="middle" x="1261.5" y="-7.5" font-family="Helvetica,sans-Serif" font-size="10.00">_fio.c</text>
</a>
</g>
</g>
<!-- Node1&#45;&gt;Node11 -->
<g id="edge10" class="edge">
<title>Node1&#45;&gt;Node11</title>
<path fill="none" stroke="midnightblue" d="M2023.3,-81.03C1897.08,-79.25 1581.77,-70.82 1321.5,-31 1318.43,-30.53 1315.28,-29.98 1312.12,-29.38"/>
<polygon fill="midnightblue" stroke="midnightblue" points="2023.45,-84.53 2033.49,-81.16 2023.54,-77.53 2023.45,-84.53"/>
</g>
<!-- Node12 -->
<g id="node12" class="node">
<title>Node12</title>
<g id="a_node12"><a xlink:href="ps2netfs_8c.html" target="_top" xlink:title=" ">
<polygon fill="white" stroke="black" points="1330.5,-6 1330.5,-25 1460.5,-25 1460.5,-6 1330.5,-6"/>
<text text-anchor="middle" x="1395.5" y="-13" font-family="Helvetica,sans-Serif" font-size="10.00">iop/fs/netfs/src/ps2netfs.c</text>
</a>
</g>
</g>
<!-- Node1&#45;&gt;Node12 -->
<g id="edge11" class="edge">
<title>Node1&#45;&gt;Node12</title>
<path fill="none" stroke="midnightblue" d="M2023.4,-78.94C1915.64,-73.56 1672.41,-59.19 1469.5,-31 1458.22,-29.43 1446.06,-27.26 1434.92,-25.07"/>
<polygon fill="midnightblue" stroke="midnightblue" points="2023.23,-82.44 2033.39,-79.43 2023.58,-75.44 2023.23,-82.44"/>
</g>
<!-- Node13 -->
<g id="node13" class="node">
<title>Node13</title>
<g id="a_node13"><a xlink:href="xpadman_8h.html" target="_top" xlink:title=" ">
<polygon fill="white" stroke="black" points="1478.5,-0.5 1478.5,-30.5 1570.5,-30.5 1570.5,-0.5 1478.5,-0.5"/>
<text text-anchor="start" x="1486.5" y="-18.5" font-family="Helvetica,sans-Serif" font-size="10.00">iop/kernel/include</text>
<text text-anchor="middle" x="1524.5" y="-7.5" font-family="Helvetica,sans-Serif" font-size="10.00">/xpadman.h</text>
</a>
</g>
</g>
<!-- Node1&#45;&gt;Node13 -->
<g id="edge12" class="edge">
<title>Node1&#45;&gt;Node13</title>
<path fill="none" stroke="midnightblue" d="M2023.29,-78.71C1930.33,-73.45 1739,-59.89 1579.5,-31 1576.58,-30.47 1573.6,-29.87 1570.6,-29.21"/>
<polygon fill="midnightblue" stroke="midnightblue" points="2023.14,-82.21 2033.32,-79.26 2023.53,-75.22 2023.14,-82.21"/>
</g>
<!-- Node14 -->
<g id="node14" class="node">
<title>Node14</title>
<g id="a_node14"><a xlink:href="auth_8c_source.html" target="_top" xlink:title=" ">
<polygon fill="white" stroke="black" points="1589,-0.5 1589,-30.5 1696,-30.5 1696,-0.5 1589,-0.5"/>
<text text-anchor="start" x="1597" y="-18.5" font-family="Helvetica,sans-Serif" font-size="10.00">iop/network/smbman</text>
<text text-anchor="middle" x="1642.5" y="-7.5" font-family="Helvetica,sans-Serif" font-size="10.00">/src/auth.c</text>
</a>
</g>
</g>
<!-- Node1&#45;&gt;Node14 -->
<g id="edge13" class="edge">
<title>Node1&#45;&gt;Node14</title>
<path fill="none" stroke="midnightblue" d="M2023.41,-75.65C1949.86,-67.58 1816.96,-51.67 1704.5,-31 1701.78,-30.5 1699,-29.96 1696.2,-29.39"/>
<polygon fill="midnightblue" stroke="midnightblue" points="2023.06,-79.13 2033.38,-76.73 2023.82,-72.17 2023.06,-79.13"/>
</g>
<!-- Node15 -->
<g id="node15" class="node">
<title>Node15</title>
<g id="a_node15"><a xlink:href="md4_8c_source.html" target="_top" xlink:title=" ">
<polygon fill="white" stroke="black" points="1714,-0.5 1714,-30.5 1821,-30.5 1821,-0.5 1714,-0.5"/>
<text text-anchor="start" x="1722" y="-18.5" font-family="Helvetica,sans-Serif" font-size="10.00">iop/network/smbman</text>
<text text-anchor="middle" x="1767.5" y="-7.5" font-family="Helvetica,sans-Serif" font-size="10.00">/src/md4.c</text>
</a>
</g>
</g>
<!-- Node1&#45;&gt;Node15 -->
<g id="edge14" class="edge">
<title>Node1&#45;&gt;Node15</title>
<path fill="none" stroke="midnightblue" d="M2023.23,-70.64C1972.49,-60.73 1895.88,-45.46 1829.5,-31 1826.8,-30.41 1824.04,-29.8 1821.25,-29.18"/>
<polygon fill="midnightblue" stroke="midnightblue" points="2022.85,-74.13 2033.33,-72.61 2024.19,-67.26 2022.85,-74.13"/>
</g>
<!-- Node16 -->
<g id="node16" class="node">
<title>Node16</title>
<g id="a_node16"><a xlink:href="poll_8c_source.html" target="_top" xlink:title=" ">
<polygon fill="white" stroke="black" points="1839,-0.5 1839,-30.5 1946,-30.5 1946,-0.5 1839,-0.5"/>
<text text-anchor="start" x="1847" y="-18.5" font-family="Helvetica,sans-Serif" font-size="10.00">iop/network/smbman</text>
<text text-anchor="middle" x="1892.5" y="-7.5" font-family="Helvetica,sans-Serif" font-size="10.00">/src/poll.c</text>
</a>
</g>
</g>
<!-- Node1&#45;&gt;Node16 -->
<g id="edge15" class="edge">
<title>Node1&#45;&gt;Node16</title>
<path fill="none" stroke="midnightblue" d="M2029.42,-64.09C1999.23,-53.6 1961.28,-40.41 1933,-30.58"/>
<polygon fill="midnightblue" stroke="midnightblue" points="2028.33,-67.42 2038.92,-67.4 2030.63,-60.81 2028.33,-67.42"/>
</g>
<!-- Node17 -->
<g id="node17" class="node">
<title>Node17</title>
<g id="a_node17"><a xlink:href="smb__fio_8c_source.html" target="_top" xlink:title=" ">
<polygon fill="white" stroke="black" points="1964,-0.5 1964,-30.5 2071,-30.5 2071,-0.5 1964,-0.5"/>
<text text-anchor="start" x="1972" y="-18.5" font-family="Helvetica,sans-Serif" font-size="10.00">iop/network/smbman</text>
<text text-anchor="middle" x="2017.5" y="-7.5" font-family="Helvetica,sans-Serif" font-size="10.00">/src/smb_fio.c</text>
</a>
</g>
</g>
<!-- Node1&#45;&gt;Node17 -->
<g id="edge16" class="edge">
<title>Node1&#45;&gt;Node17</title>
<path fill="none" stroke="midnightblue" d="M2059.02,-60.02C2049.78,-50.34 2039.13,-39.17 2030.93,-30.58"/>
<polygon fill="midnightblue" stroke="midnightblue" points="2056.61,-62.58 2066.05,-67.4 2061.68,-57.74 2056.61,-62.58"/>
</g>
<!-- Node18 -->
<g id="node18" class="node">
<title>Node18</title>
<g id="a_node18"><a xlink:href="smbman_8c_source.html" target="_top" xlink:title=" ">
<polygon fill="white" stroke="black" points="2089,-0.5 2089,-30.5 2196,-30.5 2196,-0.5 2089,-0.5"/>
<text text-anchor="start" x="2097" y="-18.5" font-family="Helvetica,sans-Serif" font-size="10.00">iop/network/smbman</text>
<text text-anchor="middle" x="2142.5" y="-7.5" font-family="Helvetica,sans-Serif" font-size="10.00">/src/smbman.c</text>
</a>
</g>
</g>
<!-- Node1&#45;&gt;Node18 -->
<g id="edge17" class="edge">
<title>Node1&#45;&gt;Node18</title>
<path fill="none" stroke="midnightblue" d="M2100.31,-60.02C2109.7,-50.34 2120.52,-39.17 2128.86,-30.58"/>
<polygon fill="midnightblue" stroke="midnightblue" points="2097.62,-57.78 2093.17,-67.4 2102.64,-62.65 2097.62,-57.78"/>
</g>
<!-- Node19 -->
<g id="node19" class="node">
<title>Node19</title>
<g id="a_node19"><a xlink:href="alloc_8c.html" target="_top" xlink:title=" ">
<polygon fill="white" stroke="black" points="2214.5,-0.5 2214.5,-30.5 2318.5,-30.5 2318.5,-0.5 2214.5,-0.5"/>
<text text-anchor="start" x="2222.5" y="-18.5" font-family="Helvetica,sans-Serif" font-size="10.00">iop/system/alloc/src</text>
<text text-anchor="middle" x="2266.5" y="-7.5" font-family="Helvetica,sans-Serif" font-size="10.00">/alloc.c</text>
</a>
</g>
</g>
<!-- Node1&#45;&gt;Node19 -->
<g id="edge18" class="edge">
<title>Node1&#45;&gt;Node19</title>
<path fill="none" stroke="midnightblue" d="M2129.58,-64.09C2159.77,-53.6 2197.72,-40.41 2226,-30.58"/>
<polygon fill="midnightblue" stroke="midnightblue" points="2128.37,-60.81 2120.08,-67.4 2130.67,-67.42 2128.37,-60.81"/>
</g>
<!-- Node20 -->
<g id="node20" class="node">
<title>Node20</title>
<g id="a_node20"><a xlink:href="ioman_x_8c.html" target="_top" xlink:title=" ">
<polygon fill="white" stroke="black" points="2336.5,-0.5 2336.5,-30.5 2450.5,-30.5 2450.5,-0.5 2336.5,-0.5"/>
<text text-anchor="start" x="2344.5" y="-18.5" font-family="Helvetica,sans-Serif" font-size="10.00">iop/system/iomanx/src</text>
<text text-anchor="middle" x="2393.5" y="-7.5" font-family="Helvetica,sans-Serif" font-size="10.00">/iomanX.c</text>
</a>
</g>
</g>
<!-- Node1&#45;&gt;Node20 -->
<g id="edge19" class="edge">
<title>Node1&#45;&gt;Node20</title>
<path fill="none" stroke="midnightblue" d="M2135.73,-70.31C2186.03,-60.23 2261.75,-44.92 2327.5,-31 2330.37,-30.39 2333.31,-29.77 2336.27,-29.13"/>
<polygon fill="midnightblue" stroke="midnightblue" points="2134.83,-66.92 2125.71,-72.31 2136.2,-73.78 2134.83,-66.92"/>
</g>
<!-- Node21 -->
<g id="node21" class="node">
<title>Node21</title>
<g id="a_node21"><a xlink:href="ioman__sbv_8c.html" target="_top" xlink:title=" ">
<polygon fill="white" stroke="black" points="2468.5,-0.5 2468.5,-30.5 2582.5,-30.5 2582.5,-0.5 2468.5,-0.5"/>
<text text-anchor="start" x="2476.5" y="-18.5" font-family="Helvetica,sans-Serif" font-size="10.00">iop/system/iomanx/src</text>
<text text-anchor="middle" x="2525.5" y="-7.5" font-family="Helvetica,sans-Serif" font-size="10.00">/ioman_sbv.c</text>
</a>
</g>
</g>
<!-- Node1&#45;&gt;Node21 -->
<g id="edge20" class="edge">
<title>Node1&#45;&gt;Node21</title>
<path fill="none" stroke="midnightblue" d="M2135.69,-75.53C2210.05,-67.29 2345.1,-51.13 2459.5,-31 2462.39,-30.49 2465.34,-29.94 2468.32,-29.37"/>
<polygon fill="midnightblue" stroke="midnightblue" points="2135.17,-72.07 2125.61,-76.64 2135.93,-79.02 2135.17,-72.07"/>
</g>
<!-- Node22 -->
<g id="node22" class="node">
<title>Node22</title>
<g id="a_node22"><a xlink:href="commandline_8c.html" target="_top" xlink:title=" ">
<polygon fill="white" stroke="black" points="2601,-0.5 2601,-30.5 2714,-30.5 2714,-0.5 2601,-0.5"/>
<text text-anchor="start" x="2609" y="-18.5" font-family="Helvetica,sans-Serif" font-size="10.00">iop/system/iopmgr/src</text>
<text text-anchor="middle" x="2657.5" y="-7.5" font-family="Helvetica,sans-Serif" font-size="10.00">/commandline.c</text>
</a>
</g>
</g>
<!-- Node1&#45;&gt;Node22 -->
<g id="edge21" class="edge">
<title>Node1&#45;&gt;Node22</title>
<path fill="none" stroke="midnightblue" d="M2135.83,-78.13C2230.41,-71.97 2426.97,-57.09 2591.5,-31 2594.51,-30.52 2597.59,-29.99 2600.7,-29.42"/>
<polygon fill="midnightblue" stroke="midnightblue" points="2135.38,-74.65 2125.63,-78.78 2135.83,-81.63 2135.38,-74.65"/>
</g>
<!-- Node23 -->
<g id="node23" class="node">
<title>Node23</title>
<g id="a_node23"><a xlink:href="devices_8c.html" target="_top" xlink:title=" ">
<polygon fill="white" stroke="black" points="2732,-0.5 2732,-30.5 2845,-30.5 2845,-0.5 2732,-0.5"/>
<text text-anchor="start" x="2740" y="-18.5" font-family="Helvetica,sans-Serif" font-size="10.00">iop/system/iopmgr/src</text>
<text text-anchor="middle" x="2788.5" y="-7.5" font-family="Helvetica,sans-Serif" font-size="10.00">/devices.c</text>
</a>
</g>
</g>
<!-- Node1&#45;&gt;Node23 -->
<g id="edge22" class="edge">
<title>Node1&#45;&gt;Node23</title>
<path fill="none" stroke="midnightblue" d="M2135.92,-79.75C2248.3,-75.69 2507.86,-63.34 2723.5,-31 2726.24,-30.59 2729.05,-30.13 2731.87,-29.63"/>
<polygon fill="midnightblue" stroke="midnightblue" points="2135.7,-76.26 2125.83,-80.11 2135.94,-83.26 2135.7,-76.26"/>
</g>
<!-- Node24 -->
<g id="node24" class="node">
<title>Node24</title>
<g id="a_node24"><a xlink:href="iop_2system_2iopmgr_2src_2main_8c.html" target="_top" xlink:title=" ">
<polygon fill="white" stroke="black" points="2863,-0.5 2863,-30.5 2976,-30.5 2976,-0.5 2863,-0.5"/>
<text text-anchor="start" x="2871" y="-18.5" font-family="Helvetica,sans-Serif" font-size="10.00">iop/system/iopmgr/src</text>
<text text-anchor="middle" x="2919.5" y="-7.5" font-family="Helvetica,sans-Serif" font-size="10.00">/main.c</text>
</a>
</g>
</g>
<!-- Node1&#45;&gt;Node24 -->
<g id="edge23" class="edge">
<title>Node1&#45;&gt;Node24</title>
<path fill="none" stroke="midnightblue" d="M2135.97,-80.8C2264.29,-78.56 2587.39,-69.26 2854.5,-31 2857.25,-30.61 2860.05,-30.16 2862.87,-29.67"/>
<polygon fill="midnightblue" stroke="midnightblue" points="2135.56,-77.31 2125.62,-80.97 2135.67,-84.31 2135.56,-77.31"/>
</g>
<!-- Node25 -->
<g id="node25" class="node">
<title>Node25</title>
<g id="a_node25"><a xlink:href="iop_2system_2iopmgr_2src_2slib_8c.html" target="_top" xlink:title=" ">
<polygon fill="white" stroke="black" points="2994,-0.5 2994,-30.5 3107,-30.5 3107,-0.5 2994,-0.5"/>
<text text-anchor="start" x="3002" y="-18.5" font-family="Helvetica,sans-Serif" font-size="10.00">iop/system/iopmgr/src</text>
<text text-anchor="middle" x="3050.5" y="-7.5" font-family="Helvetica,sans-Serif" font-size="10.00">/slib.c</text>
</a>
</g>
</g>
<!-- Node1&#45;&gt;Node25 -->
<g id="edge24" class="edge">
<title>Node1&#45;&gt;Node25</title>
<path fill="none" stroke="midnightblue" d="M2136.24,-81.55C2279.4,-81 2666.56,-75.16 2985.5,-31 2988.25,-30.62 2991.05,-30.18 2993.88,-29.7"/>
<polygon fill="midnightblue" stroke="midnightblue" points="2135.95,-78.06 2125.96,-81.59 2135.97,-85.06 2135.95,-78.06"/>
</g>
<!-- Node26 -->
<g id="node26" class="node">
<title>Node26</title>
<g id="a_node26"><a xlink:href="iop_2system_2iopmgr_2src_2smod_8c.html" target="_top" xlink:title=" ">
<polygon fill="white" stroke="black" points="3125,-0.5 3125,-30.5 3238,-30.5 3238,-0.5 3125,-0.5"/>
<text text-anchor="start" x="3133" y="-18.5" font-family="Helvetica,sans-Serif" font-size="10.00">iop/system/iopmgr/src</text>
<text text-anchor="middle" x="3181.5" y="-7.5" font-family="Helvetica,sans-Serif" font-size="10.00">/smod.c</text>
</a>
</g>
</g>
<!-- Node1&#45;&gt;Node26 -->
<g id="edge25" class="edge">
<title>Node1&#45;&gt;Node26</title>
<path fill="none" stroke="midnightblue" d="M2136.08,-82.13C2292.71,-83.13 2745,-81.11 3116.5,-31 3119.25,-30.63 3122.06,-30.2 3124.88,-29.73"/>
<polygon fill="midnightblue" stroke="midnightblue" points="2135.78,-78.62 2125.75,-82.05 2135.73,-85.62 2135.78,-78.62"/>
</g>
<!-- Node27 -->
<g id="node27" class="node">
<title>Node27</title>
<g id="a_node27"><a xlink:href="sbusintr_8c.html" target="_top" xlink:title=" ">
<polygon fill="white" stroke="black" points="3256,-0.5 3256,-30.5 3357,-30.5 3357,-0.5 3256,-0.5"/>
<text text-anchor="start" x="3264" y="-18.5" font-family="Helvetica,sans-Serif" font-size="10.00">iop/system/sbusintr</text>
<text text-anchor="middle" x="3306.5" y="-7.5" font-family="Helvetica,sans-Serif" font-size="10.00">/src/sbusintr.c</text>
</a>
</g>
</g>
<!-- Node1&#45;&gt;Node27 -->
<g id="edge26" class="edge">
<title>Node1&#45;&gt;Node27</title>
<path fill="none" stroke="midnightblue" d="M2135.72,-80.54C2338.09,-76.87 3028.91,-62.27 3247.5,-31 3250.21,-30.61 3252.99,-30.15 3255.78,-29.64"/>
<polygon fill="midnightblue" stroke="midnightblue" points="2135.55,-77.05 2125.62,-80.72 2135.68,-84.04 2135.55,-77.05"/>
</g>
<!-- Node28 -->
<g id="node28" class="node">
<title>Node28</title>
<g id="a_node28"><a xlink:href="pipe_8c.html" target="_top" xlink:title=" ">
<polygon fill="white" stroke="black" points="3375,-0.5 3375,-30.5 3482,-30.5 3482,-0.5 3375,-0.5"/>
<text text-anchor="start" x="3383" y="-18.5" font-family="Helvetica,sans-Serif" font-size="10.00">iop/system/siftoo/src</text>
<text text-anchor="middle" x="3428.5" y="-7.5" font-family="Helvetica,sans-Serif" font-size="10.00">/pipe.c</text>
</a>
</g>
</g>
<!-- Node1&#45;&gt;Node28 -->
<g id="edge27" class="edge">
<title>Node1&#45;&gt;Node28</title>
<path fill="none" stroke="midnightblue" d="M2135.97,-80.72C2351.64,-77.5 3123.41,-63.89 3366.5,-31 3369.24,-30.63 3372.03,-30.19 3374.85,-29.71"/>
<polygon fill="midnightblue" stroke="midnightblue" points="2135.77,-77.22 2125.83,-80.87 2135.88,-84.22 2135.77,-77.22"/>
</g>
<!-- Node29 -->
<g id="node29" class="node">
<title>Node29</title>
<g id="a_node29"><a xlink:href="siftoo_8c_source.html" target="_top" xlink:title=" ">
<polygon fill="white" stroke="black" points="3500,-0.5 3500,-30.5 3607,-30.5 3607,-0.5 3500,-0.5"/>
<text text-anchor="start" x="3508" y="-18.5" font-family="Helvetica,sans-Serif" font-size="10.00">iop/system/siftoo/src</text>
<text text-anchor="middle" x="3553.5" y="-7.5" font-family="Helvetica,sans-Serif" font-size="10.00">/siftoo.c</text>
</a>
</g>
</g>
<!-- Node1&#45;&gt;Node29 -->
<g id="edge28" class="edge">
<title>Node1&#45;&gt;Node29</title>
<path fill="none" stroke="midnightblue" d="M2135.7,-80.95C2363.99,-78.47 3222.56,-66.91 3491.5,-31 3494.24,-30.63 3497.03,-30.2 3499.85,-29.72"/>
<polygon fill="midnightblue" stroke="midnightblue" points="2135.59,-77.45 2125.62,-81.05 2135.66,-84.45 2135.59,-77.45"/>
</g>
<!-- Node30 -->
<g id="node30" class="node">
<title>Node30</title>
<g id="a_node30"><a xlink:href="sio2man_8c.html" target="_top" xlink:title=" ">
<polygon fill="white" stroke="black" points="3625.5,-0.5 3625.5,-30.5 3729.5,-30.5 3729.5,-0.5 3625.5,-0.5"/>
<text text-anchor="start" x="3633.5" y="-18.5" font-family="Helvetica,sans-Serif" font-size="10.00">iop/system/sio2man</text>
<text text-anchor="middle" x="3677.5" y="-7.5" font-family="Helvetica,sans-Serif" font-size="10.00">/src/sio2man.c</text>
</a>
</g>
</g>
<!-- Node1&#45;&gt;Node30 -->
<g id="edge29" class="edge">
<title>Node1&#45;&gt;Node30</title>
<path fill="none" stroke="midnightblue" d="M2135.83,-81.16C2376.79,-79.48 3321.86,-70.45 3616.5,-31 3619.41,-30.61 3622.39,-30.14 3625.39,-29.61"/>
<polygon fill="midnightblue" stroke="midnightblue" points="2135.53,-77.66 2125.56,-81.23 2135.58,-84.66 2135.53,-77.66"/>
</g>
<!-- Node31 -->
<g id="node31" class="node">
<title>Node31</title>
<g id="a_node31"><a xlink:href="driver_8c.html" target="_top" xlink:title=" ">
<polygon fill="white" stroke="black" points="3748,-6 3748,-25 3871,-25 3871,-6 3748,-6"/>
<text text-anchor="middle" x="3809.5" y="-13" font-family="Helvetica,sans-Serif" font-size="10.00">iop/usb/usbd/src/driver.c</text>
</a>
</g>
</g>
<!-- Node1&#45;&gt;Node31 -->
<g id="edge30" class="edge">
<title>Node1&#45;&gt;Node31</title>
<path fill="none" stroke="midnightblue" d="M2135.69,-81.08C2388,-79 3417.91,-68.34 3738.5,-31 3750.12,-29.65 3762.67,-27.36 3773.94,-25"/>
<polygon fill="midnightblue" stroke="midnightblue" points="2135.62,-77.58 2125.65,-81.16 2135.68,-84.58 2135.62,-77.58"/>
</g>
<!-- Node32 -->
<g id="node32" class="node">
<title>Node32</title>
<g id="a_node32"><a xlink:href="hub_8c.html" target="_top" xlink:title=" ">
<polygon fill="white" stroke="black" points="3889,-6 3889,-25 4004,-25 4004,-6 3889,-6"/>
<text text-anchor="middle" x="3946.5" y="-13" font-family="Helvetica,sans-Serif" font-size="10.00">iop/usb/usbd/src/hub.c</text>
</a>
</g>
</g>
<!-- Node1&#45;&gt;Node32 -->
<g id="edge31" class="edge">
<title>Node1&#45;&gt;Node32</title>
<path fill="none" stroke="midnightblue" d="M2135.67,-81.35C2401.03,-80.42 3530.66,-73.95 3880.5,-31 3891.33,-29.67 3903,-27.39 3913.47,-25.03"/>
<polygon fill="midnightblue" stroke="midnightblue" points="2135.49,-77.85 2125.51,-81.38 2135.52,-84.85 2135.49,-77.85"/>
</g>
<!-- Node33 -->
<g id="node33" class="node">
<title>Node33</title>
<g id="a_node33"><a xlink:href="interface_8c.html" target="_top" xlink:title=" ">
<polygon fill="white" stroke="black" points="4022,-6 4022,-25 4159,-25 4159,-6 4022,-6"/>
<text text-anchor="middle" x="4090.5" y="-13" font-family="Helvetica,sans-Serif" font-size="10.00">iop/usb/usbd/src/interface.c</text>
</a>
</g>
</g>
<!-- Node1&#45;&gt;Node33 -->
<g id="edge32" class="edge">
<title>Node1&#45;&gt;Node33</title>
<path fill="none" stroke="midnightblue" d="M2136.15,-81.24C2414.1,-79.81 3635.53,-71.26 4013.5,-31 4026.08,-29.66 4039.68,-27.38 4051.9,-25.02"/>
<polygon fill="midnightblue" stroke="midnightblue" points="2135.88,-77.75 2125.9,-81.3 2135.91,-84.75 2135.88,-77.75"/>
</g>
</g>
</svg>
        <g id="navigator" transform="translate(0 0)" fill="#404254">
                <rect fill="#f2f5e9" fill-opacity="0.5" stroke="#606060" stroke-width=".5" x="0" y="0" width="60" height="60"/>
                <use id="zoomplus" xlink:href="#zoomPlus" x="17" y="9" onmousedown="handleZoom(evt,'in')"/>
                <use id="zoomminus" xlink:href="#zoomMin" x="42" y="9" onmousedown="handleZoom(evt,'out')"/>
                <use id="reset" xlink:href="#resetDef" x="30" y="36" onmousedown="handleReset()"/>
                <g id="arrowUp" xlink:href="#dirArrow" transform="translate(30 24)" onmousedown="handlePan(0,-1)">
                  <use xlink:href="#rim" fill="#404040">
                        <set attributeName="fill" to="#808080" begin="arrowUp.mouseover" end="arrowUp.mouseout"/>
                  </use>
                  <path fill="none" stroke="white" stroke-width="1.5" d="M0,-3.0v7 M-2.5,-0.5L0,-3.0L2.5,-0.5"/>
                </g>
                <g id="arrowRight" xlink:href="#dirArrow" transform="rotate(90) translate(36 -43)" onmousedown="handlePan(1,0)">
                  <use xlink:href="#rim" fill="#404040">
                        <set attributeName="fill" to="#808080" begin="arrowRight.mouseover" end="arrowRight.mouseout"/>
                  </use>
                  <path fill="none" stroke="white" stroke-width="1.5" d="M0,-3.0v7 M-2.5,-0.5L0,-3.0L2.5,-0.5"/>
                </g>
                <g id="arrowDown" xlink:href="#dirArrow" transform="rotate(180) translate(-30 -48)" onmousedown="handlePan(0,1)">
                  <use xlink:href="#rim" fill="#404040">
                        <set attributeName="fill" to="#808080" begin="arrowDown.mouseover" end="arrowDown.mouseout"/>
                  </use>
                  <path fill="none" stroke="white" stroke-width="1.5" d="M0,-3.0v7 M-2.5,-0.5L0,-3.0L2.5,-0.5"/>
                </g>
                <g id="arrowLeft" xlink:href="#dirArrow" transform="rotate(270) translate(-36 17)" onmousedown="handlePan(-1,0)">
                  <use xlink:href="#rim" fill="#404040">
                        <set attributeName="fill" to="#808080" begin="arrowLeft.mouseover" end="arrowLeft.mouseout"/>
                  </use>
                  <path fill="none" stroke="white" stroke-width="1.5" d="M0,-3.0v7 M-2.5,-0.5L0,-3.0L2.5,-0.5"/>
                </g>
        </g>
        <svg viewBox="0 0 15 15" width="100%" height="30px" preserveAspectRatio="xMaxYMin meet">
         <g id="arrow_out" transform="scale(0.3 0.3)">
          <a xlink:href="defs_8h__dep__incl_org.svg" target="_base">
           <rect id="button" ry="5" rx="5" y="6" x="6" height="38" width="38"
                fill="#f2f5e9" fill-opacity="0.5" stroke="#606060" stroke-width="1.0"/>
           <path id="arrow"
             d="M 11.500037,31.436501 C 11.940474,20.09759 22.043105,11.32322 32.158766,21.979434 L 37.068811,17.246167 C 37.068811,17.246167 37.088388,32 37.088388,32 L 22.160133,31.978069 C 22.160133,31.978069 26.997745,27.140456 26.997745,27.140456 C 18.528582,18.264221 13.291696,25.230495 11.500037,31.436501 z"
             style="fill:#404040;"/>
          </a>
         </g>
        </svg>
</svg>
