<?xml version="1.0" encoding="UTF-8" standalone="no"?>
<!DOCTYPE svg PUBLIC "-//W3C//DTD SVG 1.1//EN"
 "http://www.w3.org/Graphics/SVG/1.1/DTD/svg11.dtd">
<!-- Generated by graphviz version 3.0.0 (20220413.0242)
 -->
<!-- Title: iop/memorycard Pages: 1 -->
<svg width="252pt" height="247pt"
 viewBox="0.00 0.00 252.00 247.00" xmlns="http://www.w3.org/2000/svg" xmlns:xlink="http://www.w3.org/1999/xlink">
<g id="graph0" class="graph" transform="scale(1 1) rotate(0) translate(4 243)">
<title>iop/memorycard</title>
<polygon fill="white" stroke="transparent" points="-4,4 -4,-243 248,-243 248,4 -4,4"/>
<g id="clust1" class="cluster">
<title>clusterdir_0981ace215aa2029f526b70c145b9fbe</title>
<g id="a_clust1"><a xlink:href="dir_0981ace215aa2029f526b70c145b9fbe.html" target="_top" xlink:title="iop">
<polygon fill="#deebf9" stroke="#404040" stroke-dasharray="5,2" points="8,-8 8,-231 182,-231 182,-8 8,-8"/>
<text text-anchor="middle" x="95" y="-219" font-family="Helvetica,sans-Serif" font-size="10.00">iop</text>
</a>
</g>
</g>
<g id="clust2" class="cluster">
<title>clusterdir_5805bfcfbe100e4767f47461b3e6402b</title>
<g id="a_clust2"><a xlink:href="dir_5805bfcfbe100e4767f47461b3e6402b.html" target="_top">
<polygon fill="#deebf9" stroke="#404040" stroke-width="2" points="16,-80 16,-204 174,-204 174,-80 16,-80"/>
</a>
</g>
</g>
<!-- dir_9be0baa3d4a3e9f480a9ee70594037fa -->
<g id="node1" class="node">
<title>dir_9be0baa3d4a3e9f480a9ee70594037fa</title>
<g id="a_node1"><a xlink:href="dir_9be0baa3d4a3e9f480a9ee70594037fa.html" target="_top" xlink:title="kernel">
<polygon fill="#60a2e3" stroke="red" points="101,-52 47,-52 47,-16 101,-16 101,-52"/>
<text text-anchor="middle" x="74" y="-31.5" font-family="Helvetica,sans-Serif" font-size="10.00">kernel</text>
</a>
</g>
</g>
<!-- dir_5805bfcfbe100e4767f47461b3e6402b -->
<g id="node2" class="node">
<title>dir_5805bfcfbe100e4767f47461b3e6402b</title>
<text text-anchor="middle" x="131" y="-175.5" font-family="Helvetica,sans-Serif" font-size="10.00">memorycard</text>
</g>
<!-- dir_ae48e1b29bfa2db4ecbd893188b24955 -->
<g id="node3" class="node">
<title>dir_ae48e1b29bfa2db4ecbd893188b24955</title>
<g id="a_node3"><a xlink:href="dir_ae48e1b29bfa2db4ecbd893188b24955.html" target="_top" xlink:title="mcman">
<polygon fill="#60a2e3" stroke="#404040" points="124,-124 70,-124 70,-88 124,-88 124,-124"/>
<text text-anchor="middle" x="97" y="-103.5" font-family="Helvetica,sans-Serif" font-size="10.00">mcman</text>
</a>
</g>
</g>
<!-- dir_ae48e1b29bfa2db4ecbd893188b24955&#45;&gt;dir_9be0baa3d4a3e9f480a9ee70594037fa -->
<g id="edge1" class="edge">
<title>dir_ae48e1b29bfa2db4ecbd893188b24955&#45;&gt;dir_9be0baa3d4a3e9f480a9ee70594037fa</title>
<path fill="none" stroke="black" d="M91.31,-87.7C88.75,-79.9 85.67,-70.51 82.82,-61.83"/>
<polygon fill="black" stroke="black" points="86.07,-60.51 79.62,-52.1 79.42,-62.7 86.07,-60.51"/>
<g id="a_edge1&#45;headlabel"><a xlink:href="dir_000174_000159.html" target="_top" xlink:title="26">
<text text-anchor="middle" x="89.89" y="-60.54" font-family="Helvetica,sans-Serif" font-size="10.00">26</text>
</a>
</g>
</g>
<!-- dir_bdd9a5d540de89e9fe90efdfc6973a4f -->
<g id="node5" class="node">
<title>dir_bdd9a5d540de89e9fe90efdfc6973a4f</title>
<g id="a_node5"><a xlink:href="dir_bdd9a5d540de89e9fe90efdfc6973a4f.html" target="_top" xlink:title="common">
<polygon fill="none" stroke="red" points="244,-52 190,-52 190,-16 244,-16 244,-52"/>
<text text-anchor="middle" x="217" y="-31.5" font-family="Helvetica,sans-Serif" font-size="10.00">common</text>
</a>
</g>
</g>
<!-- dir_ae48e1b29bfa2db4ecbd893188b24955&#45;&gt;dir_bdd9a5d540de89e9fe90efdfc6973a4f -->
<g id="edge2" class="edge">
<title>dir_ae48e1b29bfa2db4ecbd893188b24955&#45;&gt;dir_bdd9a5d540de89e9fe90efdfc6973a4f</title>
<path fill="none" stroke="black" d="M124.23,-89.12C141.11,-79.27 162.97,-66.52 181.24,-55.86"/>
<polygon fill="black" stroke="black" points="183,-58.88 189.88,-50.82 179.48,-52.84 183,-58.88"/>
<g id="a_edge2&#45;headlabel"><a xlink:href="dir_000174_000022.html" target="_top" xlink:title="3">
<text text-anchor="middle" x="181.33" y="-60.65" font-family="Helvetica,sans-Serif" font-size="10.00">3</text>
</a>
</g>
</g>
<!-- dir_841d05e6e469c6e67dc741c932691089 -->
<g id="node4" class="node">
<title>dir_841d05e6e469c6e67dc741c932691089</title>
<g id="a_node4"><a xlink:href="dir_841d05e6e469c6e67dc741c932691089.html" target="_top" xlink:title="mcserv">
<polygon fill="#60a2e3" stroke="#404040" points="78,-196 24,-196 24,-160 78,-160 78,-196"/>
<text text-anchor="middle" x="51" y="-175.5" font-family="Helvetica,sans-Serif" font-size="10.00">mcserv</text>
</a>
</g>
</g>
<!-- dir_841d05e6e469c6e67dc741c932691089&#45;&gt;dir_9be0baa3d4a3e9f480a9ee70594037fa -->
<g id="edge3" class="edge">
<title>dir_841d05e6e469c6e67dc741c932691089&#45;&gt;dir_9be0baa3d4a3e9f480a9ee70594037fa</title>
<path fill="none" stroke="black" d="M51.85,-159.69C53.03,-140.18 55.64,-107.59 61,-80 62.12,-74.21 63.66,-68.09 65.27,-62.3"/>
<polygon fill="black" stroke="black" points="68.73,-62.93 68.2,-52.35 62.02,-60.95 68.73,-62.93"/>
<g id="a_edge3&#45;headlabel"><a xlink:href="dir_000175_000159.html" target="_top" xlink:title="14">
<text text-anchor="middle" x="70.44" y="-64.68" font-family="Helvetica,sans-Serif" font-size="10.00">14</text>
</a>
</g>
</g>
<!-- dir_841d05e6e469c6e67dc741c932691089&#45;&gt;dir_ae48e1b29bfa2db4ecbd893188b24955 -->
<g id="edge4" class="edge">
<title>dir_841d05e6e469c6e67dc741c932691089&#45;&gt;dir_ae48e1b29bfa2db4ecbd893188b24955</title>
<path fill="none" stroke="black" d="M62.37,-159.7C67.72,-151.56 74.2,-141.69 80.11,-132.7"/>
<polygon fill="black" stroke="black" points="83.19,-134.38 85.76,-124.1 77.34,-130.54 83.19,-134.38"/>
<g id="a_edge4&#45;headlabel"><a xlink:href="dir_000175_000174.html" target="_top" xlink:title="1">
<text text-anchor="middle" x="83.59" y="-136.45" font-family="Helvetica,sans-Serif" font-size="10.00">1</text>
</a>
</g>
</g>
</g>
</svg>
