<?xml version="1.0" encoding="UTF-8" standalone="no"?>
<!DOCTYPE svg PUBLIC "-//W3C//DTD SVG 1.1//EN"
 "http://www.w3.org/Graphics/SVG/1.1/DTD/svg11.dtd">
<!-- Generated by graphviz version 3.0.0 (20220413.0242)
 -->
<!-- Title: iop/system Pages: 1 -->
<svg width="888pt" height="247pt"
 viewBox="0.00 0.00 888.00 247.00" xmlns="http://www.w3.org/2000/svg" xmlns:xlink="http://www.w3.org/1999/xlink">
<g id="graph0" class="graph" transform="scale(1 1) rotate(0) translate(4 243)">
<title>iop/system</title>
<polygon fill="white" stroke="transparent" points="-4,4 -4,-243 884,-243 884,4 -4,4"/>
<g id="clust1" class="cluster">
<title>clusterdir_0981ace215aa2029f526b70c145b9fbe</title>
<g id="a_clust1"><a xlink:href="dir_0981ace215aa2029f526b70c145b9fbe.html" target="_top" xlink:title="iop">
<polygon fill="#deebf9" stroke="#404040" stroke-dasharray="5,2" points="8,-8 8,-231 818,-231 818,-8 8,-8"/>
<text text-anchor="middle" x="413" y="-219" font-family="Helvetica,sans-Serif" font-size="10.00">iop</text>
</a>
</g>
</g>
<g id="clust2" class="cluster">
<title>clusterdir_40ac35421bc63b72c26b6c69b1517fd6</title>
<g id="a_clust2"><a xlink:href="dir_40ac35421bc63b72c26b6c69b1517fd6.html" target="_top">
<polygon fill="#deebf9" stroke="#404040" stroke-width="2" points="16,-80 16,-204 810,-204 810,-80 16,-80"/>
</a>
</g>
</g>
<!-- dir_9be0baa3d4a3e9f480a9ee70594037fa -->
<g id="node1" class="node">
<title>dir_9be0baa3d4a3e9f480a9ee70594037fa</title>
<g id="a_node1"><a xlink:href="dir_9be0baa3d4a3e9f480a9ee70594037fa.html" target="_top" xlink:title="kernel">
<polygon fill="#60a2e3" stroke="red" points="346,-52 292,-52 292,-16 346,-16 346,-52"/>
<text text-anchor="middle" x="319" y="-31.5" font-family="Helvetica,sans-Serif" font-size="10.00">kernel</text>
</a>
</g>
</g>
<!-- dir_40ac35421bc63b72c26b6c69b1517fd6 -->
<g id="node2" class="node">
<title>dir_40ac35421bc63b72c26b6c69b1517fd6</title>
<text text-anchor="middle" x="775" y="-175.5" font-family="Helvetica,sans-Serif" font-size="10.00">system</text>
</g>
<!-- dir_249e27ed47f6a2eab7da7b1ddc4f92fd -->
<g id="node3" class="node">
<title>dir_249e27ed47f6a2eab7da7b1ddc4f92fd</title>
<g id="a_node3"><a xlink:href="dir_249e27ed47f6a2eab7da7b1ddc4f92fd.html" target="_top" xlink:title="alloc">
<polygon fill="#60a2e3" stroke="#404040" points="222,-196 168,-196 168,-160 222,-160 222,-196"/>
<text text-anchor="middle" x="195" y="-175.5" font-family="Helvetica,sans-Serif" font-size="10.00">alloc</text>
</a>
</g>
</g>
<!-- dir_249e27ed47f6a2eab7da7b1ddc4f92fd&#45;&gt;dir_9be0baa3d4a3e9f480a9ee70594037fa -->
<g id="edge1" class="edge">
<title>dir_249e27ed47f6a2eab7da7b1ddc4f92fd&#45;&gt;dir_9be0baa3d4a3e9f480a9ee70594037fa</title>
<path fill="none" stroke="black" d="M222.3,-163.26C245.04,-151.37 275.09,-134.49 284,-124 288.25,-119 300.61,-86.19 309.44,-61.85"/>
<polygon fill="black" stroke="black" points="312.76,-62.96 312.86,-52.37 306.17,-60.59 312.76,-62.96"/>
<g id="a_edge1&#45;headlabel"><a xlink:href="dir_000003_000159.html" target="_top" xlink:title="7">
<text text-anchor="middle" x="314.21" y="-64.81" font-family="Helvetica,sans-Serif" font-size="10.00">7</text>
</a>
</g>
</g>
<!-- dir_d26cb44661e10025c70afdeb6a3fa91f -->
<g id="node4" class="node">
<title>dir_d26cb44661e10025c70afdeb6a3fa91f</title>
<g id="a_node4"><a xlink:href="dir_d26cb44661e10025c70afdeb6a3fa91f.html" target="_top" xlink:title="eesync">
<polygon fill="#60a2e3" stroke="#404040" points="294,-196 240,-196 240,-160 294,-160 294,-196"/>
<text text-anchor="middle" x="267" y="-175.5" font-family="Helvetica,sans-Serif" font-size="10.00">eesync</text>
</a>
</g>
</g>
<!-- dir_d26cb44661e10025c70afdeb6a3fa91f&#45;&gt;dir_9be0baa3d4a3e9f480a9ee70594037fa -->
<g id="edge2" class="edge">
<title>dir_d26cb44661e10025c70afdeb6a3fa91f&#45;&gt;dir_9be0baa3d4a3e9f480a9ee70594037fa</title>
<path fill="none" stroke="black" d="M282.17,-159.53C289.89,-149.72 298.73,-136.88 304,-124 312.09,-104.21 315.82,-80.23 317.54,-62.15"/>
<polygon fill="black" stroke="black" points="321.04,-62.25 318.35,-52.01 314.06,-61.69 321.04,-62.25"/>
<g id="a_edge2&#45;headlabel"><a xlink:href="dir_000040_000159.html" target="_top" xlink:title="12">
<text text-anchor="middle" x="323.58" y="-63.56" font-family="Helvetica,sans-Serif" font-size="10.00">12</text>
</a>
</g>
</g>
<!-- dir_f82a163f83eb0dcdf294ef3743365a67 -->
<g id="node5" class="node">
<title>dir_f82a163f83eb0dcdf294ef3743365a67</title>
<g id="a_node5"><a xlink:href="dir_f82a163f83eb0dcdf294ef3743365a67.html" target="_top" xlink:title="iomanx">
<polygon fill="#60a2e3" stroke="#404040" points="658,-196 604,-196 604,-160 658,-160 658,-196"/>
<text text-anchor="middle" x="631" y="-175.5" font-family="Helvetica,sans-Serif" font-size="10.00">iomanx</text>
</a>
</g>
</g>
<!-- dir_f82a163f83eb0dcdf294ef3743365a67&#45;&gt;dir_9be0baa3d4a3e9f480a9ee70594037fa -->
<g id="edge3" class="edge">
<title>dir_f82a163f83eb0dcdf294ef3743365a67&#45;&gt;dir_9be0baa3d4a3e9f480a9ee70594037fa</title>
<path fill="none" stroke="black" d="M603.97,-161.78C567.74,-141.7 501.13,-105.87 442,-80 413.62,-67.58 380.61,-55.64 355.94,-47.18"/>
<polygon fill="black" stroke="black" points="356.85,-43.79 346.25,-43.89 354.6,-50.42 356.85,-43.79"/>
<g id="a_edge3&#45;headlabel"><a xlink:href="dir_000151_000159.html" target="_top" xlink:title="14">
<text text-anchor="middle" x="361.16" y="-39.76" font-family="Helvetica,sans-Serif" font-size="10.00">14</text>
</a>
</g>
</g>
<!-- dir_bdd9a5d540de89e9fe90efdfc6973a4f -->
<g id="node16" class="node">
<title>dir_bdd9a5d540de89e9fe90efdfc6973a4f</title>
<g id="a_node16"><a xlink:href="dir_bdd9a5d540de89e9fe90efdfc6973a4f.html" target="_top" xlink:title="common">
<polygon fill="none" stroke="red" points="880,-124 826,-124 826,-88 880,-88 880,-124"/>
<text text-anchor="middle" x="853" y="-103.5" font-family="Helvetica,sans-Serif" font-size="10.00">common</text>
</a>
</g>
</g>
<!-- dir_f82a163f83eb0dcdf294ef3743365a67&#45;&gt;dir_bdd9a5d540de89e9fe90efdfc6973a4f -->
<g id="edge4" class="edge">
<title>dir_f82a163f83eb0dcdf294ef3743365a67&#45;&gt;dir_bdd9a5d540de89e9fe90efdfc6973a4f</title>
<path fill="none" stroke="black" d="M658.28,-163.42C661.19,-162.19 664.13,-161.02 667,-160 730.4,-137.53 750.27,-145.52 814,-124 814.86,-123.71 815.72,-123.41 816.59,-123.1"/>
<polygon fill="black" stroke="black" points="817.88,-126.35 825.96,-119.49 815.37,-119.82 817.88,-126.35"/>
<g id="a_edge4&#45;headlabel"><a xlink:href="dir_000151_000022.html" target="_top" xlink:title="2">
<text text-anchor="middle" x="815.55" y="-127.79" font-family="Helvetica,sans-Serif" font-size="10.00">2</text>
</a>
</g>
</g>
<!-- dir_024ed9b5cab300e9b0cec9fa63c26df3 -->
<g id="node6" class="node">
<title>dir_024ed9b5cab300e9b0cec9fa63c26df3</title>
<g id="a_node6"><a xlink:href="dir_024ed9b5cab300e9b0cec9fa63c26df3.html" target="_top" xlink:title="iopmgr">
<polygon fill="#60a2e3" stroke="#404040" points="366,-196 312,-196 312,-160 366,-160 366,-196"/>
<text text-anchor="middle" x="339" y="-175.5" font-family="Helvetica,sans-Serif" font-size="10.00">iopmgr</text>
</a>
</g>
</g>
<!-- dir_024ed9b5cab300e9b0cec9fa63c26df3&#45;&gt;dir_9be0baa3d4a3e9f480a9ee70594037fa -->
<g id="edge5" class="edge">
<title>dir_024ed9b5cab300e9b0cec9fa63c26df3&#45;&gt;dir_9be0baa3d4a3e9f480a9ee70594037fa</title>
<path fill="none" stroke="black" d="M336.59,-159.87C333.18,-135.67 326.92,-91.21 322.86,-62.39"/>
<polygon fill="black" stroke="black" points="326.28,-61.6 321.42,-52.19 319.35,-62.58 326.28,-61.6"/>
<g id="a_edge5&#45;headlabel"><a xlink:href="dir_000155_000159.html" target="_top" xlink:title="31">
<text text-anchor="middle" x="329.59" y="-62.27" font-family="Helvetica,sans-Serif" font-size="10.00">31</text>
</a>
</g>
</g>
<!-- dir_37a0b5ec4566a4318c90e018cb9457b6 -->
<g id="node7" class="node">
<title>dir_37a0b5ec4566a4318c90e018cb9457b6</title>
<g id="a_node7"><a xlink:href="dir_37a0b5ec4566a4318c90e018cb9457b6.html" target="_top" xlink:title="mtapman">
<polygon fill="#60a2e3" stroke="#404040" points="441.5,-196 384.5,-196 384.5,-160 441.5,-160 441.5,-196"/>
<text text-anchor="middle" x="413" y="-175.5" font-family="Helvetica,sans-Serif" font-size="10.00">mtapman</text>
</a>
</g>
</g>
<!-- dir_37a0b5ec4566a4318c90e018cb9457b6&#45;&gt;dir_9be0baa3d4a3e9f480a9ee70594037fa -->
<g id="edge6" class="edge">
<title>dir_37a0b5ec4566a4318c90e018cb9457b6&#45;&gt;dir_9be0baa3d4a3e9f480a9ee70594037fa</title>
<path fill="none" stroke="black" d="M401.66,-159.87C385.36,-135.24 355.17,-89.64 336.13,-60.88"/>
<polygon fill="black" stroke="black" points="338.82,-58.6 330.38,-52.19 332.98,-62.46 338.82,-58.6"/>
<g id="a_edge6&#45;headlabel"><a xlink:href="dir_000182_000159.html" target="_top" xlink:title="17">
<text text-anchor="middle" x="343.17" y="-57.53" font-family="Helvetica,sans-Serif" font-size="10.00">17</text>
</a>
</g>
</g>
<!-- dir_cb26f304a37e679cc21ccc4e4a07be73 -->
<g id="node8" class="node">
<title>dir_cb26f304a37e679cc21ccc4e4a07be73</title>
<g id="a_node8"><a xlink:href="dir_cb26f304a37e679cc21ccc4e4a07be73.html" target="_top" xlink:title="padman">
<polygon fill="#60a2e3" stroke="#404040" points="78,-196 24,-196 24,-160 78,-160 78,-196"/>
<text text-anchor="middle" x="51" y="-175.5" font-family="Helvetica,sans-Serif" font-size="10.00">padman</text>
</a>
</g>
</g>
<!-- dir_cb26f304a37e679cc21ccc4e4a07be73&#45;&gt;dir_9be0baa3d4a3e9f480a9ee70594037fa -->
<g id="edge7" class="edge">
<title>dir_cb26f304a37e679cc21ccc4e4a07be73&#45;&gt;dir_9be0baa3d4a3e9f480a9ee70594037fa</title>
<path fill="none" stroke="black" d="M78.26,-163.36C81.17,-162.13 84.12,-160.99 87,-160 156.78,-136.11 194.06,-173.21 249,-124 264.39,-110.21 252.22,-96.97 264,-80 269.48,-72.11 276.71,-64.86 284.12,-58.59"/>
<polygon fill="black" stroke="black" points="286.52,-61.15 292.16,-52.18 282.16,-55.67 286.52,-61.15"/>
<g id="a_edge7&#45;headlabel"><a xlink:href="dir_000198_000159.html" target="_top" xlink:title="47">
<text text-anchor="middle" x="285.48" y="-63.11" font-family="Helvetica,sans-Serif" font-size="10.00">47</text>
</a>
</g>
</g>
<!-- dir_1fd4d135da32a6b9ad91946f648cae84 -->
<g id="node13" class="node">
<title>dir_1fd4d135da32a6b9ad91946f648cae84</title>
<g id="a_node13"><a xlink:href="dir_1fd4d135da32a6b9ad91946f648cae84.html" target="_top" xlink:title="sio2man">
<polygon fill="#60a2e3" stroke="#404040" points="82,-124 28,-124 28,-88 82,-88 82,-124"/>
<text text-anchor="middle" x="55" y="-103.5" font-family="Helvetica,sans-Serif" font-size="10.00">sio2man</text>
</a>
</g>
</g>
<!-- dir_cb26f304a37e679cc21ccc4e4a07be73&#45;&gt;dir_1fd4d135da32a6b9ad91946f648cae84 -->
<g id="edge8" class="edge">
<title>dir_cb26f304a37e679cc21ccc4e4a07be73&#45;&gt;dir_1fd4d135da32a6b9ad91946f648cae84</title>
<path fill="none" stroke="black" d="M51.99,-159.7C52.43,-151.98 52.96,-142.71 53.45,-134.11"/>
<polygon fill="black" stroke="black" points="56.95,-134.29 54.02,-124.1 49.96,-133.89 56.95,-134.29"/>
<g id="a_edge8&#45;headlabel"><a xlink:href="dir_000198_000215.html" target="_top" xlink:title="1">
<text text-anchor="middle" x="59.58" y="-135.54" font-family="Helvetica,sans-Serif" font-size="10.00">1</text>
</a>
</g>
</g>
<!-- dir_fe7329d8b89241d59f89f45fd75d2e77 -->
<g id="node9" class="node">
<title>dir_fe7329d8b89241d59f89f45fd75d2e77</title>
<g id="a_node9"><a xlink:href="dir_fe7329d8b89241d59f89f45fd75d2e77.html" target="_top" xlink:title="rmman">
<polygon fill="#60a2e3" stroke="#404040" points="514,-196 460,-196 460,-160 514,-160 514,-196"/>
<text text-anchor="middle" x="487" y="-175.5" font-family="Helvetica,sans-Serif" font-size="10.00">rmman</text>
</a>
</g>
</g>
<!-- dir_fe7329d8b89241d59f89f45fd75d2e77&#45;&gt;dir_9be0baa3d4a3e9f480a9ee70594037fa -->
<g id="edge9" class="edge">
<title>dir_fe7329d8b89241d59f89f45fd75d2e77&#45;&gt;dir_9be0baa3d4a3e9f480a9ee70594037fa</title>
<path fill="none" stroke="black" d="M466.74,-159.87C436.84,-134.6 380.82,-87.25 347.01,-58.68"/>
<polygon fill="black" stroke="black" points="349.23,-55.97 339.34,-52.19 344.71,-61.32 349.23,-55.97"/>
<g id="a_edge9&#45;headlabel"><a xlink:href="dir_000207_000159.html" target="_top" xlink:title="17">
<text text-anchor="middle" x="353.81" y="-53.62" font-family="Helvetica,sans-Serif" font-size="10.00">17</text>
</a>
</g>
</g>
<!-- dir_47d6ec5167f7ee6ef257538cbd6ee8bb -->
<g id="node10" class="node">
<title>dir_47d6ec5167f7ee6ef257538cbd6ee8bb</title>
<g id="a_node10"><a xlink:href="dir_47d6ec5167f7ee6ef257538cbd6ee8bb.html" target="_top" xlink:title="rsio2man">
<polygon fill="#60a2e3" stroke="#404040" points="240,-124 184,-124 184,-88 240,-88 240,-124"/>
<text text-anchor="middle" x="212" y="-103.5" font-family="Helvetica,sans-Serif" font-size="10.00">rsio2man</text>
</a>
</g>
</g>
<!-- dir_fe7329d8b89241d59f89f45fd75d2e77&#45;&gt;dir_47d6ec5167f7ee6ef257538cbd6ee8bb -->
<g id="edge11" class="edge">
<title>dir_fe7329d8b89241d59f89f45fd75d2e77&#45;&gt;dir_47d6ec5167f7ee6ef257538cbd6ee8bb</title>
<path fill="none" stroke="black" d="M459.79,-163.22C456.87,-162.02 453.9,-160.92 451,-160 365.11,-132.8 334.49,-152.77 249.56,-125.67"/>
<polygon fill="black" stroke="black" points="250.64,-122.35 240.05,-122.52 248.44,-128.99 250.64,-122.35"/>
<g id="a_edge11&#45;headlabel"><a xlink:href="dir_000207_000209.html" target="_top" xlink:title="2">
<text text-anchor="middle" x="254.95" y="-118.28" font-family="Helvetica,sans-Serif" font-size="10.00">2</text>
</a>
</g>
</g>
<!-- dir_fe7329d8b89241d59f89f45fd75d2e77&#45;&gt;dir_bdd9a5d540de89e9fe90efdfc6973a4f -->
<g id="edge10" class="edge">
<title>dir_fe7329d8b89241d59f89f45fd75d2e77&#45;&gt;dir_bdd9a5d540de89e9fe90efdfc6973a4f</title>
<path fill="none" stroke="black" d="M514.17,-163.08C517.1,-161.9 520.08,-160.85 523,-160 648.17,-123.72 688.3,-158.39 814,-124 814.72,-123.8 815.45,-123.59 816.17,-123.38"/>
<polygon fill="black" stroke="black" points="817.36,-126.67 825.66,-120.08 815.06,-120.06 817.36,-126.67"/>
<g id="a_edge10&#45;headlabel"><a xlink:href="dir_000207_000022.html" target="_top" xlink:title="1">
<text text-anchor="middle" x="814.9" y="-128.03" font-family="Helvetica,sans-Serif" font-size="10.00">1</text>
</a>
</g>
</g>
<!-- dir_47d6ec5167f7ee6ef257538cbd6ee8bb&#45;&gt;dir_9be0baa3d4a3e9f480a9ee70594037fa -->
<g id="edge12" class="edge">
<title>dir_47d6ec5167f7ee6ef257538cbd6ee8bb&#45;&gt;dir_9be0baa3d4a3e9f480a9ee70594037fa</title>
<path fill="none" stroke="black" d="M233.07,-87.95C236.66,-85.22 240.4,-82.47 244,-80 256.39,-71.49 270.41,-62.84 282.95,-55.42"/>
<polygon fill="black" stroke="black" points="284.91,-58.33 291.77,-50.26 281.37,-52.28 284.91,-58.33"/>
<g id="a_edge12&#45;headlabel"><a xlink:href="dir_000209_000159.html" target="_top" xlink:title="1">
<text text-anchor="middle" x="283.24" y="-60.09" font-family="Helvetica,sans-Serif" font-size="10.00">1</text>
</a>
</g>
</g>
<!-- dir_4bae4802256ab45fc18d13b3c6375605 -->
<g id="node11" class="node">
<title>dir_4bae4802256ab45fc18d13b3c6375605</title>
<g id="a_node11"><a xlink:href="dir_4bae4802256ab45fc18d13b3c6375605.html" target="_top" xlink:title="sbusintr">
<polygon fill="#60a2e3" stroke="#404040" points="162,-124 108,-124 108,-88 162,-88 162,-124"/>
<text text-anchor="middle" x="135" y="-103.5" font-family="Helvetica,sans-Serif" font-size="10.00">sbusintr</text>
</a>
</g>
</g>
<!-- dir_4bae4802256ab45fc18d13b3c6375605&#45;&gt;dir_9be0baa3d4a3e9f480a9ee70594037fa -->
<g id="edge13" class="edge">
<title>dir_4bae4802256ab45fc18d13b3c6375605&#45;&gt;dir_9be0baa3d4a3e9f480a9ee70594037fa</title>
<path fill="none" stroke="black" d="M160.28,-87.86C165.05,-85.01 170.09,-82.26 175,-80 210.02,-63.91 252.36,-51.45 282.03,-43.76"/>
<polygon fill="black" stroke="black" points="283.13,-47.09 291.97,-41.24 281.41,-40.31 283.13,-47.09"/>
<g id="a_edge13&#45;headlabel"><a xlink:href="dir_000211_000159.html" target="_top" xlink:title="10">
<text text-anchor="middle" x="280.35" y="-48.23" font-family="Helvetica,sans-Serif" font-size="10.00">10</text>
</a>
</g>
</g>
<!-- dir_c3fae06f71c3e401160299d109ef6df7 -->
<g id="node12" class="node">
<title>dir_c3fae06f71c3e401160299d109ef6df7</title>
<g id="a_node12"><a xlink:href="dir_c3fae06f71c3e401160299d109ef6df7.html" target="_top" xlink:title="siftoo">
<polygon fill="#60a2e3" stroke="#404040" points="150,-196 96,-196 96,-160 150,-160 150,-196"/>
<text text-anchor="middle" x="123" y="-175.5" font-family="Helvetica,sans-Serif" font-size="10.00">siftoo</text>
</a>
</g>
</g>
<!-- dir_c3fae06f71c3e401160299d109ef6df7&#45;&gt;dir_9be0baa3d4a3e9f480a9ee70594037fa -->
<g id="edge14" class="edge">
<title>dir_c3fae06f71c3e401160299d109ef6df7&#45;&gt;dir_9be0baa3d4a3e9f480a9ee70594037fa</title>
<path fill="none" stroke="black" d="M150.38,-163.69C153.27,-162.4 156.18,-161.14 159,-160 204.71,-141.44 227.48,-157.16 264,-124 279.9,-109.56 272.89,-98.38 284,-80 288.01,-73.36 292.85,-66.57 297.63,-60.34"/>
<polygon fill="black" stroke="black" points="300.56,-62.28 304.03,-52.26 295.08,-57.93 300.56,-62.28"/>
<g id="a_edge14&#45;headlabel"><a xlink:href="dir_000213_000159.html" target="_top" xlink:title="13">
<text text-anchor="middle" x="300.56" y="-64.36" font-family="Helvetica,sans-Serif" font-size="10.00">13</text>
</a>
</g>
</g>
<!-- dir_c3fae06f71c3e401160299d109ef6df7&#45;&gt;dir_4bae4802256ab45fc18d13b3c6375605 -->
<g id="edge15" class="edge">
<title>dir_c3fae06f71c3e401160299d109ef6df7&#45;&gt;dir_4bae4802256ab45fc18d13b3c6375605</title>
<path fill="none" stroke="black" d="M125.97,-159.7C127.29,-151.98 128.88,-142.71 130.35,-134.11"/>
<polygon fill="black" stroke="black" points="133.83,-134.55 132.07,-124.1 126.93,-133.37 133.83,-134.55"/>
<g id="a_edge15&#45;headlabel"><a xlink:href="dir_000213_000211.html" target="_top" xlink:title="3">
<text text-anchor="middle" x="136.02" y="-136.07" font-family="Helvetica,sans-Serif" font-size="10.00">3</text>
</a>
</g>
</g>
<!-- dir_1fd4d135da32a6b9ad91946f648cae84&#45;&gt;dir_9be0baa3d4a3e9f480a9ee70594037fa -->
<g id="edge16" class="edge">
<title>dir_1fd4d135da32a6b9ad91946f648cae84&#45;&gt;dir_9be0baa3d4a3e9f480a9ee70594037fa</title>
<path fill="none" stroke="black" d="M82.29,-87.75C87.68,-84.85 93.41,-82.1 99,-80 160.83,-56.78 237.18,-44.59 281.75,-38.99"/>
<polygon fill="black" stroke="black" points="282.32,-42.45 291.83,-37.77 281.48,-35.5 282.32,-42.45"/>
<g id="a_edge16&#45;headlabel"><a xlink:href="dir_000215_000159.html" target="_top" xlink:title="19">
<text text-anchor="middle" x="279.09" y="-43.2" font-family="Helvetica,sans-Serif" font-size="10.00">19</text>
</a>
</g>
</g>
<!-- dir_1bd32d4ef826aeeda00870843eb45c97 -->
<g id="node14" class="node">
<title>dir_1bd32d4ef826aeeda00870843eb45c97</title>
<g id="a_node14"><a xlink:href="dir_1bd32d4ef826aeeda00870843eb45c97.html" target="_top" xlink:title="sysclib">
<polygon fill="#60a2e3" stroke="#404040" points="730,-196 676,-196 676,-160 730,-160 730,-196"/>
<text text-anchor="middle" x="703" y="-175.5" font-family="Helvetica,sans-Serif" font-size="10.00">sysclib</text>
</a>
</g>
</g>
<!-- dir_1bd32d4ef826aeeda00870843eb45c97&#45;&gt;dir_9be0baa3d4a3e9f480a9ee70594037fa -->
<g id="edge17" class="edge">
<title>dir_1bd32d4ef826aeeda00870843eb45c97&#45;&gt;dir_9be0baa3d4a3e9f480a9ee70594037fa</title>
<path fill="none" stroke="black" d="M675.89,-164.15C672.9,-162.74 669.88,-161.34 667,-160 589.04,-123.88 571.97,-108.76 491,-80 445.47,-63.83 391.3,-50.61 356.09,-42.78"/>
<polygon fill="black" stroke="black" points="356.76,-39.34 346.24,-40.62 355.26,-46.18 356.76,-39.34"/>
<g id="a_edge17&#45;headlabel"><a xlink:href="dir_000341_000159.html" target="_top" xlink:title="78">
<text text-anchor="middle" x="360.88" y="-34.84" font-family="Helvetica,sans-Serif" font-size="10.00">78</text>
</a>
</g>
</g>
<!-- dir_1bd32d4ef826aeeda00870843eb45c97&#45;&gt;dir_bdd9a5d540de89e9fe90efdfc6973a4f -->
<g id="edge18" class="edge">
<title>dir_1bd32d4ef826aeeda00870843eb45c97&#45;&gt;dir_bdd9a5d540de89e9fe90efdfc6973a4f</title>
<path fill="none" stroke="black" d="M730.12,-164.17C733.11,-162.76 736.12,-161.35 739,-160 764.94,-147.85 794.25,-134.22 816.65,-123.83"/>
<polygon fill="black" stroke="black" points="818.2,-126.97 825.8,-119.59 815.25,-120.62 818.2,-126.97"/>
<g id="a_edge18&#45;headlabel"><a xlink:href="dir_000341_000022.html" target="_top" xlink:title="1">
<text text-anchor="middle" x="816.13" y="-128.56" font-family="Helvetica,sans-Serif" font-size="10.00">1</text>
</a>
</g>
</g>
<!-- dir_ba5b6e33a21a738024e426bc2a53820a -->
<g id="node15" class="node">
<title>dir_ba5b6e33a21a738024e426bc2a53820a</title>
<g id="a_node15"><a xlink:href="dir_ba5b6e33a21a738024e426bc2a53820a.html" target="_top" xlink:title="udnl">
<polygon fill="#60a2e3" stroke="#404040" points="586,-196 532,-196 532,-160 586,-160 586,-196"/>
<text text-anchor="middle" x="559" y="-175.5" font-family="Helvetica,sans-Serif" font-size="10.00">udnl</text>
</a>
</g>
</g>
<!-- dir_ba5b6e33a21a738024e426bc2a53820a&#45;&gt;dir_9be0baa3d4a3e9f480a9ee70594037fa -->
<g id="edge19" class="edge">
<title>dir_ba5b6e33a21a738024e426bc2a53820a&#45;&gt;dir_9be0baa3d4a3e9f480a9ee70594037fa</title>
<path fill="none" stroke="black" d="M532.82,-160C502.08,-140.21 449.39,-106.81 403,-80 387.46,-71.02 370.01,-61.57 355.05,-53.66"/>
<polygon fill="black" stroke="black" points="356.58,-50.51 346.1,-48.95 353.32,-56.71 356.58,-50.51"/>
<g id="a_edge19&#45;headlabel"><a xlink:href="dir_000352_000159.html" target="_top" xlink:title="17">
<text text-anchor="middle" x="361.09" y="-47.17" font-family="Helvetica,sans-Serif" font-size="10.00">17</text>
</a>
</g>
</g>
</g>
</svg>
