<?xml version="1.0" encoding="UTF-8" standalone="no"?>
<!DOCTYPE svg PUBLIC "-//W3C//DTD SVG 1.1//EN"
 "http://www.w3.org/Graphics/SVG/1.1/DTD/svg11.dtd">
<!-- Generated by graphviz version 3.0.0 (20220413.0242)
 -->
<!-- Title: iop Pages: 1 -->
<!--zoomable 292 -->
<svg id="main" version="1.1" xmlns="http://www.w3.org/2000/svg" xmlns:xlink="http://www.w3.org/1999/xlink" xml:space="preserve" onload="init(evt)">
<style type="text/css"><![CDATA[
.edge:hover path { stroke: red; }
.edge:hover polygon { stroke: red; fill: red; }
]]></style>
<script type="text/javascript"><![CDATA[
var edges = document.getElementsByTagName('g');
if (edges && edges.length) {
  for (var i=0;i<edges.length;i++) {
    if (edges[i].id.substr(0,4)=='edge') {
      edges[i].setAttribute('class','edge');
    }
  }
}
]]></script>
        <defs>
                <circle id="rim" cx="0" cy="0" r="7"/>
                <circle id="rim2" cx="0" cy="0" r="3.5"/>
                <g id="zoomPlus">
                        <use xlink:href="#rim" fill="#404040">
                                <set attributeName="fill" to="#808080" begin="zoomplus.mouseover" end="zoomplus.mouseout"/>
                        </use>
                        <path d="M-4,0h8M0,-4v8" fill="none" stroke="white" stroke-width="1.5" pointer-events="none"/>
                </g>
                <g id="zoomMin">
                        <use xlink:href="#rim" fill="#404040">
                                <set attributeName="fill" to="#808080" begin="zoomminus.mouseover" end="zoomminus.mouseout"/>
                        </use>
                        <path d="M-4,0h8" fill="none" stroke="white" stroke-width="1.5" pointer-events="none"/>
                </g>
                <g id="dirArrow">
                        <path fill="none" stroke="white" stroke-width="1.5" d="M0,-3.0v7 M-2.5,-0.5L0,-3.0L2.5,-0.5"/>
                </g>
               <g id="resetDef">
                       <use xlink:href="#rim2" fill="#404040">
                               <set attributeName="fill" to="#808080" begin="reset.mouseover" end="reset.mouseout"/>
                       </use>
               </g>
        </defs>

<script type="text/javascript">
var viewWidth = 883;
var viewHeight = 292;
var sectionId = 'dynsection-0';
</script>
<script xlink:href="svgpan.js"/>
<svg id="graph" class="graph">
<g id="viewport">
<title>iop</title>
<polygon fill="white" stroke="transparent" points="-4,4 -4,-288 878.71,-288 878.71,4 -4,4"/>
<g id="clust1" class="cluster">
<title>clusterdir_0981ace215aa2029f526b70c145b9fbe</title>
<g id="a_clust1"><a xlink:href="dir_0981ace215aa2029f526b70c145b9fbe.html" target="_top">
<polygon fill="#deebf9" stroke="#404040" stroke-width="2" points="8,-8 8,-276 666,-276 666,-8 8,-8"/>
</a>
</g>
</g>
<!-- dir_0981ace215aa2029f526b70c145b9fbe -->
<g id="node1" class="node">
<title>dir_0981ace215aa2029f526b70c145b9fbe</title>
<text text-anchor="middle" x="553" y="-247.5" font-family="Helvetica,sans-Serif" font-size="10.00">iop</text>
</g>
<!-- dir_a12d8da7b0731a57c6a388326ad5e612 -->
<g id="node2" class="node">
<title>dir_a12d8da7b0731a57c6a388326ad5e612</title>
<g id="a_node2"><a xlink:href="dir_a12d8da7b0731a57c6a388326ad5e612.html" target="_top" xlink:title="cdvd">
<polygon fill="#60a2e3" stroke="#404040" points="586,-196 532,-196 532,-160 586,-160 586,-196"/>
<text text-anchor="middle" x="559" y="-175.5" font-family="Helvetica,sans-Serif" font-size="10.00">cdvd</text>
</a>
</g>
</g>
<!-- dir_9be0baa3d4a3e9f480a9ee70594037fa -->
<g id="node9" class="node">
<title>dir_9be0baa3d4a3e9f480a9ee70594037fa</title>
<g id="a_node9"><a xlink:href="dir_9be0baa3d4a3e9f480a9ee70594037fa.html" target="_top" xlink:title="kernel">
<polygon fill="#60a2e3" stroke="#404040" points="262,-124 208,-124 208,-88 262,-88 262,-124"/>
<text text-anchor="middle" x="235" y="-103.5" font-family="Helvetica,sans-Serif" font-size="10.00">kernel</text>
</a>
</g>
</g>
<!-- dir_a12d8da7b0731a57c6a388326ad5e612&#45;&gt;dir_9be0baa3d4a3e9f480a9ee70594037fa -->
<g id="edge1" class="edge">
<title>dir_a12d8da7b0731a57c6a388326ad5e612&#45;&gt;dir_9be0baa3d4a3e9f480a9ee70594037fa</title>
<path fill="none" stroke="black" d="M531.78,-163.25C528.86,-162.05 525.89,-160.93 523,-160 435.49,-131.81 327.89,-117 272.26,-110.73"/>
<polygon fill="black" stroke="black" points="272.5,-107.24 262.17,-109.63 271.73,-114.2 272.5,-107.24"/>
<g id="a_edge1&#45;headlabel"><a xlink:href="dir_000021_000159.html" target="_top" xlink:title="16">
<text text-anchor="middle" x="276.38" y="-102.31" font-family="Helvetica,sans-Serif" font-size="10.00">16</text>
</a>
</g>
</g>
<!-- dir_bdd9a5d540de89e9fe90efdfc6973a4f -->
<g id="node17" class="node">
<title>dir_bdd9a5d540de89e9fe90efdfc6973a4f</title>
<g id="a_node17"><a xlink:href="dir_bdd9a5d540de89e9fe90efdfc6973a4f.html" target="_top" xlink:title="common">
<polygon fill="none" stroke="red" points="728,-52 674,-52 674,-16 728,-16 728,-52"/>
<text text-anchor="middle" x="701" y="-31.5" font-family="Helvetica,sans-Serif" font-size="10.00">common</text>
</a>
</g>
</g>
<!-- dir_a12d8da7b0731a57c6a388326ad5e612&#45;&gt;dir_bdd9a5d540de89e9fe90efdfc6973a4f -->
<g id="edge2" class="edge">
<title>dir_a12d8da7b0731a57c6a388326ad5e612&#45;&gt;dir_bdd9a5d540de89e9fe90efdfc6973a4f</title>
<path fill="none" stroke="black" d="M576.13,-159.87C601.18,-134.82 647.95,-88.05 676.59,-59.41"/>
<polygon fill="black" stroke="black" points="679.21,-61.74 683.81,-52.19 674.26,-56.79 679.21,-61.74"/>
<g id="a_edge2&#45;headlabel"><a xlink:href="dir_000021_000022.html" target="_top" xlink:title="2">
<text text-anchor="middle" x="678.68" y="-63.78" font-family="Helvetica,sans-Serif" font-size="10.00">2</text>
</a>
</g>
</g>
<!-- dir_8494d76ae2586079db82d45fe3dd6aec -->
<g id="node3" class="node">
<title>dir_8494d76ae2586079db82d45fe3dd6aec</title>
<g id="a_node3"><a xlink:href="dir_8494d76ae2586079db82d45fe3dd6aec.html" target="_top" xlink:title="debug">
<polygon fill="#60a2e3" stroke="#404040" points="658,-196 604,-196 604,-160 658,-160 658,-196"/>
<text text-anchor="middle" x="631" y="-175.5" font-family="Helvetica,sans-Serif" font-size="10.00">debug</text>
</a>
</g>
</g>
<!-- dir_8494d76ae2586079db82d45fe3dd6aec&#45;&gt;dir_9be0baa3d4a3e9f480a9ee70594037fa -->
<g id="edge4" class="edge">
<title>dir_8494d76ae2586079db82d45fe3dd6aec&#45;&gt;dir_9be0baa3d4a3e9f480a9ee70594037fa</title>
<path fill="none" stroke="black" d="M603.81,-163.15C600.88,-161.96 597.91,-160.88 595,-160 480.73,-125.44 338.99,-113.02 272.61,-108.89"/>
<polygon fill="black" stroke="black" points="272.43,-105.37 262.24,-108.27 272.01,-112.36 272.43,-105.37"/>
<g id="a_edge4&#45;headlabel"><a xlink:href="dir_000025_000159.html" target="_top" xlink:title="74">
<text text-anchor="middle" x="276.18" y="-100.25" font-family="Helvetica,sans-Serif" font-size="10.00">74</text>
</a>
</g>
</g>
<!-- dir_8494d76ae2586079db82d45fe3dd6aec&#45;&gt;dir_bdd9a5d540de89e9fe90efdfc6973a4f -->
<g id="edge3" class="edge">
<title>dir_8494d76ae2586079db82d45fe3dd6aec&#45;&gt;dir_bdd9a5d540de89e9fe90efdfc6973a4f</title>
<path fill="none" stroke="black" d="M638.51,-159.77C646.48,-141.72 659.61,-112.62 672,-88 676.5,-79.06 681.68,-69.41 686.4,-60.83"/>
<polygon fill="black" stroke="black" points="689.5,-62.47 691.29,-52.03 683.38,-59.07 689.5,-62.47"/>
<g id="a_edge3&#45;headlabel"><a xlink:href="dir_000025_000022.html" target="_top" xlink:title="21">
<text text-anchor="middle" x="690.23" y="-64.49" font-family="Helvetica,sans-Serif" font-size="10.00">21</text>
</a>
</g>
</g>
<!-- dir_6f16cad81de2453a6f48c5e272ba4a18 -->
<g id="node4" class="node">
<title>dir_6f16cad81de2453a6f48c5e272ba4a18</title>
<g id="a_node4"><a xlink:href="dir_6f16cad81de2453a6f48c5e272ba4a18.html" target="_top" xlink:title="dev9">
<polygon fill="#60a2e3" stroke="#404040" points="262,-196 208,-196 208,-160 262,-160 262,-196"/>
<text text-anchor="middle" x="235" y="-175.5" font-family="Helvetica,sans-Serif" font-size="10.00">dev9</text>
</a>
</g>
</g>
<!-- dir_6f16cad81de2453a6f48c5e272ba4a18&#45;&gt;dir_9be0baa3d4a3e9f480a9ee70594037fa -->
<g id="edge5" class="edge">
<title>dir_6f16cad81de2453a6f48c5e272ba4a18&#45;&gt;dir_9be0baa3d4a3e9f480a9ee70594037fa</title>
<path fill="none" stroke="black" d="M235,-159.7C235,-151.98 235,-142.71 235,-134.11"/>
<polygon fill="black" stroke="black" points="238.5,-134.1 235,-124.1 231.5,-134.1 238.5,-134.1"/>
<g id="a_edge5&#45;headlabel"><a xlink:href="dir_000026_000159.html" target="_top" xlink:title="97">
<text text-anchor="middle" x="241.34" y="-135.2" font-family="Helvetica,sans-Serif" font-size="10.00">97</text>
</a>
</g>
</g>
<!-- dir_6f16cad81de2453a6f48c5e272ba4a18&#45;&gt;dir_bdd9a5d540de89e9fe90efdfc6973a4f -->
<g id="edge6" class="edge">
<title>dir_6f16cad81de2453a6f48c5e272ba4a18&#45;&gt;dir_bdd9a5d540de89e9fe90efdfc6973a4f</title>
<path fill="none" stroke="black" d="M262.05,-160.07C296.13,-139.58 357.15,-105.62 414,-88 520.53,-54.98 558.72,-86.27 664.13,-53.7"/>
<polygon fill="black" stroke="black" points="665.41,-56.97 673.86,-50.58 663.27,-50.3 665.41,-56.97"/>
<g id="a_edge6&#45;headlabel"><a xlink:href="dir_000026_000022.html" target="_top" xlink:title="13">
<text text-anchor="middle" x="662.86" y="-58.27" font-family="Helvetica,sans-Serif" font-size="10.00">13</text>
</a>
</g>
</g>
<!-- dir_a16ad4cba4b1f15056f2b7b0b5931815 -->
<g id="node5" class="node">
<title>dir_a16ad4cba4b1f15056f2b7b0b5931815</title>
<g id="a_node5"><a xlink:href="dir_a16ad4cba4b1f15056f2b7b0b5931815.html" target="_top" xlink:title="dvrp">
<polygon fill="#60a2e3" stroke="#404040" points="430,-268 376,-268 376,-232 430,-232 430,-268"/>
<text text-anchor="middle" x="403" y="-247.5" font-family="Helvetica,sans-Serif" font-size="10.00">dvrp</text>
</a>
</g>
</g>
<!-- dir_a16ad4cba4b1f15056f2b7b0b5931815&#45;&gt;dir_6f16cad81de2453a6f48c5e272ba4a18 -->
<g id="edge8" class="edge">
<title>dir_a16ad4cba4b1f15056f2b7b0b5931815&#45;&gt;dir_6f16cad81de2453a6f48c5e272ba4a18</title>
<path fill="none" stroke="black" d="M375.96,-236C372.95,-234.62 369.92,-233.26 367,-232 327.09,-214.7 316.31,-212.33 276,-196 274.62,-195.44 273.21,-194.87 271.78,-194.29"/>
<polygon fill="black" stroke="black" points="272.9,-190.96 262.32,-190.4 270.24,-197.44 272.9,-190.96"/>
<g id="a_edge8&#45;headlabel"><a xlink:href="dir_000037_000026.html" target="_top" xlink:title="12">
<text text-anchor="middle" x="277.31" y="-187.2" font-family="Helvetica,sans-Serif" font-size="10.00">12</text>
</a>
</g>
</g>
<!-- dir_a16ad4cba4b1f15056f2b7b0b5931815&#45;&gt;dir_9be0baa3d4a3e9f480a9ee70594037fa -->
<g id="edge7" class="edge">
<title>dir_a16ad4cba4b1f15056f2b7b0b5931815&#45;&gt;dir_9be0baa3d4a3e9f480a9ee70594037fa</title>
<path fill="none" stroke="black" d="M375.95,-236.23C342.88,-220.61 291.21,-196.2 291,-196 277.64,-183.49 280.6,-175.59 271,-160 265.46,-151 259.07,-141.38 253.23,-132.84"/>
<polygon fill="black" stroke="black" points="255.97,-130.64 247.4,-124.41 250.21,-134.62 255.97,-130.64"/>
<g id="a_edge7&#45;headlabel"><a xlink:href="dir_000037_000159.html" target="_top" xlink:title="71">
<text text-anchor="middle" x="260.35" y="-129.49" font-family="Helvetica,sans-Serif" font-size="10.00">71</text>
</a>
</g>
</g>
<!-- dir_a16ad4cba4b1f15056f2b7b0b5931815&#45;&gt;dir_bdd9a5d540de89e9fe90efdfc6973a4f -->
<g id="edge9" class="edge">
<title>dir_a16ad4cba4b1f15056f2b7b0b5931815&#45;&gt;dir_bdd9a5d540de89e9fe90efdfc6973a4f</title>
<path fill="none" stroke="black" d="M430.14,-244.63C453.21,-241 487.23,-235.82 517,-232 591.26,-222.48 801.97,-251.7 852,-196 884.08,-160.29 879.76,-127.16 852,-88 826.34,-51.79 773.91,-40.14 738.11,-36.49"/>
<polygon fill="black" stroke="black" points="738.3,-32.99 728.04,-35.63 737.7,-39.97 738.3,-32.99"/>
<g id="a_edge9&#45;headlabel"><a xlink:href="dir_000037_000022.html" target="_top" xlink:title="12">
<text text-anchor="middle" x="742.12" y="-27.97" font-family="Helvetica,sans-Serif" font-size="10.00">12</text>
</a>
</g>
</g>
<!-- dir_f24daea2522ffa8b6dc5fa9cdf5b8f5c -->
<g id="node6" class="node">
<title>dir_f24daea2522ffa8b6dc5fa9cdf5b8f5c</title>
<g id="a_node6"><a xlink:href="dir_f24daea2522ffa8b6dc5fa9cdf5b8f5c.html" target="_top" xlink:title="fs">
<polygon fill="#60a2e3" stroke="#404040" points="130,-196 76,-196 76,-160 130,-160 130,-196"/>
<text text-anchor="middle" x="103" y="-175.5" font-family="Helvetica,sans-Serif" font-size="10.00">fs</text>
</a>
</g>
</g>
<!-- dir_f24daea2522ffa8b6dc5fa9cdf5b8f5c&#45;&gt;dir_9be0baa3d4a3e9f480a9ee70594037fa -->
<g id="edge10" class="edge">
<title>dir_f24daea2522ffa8b6dc5fa9cdf5b8f5c&#45;&gt;dir_9be0baa3d4a3e9f480a9ee70594037fa</title>
<path fill="none" stroke="black" d="M130.03,-162.67C149.83,-152.17 176.92,-137.8 198.62,-126.29"/>
<polygon fill="black" stroke="black" points="200.36,-129.33 207.55,-121.56 197.08,-123.15 200.36,-129.33"/>
<g id="a_edge10&#45;headlabel"><a xlink:href="dir_000051_000159.html" target="_top" xlink:title="172">
<text text-anchor="middle" x="198.51" y="-131.03" font-family="Helvetica,sans-Serif" font-size="10.00">172</text>
</a>
</g>
</g>
<!-- dir_40ac35421bc63b72c26b6c69b1517fd6 -->
<g id="node14" class="node">
<title>dir_40ac35421bc63b72c26b6c69b1517fd6</title>
<g id="a_node14"><a xlink:href="dir_40ac35421bc63b72c26b6c69b1517fd6.html" target="_top" xlink:title="system">
<polygon fill="#60a2e3" stroke="#404040" points="262,-52 208,-52 208,-16 262,-16 262,-52"/>
<text text-anchor="middle" x="235" y="-31.5" font-family="Helvetica,sans-Serif" font-size="10.00">system</text>
</a>
</g>
</g>
<!-- dir_f24daea2522ffa8b6dc5fa9cdf5b8f5c&#45;&gt;dir_40ac35421bc63b72c26b6c69b1517fd6 -->
<g id="edge12" class="edge">
<title>dir_f24daea2522ffa8b6dc5fa9cdf5b8f5c&#45;&gt;dir_40ac35421bc63b72c26b6c69b1517fd6</title>
<path fill="none" stroke="black" d="M118.92,-159.87C142.11,-134.92 185.31,-88.45 211.97,-59.77"/>
<polygon fill="black" stroke="black" points="214.78,-61.9 219.02,-52.19 209.65,-57.13 214.78,-61.9"/>
<g id="a_edge12&#45;headlabel"><a xlink:href="dir_000051_000342.html" target="_top" xlink:title="3">
<text text-anchor="middle" x="214.41" y="-63.96" font-family="Helvetica,sans-Serif" font-size="10.00">3</text>
</a>
</g>
</g>
<!-- dir_f24daea2522ffa8b6dc5fa9cdf5b8f5c&#45;&gt;dir_bdd9a5d540de89e9fe90efdfc6973a4f -->
<g id="edge11" class="edge">
<title>dir_f24daea2522ffa8b6dc5fa9cdf5b8f5c&#45;&gt;dir_bdd9a5d540de89e9fe90efdfc6973a4f</title>
<path fill="none" stroke="black" d="M130.07,-170.97C164.03,-162.84 223.56,-146.73 271,-124 297.01,-111.54 297.86,-97.78 325,-88 466.91,-36.84 520.54,-95.35 664.28,-53.54"/>
<polygon fill="black" stroke="black" points="665.32,-56.88 673.88,-50.64 663.29,-50.18 665.32,-56.88"/>
<g id="a_edge11&#45;headlabel"><a xlink:href="dir_000051_000022.html" target="_top" xlink:title="14">
<text text-anchor="middle" x="662.7" y="-58.14" font-family="Helvetica,sans-Serif" font-size="10.00">14</text>
</a>
</g>
</g>
<!-- dir_b6763ea08a8f9364194ebe3565e6b1f0 -->
<g id="node7" class="node">
<title>dir_b6763ea08a8f9364194ebe3565e6b1f0</title>
<g id="a_node7"><a xlink:href="dir_b6763ea08a8f9364194ebe3565e6b1f0.html" target="_top" xlink:title="hdd">
<polygon fill="#60a2e3" stroke="#404040" points="286,-268 232,-268 232,-232 286,-232 286,-268"/>
<text text-anchor="middle" x="259" y="-247.5" font-family="Helvetica,sans-Serif" font-size="10.00">hdd</text>
</a>
</g>
</g>
<!-- dir_b6763ea08a8f9364194ebe3565e6b1f0&#45;&gt;dir_6f16cad81de2453a6f48c5e272ba4a18 -->
<g id="edge15" class="edge">
<title>dir_b6763ea08a8f9364194ebe3565e6b1f0&#45;&gt;dir_6f16cad81de2453a6f48c5e272ba4a18</title>
<path fill="none" stroke="black" d="M253.07,-231.7C250.39,-223.9 247.17,-214.51 244.2,-205.83"/>
<polygon fill="black" stroke="black" points="247.42,-204.43 240.86,-196.1 240.8,-206.7 247.42,-204.43"/>
<g id="a_edge15&#45;headlabel"><a xlink:href="dir_000055_000026.html" target="_top" xlink:title="10">
<text text-anchor="middle" x="251.27" y="-204.41" font-family="Helvetica,sans-Serif" font-size="10.00">10</text>
</a>
</g>
</g>
<!-- dir_b6763ea08a8f9364194ebe3565e6b1f0&#45;&gt;dir_9be0baa3d4a3e9f480a9ee70594037fa -->
<g id="edge14" class="edge">
<title>dir_b6763ea08a8f9364194ebe3565e6b1f0&#45;&gt;dir_9be0baa3d4a3e9f480a9ee70594037fa</title>
<path fill="none" stroke="black" d="M231.92,-233.54C212.67,-221.9 189.32,-206.26 184,-196 176.64,-181.79 178.02,-174.84 184,-160 188.35,-149.21 196.06,-139.39 204.19,-131.21"/>
<polygon fill="black" stroke="black" points="206.79,-133.57 211.7,-124.18 202,-128.46 206.79,-133.57"/>
<g id="a_edge14&#45;headlabel"><a xlink:href="dir_000055_000159.html" target="_top" xlink:title="62">
<text text-anchor="middle" x="206.11" y="-135.6" font-family="Helvetica,sans-Serif" font-size="10.00">62</text>
</a>
</g>
</g>
<!-- dir_b6763ea08a8f9364194ebe3565e6b1f0&#45;&gt;dir_bdd9a5d540de89e9fe90efdfc6973a4f -->
<g id="edge13" class="edge">
<title>dir_b6763ea08a8f9364194ebe3565e6b1f0&#45;&gt;dir_bdd9a5d540de89e9fe90efdfc6973a4f</title>
<path fill="none" stroke="black" d="M286.13,-234.93C289.07,-233.79 292.06,-232.78 295,-232 346.82,-218.33 739.55,-235.29 776,-196 808.65,-160.82 798.07,-130.62 776,-88 767.68,-71.94 752.01,-59.7 737.13,-51.06"/>
<polygon fill="black" stroke="black" points="738.5,-47.82 728.04,-46.14 735.17,-53.98 738.5,-47.82"/>
<g id="a_edge13&#45;headlabel"><a xlink:href="dir_000055_000022.html" target="_top" xlink:title="36">
<text text-anchor="middle" x="743.01" y="-44.53" font-family="Helvetica,sans-Serif" font-size="10.00">36</text>
</a>
</g>
</g>
<!-- dir_fc941b9cdd19bfc53379effb1dbc42b0 -->
<g id="node8" class="node">
<title>dir_fc941b9cdd19bfc53379effb1dbc42b0</title>
<g id="a_node8"><a xlink:href="dir_fc941b9cdd19bfc53379effb1dbc42b0.html" target="_top" xlink:title="iLink">
<polygon fill="#60a2e3" stroke="#404040" points="142,-268 88,-268 88,-232 142,-232 142,-268"/>
<text text-anchor="middle" x="115" y="-247.5" font-family="Helvetica,sans-Serif" font-size="10.00">iLink</text>
</a>
</g>
</g>
<!-- dir_fc941b9cdd19bfc53379effb1dbc42b0&#45;&gt;dir_f24daea2522ffa8b6dc5fa9cdf5b8f5c -->
<g id="edge18" class="edge">
<title>dir_fc941b9cdd19bfc53379effb1dbc42b0&#45;&gt;dir_f24daea2522ffa8b6dc5fa9cdf5b8f5c</title>
<path fill="none" stroke="black" d="M112.03,-231.7C110.71,-223.98 109.12,-214.71 107.65,-206.11"/>
<polygon fill="black" stroke="black" points="111.07,-205.37 105.93,-196.1 104.17,-206.55 111.07,-205.37"/>
<g id="a_edge18&#45;headlabel"><a xlink:href="dir_000060_000051.html" target="_top" xlink:title="2">
<text text-anchor="middle" x="114.48" y="-205.93" font-family="Helvetica,sans-Serif" font-size="10.00">2</text>
</a>
</g>
</g>
<!-- dir_fc941b9cdd19bfc53379effb1dbc42b0&#45;&gt;dir_9be0baa3d4a3e9f480a9ee70594037fa -->
<g id="edge17" class="edge">
<title>dir_fc941b9cdd19bfc53379effb1dbc42b0&#45;&gt;dir_9be0baa3d4a3e9f480a9ee70594037fa</title>
<path fill="none" stroke="black" d="M94.26,-231.77C74.46,-213.21 49.98,-183.22 67,-160 96.88,-119.24 158.18,-109.02 197.89,-106.89"/>
<polygon fill="black" stroke="black" points="198.12,-110.39 207.98,-106.5 197.85,-103.39 198.12,-110.39"/>
<g id="a_edge17&#45;headlabel"><a xlink:href="dir_000060_000159.html" target="_top" xlink:title="117">
<text text-anchor="middle" x="194.64" y="-110.86" font-family="Helvetica,sans-Serif" font-size="10.00">117</text>
</a>
</g>
</g>
<!-- dir_fc941b9cdd19bfc53379effb1dbc42b0&#45;&gt;dir_bdd9a5d540de89e9fe90efdfc6973a4f -->
<g id="edge16" class="edge">
<title>dir_fc941b9cdd19bfc53379effb1dbc42b0&#45;&gt;dir_bdd9a5d540de89e9fe90efdfc6973a4f</title>
<path fill="none" stroke="black" d="M142.12,-234.9C145.06,-233.76 148.06,-232.76 151,-232 210.18,-216.68 658.07,-240.49 700,-196 733.76,-160.17 721.54,-97.44 710.63,-61.78"/>
<polygon fill="black" stroke="black" points="713.9,-60.5 707.48,-52.06 707.24,-62.66 713.9,-60.5"/>
<g id="a_edge16&#45;headlabel"><a xlink:href="dir_000060_000022.html" target="_top" xlink:title="12">
<text text-anchor="middle" x="717.7" y="-60.54" font-family="Helvetica,sans-Serif" font-size="10.00">12</text>
</a>
</g>
</g>
<!-- dir_9be0baa3d4a3e9f480a9ee70594037fa&#45;&gt;dir_40ac35421bc63b72c26b6c69b1517fd6 -->
<g id="edge19" class="edge">
<title>dir_9be0baa3d4a3e9f480a9ee70594037fa&#45;&gt;dir_40ac35421bc63b72c26b6c69b1517fd6</title>
<path fill="none" stroke="black" d="M229.08,-87.7C228.29,-79.98 228.06,-70.71 228.4,-62.11"/>
<polygon fill="black" stroke="black" points="231.9,-62.32 229.1,-52.1 224.92,-61.84 231.9,-62.32"/>
<g id="a_edge19&#45;headlabel"><a xlink:href="dir_000159_000342.html" target="_top" xlink:title="2">
<text text-anchor="middle" x="234.48" y="-63.61" font-family="Helvetica,sans-Serif" font-size="10.00">2</text>
</a>
</g>
</g>
<!-- dir_9be0baa3d4a3e9f480a9ee70594037fa&#45;&gt;dir_bdd9a5d540de89e9fe90efdfc6973a4f -->
<g id="edge20" class="edge">
<title>dir_9be0baa3d4a3e9f480a9ee70594037fa&#45;&gt;dir_bdd9a5d540de89e9fe90efdfc6973a4f</title>
<path fill="none" stroke="black" d="M262.23,-96.16C272.42,-93.15 284.15,-90.04 295,-88 456.17,-57.69 507.86,-99.48 663.94,-53.64"/>
<polygon fill="black" stroke="black" points="665.32,-56.89 673.88,-50.65 663.3,-50.18 665.32,-56.89"/>
<g id="a_edge20&#45;headlabel"><a xlink:href="dir_000159_000022.html" target="_top" xlink:title="12">
<text text-anchor="middle" x="662.69" y="-58.14" font-family="Helvetica,sans-Serif" font-size="10.00">12</text>
</a>
</g>
</g>
<!-- dir_5805bfcfbe100e4767f47461b3e6402b -->
<g id="node10" class="node">
<title>dir_5805bfcfbe100e4767f47461b3e6402b</title>
<g id="a_node10"><a xlink:href="dir_5805bfcfbe100e4767f47461b3e6402b.html" target="_top" xlink:title="memorycard">
<polygon fill="#60a2e3" stroke="#404040" points="370,-196 300,-196 300,-160 370,-160 370,-196"/>
<text text-anchor="middle" x="335" y="-175.5" font-family="Helvetica,sans-Serif" font-size="10.00">memorycard</text>
</a>
</g>
</g>
<!-- dir_5805bfcfbe100e4767f47461b3e6402b&#45;&gt;dir_9be0baa3d4a3e9f480a9ee70594037fa -->
<g id="edge21" class="edge">
<title>dir_5805bfcfbe100e4767f47461b3e6402b&#45;&gt;dir_9be0baa3d4a3e9f480a9ee70594037fa</title>
<path fill="none" stroke="black" d="M310.54,-159.88C297.7,-150.89 281.8,-139.76 267.91,-130.03"/>
<polygon fill="black" stroke="black" points="269.76,-127.06 259.56,-124.19 265.74,-132.79 269.76,-127.06"/>
<g id="a_edge21&#45;headlabel"><a xlink:href="dir_000177_000159.html" target="_top" xlink:title="40">
<text text-anchor="middle" x="274.33" y="-124.29" font-family="Helvetica,sans-Serif" font-size="10.00">40</text>
</a>
</g>
</g>
<!-- dir_5805bfcfbe100e4767f47461b3e6402b&#45;&gt;dir_bdd9a5d540de89e9fe90efdfc6973a4f -->
<g id="edge22" class="edge">
<title>dir_5805bfcfbe100e4767f47461b3e6402b&#45;&gt;dir_bdd9a5d540de89e9fe90efdfc6973a4f</title>
<path fill="none" stroke="black" d="M358.3,-159.83C386.92,-139.59 437.64,-106.36 486,-88 560.71,-59.63 589.29,-78.66 663.99,-53.91"/>
<polygon fill="black" stroke="black" points="665.53,-57.08 673.83,-50.49 663.24,-50.47 665.53,-57.08"/>
<g id="a_edge22&#45;headlabel"><a xlink:href="dir_000177_000022.html" target="_top" xlink:title="3">
<text text-anchor="middle" x="663.07" y="-58.44" font-family="Helvetica,sans-Serif" font-size="10.00">3</text>
</a>
</g>
</g>
<!-- dir_f89050b4b7ba0179c2c7efd2300413d9 -->
<g id="node11" class="node">
<title>dir_f89050b4b7ba0179c2c7efd2300413d9</title>
<g id="a_node11"><a xlink:href="dir_f89050b4b7ba0179c2c7efd2300413d9.html" target="_top" xlink:title="network">
<polygon fill="#60a2e3" stroke="#404040" points="358,-268 304,-268 304,-232 358,-232 358,-268"/>
<text text-anchor="middle" x="331" y="-247.5" font-family="Helvetica,sans-Serif" font-size="10.00">network</text>
</a>
</g>
</g>
<!-- dir_f89050b4b7ba0179c2c7efd2300413d9&#45;&gt;dir_6f16cad81de2453a6f48c5e272ba4a18 -->
<g id="edge23" class="edge">
<title>dir_f89050b4b7ba0179c2c7efd2300413d9&#45;&gt;dir_6f16cad81de2453a6f48c5e272ba4a18</title>
<path fill="none" stroke="black" d="M307.27,-231.7C295.06,-222.8 280.01,-211.82 266.82,-202.2"/>
<polygon fill="black" stroke="black" points="268.6,-199.17 258.46,-196.1 264.48,-204.82 268.6,-199.17"/>
<g id="a_edge23&#45;headlabel"><a xlink:href="dir_000191_000026.html" target="_top" xlink:title="3">
<text text-anchor="middle" x="273.18" y="-196.49" font-family="Helvetica,sans-Serif" font-size="10.00">3</text>
</a>
</g>
</g>
<!-- dir_f89050b4b7ba0179c2c7efd2300413d9&#45;&gt;dir_9be0baa3d4a3e9f480a9ee70594037fa -->
<g id="edge24" class="edge">
<title>dir_f89050b4b7ba0179c2c7efd2300413d9&#45;&gt;dir_9be0baa3d4a3e9f480a9ee70594037fa</title>
<path fill="none" stroke="black" d="M303.98,-235.95C300.97,-234.58 297.93,-233.24 295,-232 253.03,-214.26 224.96,-233.45 199,-196 185.42,-176.4 198.26,-150.9 212.24,-132.23"/>
<polygon fill="black" stroke="black" points="215.16,-134.18 218.65,-124.17 209.68,-129.82 215.16,-134.18"/>
<g id="a_edge24&#45;headlabel"><a xlink:href="dir_000191_000159.html" target="_top" xlink:title="122">
<text text-anchor="middle" x="215.14" y="-136.26" font-family="Helvetica,sans-Serif" font-size="10.00">122</text>
</a>
</g>
</g>
<!-- dir_f89050b4b7ba0179c2c7efd2300413d9&#45;&gt;dir_bdd9a5d540de89e9fe90efdfc6973a4f -->
<g id="edge25" class="edge">
<title>dir_f89050b4b7ba0179c2c7efd2300413d9&#45;&gt;dir_bdd9a5d540de89e9fe90efdfc6973a4f</title>
<path fill="none" stroke="black" d="M358.13,-234.95C361.07,-233.8 364.06,-232.78 367,-232 415.14,-219.15 780.21,-232.62 814,-196 846.55,-160.72 839.75,-128.51 814,-88 797.43,-61.93 764.27,-48.46 738.13,-41.64"/>
<polygon fill="black" stroke="black" points="738.69,-38.17 728.15,-39.26 737.07,-44.98 738.69,-38.17"/>
<g id="a_edge25&#45;headlabel"><a xlink:href="dir_000191_000022.html" target="_top" xlink:title="22">
<text text-anchor="middle" x="742.85" y="-33.74" font-family="Helvetica,sans-Serif" font-size="10.00">22</text>
</a>
</g>
</g>
<!-- dir_6133ef156cce03413acfdeebec722ba1 -->
<g id="node12" class="node">
<title>dir_6133ef156cce03413acfdeebec722ba1</title>
<g id="a_node12"><a xlink:href="dir_6133ef156cce03413acfdeebec722ba1.html" target="_top" xlink:title="sio">
<polygon fill="#60a2e3" stroke="#404040" points="70,-268 16,-268 16,-232 70,-232 70,-268"/>
<text text-anchor="middle" x="43" y="-247.5" font-family="Helvetica,sans-Serif" font-size="10.00">sio</text>
</a>
</g>
</g>
<!-- dir_6133ef156cce03413acfdeebec722ba1&#45;&gt;dir_f24daea2522ffa8b6dc5fa9cdf5b8f5c -->
<g id="edge27" class="edge">
<title>dir_6133ef156cce03413acfdeebec722ba1&#45;&gt;dir_f24daea2522ffa8b6dc5fa9cdf5b8f5c</title>
<path fill="none" stroke="black" d="M57.83,-231.7C65.02,-223.3 73.8,-213.07 81.69,-203.86"/>
<polygon fill="black" stroke="black" points="84.49,-205.97 88.34,-196.1 79.17,-201.42 84.49,-205.97"/>
<g id="a_edge27&#45;headlabel"><a xlink:href="dir_000214_000051.html" target="_top" xlink:title="2">
<text text-anchor="middle" x="84.31" y="-208.05" font-family="Helvetica,sans-Serif" font-size="10.00">2</text>
</a>
</g>
</g>
<!-- dir_6133ef156cce03413acfdeebec722ba1&#45;&gt;dir_9be0baa3d4a3e9f480a9ee70594037fa -->
<g id="edge26" class="edge">
<title>dir_6133ef156cce03413acfdeebec722ba1&#45;&gt;dir_9be0baa3d4a3e9f480a9ee70594037fa</title>
<path fill="none" stroke="black" d="M40.92,-231.68C39.56,-211.89 40.57,-179.73 58,-160 93.26,-120.08 157.24,-109.65 197.86,-107.24"/>
<polygon fill="black" stroke="black" points="198.07,-110.74 207.9,-106.79 197.75,-103.75 198.07,-110.74"/>
<g id="a_edge26&#45;headlabel"><a xlink:href="dir_000214_000159.html" target="_top" xlink:title="23">
<text text-anchor="middle" x="194.6" y="-111.24" font-family="Helvetica,sans-Serif" font-size="10.00">23</text>
</a>
</g>
</g>
<!-- dir_6133ef156cce03413acfdeebec722ba1&#45;&gt;dir_40ac35421bc63b72c26b6c69b1517fd6 -->
<g id="edge28" class="edge">
<title>dir_6133ef156cce03413acfdeebec722ba1&#45;&gt;dir_40ac35421bc63b72c26b6c69b1517fd6</title>
<path fill="none" stroke="black" d="M37.22,-231.76C32,-212.91 26.82,-182.42 39,-160 72.57,-98.22 151.22,-62.63 198.05,-46.2"/>
<polygon fill="black" stroke="black" points="199.46,-49.42 207.81,-42.89 197.22,-42.79 199.46,-49.42"/>
<g id="a_edge28&#45;headlabel"><a xlink:href="dir_000214_000342.html" target="_top" xlink:title="1">
<text text-anchor="middle" x="196.97" y="-50.76" font-family="Helvetica,sans-Serif" font-size="10.00">1</text>
</a>
</g>
</g>
<!-- dir_6133ef156cce03413acfdeebec722ba1&#45;&gt;dir_bdd9a5d540de89e9fe90efdfc6973a4f -->
<g id="edge29" class="edge">
<title>dir_6133ef156cce03413acfdeebec722ba1&#45;&gt;dir_bdd9a5d540de89e9fe90efdfc6973a4f</title>
<path fill="none" stroke="black" d="M70.11,-234.89C73.06,-233.75 76.05,-232.76 79,-232 142.4,-215.73 617.44,-238.76 667,-196 705.12,-163.1 706.87,-99.18 704.26,-62.55"/>
<polygon fill="black" stroke="black" points="707.7,-61.78 703.34,-52.13 700.73,-62.39 707.7,-61.78"/>
<g id="a_edge29&#45;headlabel"><a xlink:href="dir_000214_000022.html" target="_top" xlink:title="2">
<text text-anchor="middle" x="710.84" y="-62.61" font-family="Helvetica,sans-Serif" font-size="10.00">2</text>
</a>
</g>
</g>
<!-- dir_838e88315325ec0d843359dcae22d639 -->
<g id="node13" class="node">
<title>dir_838e88315325ec0d843359dcae22d639</title>
<g id="a_node13"><a xlink:href="dir_838e88315325ec0d843359dcae22d639.html" target="_top" xlink:title="sound">
<polygon fill="#60a2e3" stroke="#404040" points="442,-196 388,-196 388,-160 442,-160 442,-196"/>
<text text-anchor="middle" x="415" y="-175.5" font-family="Helvetica,sans-Serif" font-size="10.00">sound</text>
</a>
</g>
</g>
<!-- dir_838e88315325ec0d843359dcae22d639&#45;&gt;dir_9be0baa3d4a3e9f480a9ee70594037fa -->
<g id="edge30" class="edge">
<title>dir_838e88315325ec0d843359dcae22d639&#45;&gt;dir_9be0baa3d4a3e9f480a9ee70594037fa</title>
<path fill="none" stroke="black" d="M387.99,-163.93C384.97,-162.57 381.93,-161.23 379,-160 343.07,-144.94 301.19,-129.79 271.89,-119.57"/>
<polygon fill="black" stroke="black" points="272.68,-116.13 262.08,-116.16 270.38,-122.75 272.68,-116.13"/>
<g id="a_edge30&#45;headlabel"><a xlink:href="dir_000221_000159.html" target="_top" xlink:title="105">
<text text-anchor="middle" x="277" y="-112.13" font-family="Helvetica,sans-Serif" font-size="10.00">105</text>
</a>
</g>
</g>
<!-- dir_838e88315325ec0d843359dcae22d639&#45;&gt;dir_bdd9a5d540de89e9fe90efdfc6973a4f -->
<g id="edge31" class="edge">
<title>dir_838e88315325ec0d843359dcae22d639&#45;&gt;dir_bdd9a5d540de89e9fe90efdfc6973a4f</title>
<path fill="none" stroke="black" d="M437.32,-159.85C463.72,-140.22 509.58,-108.21 553,-88 599.34,-66.43 617.65,-72.32 664.36,-54.15"/>
<polygon fill="black" stroke="black" points="665.82,-57.34 673.76,-50.33 663.18,-50.85 665.82,-57.34"/>
<g id="a_edge31&#45;headlabel"><a xlink:href="dir_000221_000022.html" target="_top" xlink:title="2">
<text text-anchor="middle" x="663.56" y="-58.82" font-family="Helvetica,sans-Serif" font-size="10.00">2</text>
</a>
</g>
</g>
<!-- dir_40ac35421bc63b72c26b6c69b1517fd6&#45;&gt;dir_9be0baa3d4a3e9f480a9ee70594037fa -->
<g id="edge32" class="edge">
<title>dir_40ac35421bc63b72c26b6c69b1517fd6&#45;&gt;dir_9be0baa3d4a3e9f480a9ee70594037fa</title>
<path fill="none" stroke="black" d="M240.9,-52.1C241.7,-59.79 241.94,-69.05 241.6,-77.67"/>
<polygon fill="black" stroke="black" points="238.11,-77.48 240.92,-87.7 245.09,-77.96 238.11,-77.48"/>
<g id="a_edge32&#45;headlabel"><a xlink:href="dir_000342_000159.html" target="_top" xlink:title="283">
<text text-anchor="middle" x="235.52" y="-71.2" font-family="Helvetica,sans-Serif" font-size="10.00">283</text>
</a>
</g>
</g>
<!-- dir_40ac35421bc63b72c26b6c69b1517fd6&#45;&gt;dir_bdd9a5d540de89e9fe90efdfc6973a4f -->
<g id="edge33" class="edge">
<title>dir_40ac35421bc63b72c26b6c69b1517fd6&#45;&gt;dir_bdd9a5d540de89e9fe90efdfc6973a4f</title>
<path fill="none" stroke="black" d="M262.3,-34C396.05,-34 529.8,-34 663.54,-34"/>
<polygon fill="black" stroke="black" points="663.58,-37.5 673.58,-34 663.58,-30.5 663.58,-37.5"/>
<g id="a_edge33&#45;headlabel"><a xlink:href="dir_000342_000022.html" target="_top" xlink:title="4">
<text text-anchor="middle" x="659.99" y="-37.84" font-family="Helvetica,sans-Serif" font-size="10.00">4</text>
</a>
</g>
</g>
<!-- dir_cb38d55d28446d14702541320714f23c -->
<g id="node15" class="node">
<title>dir_cb38d55d28446d14702541320714f23c</title>
<g id="a_node15"><a xlink:href="dir_cb38d55d28446d14702541320714f23c.html" target="_top" xlink:title="tcpip">
<polygon fill="#60a2e3" stroke="#404040" points="514,-196 460,-196 460,-160 514,-160 514,-196"/>
<text text-anchor="middle" x="487" y="-175.5" font-family="Helvetica,sans-Serif" font-size="10.00">tcpip</text>
</a>
</g>
</g>
<!-- dir_cb38d55d28446d14702541320714f23c&#45;&gt;dir_9be0baa3d4a3e9f480a9ee70594037fa -->
<g id="edge34" class="edge">
<title>dir_cb38d55d28446d14702541320714f23c&#45;&gt;dir_9be0baa3d4a3e9f480a9ee70594037fa</title>
<path fill="none" stroke="black" d="M459.72,-163.43C456.81,-162.19 453.87,-161.02 451,-160 389.68,-138.25 315.51,-122.17 271.97,-113.72"/>
<polygon fill="black" stroke="black" points="272.59,-110.28 262.11,-111.84 271.27,-117.15 272.59,-110.28"/>
<g id="a_edge34&#45;headlabel"><a xlink:href="dir_000344_000159.html" target="_top" xlink:title="53">
<text text-anchor="middle" x="276.65" y="-105.66" font-family="Helvetica,sans-Serif" font-size="10.00">53</text>
</a>
</g>
</g>
<!-- dir_cb38d55d28446d14702541320714f23c&#45;&gt;dir_bdd9a5d540de89e9fe90efdfc6973a4f -->
<g id="edge35" class="edge">
<title>dir_cb38d55d28446d14702541320714f23c&#45;&gt;dir_bdd9a5d540de89e9fe90efdfc6973a4f</title>
<path fill="none" stroke="black" d="M508.98,-159.86C533.02,-141.37 572.95,-111.44 609,-88 619.28,-81.32 643.71,-67.27 664.81,-55.32"/>
<polygon fill="black" stroke="black" points="666.62,-58.32 673.6,-50.35 663.17,-52.23 666.62,-58.32"/>
<g id="a_edge35&#45;headlabel"><a xlink:href="dir_000344_000022.html" target="_top" xlink:title="5">
<text text-anchor="middle" x="664.88" y="-60.06" font-family="Helvetica,sans-Serif" font-size="10.00">5</text>
</a>
</g>
</g>
<!-- dir_b6c875632944d243a548db157cd77ec2 -->
<g id="node16" class="node">
<title>dir_b6c875632944d243a548db157cd77ec2</title>
<g id="a_node16"><a xlink:href="dir_b6c875632944d243a548db157cd77ec2.html" target="_top" xlink:title="usb">
<polygon fill="#60a2e3" stroke="#404040" points="214,-268 160,-268 160,-232 214,-232 214,-268"/>
<text text-anchor="middle" x="187" y="-247.5" font-family="Helvetica,sans-Serif" font-size="10.00">usb</text>
</a>
</g>
</g>
<!-- dir_b6c875632944d243a548db157cd77ec2&#45;&gt;dir_f24daea2522ffa8b6dc5fa9cdf5b8f5c -->
<g id="edge38" class="edge">
<title>dir_b6c875632944d243a548db157cd77ec2&#45;&gt;dir_f24daea2522ffa8b6dc5fa9cdf5b8f5c</title>
<path fill="none" stroke="black" d="M166.24,-231.7C155.76,-222.97 142.89,-212.24 131.5,-202.75"/>
<polygon fill="black" stroke="black" points="133.45,-199.82 123.53,-196.1 128.97,-205.19 133.45,-199.82"/>
<g id="a_edge38&#45;headlabel"><a xlink:href="dir_000354_000051.html" target="_top" xlink:title="2">
<text text-anchor="middle" x="138.03" y="-197.44" font-family="Helvetica,sans-Serif" font-size="10.00">2</text>
</a>
</g>
</g>
<!-- dir_b6c875632944d243a548db157cd77ec2&#45;&gt;dir_9be0baa3d4a3e9f480a9ee70594037fa -->
<g id="edge36" class="edge">
<title>dir_b6c875632944d243a548db157cd77ec2&#45;&gt;dir_9be0baa3d4a3e9f480a9ee70594037fa</title>
<path fill="none" stroke="black" d="M179.39,-231.81C172.37,-213.28 164.49,-183.31 175,-160 180.41,-148 190.03,-137.63 200,-129.32"/>
<polygon fill="black" stroke="black" points="202.25,-132.01 208,-123.11 197.95,-126.48 202.25,-132.01"/>
<g id="a_edge36&#45;headlabel"><a xlink:href="dir_000354_000159.html" target="_top" xlink:title="149">
<text text-anchor="middle" x="201.15" y="-133.95" font-family="Helvetica,sans-Serif" font-size="10.00">149</text>
</a>
</g>
</g>
<!-- dir_b6c875632944d243a548db157cd77ec2&#45;&gt;dir_bdd9a5d540de89e9fe90efdfc6973a4f -->
<g id="edge37" class="edge">
<title>dir_b6c875632944d243a548db157cd77ec2&#45;&gt;dir_bdd9a5d540de89e9fe90efdfc6973a4f</title>
<path fill="none" stroke="black" d="M214.12,-234.92C217.06,-233.78 220.06,-232.77 223,-232 278.5,-217.5 698.88,-237.95 738,-196 770.74,-160.9 752.4,-133.79 738,-88 734.9,-78.15 729.25,-68.53 723.28,-60.25"/>
<polygon fill="black" stroke="black" points="725.91,-57.94 717.04,-52.15 720.37,-62.21 725.91,-57.94"/>
<g id="a_edge37&#45;headlabel"><a xlink:href="dir_000354_000022.html" target="_top" xlink:title="12">
<text text-anchor="middle" x="730.36" y="-56.55" font-family="Helvetica,sans-Serif" font-size="10.00">12</text>
</a>
</g>
</g>
</g>
</svg>
        <g id="navigator" transform="translate(0 0)" fill="#404254">
                <rect fill="#f2f5e9" fill-opacity="0.5" stroke="#606060" stroke-width=".5" x="0" y="0" width="60" height="60"/>
                <use id="zoomplus" xlink:href="#zoomPlus" x="17" y="9" onmousedown="handleZoom(evt,'in')"/>
                <use id="zoomminus" xlink:href="#zoomMin" x="42" y="9" onmousedown="handleZoom(evt,'out')"/>
                <use id="reset" xlink:href="#resetDef" x="30" y="36" onmousedown="handleReset()"/>
                <g id="arrowUp" xlink:href="#dirArrow" transform="translate(30 24)" onmousedown="handlePan(0,-1)">
                  <use xlink:href="#rim" fill="#404040">
                        <set attributeName="fill" to="#808080" begin="arrowUp.mouseover" end="arrowUp.mouseout"/>
                  </use>
                  <path fill="none" stroke="white" stroke-width="1.5" d="M0,-3.0v7 M-2.5,-0.5L0,-3.0L2.5,-0.5"/>
                </g>
                <g id="arrowRight" xlink:href="#dirArrow" transform="rotate(90) translate(36 -43)" onmousedown="handlePan(1,0)">
                  <use xlink:href="#rim" fill="#404040">
                        <set attributeName="fill" to="#808080" begin="arrowRight.mouseover" end="arrowRight.mouseout"/>
                  </use>
                  <path fill="none" stroke="white" stroke-width="1.5" d="M0,-3.0v7 M-2.5,-0.5L0,-3.0L2.5,-0.5"/>
                </g>
                <g id="arrowDown" xlink:href="#dirArrow" transform="rotate(180) translate(-30 -48)" onmousedown="handlePan(0,1)">
                  <use xlink:href="#rim" fill="#404040">
                        <set attributeName="fill" to="#808080" begin="arrowDown.mouseover" end="arrowDown.mouseout"/>
                  </use>
                  <path fill="none" stroke="white" stroke-width="1.5" d="M0,-3.0v7 M-2.5,-0.5L0,-3.0L2.5,-0.5"/>
                </g>
                <g id="arrowLeft" xlink:href="#dirArrow" transform="rotate(270) translate(-36 17)" onmousedown="handlePan(-1,0)">
                  <use xlink:href="#rim" fill="#404040">
                        <set attributeName="fill" to="#808080" begin="arrowLeft.mouseover" end="arrowLeft.mouseout"/>
                  </use>
                  <path fill="none" stroke="white" stroke-width="1.5" d="M0,-3.0v7 M-2.5,-0.5L0,-3.0L2.5,-0.5"/>
                </g>
        </g>
        <svg viewBox="0 0 15 15" width="100%" height="30px" preserveAspectRatio="xMaxYMin meet">
         <g id="arrow_out" transform="scale(0.3 0.3)">
          <a xlink:href="dir_0981ace215aa2029f526b70c145b9fbe_dep_org.svg" target="_base">
           <rect id="button" ry="5" rx="5" y="6" x="6" height="38" width="38"
                fill="#f2f5e9" fill-opacity="0.5" stroke="#606060" stroke-width="1.0"/>
           <path id="arrow"
             d="M 11.500037,31.436501 C 11.940474,20.09759 22.043105,11.32322 32.158766,21.979434 L 37.068811,17.246167 C 37.068811,17.246167 37.088388,32 37.088388,32 L 22.160133,31.978069 C 22.160133,31.978069 26.997745,27.140456 26.997745,27.140456 C 18.528582,18.264221 13.291696,25.230495 11.500037,31.436501 z"
             style="fill:#404040;"/>
          </a>
         </g>
        </svg>
</svg>
