<?xml version="1.0" encoding="UTF-8" standalone="no"?>
<!DOCTYPE svg PUBLIC "-//W3C//DTD SVG 1.1//EN"
 "http://www.w3.org/Graphics/SVG/1.1/DTD/svg11.dtd">
<!-- Generated by graphviz version 3.0.0 (20220413.0242)
 -->
<!-- Title: iop/fs Pages: 1 -->
<!--zoomable 319 -->
<svg id="main" version="1.1" xmlns="http://www.w3.org/2000/svg" xmlns:xlink="http://www.w3.org/1999/xlink" xml:space="preserve" onload="init(evt)">
<style type="text/css"><![CDATA[
.edge:hover path { stroke: red; }
.edge:hover polygon { stroke: red; fill: red; }
]]></style>
<script type="text/javascript"><![CDATA[
var edges = document.getElementsByTagName('g');
if (edges && edges.length) {
  for (var i=0;i<edges.length;i++) {
    if (edges[i].id.substr(0,4)=='edge') {
      edges[i].setAttribute('class','edge');
    }
  }
}
]]></script>
        <defs>
                <circle id="rim" cx="0" cy="0" r="7"/>
                <circle id="rim2" cx="0" cy="0" r="3.5"/>
                <g id="zoomPlus">
                        <use xlink:href="#rim" fill="#404040">
                                <set attributeName="fill" to="#808080" begin="zoomplus.mouseover" end="zoomplus.mouseout"/>
                        </use>
                        <path d="M-4,0h8M0,-4v8" fill="none" stroke="white" stroke-width="1.5" pointer-events="none"/>
                </g>
                <g id="zoomMin">
                        <use xlink:href="#rim" fill="#404040">
                                <set attributeName="fill" to="#808080" begin="zoomminus.mouseover" end="zoomminus.mouseout"/>
                        </use>
                        <path d="M-4,0h8" fill="none" stroke="white" stroke-width="1.5" pointer-events="none"/>
                </g>
                <g id="dirArrow">
                        <path fill="none" stroke="white" stroke-width="1.5" d="M0,-3.0v7 M-2.5,-0.5L0,-3.0L2.5,-0.5"/>
                </g>
               <g id="resetDef">
                       <use xlink:href="#rim2" fill="#404040">
                               <set attributeName="fill" to="#808080" begin="reset.mouseover" end="reset.mouseout"/>
                       </use>
               </g>
        </defs>

<script type="text/javascript">
var viewWidth = 826;
var viewHeight = 319;
var sectionId = 'dynsection-0';
</script>
<script xlink:href="svgpan.js"/>
<svg id="graph" class="graph">
<g id="viewport">
<title>iop/fs</title>
<polygon fill="white" stroke="transparent" points="-4,4 -4,-315 821.83,-315 821.83,4 -4,4"/>
<g id="clust1" class="cluster">
<title>clusterdir_0981ace215aa2029f526b70c145b9fbe</title>
<g id="a_clust1"><a xlink:href="dir_0981ace215aa2029f526b70c145b9fbe.html" target="_top" xlink:title="iop">
<polygon fill="#deebf9" stroke="#404040" stroke-dasharray="5,2" points="8,-8 8,-303 686,-303 686,-8 8,-8"/>
<text text-anchor="middle" x="347" y="-291" font-family="Helvetica,sans-Serif" font-size="10.00">iop</text>
</a>
</g>
</g>
<g id="clust2" class="cluster">
<title>clusterdir_f24daea2522ffa8b6dc5fa9cdf5b8f5c</title>
<g id="a_clust2"><a xlink:href="dir_f24daea2522ffa8b6dc5fa9cdf5b8f5c.html" target="_top">
<polygon fill="#deebf9" stroke="#404040" stroke-width="2" points="16,-80 16,-276 616,-276 616,-80 16,-80"/>
</a>
</g>
</g>
<!-- dir_9be0baa3d4a3e9f480a9ee70594037fa -->
<g id="node1" class="node">
<title>dir_9be0baa3d4a3e9f480a9ee70594037fa</title>
<g id="a_node1"><a xlink:href="dir_9be0baa3d4a3e9f480a9ee70594037fa.html" target="_top" xlink:title="kernel">
<polygon fill="#60a2e3" stroke="red" points="321,-52 267,-52 267,-16 321,-16 321,-52"/>
<text text-anchor="middle" x="294" y="-31.5" font-family="Helvetica,sans-Serif" font-size="10.00">kernel</text>
</a>
</g>
</g>
<!-- dir_40ac35421bc63b72c26b6c69b1517fd6 -->
<g id="node2" class="node">
<title>dir_40ac35421bc63b72c26b6c69b1517fd6</title>
<g id="a_node2"><a xlink:href="dir_40ac35421bc63b72c26b6c69b1517fd6.html" target="_top" xlink:title="system">
<polygon fill="#60a2e3" stroke="red" points="678,-196 624,-196 624,-160 678,-160 678,-196"/>
<text text-anchor="middle" x="651" y="-175.5" font-family="Helvetica,sans-Serif" font-size="10.00">system</text>
</a>
</g>
</g>
<!-- dir_f24daea2522ffa8b6dc5fa9cdf5b8f5c -->
<g id="node3" class="node">
<title>dir_f24daea2522ffa8b6dc5fa9cdf5b8f5c</title>
<text text-anchor="middle" x="581" y="-247.5" font-family="Helvetica,sans-Serif" font-size="10.00">fs</text>
</g>
<!-- dir_0134b0376fbe77322088b496fb368f9b -->
<g id="node4" class="node">
<title>dir_0134b0376fbe77322088b496fb368f9b</title>
<g id="a_node4"><a xlink:href="dir_0134b0376fbe77322088b496fb368f9b.html" target="_top" xlink:title="bdm">
<polygon fill="#60a2e3" stroke="#404040" points="417,-196 363,-196 363,-160 417,-160 417,-196"/>
<text text-anchor="middle" x="390" y="-175.5" font-family="Helvetica,sans-Serif" font-size="10.00">bdm</text>
</a>
</g>
</g>
<!-- dir_0134b0376fbe77322088b496fb368f9b&#45;&gt;dir_9be0baa3d4a3e9f480a9ee70594037fa -->
<g id="edge1" class="edge">
<title>dir_0134b0376fbe77322088b496fb368f9b&#45;&gt;dir_9be0baa3d4a3e9f480a9ee70594037fa</title>
<path fill="none" stroke="black" d="M381.67,-159.67C370.01,-135.67 349.1,-93.71 339,-80 333.73,-72.84 327.32,-65.73 321.01,-59.35"/>
<polygon fill="black" stroke="black" points="323.33,-56.72 313.73,-52.24 318.44,-61.73 323.33,-56.72"/>
<g id="a_edge1&#45;headlabel"><a xlink:href="dir_000011_000159.html" target="_top" xlink:title="15">
<text text-anchor="middle" x="327.89" y="-54.7" font-family="Helvetica,sans-Serif" font-size="10.00">15</text>
</a>
</g>
</g>
<!-- dir_10cce8191a2d4629e92aaca1231c0797 -->
<g id="node11" class="node">
<title>dir_10cce8191a2d4629e92aaca1231c0797</title>
<g id="a_node11"><a xlink:href="dir_10cce8191a2d4629e92aaca1231c0797.html" target="_top" xlink:title="libbdm">
<polygon fill="#60a2e3" stroke="#404040" points="427,-124 373,-124 373,-88 427,-88 427,-124"/>
<text text-anchor="middle" x="400" y="-103.5" font-family="Helvetica,sans-Serif" font-size="10.00">libbdm</text>
</a>
</g>
</g>
<!-- dir_0134b0376fbe77322088b496fb368f9b&#45;&gt;dir_10cce8191a2d4629e92aaca1231c0797 -->
<g id="edge2" class="edge">
<title>dir_0134b0376fbe77322088b496fb368f9b&#45;&gt;dir_10cce8191a2d4629e92aaca1231c0797</title>
<path fill="none" stroke="black" d="M386.56,-159.7C386.86,-151.98 387.96,-142.71 389.53,-134.11"/>
<polygon fill="black" stroke="black" points="393,-134.61 391.66,-124.1 386.16,-133.16 393,-134.61"/>
<g id="a_edge2&#45;headlabel"><a xlink:href="dir_000011_000163.html" target="_top" xlink:title="1">
<text text-anchor="middle" x="395.03" y="-136.22" font-family="Helvetica,sans-Serif" font-size="10.00">1</text>
</a>
</g>
</g>
<!-- dir_bdd9a5d540de89e9fe90efdfc6973a4f -->
<g id="node13" class="node">
<title>dir_bdd9a5d540de89e9fe90efdfc6973a4f</title>
<g id="a_node13"><a xlink:href="dir_bdd9a5d540de89e9fe90efdfc6973a4f.html" target="_top" xlink:title="common">
<polygon fill="none" stroke="red" points="760,-52 706,-52 706,-16 760,-16 760,-52"/>
<text text-anchor="middle" x="733" y="-31.5" font-family="Helvetica,sans-Serif" font-size="10.00">common</text>
</a>
</g>
</g>
<!-- dir_0134b0376fbe77322088b496fb368f9b&#45;&gt;dir_bdd9a5d540de89e9fe90efdfc6973a4f -->
<g id="edge3" class="edge">
<title>dir_0134b0376fbe77322088b496fb368f9b&#45;&gt;dir_bdd9a5d540de89e9fe90efdfc6973a4f</title>
<path fill="none" stroke="black" d="M417.29,-161.8C418.54,-161.18 419.78,-160.58 421,-160 434.17,-153.78 616.67,-81.19 696.29,-49.57"/>
<polygon fill="black" stroke="black" points="697.92,-52.69 705.92,-45.75 695.33,-46.18 697.92,-52.69"/>
<g id="a_edge3&#45;headlabel"><a xlink:href="dir_000011_000022.html" target="_top" xlink:title="1">
<text text-anchor="middle" x="695.62" y="-54.16" font-family="Helvetica,sans-Serif" font-size="10.00">1</text>
</a>
</g>
</g>
<!-- dir_ca4e6ad4571d2d160c85f86efebac72d -->
<g id="node5" class="node">
<title>dir_ca4e6ad4571d2d160c85f86efebac72d</title>
<g id="a_node5"><a xlink:href="dir_ca4e6ad4571d2d160c85f86efebac72d.html" target="_top" xlink:title="bdmfs_fatfs">
<polygon fill="#60a2e3" stroke="#404040" points="308,-268 240,-268 240,-232 308,-232 308,-268"/>
<text text-anchor="middle" x="274" y="-247.5" font-family="Helvetica,sans-Serif" font-size="10.00">bdmfs_fatfs</text>
</a>
</g>
</g>
<!-- dir_ca4e6ad4571d2d160c85f86efebac72d&#45;&gt;dir_9be0baa3d4a3e9f480a9ee70594037fa -->
<g id="edge5" class="edge">
<title>dir_ca4e6ad4571d2d160c85f86efebac72d&#45;&gt;dir_9be0baa3d4a3e9f480a9ee70594037fa</title>
<path fill="none" stroke="black" d="M275.41,-231.71C277.93,-201.11 283.46,-135.4 289,-80 289.58,-74.23 290.24,-68.05 290.88,-62.18"/>
<polygon fill="black" stroke="black" points="294.38,-62.41 292.01,-52.09 287.42,-61.63 294.38,-62.41"/>
<g id="a_edge5&#45;headlabel"><a xlink:href="dir_000012_000159.html" target="_top" xlink:title="21">
<text text-anchor="middle" x="296.8" y="-63.8" font-family="Helvetica,sans-Serif" font-size="10.00">21</text>
</a>
</g>
</g>
<!-- dir_ca4e6ad4571d2d160c85f86efebac72d&#45;&gt;dir_0134b0376fbe77322088b496fb368f9b -->
<g id="edge4" class="edge">
<title>dir_ca4e6ad4571d2d160c85f86efebac72d&#45;&gt;dir_0134b0376fbe77322088b496fb368f9b</title>
<path fill="none" stroke="black" d="M302.38,-231.88C317.88,-222.52 337.25,-210.83 353.83,-200.83"/>
<polygon fill="black" stroke="black" points="355.96,-203.63 362.71,-195.47 352.34,-197.64 355.96,-203.63"/>
<g id="a_edge4&#45;headlabel"><a xlink:href="dir_000012_000011.html" target="_top" xlink:title="5">
<text text-anchor="middle" x="354.35" y="-205.42" font-family="Helvetica,sans-Serif" font-size="10.00">5</text>
</a>
</g>
</g>
<!-- dir_ca4e6ad4571d2d160c85f86efebac72d&#45;&gt;dir_bdd9a5d540de89e9fe90efdfc6973a4f -->
<g id="edge6" class="edge">
<title>dir_ca4e6ad4571d2d160c85f86efebac72d&#45;&gt;dir_bdd9a5d540de89e9fe90efdfc6973a4f</title>
<path fill="none" stroke="black" d="M308.46,-234.41C311.32,-233.5 314.19,-232.68 317,-232 397.96,-212.5 626.47,-249.84 690,-196 728.9,-163.03 734.62,-99.13 734.41,-62.53"/>
<polygon fill="black" stroke="black" points="737.9,-62.03 734.18,-52.11 730.9,-62.19 737.9,-62.03"/>
<g id="a_edge6&#45;headlabel"><a xlink:href="dir_000012_000022.html" target="_top" xlink:title="2">
<text text-anchor="middle" x="740.81" y="-63.07" font-family="Helvetica,sans-Serif" font-size="10.00">2</text>
</a>
</g>
</g>
<!-- dir_eabe988c95970cb88382a9440b1d86c2 -->
<g id="node6" class="node">
<title>dir_eabe988c95970cb88382a9440b1d86c2</title>
<g id="a_node6"><a xlink:href="dir_eabe988c95970cb88382a9440b1d86c2.html" target="_top" xlink:title="bdmfs_vfat">
<polygon fill="#60a2e3" stroke="#404040" points="391.5,-268 326.5,-268 326.5,-232 391.5,-232 391.5,-268"/>
<text text-anchor="middle" x="359" y="-247.5" font-family="Helvetica,sans-Serif" font-size="10.00">bdmfs_vfat</text>
</a>
</g>
</g>
<!-- dir_eabe988c95970cb88382a9440b1d86c2&#45;&gt;dir_9be0baa3d4a3e9f480a9ee70594037fa -->
<g id="edge9" class="edge">
<title>dir_eabe988c95970cb88382a9440b1d86c2&#45;&gt;dir_9be0baa3d4a3e9f480a9ee70594037fa</title>
<path fill="none" stroke="black" d="M337.21,-231.96C326.82,-222.55 315.31,-209.95 309,-196 289.36,-152.56 289.18,-95.92 291.28,-62.69"/>
<polygon fill="black" stroke="black" points="294.79,-62.61 292.05,-52.38 287.81,-62.09 294.79,-62.61"/>
<g id="a_edge9&#45;headlabel"><a xlink:href="dir_000013_000159.html" target="_top" xlink:title="29">
<text text-anchor="middle" x="297.36" y="-63.91" font-family="Helvetica,sans-Serif" font-size="10.00">29</text>
</a>
</g>
</g>
<!-- dir_eabe988c95970cb88382a9440b1d86c2&#45;&gt;dir_0134b0376fbe77322088b496fb368f9b -->
<g id="edge7" class="edge">
<title>dir_eabe988c95970cb88382a9440b1d86c2&#45;&gt;dir_0134b0376fbe77322088b496fb368f9b</title>
<path fill="none" stroke="black" d="M366.66,-231.7C370.19,-223.73 374.46,-214.1 378.37,-205.26"/>
<polygon fill="black" stroke="black" points="381.58,-206.67 382.43,-196.1 375.18,-203.83 381.58,-206.67"/>
<g id="a_edge7&#45;headlabel"><a xlink:href="dir_000013_000011.html" target="_top" xlink:title="4">
<text text-anchor="middle" x="382.72" y="-208.6" font-family="Helvetica,sans-Serif" font-size="10.00">4</text>
</a>
</g>
</g>
<!-- dir_eabe988c95970cb88382a9440b1d86c2&#45;&gt;dir_bdd9a5d540de89e9fe90efdfc6973a4f -->
<g id="edge8" class="edge">
<title>dir_eabe988c95970cb88382a9440b1d86c2&#45;&gt;dir_bdd9a5d540de89e9fe90efdfc6973a4f</title>
<path fill="none" stroke="black" d="M391.73,-234.77C394.83,-233.72 397.95,-232.77 401,-232 470.15,-214.45 670.36,-247.24 720,-196 754.36,-160.53 747.6,-97.66 740.03,-61.89"/>
<polygon fill="black" stroke="black" points="743.44,-61.1 737.8,-52.13 736.62,-62.66 743.44,-61.1"/>
<g id="a_edge8&#45;headlabel"><a xlink:href="dir_000013_000022.html" target="_top" xlink:title="5">
<text text-anchor="middle" x="747.01" y="-61.48" font-family="Helvetica,sans-Serif" font-size="10.00">5</text>
</a>
</g>
</g>
<!-- dir_a0342a6ef9487eda55789d2e07a75ee7 -->
<g id="node7" class="node">
<title>dir_a0342a6ef9487eda55789d2e07a75ee7</title>
<g id="a_node7"><a xlink:href="dir_a0342a6ef9487eda55789d2e07a75ee7.html" target="_top" xlink:title="devfs">
<polygon fill="#60a2e3" stroke="#404040" points="78,-268 24,-268 24,-232 78,-232 78,-268"/>
<text text-anchor="middle" x="51" y="-247.5" font-family="Helvetica,sans-Serif" font-size="10.00">devfs</text>
</a>
</g>
</g>
<!-- dir_a0342a6ef9487eda55789d2e07a75ee7&#45;&gt;dir_9be0baa3d4a3e9f480a9ee70594037fa -->
<g id="edge10" class="edge">
<title>dir_a0342a6ef9487eda55789d2e07a75ee7&#45;&gt;dir_9be0baa3d4a3e9f480a9ee70594037fa</title>
<path fill="none" stroke="black" d="M64.06,-231.96C89.62,-199.43 149.15,-127.49 211,-80 225.32,-69.01 242.68,-59.14 257.82,-51.47"/>
<polygon fill="black" stroke="black" points="259.49,-54.55 266.91,-46.99 256.39,-48.27 259.49,-54.55"/>
<g id="a_edge10&#45;headlabel"><a xlink:href="dir_000028_000159.html" target="_top" xlink:title="18">
<text text-anchor="middle" x="257.52" y="-56.19" font-family="Helvetica,sans-Serif" font-size="10.00">18</text>
</a>
</g>
</g>
<!-- dir_6ec8af8771869123149626592b760e4b -->
<g id="node8" class="node">
<title>dir_6ec8af8771869123149626592b760e4b</title>
<g id="a_node8"><a xlink:href="dir_6ec8af8771869123149626592b760e4b.html" target="_top" xlink:title="fakehost">
<polygon fill="#60a2e3" stroke="#404040" points="150,-268 96,-268 96,-232 150,-232 150,-268"/>
<text text-anchor="middle" x="123" y="-247.5" font-family="Helvetica,sans-Serif" font-size="10.00">fakehost</text>
</a>
</g>
</g>
<!-- dir_6ec8af8771869123149626592b760e4b&#45;&gt;dir_9be0baa3d4a3e9f480a9ee70594037fa -->
<g id="edge11" class="edge">
<title>dir_6ec8af8771869123149626592b760e4b&#45;&gt;dir_9be0baa3d4a3e9f480a9ee70594037fa</title>
<path fill="none" stroke="black" d="M134.74,-231.58C156.14,-200.21 203.52,-132.6 249,-80 254.92,-73.15 261.66,-66.08 268.09,-59.62"/>
<polygon fill="black" stroke="black" points="270.77,-61.9 275.43,-52.38 265.85,-56.92 270.77,-61.9"/>
<g id="a_edge11&#45;headlabel"><a xlink:href="dir_000047_000159.html" target="_top" xlink:title="23">
<text text-anchor="middle" x="270.21" y="-63.94" font-family="Helvetica,sans-Serif" font-size="10.00">23</text>
</a>
</g>
</g>
<!-- dir_3d3c25f590b74dfbd50a8b02c417c665 -->
<g id="node9" class="node">
<title>dir_3d3c25f590b74dfbd50a8b02c417c665</title>
<g id="a_node9"><a xlink:href="dir_3d3c25f590b74dfbd50a8b02c417c665.html" target="_top" xlink:title="filexio">
<polygon fill="#60a2e3" stroke="#404040" points="464,-268 410,-268 410,-232 464,-232 464,-268"/>
<text text-anchor="middle" x="437" y="-247.5" font-family="Helvetica,sans-Serif" font-size="10.00">filexio</text>
</a>
</g>
</g>
<!-- dir_3d3c25f590b74dfbd50a8b02c417c665&#45;&gt;dir_9be0baa3d4a3e9f480a9ee70594037fa -->
<g id="edge12" class="edge">
<title>dir_3d3c25f590b74dfbd50a8b02c417c665&#45;&gt;dir_9be0baa3d4a3e9f480a9ee70594037fa</title>
<path fill="none" stroke="black" d="M409.82,-236.39C378.74,-221.85 331.74,-199.5 329,-196 312.89,-175.43 301.95,-102.24 297,-62"/>
<polygon fill="black" stroke="black" points="300.48,-61.57 295.82,-52.06 293.53,-62.4 300.48,-61.57"/>
<g id="a_edge12&#45;headlabel"><a xlink:href="dir_000049_000159.html" target="_top" xlink:title="16">
<text text-anchor="middle" x="303.72" y="-62.31" font-family="Helvetica,sans-Serif" font-size="10.00">16</text>
</a>
</g>
</g>
<!-- dir_3d3c25f590b74dfbd50a8b02c417c665&#45;&gt;dir_bdd9a5d540de89e9fe90efdfc6973a4f -->
<g id="edge13" class="edge">
<title>dir_3d3c25f590b74dfbd50a8b02c417c665&#45;&gt;dir_bdd9a5d540de89e9fe90efdfc6973a4f</title>
<path fill="none" stroke="black" d="M464.17,-235.08C467.1,-233.91 470.08,-232.85 473,-232 534.29,-214.15 715.78,-243.88 758,-196 792.09,-157.33 770.93,-129.91 758,-80 756.32,-73.53 753.49,-67 750.32,-60.99"/>
<polygon fill="black" stroke="black" points="753.21,-58.99 745.18,-52.07 747.14,-62.49 753.21,-58.99"/>
<g id="a_edge13&#45;headlabel"><a xlink:href="dir_000049_000022.html" target="_top" xlink:title="2">
<text text-anchor="middle" x="757.46" y="-58.19" font-family="Helvetica,sans-Serif" font-size="10.00">2</text>
</a>
</g>
</g>
<!-- dir_bb1a65baea34b53b4bbf06e6d3ddfe57 -->
<g id="node10" class="node">
<title>dir_bb1a65baea34b53b4bbf06e6d3ddfe57</title>
<g id="a_node10"><a xlink:href="dir_bb1a65baea34b53b4bbf06e6d3ddfe57.html" target="_top" xlink:title="http">
<polygon fill="#60a2e3" stroke="#404040" points="222,-268 168,-268 168,-232 222,-232 222,-268"/>
<text text-anchor="middle" x="195" y="-247.5" font-family="Helvetica,sans-Serif" font-size="10.00">http</text>
</a>
</g>
</g>
<!-- dir_bb1a65baea34b53b4bbf06e6d3ddfe57&#45;&gt;dir_9be0baa3d4a3e9f480a9ee70594037fa -->
<g id="edge14" class="edge">
<title>dir_bb1a65baea34b53b4bbf06e6d3ddfe57&#45;&gt;dir_9be0baa3d4a3e9f480a9ee70594037fa</title>
<path fill="none" stroke="black" d="M202.93,-231.85C220.17,-194.6 261.12,-106.07 281.72,-61.54"/>
<polygon fill="black" stroke="black" points="285.01,-62.78 286.03,-52.23 278.65,-59.84 285.01,-62.78"/>
<g id="a_edge14&#45;headlabel"><a xlink:href="dir_000057_000159.html" target="_top" xlink:title="16">
<text text-anchor="middle" x="286.07" y="-64.73" font-family="Helvetica,sans-Serif" font-size="10.00">16</text>
</a>
</g>
</g>
<!-- dir_10cce8191a2d4629e92aaca1231c0797&#45;&gt;dir_9be0baa3d4a3e9f480a9ee70594037fa -->
<g id="edge16" class="edge">
<title>dir_10cce8191a2d4629e92aaca1231c0797&#45;&gt;dir_9be0baa3d4a3e9f480a9ee70594037fa</title>
<path fill="none" stroke="black" d="M379.63,-87.92C376.15,-85.19 372.51,-82.45 369,-80 356.68,-71.4 342.67,-62.72 330.13,-55.31"/>
<polygon fill="black" stroke="black" points="331.7,-52.17 321.3,-50.16 328.17,-58.22 331.7,-52.17"/>
<g id="a_edge16&#45;headlabel"><a xlink:href="dir_000163_000159.html" target="_top" xlink:title="2">
<text text-anchor="middle" x="336.23" y="-49.03" font-family="Helvetica,sans-Serif" font-size="10.00">2</text>
</a>
</g>
</g>
<!-- dir_10cce8191a2d4629e92aaca1231c0797&#45;&gt;dir_0134b0376fbe77322088b496fb368f9b -->
<g id="edge15" class="edge">
<title>dir_10cce8191a2d4629e92aaca1231c0797&#45;&gt;dir_0134b0376fbe77322088b496fb368f9b</title>
<path fill="none" stroke="black" d="M403.45,-124.1C403.16,-131.79 402.07,-141.05 400.51,-149.67"/>
<polygon fill="black" stroke="black" points="397.03,-149.19 398.39,-159.7 403.88,-150.64 397.03,-149.19"/>
<g id="a_edge15&#45;headlabel"><a xlink:href="dir_000163_000011.html" target="_top" xlink:title="2">
<text text-anchor="middle" x="395" y="-142.58" font-family="Helvetica,sans-Serif" font-size="10.00">2</text>
</a>
</g>
</g>
<!-- dir_10cce8191a2d4629e92aaca1231c0797&#45;&gt;dir_bdd9a5d540de89e9fe90efdfc6973a4f -->
<g id="edge17" class="edge">
<title>dir_10cce8191a2d4629e92aaca1231c0797&#45;&gt;dir_bdd9a5d540de89e9fe90efdfc6973a4f</title>
<path fill="none" stroke="black" d="M427.43,-100.3C494.82,-88.72 664.84,-59.2 690,-52 692.13,-51.39 694.3,-50.71 696.48,-49.99"/>
<polygon fill="black" stroke="black" points="697.74,-53.26 705.98,-46.61 695.39,-46.67 697.74,-53.26"/>
<g id="a_edge17&#45;headlabel"><a xlink:href="dir_000163_000022.html" target="_top" xlink:title="3">
<text text-anchor="middle" x="695.3" y="-54.64" font-family="Helvetica,sans-Serif" font-size="10.00">3</text>
</a>
</g>
</g>
<!-- dir_c49d6f7b24cb4247c18d467361672153 -->
<g id="node12" class="node">
<title>dir_c49d6f7b24cb4247c18d467361672153</title>
<g id="a_node12"><a xlink:href="dir_c49d6f7b24cb4247c18d467361672153.html" target="_top" xlink:title="netfs">
<polygon fill="#60a2e3" stroke="#404040" points="536,-268 482,-268 482,-232 536,-232 536,-268"/>
<text text-anchor="middle" x="509" y="-247.5" font-family="Helvetica,sans-Serif" font-size="10.00">netfs</text>
</a>
</g>
</g>
<!-- dir_c49d6f7b24cb4247c18d467361672153&#45;&gt;dir_9be0baa3d4a3e9f480a9ee70594037fa -->
<g id="edge18" class="edge">
<title>dir_c49d6f7b24cb4247c18d467361672153&#45;&gt;dir_9be0baa3d4a3e9f480a9ee70594037fa</title>
<path fill="none" stroke="black" d="M481.66,-235.58C478.76,-234.31 475.84,-233.09 473,-232 421.43,-212.15 394.28,-233.82 354,-196 343.83,-186.45 316.5,-104.94 302.51,-61.7"/>
<polygon fill="black" stroke="black" points="305.81,-60.54 299.42,-52.09 299.15,-62.68 305.81,-60.54"/>
<g id="a_edge18&#45;headlabel"><a xlink:href="dir_000186_000159.html" target="_top" xlink:title="32">
<text text-anchor="middle" x="309.62" y="-60.59" font-family="Helvetica,sans-Serif" font-size="10.00">32</text>
</a>
</g>
</g>
<!-- dir_c49d6f7b24cb4247c18d467361672153&#45;&gt;dir_40ac35421bc63b72c26b6c69b1517fd6 -->
<g id="edge19" class="edge">
<title>dir_c49d6f7b24cb4247c18d467361672153&#45;&gt;dir_40ac35421bc63b72c26b6c69b1517fd6</title>
<path fill="none" stroke="black" d="M536.23,-236.1C561.13,-224.28 596.45,-207.49 614.82,-198.49"/>
<polygon fill="black" stroke="black" points="616.61,-201.52 624,-193.92 613.48,-195.25 616.61,-201.52"/>
<g id="a_edge19&#45;headlabel"><a xlink:href="dir_000186_000342.html" target="_top" xlink:title="3">
<text text-anchor="middle" x="614.65" y="-203.16" font-family="Helvetica,sans-Serif" font-size="10.00">3</text>
</a>
</g>
</g>
<!-- dir_c49d6f7b24cb4247c18d467361672153&#45;&gt;dir_bdd9a5d540de89e9fe90efdfc6973a4f -->
<g id="edge20" class="edge">
<title>dir_c49d6f7b24cb4247c18d467361672153&#45;&gt;dir_bdd9a5d540de89e9fe90efdfc6973a4f</title>
<path fill="none" stroke="black" d="M536.18,-235.13C539.11,-233.95 542.09,-232.87 545,-232 598.97,-215.79 759.09,-238.58 796,-196 829.77,-157.04 819.59,-125.84 796,-80 790.03,-68.4 779.53,-59.13 768.8,-52.09"/>
<polygon fill="black" stroke="black" points="770.59,-49.08 760.22,-46.91 766.98,-55.07 770.59,-49.08"/>
<g id="a_edge20&#45;headlabel"><a xlink:href="dir_000186_000022.html" target="_top" xlink:title="1">
<text text-anchor="middle" x="775.13" y="-46" font-family="Helvetica,sans-Serif" font-size="10.00">1</text>
</a>
</g>
</g>
</g>
</svg>
        <g id="navigator" transform="translate(0 0)" fill="#404254">
                <rect fill="#f2f5e9" fill-opacity="0.5" stroke="#606060" stroke-width=".5" x="0" y="0" width="60" height="60"/>
                <use id="zoomplus" xlink:href="#zoomPlus" x="17" y="9" onmousedown="handleZoom(evt,'in')"/>
                <use id="zoomminus" xlink:href="#zoomMin" x="42" y="9" onmousedown="handleZoom(evt,'out')"/>
                <use id="reset" xlink:href="#resetDef" x="30" y="36" onmousedown="handleReset()"/>
                <g id="arrowUp" xlink:href="#dirArrow" transform="translate(30 24)" onmousedown="handlePan(0,-1)">
                  <use xlink:href="#rim" fill="#404040">
                        <set attributeName="fill" to="#808080" begin="arrowUp.mouseover" end="arrowUp.mouseout"/>
                  </use>
                  <path fill="none" stroke="white" stroke-width="1.5" d="M0,-3.0v7 M-2.5,-0.5L0,-3.0L2.5,-0.5"/>
                </g>
                <g id="arrowRight" xlink:href="#dirArrow" transform="rotate(90) translate(36 -43)" onmousedown="handlePan(1,0)">
                  <use xlink:href="#rim" fill="#404040">
                        <set attributeName="fill" to="#808080" begin="arrowRight.mouseover" end="arrowRight.mouseout"/>
                  </use>
                  <path fill="none" stroke="white" stroke-width="1.5" d="M0,-3.0v7 M-2.5,-0.5L0,-3.0L2.5,-0.5"/>
                </g>
                <g id="arrowDown" xlink:href="#dirArrow" transform="rotate(180) translate(-30 -48)" onmousedown="handlePan(0,1)">
                  <use xlink:href="#rim" fill="#404040">
                        <set attributeName="fill" to="#808080" begin="arrowDown.mouseover" end="arrowDown.mouseout"/>
                  </use>
                  <path fill="none" stroke="white" stroke-width="1.5" d="M0,-3.0v7 M-2.5,-0.5L0,-3.0L2.5,-0.5"/>
                </g>
                <g id="arrowLeft" xlink:href="#dirArrow" transform="rotate(270) translate(-36 17)" onmousedown="handlePan(-1,0)">
                  <use xlink:href="#rim" fill="#404040">
                        <set attributeName="fill" to="#808080" begin="arrowLeft.mouseover" end="arrowLeft.mouseout"/>
                  </use>
                  <path fill="none" stroke="white" stroke-width="1.5" d="M0,-3.0v7 M-2.5,-0.5L0,-3.0L2.5,-0.5"/>
                </g>
        </g>
        <svg viewBox="0 0 15 15" width="100%" height="30px" preserveAspectRatio="xMaxYMin meet">
         <g id="arrow_out" transform="scale(0.3 0.3)">
          <a xlink:href="dir_f24daea2522ffa8b6dc5fa9cdf5b8f5c_dep_org.svg" target="_base">
           <rect id="button" ry="5" rx="5" y="6" x="6" height="38" width="38"
                fill="#f2f5e9" fill-opacity="0.5" stroke="#606060" stroke-width="1.0"/>
           <path id="arrow"
             d="M 11.500037,31.436501 C 11.940474,20.09759 22.043105,11.32322 32.158766,21.979434 L 37.068811,17.246167 C 37.068811,17.246167 37.088388,32 37.088388,32 L 22.160133,31.978069 C 22.160133,31.978069 26.997745,27.140456 26.997745,27.140456 C 18.528582,18.264221 13.291696,25.230495 11.500037,31.436501 z"
             style="fill:#404040;"/>
          </a>
         </g>
        </svg>
</svg>
