<?xml version="1.0" encoding="UTF-8" standalone="no"?>
<!DOCTYPE svg PUBLIC "-//W3C//DTD SVG 1.1//EN"
 "http://www.w3.org/Graphics/SVG/1.1/DTD/svg11.dtd">
<!-- Generated by graphviz version 3.0.0 (20220413.0242)
 -->
<!-- Title: iop/fs/fakehost/src/fakehost.c Pages: 1 -->
<svg width="804pt" height="263pt"
 viewBox="0.00 0.00 803.50 263.00" xmlns="http://www.w3.org/2000/svg" xmlns:xlink="http://www.w3.org/1999/xlink">
<g id="graph0" class="graph" transform="scale(1 1) rotate(0) translate(4 259)">
<title>iop/fs/fakehost/src/fakehost.c</title>
<polygon fill="white" stroke="transparent" points="-4,4 -4,-259 799.5,-259 799.5,4 -4,4"/>
<!-- Node1 -->
<g id="node1" class="node">
<title>Node1</title>
<g id="a_node1"><a xlink:title=" ">
<polygon fill="#bfbfbf" stroke="black" points="327.5,-224.5 327.5,-254.5 425.5,-254.5 425.5,-224.5 327.5,-224.5"/>
<text text-anchor="start" x="335.5" y="-242.5" font-family="Helvetica,sans-Serif" font-size="10.00">iop/fs/fakehost/src</text>
<text text-anchor="middle" x="376.5" y="-231.5" font-family="Helvetica,sans-Serif" font-size="10.00">/fakehost.c</text>
</a>
</g>
</g>
<!-- Node2 -->
<g id="node2" class="node">
<title>Node2</title>
<g id="a_node2"><a xlink:title=" ">
<polygon fill="white" stroke="#bfbfbf" points="0,-168.5 0,-187.5 47,-187.5 47,-168.5 0,-168.5"/>
<text text-anchor="middle" x="23.5" y="-175.5" font-family="Helvetica,sans-Serif" font-size="10.00">types.h</text>
</a>
</g>
</g>
<!-- Node1&#45;&gt;Node2 -->
<g id="edge1" class="edge">
<title>Node1&#45;&gt;Node2</title>
<path fill="none" stroke="midnightblue" d="M327.4,-232.45C266.3,-224.56 158.63,-209.4 57.03,-187.9"/>
<polygon fill="midnightblue" stroke="midnightblue" points="57.73,-184.47 47.22,-185.8 56.26,-191.32 57.73,-184.47"/>
</g>
<!-- Node3 -->
<g id="node3" class="node">
<title>Node3</title>
<g id="a_node3"><a xlink:href="loadcore_8h.html" target="_top" xlink:title=" ">
<polygon fill="white" stroke="black" points="425,-168.5 425,-187.5 486,-187.5 486,-168.5 425,-168.5"/>
<text text-anchor="middle" x="455.5" y="-175.5" font-family="Helvetica,sans-Serif" font-size="10.00">loadcore.h</text>
</a>
</g>
</g>
<!-- Node1&#45;&gt;Node3 -->
<g id="edge2" class="edge">
<title>Node1&#45;&gt;Node3</title>
<path fill="none" stroke="midnightblue" d="M395.22,-224.4C407.41,-215.22 423.29,-203.26 435.69,-193.92"/>
<polygon fill="midnightblue" stroke="midnightblue" points="438.12,-196.47 444,-187.66 433.91,-190.88 438.12,-196.47"/>
</g>
<!-- Node8 -->
<g id="node8" class="node">
<title>Node8</title>
<g id="a_node8"><a xlink:href="stdio_8h.html" target="_top" xlink:title=" ">
<polygon fill="white" stroke="black" points="283,-168.5 283,-187.5 328,-187.5 328,-168.5 283,-168.5"/>
<text text-anchor="middle" x="305.5" y="-175.5" font-family="Helvetica,sans-Serif" font-size="10.00">stdio.h</text>
</a>
</g>
</g>
<!-- Node1&#45;&gt;Node8 -->
<g id="edge8" class="edge">
<title>Node1&#45;&gt;Node8</title>
<path fill="none" stroke="midnightblue" d="M359.67,-224.4C348.83,-215.31 334.72,-203.49 323.63,-194.19"/>
<polygon fill="midnightblue" stroke="midnightblue" points="325.74,-191.4 315.83,-187.66 321.25,-196.76 325.74,-191.4"/>
</g>
<!-- Node10 -->
<g id="node10" class="node">
<title>Node10</title>
<g id="a_node10"><a xlink:href="sysclib_8h.html" target="_top" xlink:title=" ">
<polygon fill="white" stroke="black" points="65.5,-168.5 65.5,-187.5 119.5,-187.5 119.5,-168.5 65.5,-168.5"/>
<text text-anchor="middle" x="92.5" y="-175.5" font-family="Helvetica,sans-Serif" font-size="10.00">sysclib.h</text>
</a>
</g>
</g>
<!-- Node1&#45;&gt;Node10 -->
<g id="edge11" class="edge">
<title>Node1&#45;&gt;Node10</title>
<path fill="none" stroke="midnightblue" d="M327.43,-229.17C279.45,-219.9 204.1,-204.95 129.62,-188.18"/>
<polygon fill="midnightblue" stroke="midnightblue" points="130.12,-184.7 119.6,-185.91 128.58,-191.53 130.12,-184.7"/>
</g>
<!-- Node13 -->
<g id="node13" class="node">
<title>Node13</title>
<g id="a_node13"><a xlink:href="thbase_8h.html" target="_top" xlink:title=" ">
<polygon fill="white" stroke="black" points="504,-168.5 504,-187.5 557,-187.5 557,-168.5 504,-168.5"/>
<text text-anchor="middle" x="530.5" y="-175.5" font-family="Helvetica,sans-Serif" font-size="10.00">thbase.h</text>
</a>
</g>
</g>
<!-- Node1&#45;&gt;Node13 -->
<g id="edge18" class="edge">
<title>Node1&#45;&gt;Node13</title>
<path fill="none" stroke="midnightblue" d="M413,-224.4C439.07,-214.33 473.79,-200.91 498.72,-191.28"/>
<polygon fill="midnightblue" stroke="midnightblue" points="500.03,-194.53 508.09,-187.66 497.5,-188 500.03,-194.53"/>
</g>
<!-- Node14 -->
<g id="node14" class="node">
<title>Node14</title>
<g id="a_node14"><a xlink:href="intrman_8h.html" target="_top" xlink:title=" ">
<polygon fill="white" stroke="black" points="137.5,-168.5 137.5,-187.5 193.5,-187.5 193.5,-168.5 137.5,-168.5"/>
<text text-anchor="middle" x="165.5" y="-175.5" font-family="Helvetica,sans-Serif" font-size="10.00">intrman.h</text>
</a>
</g>
</g>
<!-- Node1&#45;&gt;Node14 -->
<g id="edge21" class="edge">
<title>Node1&#45;&gt;Node14</title>
<path fill="none" stroke="midnightblue" d="M327.3,-224.62C289.5,-213.97 238.08,-199.47 203.43,-189.7"/>
<polygon fill="midnightblue" stroke="midnightblue" points="204.27,-186.3 193.69,-186.95 202.37,-193.03 204.27,-186.3"/>
</g>
<!-- Node15 -->
<g id="node15" class="node">
<title>Node15</title>
<g id="a_node15"><a xlink:href="sysmem_8h.html" target="_top" xlink:title=" ">
<polygon fill="white" stroke="black" points="346,-168.5 346,-187.5 407,-187.5 407,-168.5 346,-168.5"/>
<text text-anchor="middle" x="376.5" y="-175.5" font-family="Helvetica,sans-Serif" font-size="10.00">sysmem.h</text>
</a>
</g>
</g>
<!-- Node1&#45;&gt;Node15 -->
<g id="edge24" class="edge">
<title>Node1&#45;&gt;Node15</title>
<path fill="none" stroke="midnightblue" d="M376.5,-224.4C376.5,-216.47 376.5,-206.46 376.5,-197.86"/>
<polygon fill="midnightblue" stroke="midnightblue" points="380,-197.66 376.5,-187.66 373,-197.66 380,-197.66"/>
</g>
<!-- Node16 -->
<g id="node16" class="node">
<title>Node16</title>
<g id="a_node16"><a xlink:href="sifman_8h.html" target="_top" xlink:title=" ">
<polygon fill="white" stroke="black" points="212,-168.5 212,-187.5 265,-187.5 265,-168.5 212,-168.5"/>
<text text-anchor="middle" x="238.5" y="-175.5" font-family="Helvetica,sans-Serif" font-size="10.00">sifman.h</text>
</a>
</g>
</g>
<!-- Node1&#45;&gt;Node16 -->
<g id="edge28" class="edge">
<title>Node1&#45;&gt;Node16</title>
<path fill="none" stroke="midnightblue" d="M343.8,-224.4C320.75,-214.46 290.14,-201.26 267.87,-191.66"/>
<polygon fill="midnightblue" stroke="midnightblue" points="269.15,-188.4 258.58,-187.66 266.38,-194.83 269.15,-188.4"/>
</g>
<!-- Node17 -->
<g id="node17" class="node">
<title>Node17</title>
<g id="a_node17"><a xlink:title=" ">
<polygon fill="white" stroke="#bfbfbf" points="575,-168.5 575,-187.5 628,-187.5 628,-168.5 575,-168.5"/>
<text text-anchor="middle" x="601.5" y="-175.5" font-family="Helvetica,sans-Serif" font-size="10.00">sifcmd.h</text>
</a>
</g>
</g>
<!-- Node1&#45;&gt;Node17 -->
<g id="edge31" class="edge">
<title>Node1&#45;&gt;Node17</title>
<path fill="none" stroke="midnightblue" d="M425.6,-225.52C467.56,-214.42 526.99,-198.7 564.89,-188.68"/>
<polygon fill="midnightblue" stroke="midnightblue" points="566.2,-191.96 574.97,-186.01 564.41,-185.19 566.2,-191.96"/>
</g>
<!-- Node18 -->
<g id="node18" class="node">
<title>Node18</title>
<g id="a_node18"><a xlink:href="ioman_x_8h.html" target="_top" xlink:title=" ">
<polygon fill="white" stroke="black" points="646,-168.5 646,-187.5 703,-187.5 703,-168.5 646,-168.5"/>
<text text-anchor="middle" x="674.5" y="-175.5" font-family="Helvetica,sans-Serif" font-size="10.00">iomanX.h</text>
</a>
</g>
</g>
<!-- Node1&#45;&gt;Node18 -->
<g id="edge32" class="edge">
<title>Node1&#45;&gt;Node18</title>
<path fill="none" stroke="midnightblue" d="M425.71,-229.7C476.13,-220.52 557.03,-205.35 635.76,-188.31"/>
<polygon fill="midnightblue" stroke="midnightblue" points="636.82,-191.66 645.85,-186.11 635.33,-184.82 636.82,-191.66"/>
</g>
<!-- Node24 -->
<g id="node24" class="node">
<title>Node24</title>
<g id="a_node24"><a xlink:href="ioman__mod_8h.html" target="_top" xlink:title=" ">
<polygon fill="white" stroke="black" points="721.5,-168.5 721.5,-187.5 795.5,-187.5 795.5,-168.5 721.5,-168.5"/>
<text text-anchor="middle" x="758.5" y="-175.5" font-family="Helvetica,sans-Serif" font-size="10.00">ioman_mod.h</text>
</a>
</g>
</g>
<!-- Node1&#45;&gt;Node24 -->
<g id="edge40" class="edge">
<title>Node1&#45;&gt;Node24</title>
<path fill="none" stroke="midnightblue" d="M425.58,-231.81C489.13,-223 603.58,-206.62 711.3,-188.15"/>
<polygon fill="midnightblue" stroke="midnightblue" points="712.11,-191.56 721.37,-186.41 710.92,-184.66 712.11,-191.56"/>
</g>
<!-- Node4 -->
<g id="node4" class="node">
<title>Node4</title>
<g id="a_node4"><a xlink:href="types_8h_source.html" target="_top" xlink:title=" ">
<polygon fill="white" stroke="black" points="362,-56.5 362,-75.5 409,-75.5 409,-56.5 362,-56.5"/>
<text text-anchor="middle" x="385.5" y="-63.5" font-family="Helvetica,sans-Serif" font-size="10.00">types.h</text>
</a>
</g>
</g>
<!-- Node3&#45;&gt;Node4 -->
<g id="edge3" class="edge">
<title>Node3&#45;&gt;Node4</title>
<path fill="none" stroke="midnightblue" d="M454.17,-168.4C451.85,-155.36 446.15,-130.17 434.5,-112 427.07,-100.42 415.95,-89.87 406.18,-81.91"/>
<polygon fill="midnightblue" stroke="midnightblue" points="408.11,-78.98 398.06,-75.61 403.82,-84.5 408.11,-78.98"/>
</g>
<!-- Node7 -->
<g id="node7" class="node">
<title>Node7</title>
<g id="a_node7"><a xlink:href="irx_8h.html" target="_top" xlink:title=" ">
<polygon fill="white" stroke="black" points="391.5,-112.5 391.5,-131.5 425.5,-131.5 425.5,-112.5 391.5,-112.5"/>
<text text-anchor="middle" x="408.5" y="-119.5" font-family="Helvetica,sans-Serif" font-size="10.00">irx.h</text>
</a>
</g>
</g>
<!-- Node3&#45;&gt;Node7 -->
<g id="edge6" class="edge">
<title>Node3&#45;&gt;Node7</title>
<path fill="none" stroke="midnightblue" d="M447.74,-168.08C440.96,-160.3 430.96,-148.8 422.74,-139.37"/>
<polygon fill="midnightblue" stroke="midnightblue" points="425.32,-137 416.12,-131.75 420.04,-141.59 425.32,-137"/>
</g>
<!-- Node5 -->
<g id="node5" class="node">
<title>Node5</title>
<g id="a_node5"><a xlink:title=" ">
<polygon fill="white" stroke="#bfbfbf" points="360,-0.5 360,-19.5 411,-19.5 411,-0.5 360,-0.5"/>
<text text-anchor="middle" x="385.5" y="-7.5" font-family="Helvetica,sans-Serif" font-size="10.00">stddef.h</text>
</a>
</g>
</g>
<!-- Node4&#45;&gt;Node5 -->
<g id="edge4" class="edge">
<title>Node4&#45;&gt;Node5</title>
<path fill="none" stroke="midnightblue" d="M385.5,-56.08C385.5,-49.01 385.5,-38.86 385.5,-29.99"/>
<polygon fill="midnightblue" stroke="midnightblue" points="389,-29.75 385.5,-19.75 382,-29.75 389,-29.75"/>
</g>
<!-- Node6 -->
<g id="node6" class="node">
<title>Node6</title>
<g id="a_node6"><a xlink:href="tamtypes_8h.html" target="_top" xlink:title=" ">
<polygon fill="white" stroke="black" points="224.5,-0.5 224.5,-19.5 288.5,-19.5 288.5,-0.5 224.5,-0.5"/>
<text text-anchor="middle" x="256.5" y="-7.5" font-family="Helvetica,sans-Serif" font-size="10.00">tamtypes.h</text>
</a>
</g>
</g>
<!-- Node4&#45;&gt;Node6 -->
<g id="edge5" class="edge">
<title>Node4&#45;&gt;Node6</title>
<path fill="none" stroke="midnightblue" d="M365.06,-56.44C343.83,-47.56 310.4,-33.56 286.25,-23.45"/>
<polygon fill="midnightblue" stroke="midnightblue" points="287.42,-20.15 276.84,-19.52 284.72,-26.61 287.42,-20.15"/>
</g>
<!-- Node7&#45;&gt;Node4 -->
<g id="edge7" class="edge">
<title>Node7&#45;&gt;Node4</title>
<path fill="none" stroke="midnightblue" d="M404.7,-112.08C401.59,-104.77 397.08,-94.18 393.21,-85.1"/>
<polygon fill="midnightblue" stroke="midnightblue" points="396.37,-83.58 389.23,-75.75 389.93,-86.32 396.37,-83.58"/>
</g>
<!-- Node8&#45;&gt;Node7 -->
<g id="edge10" class="edge">
<title>Node8&#45;&gt;Node7</title>
<path fill="none" stroke="midnightblue" d="M322.05,-168.32C338.49,-159.7 363.93,-146.36 382.97,-136.39"/>
<polygon fill="midnightblue" stroke="midnightblue" points="384.76,-139.4 391.99,-131.65 381.51,-133.2 384.76,-139.4"/>
</g>
<!-- Node9 -->
<g id="node9" class="node">
<title>Node9</title>
<g id="a_node9"><a xlink:title=" ">
<polygon fill="white" stroke="#bfbfbf" points="281,-112.5 281,-131.5 332,-131.5 332,-112.5 281,-112.5"/>
<text text-anchor="middle" x="306.5" y="-119.5" font-family="Helvetica,sans-Serif" font-size="10.00">stdarg.h</text>
</a>
</g>
</g>
<!-- Node8&#45;&gt;Node9 -->
<g id="edge9" class="edge">
<title>Node8&#45;&gt;Node9</title>
<path fill="none" stroke="midnightblue" d="M305.67,-168.08C305.8,-161.01 305.98,-150.86 306.15,-141.99"/>
<polygon fill="midnightblue" stroke="midnightblue" points="309.65,-141.81 306.34,-131.75 302.65,-141.68 309.65,-141.81"/>
</g>
<!-- Node10&#45;&gt;Node4 -->
<g id="edge12" class="edge">
<title>Node10&#45;&gt;Node4</title>
<path fill="none" stroke="midnightblue" d="M106.9,-168.37C129.98,-154.82 176.99,-128.43 219.5,-112 264.17,-94.73 318.04,-81.43 352.03,-73.91"/>
<polygon fill="midnightblue" stroke="midnightblue" points="352.89,-77.31 361.92,-71.77 351.4,-70.47 352.89,-77.31"/>
</g>
<!-- Node10&#45;&gt;Node7 -->
<g id="edge13" class="edge">
<title>Node10&#45;&gt;Node7</title>
<path fill="none" stroke="midnightblue" d="M119.57,-169.97C122.57,-169.27 125.6,-168.6 128.5,-168 220.62,-149.12 331.13,-133.36 381.32,-126.58"/>
<polygon fill="midnightblue" stroke="midnightblue" points="381.92,-130.03 391.36,-125.23 380.99,-123.09 381.92,-130.03"/>
</g>
<!-- Node10&#45;&gt;Node9 -->
<g id="edge14" class="edge">
<title>Node10&#45;&gt;Node9</title>
<path fill="none" stroke="midnightblue" d="M119.6,-170.16C158.05,-160.46 228.46,-142.69 271.02,-131.95"/>
<polygon fill="midnightblue" stroke="midnightblue" points="272.11,-135.29 280.95,-129.45 270.4,-128.5 272.11,-135.29"/>
</g>
<!-- Node11 -->
<g id="node11" class="node">
<title>Node11</title>
<g id="a_node11"><a xlink:href="setjmp_8h.html" target="_top" xlink:title=" ">
<polygon fill="white" stroke="black" points="124,-56.5 124,-75.5 177,-75.5 177,-56.5 124,-56.5"/>
<text text-anchor="middle" x="150.5" y="-63.5" font-family="Helvetica,sans-Serif" font-size="10.00">setjmp.h</text>
</a>
</g>
</g>
<!-- Node10&#45;&gt;Node11 -->
<g id="edge15" class="edge">
<title>Node10&#45;&gt;Node11</title>
<path fill="none" stroke="midnightblue" d="M90.01,-168.46C86.74,-155.5 82.39,-130.41 91.5,-112 98.1,-98.66 110.76,-88.19 122.67,-80.73"/>
<polygon fill="midnightblue" stroke="midnightblue" points="124.62,-83.64 131.52,-75.6 121.11,-77.59 124.62,-83.64"/>
</g>
<!-- Node12 -->
<g id="node12" class="node">
<title>Node12</title>
<g id="a_node12"><a xlink:href="ctype_8h.html" target="_top" xlink:title=" ">
<polygon fill="white" stroke="black" points="101,-112.5 101,-131.5 148,-131.5 148,-112.5 101,-112.5"/>
<text text-anchor="middle" x="124.5" y="-119.5" font-family="Helvetica,sans-Serif" font-size="10.00">ctype.h</text>
</a>
</g>
</g>
<!-- Node10&#45;&gt;Node12 -->
<g id="edge17" class="edge">
<title>Node10&#45;&gt;Node12</title>
<path fill="none" stroke="midnightblue" d="M97.78,-168.08C102.21,-160.61 108.66,-149.72 114.12,-140.52"/>
<polygon fill="midnightblue" stroke="midnightblue" points="117.23,-142.14 119.31,-131.75 111.21,-138.57 117.23,-142.14"/>
</g>
<!-- Node11&#45;&gt;Node6 -->
<g id="edge16" class="edge">
<title>Node11&#45;&gt;Node6</title>
<path fill="none" stroke="midnightblue" d="M167.53,-56.32C184.53,-47.66 210.88,-34.24 230.49,-24.25"/>
<polygon fill="midnightblue" stroke="midnightblue" points="232.19,-27.31 239.51,-19.65 229.01,-21.08 232.19,-27.31"/>
</g>
<!-- Node13&#45;&gt;Node4 -->
<g id="edge19" class="edge">
<title>Node13&#45;&gt;Node4</title>
<path fill="none" stroke="midnightblue" d="M520.83,-168.21C506.53,-155.34 478.7,-130.88 453.5,-112 438.77,-100.97 421.46,-89.54 408,-80.95"/>
<polygon fill="midnightblue" stroke="midnightblue" points="409.69,-77.89 399.37,-75.51 405.96,-83.81 409.69,-77.89"/>
</g>
<!-- Node13&#45;&gt;Node7 -->
<g id="edge20" class="edge">
<title>Node13&#45;&gt;Node7</title>
<path fill="none" stroke="midnightblue" d="M511.17,-168.44C490.59,-159.34 457.9,-144.86 434.95,-134.71"/>
<polygon fill="midnightblue" stroke="midnightblue" points="436.33,-131.49 425.77,-130.64 433.5,-137.89 436.33,-131.49"/>
</g>
<!-- Node14&#45;&gt;Node4 -->
<g id="edge22" class="edge">
<title>Node14&#45;&gt;Node4</title>
<path fill="none" stroke="midnightblue" d="M175.12,-168.31C190.62,-154.7 222.54,-128.21 253.5,-112 285.26,-95.37 324.45,-82.92 351.84,-75.38"/>
<polygon fill="midnightblue" stroke="midnightblue" points="352.97,-78.7 361.72,-72.73 351.15,-71.94 352.97,-78.7"/>
</g>
<!-- Node14&#45;&gt;Node7 -->
<g id="edge23" class="edge">
<title>Node14&#45;&gt;Node7</title>
<path fill="none" stroke="midnightblue" d="M193.77,-170.05C196.71,-169.35 199.67,-168.65 202.5,-168 266.54,-153.22 342.08,-137.04 381.49,-128.69"/>
<polygon fill="midnightblue" stroke="midnightblue" points="382.32,-132.09 391.38,-126.6 380.87,-125.24 382.32,-132.09"/>
</g>
<!-- Node15&#45;&gt;Node4 -->
<g id="edge25" class="edge">
<title>Node15&#45;&gt;Node4</title>
<path fill="none" stroke="midnightblue" d="M377.21,-168.37C378.66,-150.62 382.01,-109.67 383.98,-85.6"/>
<polygon fill="midnightblue" stroke="midnightblue" points="387.47,-85.84 384.8,-75.59 380.49,-85.27 387.47,-85.84"/>
</g>
<!-- Node15&#45;&gt;Node7 -->
<g id="edge26" class="edge">
<title>Node15&#45;&gt;Node7</title>
<path fill="none" stroke="midnightblue" d="M381.78,-168.08C386.21,-160.61 392.66,-149.72 398.12,-140.52"/>
<polygon fill="midnightblue" stroke="midnightblue" points="401.23,-142.14 403.31,-131.75 395.21,-138.57 401.23,-142.14"/>
</g>
<!-- Node15&#45;&gt;Node9 -->
<g id="edge27" class="edge">
<title>Node15&#45;&gt;Node9</title>
<path fill="none" stroke="midnightblue" d="M365.25,-168.32C354.7,-160.18 338.7,-147.84 326.06,-138.09"/>
<polygon fill="midnightblue" stroke="midnightblue" points="328.01,-135.17 317.95,-131.83 323.73,-140.71 328.01,-135.17"/>
</g>
<!-- Node16&#45;&gt;Node4 -->
<g id="edge29" class="edge">
<title>Node16&#45;&gt;Node4</title>
<path fill="none" stroke="midnightblue" d="M240.78,-168.19C244.77,-154.4 254.28,-127.68 271.5,-112 294.08,-91.45 327.17,-79.8 351.88,-73.52"/>
<polygon fill="midnightblue" stroke="midnightblue" points="352.98,-76.86 361.91,-71.16 351.37,-70.05 352.98,-76.86"/>
</g>
<!-- Node16&#45;&gt;Node7 -->
<g id="edge30" class="edge">
<title>Node16&#45;&gt;Node7</title>
<path fill="none" stroke="midnightblue" d="M265.06,-168.56C296.91,-158.44 349.99,-141.59 381.87,-131.46"/>
<polygon fill="midnightblue" stroke="midnightblue" points="382.95,-134.79 391.42,-128.42 380.83,-128.12 382.95,-134.79"/>
</g>
<!-- Node18&#45;&gt;Node4 -->
<g id="edge33" class="edge">
<title>Node18&#45;&gt;Node4</title>
<path fill="none" stroke="midnightblue" d="M651.82,-168.37C600.75,-148.93 476.6,-101.67 417.63,-79.23"/>
<polygon fill="midnightblue" stroke="midnightblue" points="418.66,-75.88 408.07,-75.59 416.17,-82.42 418.66,-75.88"/>
</g>
<!-- Node18&#45;&gt;Node7 -->
<g id="edge34" class="edge">
<title>Node18&#45;&gt;Node7</title>
<path fill="none" stroke="midnightblue" d="M645.85,-169.9C643.03,-169.24 640.21,-168.6 637.5,-168 564.72,-152.01 478.32,-135.77 435.43,-127.89"/>
<polygon fill="midnightblue" stroke="midnightblue" points="435.97,-124.43 425.5,-126.07 434.71,-131.32 435.97,-124.43"/>
</g>
<!-- Node19 -->
<g id="node19" class="node">
<title>Node19</title>
<g id="a_node19"><a xlink:href="io__common_8h.html" target="_top" xlink:title=" ">
<polygon fill="white" stroke="black" points="637.5,-112.5 637.5,-131.5 711.5,-131.5 711.5,-112.5 637.5,-112.5"/>
<text text-anchor="middle" x="674.5" y="-119.5" font-family="Helvetica,sans-Serif" font-size="10.00">io_common.h</text>
</a>
</g>
</g>
<!-- Node18&#45;&gt;Node19 -->
<g id="edge35" class="edge">
<title>Node18&#45;&gt;Node19</title>
<path fill="none" stroke="midnightblue" d="M674.5,-168.08C674.5,-161.01 674.5,-150.86 674.5,-141.99"/>
<polygon fill="midnightblue" stroke="midnightblue" points="678,-141.75 674.5,-131.75 671,-141.75 678,-141.75"/>
</g>
<!-- Node22 -->
<g id="node22" class="node">
<title>Node22</title>
<g id="a_node22"><a xlink:href="iox__stat_8h.html" target="_top" xlink:title=" ">
<polygon fill="white" stroke="black" points="729.5,-112.5 729.5,-131.5 787.5,-131.5 787.5,-112.5 729.5,-112.5"/>
<text text-anchor="middle" x="758.5" y="-119.5" font-family="Helvetica,sans-Serif" font-size="10.00">iox_stat.h</text>
</a>
</g>
</g>
<!-- Node18&#45;&gt;Node22 -->
<g id="edge38" class="edge">
<title>Node18&#45;&gt;Node22</title>
<path fill="none" stroke="midnightblue" d="M688,-168.32C701.1,-159.9 721.21,-146.97 736.61,-137.07"/>
<polygon fill="midnightblue" stroke="midnightblue" points="738.52,-140.01 745.04,-131.65 734.73,-134.12 738.52,-140.01"/>
</g>
<!-- Node20 -->
<g id="node20" class="node">
<title>Node20</title>
<g id="a_node20"><a xlink:href="fcntl_8h_source.html" target="_top" xlink:title=" ">
<polygon fill="white" stroke="black" points="561,-56.5 561,-75.5 622,-75.5 622,-56.5 561,-56.5"/>
<text text-anchor="middle" x="591.5" y="-63.5" font-family="Helvetica,sans-Serif" font-size="10.00">sys/fcntl.h</text>
</a>
</g>
</g>
<!-- Node19&#45;&gt;Node20 -->
<g id="edge36" class="edge">
<title>Node19&#45;&gt;Node20</title>
<path fill="none" stroke="midnightblue" d="M661.16,-112.32C648.34,-103.98 628.72,-91.21 613.56,-81.35"/>
<polygon fill="midnightblue" stroke="midnightblue" points="615.09,-78.17 604.8,-75.65 611.28,-84.04 615.09,-78.17"/>
</g>
<!-- Node21 -->
<g id="node21" class="node">
<title>Node21</title>
<g id="a_node21"><a xlink:href="unistd_8h_source.html" target="_top" xlink:title=" ">
<polygon fill="white" stroke="black" points="640.5,-56.5 640.5,-75.5 708.5,-75.5 708.5,-56.5 640.5,-56.5"/>
<text text-anchor="middle" x="674.5" y="-63.5" font-family="Helvetica,sans-Serif" font-size="10.00">sys/unistd.h</text>
</a>
</g>
</g>
<!-- Node19&#45;&gt;Node21 -->
<g id="edge37" class="edge">
<title>Node19&#45;&gt;Node21</title>
<path fill="none" stroke="midnightblue" d="M674.5,-112.08C674.5,-105.01 674.5,-94.86 674.5,-85.99"/>
<polygon fill="midnightblue" stroke="midnightblue" points="678,-85.75 674.5,-75.75 671,-85.75 678,-85.75"/>
</g>
<!-- Node23 -->
<g id="node23" class="node">
<title>Node23</title>
<g id="a_node23"><a xlink:href="time_8h.html" target="_top" xlink:title=" ">
<polygon fill="white" stroke="black" points="728,-56.5 728,-75.5 789,-75.5 789,-56.5 728,-56.5"/>
<text text-anchor="middle" x="758.5" y="-63.5" font-family="Helvetica,sans-Serif" font-size="10.00">sys/time.h</text>
</a>
</g>
</g>
<!-- Node22&#45;&gt;Node23 -->
<g id="edge39" class="edge">
<title>Node22&#45;&gt;Node23</title>
<path fill="none" stroke="midnightblue" d="M758.5,-112.08C758.5,-105.01 758.5,-94.86 758.5,-85.99"/>
<polygon fill="midnightblue" stroke="midnightblue" points="762,-85.75 758.5,-75.75 755,-85.75 762,-85.75"/>
</g>
<!-- Node24&#45;&gt;Node4 -->
<g id="edge41" class="edge">
<title>Node24&#45;&gt;Node4</title>
<path fill="none" stroke="midnightblue" d="M730.71,-168.44C689.78,-155.87 610.85,-131.77 543.5,-112 500.53,-99.39 450.84,-85.32 418.83,-76.32"/>
<polygon fill="midnightblue" stroke="midnightblue" points="419.66,-72.92 409.09,-73.59 417.77,-79.66 419.66,-72.92"/>
</g>
<!-- Node24&#45;&gt;Node7 -->
<g id="edge42" class="edge">
<title>Node24&#45;&gt;Node7</title>
<path fill="none" stroke="midnightblue" d="M721.37,-169.58C718.37,-169.03 715.39,-168.5 712.5,-168 610.67,-150.51 488.94,-133.73 435.69,-126.59"/>
<polygon fill="midnightblue" stroke="midnightblue" points="436.06,-123.11 425.69,-125.26 435.13,-130.05 436.06,-123.11"/>
</g>
<!-- Node24&#45;&gt;Node19 -->
<g id="edge43" class="edge">
<title>Node24&#45;&gt;Node19</title>
<path fill="none" stroke="midnightblue" d="M745,-168.32C731.9,-159.9 711.79,-146.97 696.39,-137.07"/>
<polygon fill="midnightblue" stroke="midnightblue" points="698.27,-134.12 687.96,-131.65 694.48,-140.01 698.27,-134.12"/>
</g>
<!-- Node24&#45;&gt;Node22 -->
<g id="edge44" class="edge">
<title>Node24&#45;&gt;Node22</title>
<path fill="none" stroke="midnightblue" d="M758.5,-168.08C758.5,-161.01 758.5,-150.86 758.5,-141.99"/>
<polygon fill="midnightblue" stroke="midnightblue" points="762,-141.75 758.5,-131.75 755,-141.75 762,-141.75"/>
</g>
</g>
</svg>
