<?xml version="1.0" encoding="UTF-8" standalone="no"?>
<!DOCTYPE svg PUBLIC "-//W3C//DTD SVG 1.1//EN"
 "http://www.w3.org/Graphics/SVG/1.1/DTD/svg11.dtd">
<!-- Generated by graphviz version 3.0.0 (20220413.0242)
 -->
<!-- Title: iop/kernel/include/ioman.h Pages: 1 -->
<svg width="4538pt" height="173pt"
 viewBox="0.00 0.00 4538.00 173.00" xmlns="http://www.w3.org/2000/svg" xmlns:xlink="http://www.w3.org/1999/xlink">
<g id="graph0" class="graph" transform="scale(1 1) rotate(0) translate(4 169)">
<title>iop/kernel/include/ioman.h</title>
<polygon fill="white" stroke="transparent" points="-4,4 -4,-169 4534,-169 4534,4 -4,4"/>
<!-- Node1 -->
<g id="node1" class="node">
<title>Node1</title>
<g id="a_node1"><a xlink:title=" ">
<polygon fill="#bfbfbf" stroke="black" points="2129.5,-134.5 2129.5,-164.5 2221.5,-164.5 2221.5,-134.5 2129.5,-134.5"/>
<text text-anchor="start" x="2137.5" y="-152.5" font-family="Helvetica,sans-Serif" font-size="10.00">iop/kernel/include</text>
<text text-anchor="middle" x="2175.5" y="-141.5" font-family="Helvetica,sans-Serif" font-size="10.00">/ioman.h</text>
</a>
</g>
</g>
<!-- Node2 -->
<g id="node2" class="node">
<title>Node2</title>
<g id="a_node2"><a xlink:href="common_2sbus_2src_2irx__imports_8h_source.html" target="_top" xlink:title=" ">
<polygon fill="white" stroke="black" points="0,-67.5 0,-97.5 107,-97.5 107,-67.5 0,-67.5"/>
<text text-anchor="start" x="8" y="-85.5" font-family="Helvetica,sans-Serif" font-size="10.00">common/sbus/src/irx</text>
<text text-anchor="middle" x="53.5" y="-74.5" font-family="Helvetica,sans-Serif" font-size="10.00">_imports.h</text>
</a>
</g>
</g>
<!-- Node1&#45;&gt;Node2 -->
<g id="edge1" class="edge">
<title>Node1&#45;&gt;Node2</title>
<path fill="none" stroke="midnightblue" d="M2118.9,-148.68C1830.11,-149.37 518.83,-149.55 115.5,-98 112.76,-97.65 109.96,-97.23 107.15,-96.76"/>
<polygon fill="midnightblue" stroke="midnightblue" points="2119.14,-152.18 2129.13,-148.66 2119.12,-145.18 2119.14,-152.18"/>
</g>
<!-- Node3 -->
<g id="node3" class="node">
<title>Node3</title>
<g id="a_node3"><a xlink:href="imgdrv_8c.html" target="_top" xlink:title=" ">
<polygon fill="white" stroke="black" points="125,-67.5 125,-97.5 244,-97.5 244,-67.5 125,-67.5"/>
<text text-anchor="start" x="133" y="-85.5" font-family="Helvetica,sans-Serif" font-size="10.00">ee/iopreboot/src/imgdrv</text>
<text text-anchor="middle" x="184.5" y="-74.5" font-family="Helvetica,sans-Serif" font-size="10.00">/src/imgdrv.c</text>
</a>
</g>
</g>
<!-- Node1&#45;&gt;Node3 -->
<g id="edge2" class="edge">
<title>Node1&#45;&gt;Node3</title>
<path fill="none" stroke="midnightblue" d="M2119.15,-148.42C1842.68,-147.8 627.82,-142.56 252.5,-98 249.74,-97.67 246.93,-97.29 244.1,-96.86"/>
<polygon fill="midnightblue" stroke="midnightblue" points="2119.34,-151.92 2129.35,-148.44 2119.36,-144.92 2119.34,-151.92"/>
</g>
<!-- Node4 -->
<g id="node4" class="node">
<title>Node4</title>
<g id="a_node4"><a xlink:href="ee_2iopreboot_2src_2imgdrv_2src_2irx__imports_8h_source.html" target="_top" xlink:title=" ">
<polygon fill="white" stroke="black" points="262,-67.5 262,-97.5 381,-97.5 381,-67.5 262,-67.5"/>
<text text-anchor="start" x="270" y="-85.5" font-family="Helvetica,sans-Serif" font-size="10.00">ee/iopreboot/src/imgdrv</text>
<text text-anchor="middle" x="321.5" y="-74.5" font-family="Helvetica,sans-Serif" font-size="10.00">/src/irx_imports.h</text>
</a>
</g>
</g>
<!-- Node1&#45;&gt;Node4 -->
<g id="edge3" class="edge">
<title>Node1&#45;&gt;Node4</title>
<path fill="none" stroke="midnightblue" d="M2118.97,-148.26C1854.42,-146.94 737.04,-138.98 390.5,-98 387.46,-97.64 384.36,-97.21 381.23,-96.73"/>
<polygon fill="midnightblue" stroke="midnightblue" points="2119.09,-151.76 2129.11,-148.31 2119.13,-144.76 2119.09,-151.76"/>
</g>
<!-- Node5 -->
<g id="node5" class="node">
<title>Node5</title>
<g id="a_node5"><a xlink:href="iop_2cdvd_2cdfs_2src_2irx__imports_8h_source.html" target="_top" xlink:title=" ">
<polygon fill="white" stroke="black" points="399.5,-67.5 399.5,-97.5 503.5,-97.5 503.5,-67.5 399.5,-67.5"/>
<text text-anchor="start" x="407.5" y="-85.5" font-family="Helvetica,sans-Serif" font-size="10.00">iop/cdvd/cdfs/src/irx</text>
<text text-anchor="middle" x="451.5" y="-74.5" font-family="Helvetica,sans-Serif" font-size="10.00">_imports.h</text>
</a>
</g>
</g>
<!-- Node1&#45;&gt;Node5 -->
<g id="edge4" class="edge">
<title>Node1&#45;&gt;Node5</title>
<path fill="none" stroke="midnightblue" d="M2119.14,-148.32C1866.09,-147.3 833.23,-140.54 512.5,-98 509.59,-97.61 506.61,-97.15 503.61,-96.62"/>
<polygon fill="midnightblue" stroke="midnightblue" points="2119.2,-151.82 2129.21,-148.36 2119.23,-144.82 2119.2,-151.82"/>
</g>
<!-- Node6 -->
<g id="node6" class="node">
<title>Node6</title>
<g id="a_node6"><a xlink:href="iop_2cdvd_2cdfs_2src_2main_8c_source.html" target="_top" xlink:title=" ">
<polygon fill="white" stroke="black" points="522,-73 522,-92 645,-92 645,-73 522,-73"/>
<text text-anchor="middle" x="583.5" y="-80" font-family="Helvetica,sans-Serif" font-size="10.00">iop/cdvd/cdfs/src/main.c</text>
</a>
</g>
</g>
<!-- Node1&#45;&gt;Node6 -->
<g id="edge5" class="edge">
<title>Node1&#45;&gt;Node6</title>
<path fill="none" stroke="midnightblue" d="M2118.99,-147.9C1879.39,-145.15 946.34,-132.4 654.5,-98 643.01,-96.65 630.6,-94.39 619.43,-92.06"/>
<polygon fill="midnightblue" stroke="midnightblue" points="2119.17,-151.4 2129.21,-148.01 2119.25,-144.4 2119.17,-151.4"/>
</g>
<!-- Node7 -->
<g id="node7" class="node">
<title>Node7</title>
<g id="a_node7"><a xlink:href="iop_2debug_2iop__sbusdbg_2src_2irx__imports_8h_source.html" target="_top" xlink:title=" ">
<polygon fill="white" stroke="black" points="663.5,-67.5 663.5,-97.5 779.5,-97.5 779.5,-67.5 663.5,-67.5"/>
<text text-anchor="start" x="671.5" y="-85.5" font-family="Helvetica,sans-Serif" font-size="10.00">iop/debug/iop_sbusdbg</text>
<text text-anchor="middle" x="721.5" y="-74.5" font-family="Helvetica,sans-Serif" font-size="10.00">/src/irx_imports.h</text>
</a>
</g>
</g>
<!-- Node1&#45;&gt;Node7 -->
<g id="edge6" class="edge">
<title>Node1&#45;&gt;Node7</title>
<path fill="none" stroke="midnightblue" d="M2118.85,-147.77C1892.47,-144.66 1052.39,-131.09 788.5,-98 785.67,-97.64 782.77,-97.23 779.86,-96.77"/>
<polygon fill="midnightblue" stroke="midnightblue" points="2119.11,-151.28 2129.16,-147.91 2119.21,-144.28 2119.11,-151.28"/>
</g>
<!-- Node8 -->
<g id="node8" class="node">
<title>Node8</title>
<g id="a_node8"><a xlink:href="sbus__dbg_8c_source.html" target="_top" xlink:title=" ">
<polygon fill="white" stroke="black" points="797.5,-67.5 797.5,-97.5 913.5,-97.5 913.5,-67.5 797.5,-67.5"/>
<text text-anchor="start" x="805.5" y="-85.5" font-family="Helvetica,sans-Serif" font-size="10.00">iop/debug/iop_sbusdbg</text>
<text text-anchor="middle" x="855.5" y="-74.5" font-family="Helvetica,sans-Serif" font-size="10.00">/src/sbus_dbg.c</text>
</a>
</g>
</g>
<!-- Node1&#45;&gt;Node8 -->
<g id="edge7" class="edge">
<title>Node1&#45;&gt;Node8</title>
<path fill="none" stroke="midnightblue" d="M2119.16,-147.52C1907.35,-143.66 1158.91,-128.12 922.5,-98 919.67,-97.64 916.78,-97.22 913.86,-96.75"/>
<polygon fill="midnightblue" stroke="midnightblue" points="2119.36,-151.03 2129.42,-147.71 2119.49,-144.03 2119.36,-151.03"/>
</g>
<!-- Node9 -->
<g id="node9" class="node">
<title>Node9</title>
<g id="a_node9"><a xlink:href="sbus__tty_8c_source.html" target="_top" xlink:title=" ">
<polygon fill="white" stroke="black" points="931.5,-67.5 931.5,-97.5 1047.5,-97.5 1047.5,-67.5 931.5,-67.5"/>
<text text-anchor="start" x="939.5" y="-85.5" font-family="Helvetica,sans-Serif" font-size="10.00">iop/debug/iop_sbusdbg</text>
<text text-anchor="middle" x="989.5" y="-74.5" font-family="Helvetica,sans-Serif" font-size="10.00">/src/sbus_tty.c</text>
</a>
</g>
</g>
<!-- Node1&#45;&gt;Node9 -->
<g id="edge8" class="edge">
<title>Node1&#45;&gt;Node9</title>
<path fill="none" stroke="midnightblue" d="M2119.38,-147.22C1922.74,-142.52 1265.5,-125.14 1056.5,-98 1053.55,-97.62 1050.54,-97.17 1047.5,-96.68"/>
<polygon fill="midnightblue" stroke="midnightblue" points="2119.41,-150.72 2129.49,-147.46 2119.58,-143.72 2119.41,-150.72"/>
</g>
<!-- Node10 -->
<g id="node10" class="node">
<title>Node10</title>
<g id="a_node10"><a xlink:href="iop_2debug_2iopdebug_2src_2irx__imports_8h_source.html" target="_top" xlink:title=" ">
<polygon fill="white" stroke="black" points="1066,-67.5 1066,-97.5 1167,-97.5 1167,-67.5 1066,-67.5"/>
<text text-anchor="start" x="1074" y="-85.5" font-family="Helvetica,sans-Serif" font-size="10.00">iop/debug/iopdebug</text>
<text text-anchor="middle" x="1116.5" y="-74.5" font-family="Helvetica,sans-Serif" font-size="10.00">/src/irx_imports.h</text>
</a>
</g>
</g>
<!-- Node1&#45;&gt;Node10 -->
<g id="edge9" class="edge">
<title>Node1&#45;&gt;Node10</title>
<path fill="none" stroke="midnightblue" d="M2119,-147.06C1935.84,-142.19 1359.72,-125.04 1175.5,-98 1172.79,-97.6 1170.02,-97.13 1167.23,-96.62"/>
<polygon fill="midnightblue" stroke="midnightblue" points="2119.13,-150.57 2129.22,-147.33 2119.31,-143.57 2119.13,-150.57"/>
</g>
<!-- Node11 -->
<g id="node11" class="node">
<title>Node11</title>
<g id="a_node11"><a xlink:href="iop_2dev9_2dev9_2src_2irx__imports_8h_source.html" target="_top" xlink:title=" ">
<polygon fill="white" stroke="black" points="1185,-67.5 1185,-97.5 1292,-97.5 1292,-67.5 1185,-67.5"/>
<text text-anchor="start" x="1193" y="-85.5" font-family="Helvetica,sans-Serif" font-size="10.00">iop/dev9/dev9/src/irx</text>
<text text-anchor="middle" x="1238.5" y="-74.5" font-family="Helvetica,sans-Serif" font-size="10.00">_imports.h</text>
</a>
</g>
</g>
<!-- Node1&#45;&gt;Node11 -->
<g id="edge10" class="edge">
<title>Node1&#45;&gt;Node11</title>
<path fill="none" stroke="midnightblue" d="M2119.18,-148.6C1979.67,-148.11 1607.19,-142.38 1300.5,-98 1297.76,-97.6 1294.97,-97.15 1292.16,-96.65"/>
<polygon fill="midnightblue" stroke="midnightblue" points="2119.2,-152.1 2129.21,-148.62 2119.22,-145.1 2119.2,-152.1"/>
</g>
<!-- Node12 -->
<g id="node12" class="node">
<title>Node12</title>
<g id="a_node12"><a xlink:href="iop_2fs_2bdmfs__fatfs_2src_2irx__imports_8h_source.html" target="_top" xlink:title=" ">
<polygon fill="white" stroke="black" points="1310,-67.5 1310,-97.5 1405,-97.5 1405,-67.5 1310,-67.5"/>
<text text-anchor="start" x="1318" y="-85.5" font-family="Helvetica,sans-Serif" font-size="10.00">iop/fs/bdmfs_fatfs</text>
<text text-anchor="middle" x="1357.5" y="-74.5" font-family="Helvetica,sans-Serif" font-size="10.00">/src/irx_imports.h</text>
</a>
</g>
</g>
<!-- Node1&#45;&gt;Node12 -->
<g id="edge11" class="edge">
<title>Node1&#45;&gt;Node12</title>
<path fill="none" stroke="midnightblue" d="M2118.96,-148.36C1991.97,-147.25 1674.81,-140.11 1413.5,-98 1410.72,-97.55 1407.89,-97.03 1405.03,-96.45"/>
<polygon fill="midnightblue" stroke="midnightblue" points="2119.18,-151.86 2129.21,-148.44 2119.24,-144.86 2119.18,-151.86"/>
</g>
<!-- Node13 -->
<g id="node13" class="node">
<title>Node13</title>
<g id="a_node13"><a xlink:href="iop_2fs_2bdmfs__vfat_2src_2irx__imports_8h_source.html" target="_top" xlink:title=" ">
<polygon fill="white" stroke="black" points="1423,-67.5 1423,-97.5 1532,-97.5 1532,-67.5 1423,-67.5"/>
<text text-anchor="start" x="1431" y="-85.5" font-family="Helvetica,sans-Serif" font-size="10.00">iop/fs/bdmfs_vfat/src</text>
<text text-anchor="middle" x="1477.5" y="-74.5" font-family="Helvetica,sans-Serif" font-size="10.00">/irx_imports.h</text>
</a>
</g>
</g>
<!-- Node1&#45;&gt;Node13 -->
<g id="edge12" class="edge">
<title>Node1&#45;&gt;Node13</title>
<path fill="none" stroke="midnightblue" d="M2118.86,-146.37C2008.33,-141.67 1756.31,-128.34 1546.5,-98 1541.9,-97.33 1537.14,-96.55 1532.38,-95.69"/>
<polygon fill="midnightblue" stroke="midnightblue" points="2118.97,-149.87 2129.11,-146.79 2119.27,-142.88 2118.97,-149.87"/>
</g>
<!-- Node14 -->
<g id="node14" class="node">
<title>Node14</title>
<g id="a_node14"><a xlink:href="ps2netfs_8c.html" target="_top" xlink:title=" ">
<polygon fill="white" stroke="black" points="1051.5,-6 1051.5,-25 1181.5,-25 1181.5,-6 1051.5,-6"/>
<text text-anchor="middle" x="1116.5" y="-13" font-family="Helvetica,sans-Serif" font-size="10.00">iop/fs/netfs/src/ps2netfs.c</text>
</a>
</g>
</g>
<!-- Node1&#45;&gt;Node14 -->
<g id="edge13" class="edge">
<title>Node1&#45;&gt;Node14</title>
<path fill="none" stroke="midnightblue" d="M2119.27,-147.86C1990.28,-145.73 1676.75,-136.63 1579.5,-98 1558.92,-89.83 1561,-75.36 1540.5,-67 1395.69,-7.97 1345.17,-54.06 1190.5,-31 1179.49,-29.36 1167.64,-27.21 1156.71,-25.07"/>
<polygon fill="midnightblue" stroke="midnightblue" points="2119.28,-151.36 2129.33,-148.02 2119.39,-144.36 2119.28,-151.36"/>
</g>
<!-- Node15 -->
<g id="node15" class="node">
<title>Node15</title>
<g id="a_node15"><a xlink:href="iop_2i_link_2_i_e_e_e1394__bd_2src_2irx__imports_8h_source.html" target="_top" xlink:title=" ">
<polygon fill="white" stroke="black" points="1813,-67.5 1813,-97.5 1920,-97.5 1920,-67.5 1813,-67.5"/>
<text text-anchor="start" x="1821" y="-85.5" font-family="Helvetica,sans-Serif" font-size="10.00">iop/iLink/IEEE1394</text>
<text text-anchor="middle" x="1866.5" y="-74.5" font-family="Helvetica,sans-Serif" font-size="10.00">_bd/src/irx_imports.h</text>
</a>
</g>
</g>
<!-- Node1&#45;&gt;Node15 -->
<g id="edge14" class="edge">
<title>Node1&#45;&gt;Node15</title>
<path fill="none" stroke="midnightblue" d="M2119.24,-137.34C2069.32,-127.35 1994.46,-112.14 1929.5,-98 1926.43,-97.33 1923.28,-96.64 1920.1,-95.93"/>
<polygon fill="midnightblue" stroke="midnightblue" points="2118.69,-140.81 2129.18,-139.33 2120.06,-133.94 2118.69,-140.81"/>
</g>
<!-- Node16 -->
<g id="node16" class="node">
<title>Node16</title>
<g id="a_node16"><a xlink:href="iop_2i_link_2_i_e_e_e1394__disk_2src_2irx__imports_8h_source.html" target="_top" xlink:title=" ">
<polygon fill="white" stroke="black" points="1938.5,-67.5 1938.5,-97.5 2052.5,-97.5 2052.5,-67.5 1938.5,-67.5"/>
<text text-anchor="start" x="1946.5" y="-85.5" font-family="Helvetica,sans-Serif" font-size="10.00">iop/iLink/IEEE1394</text>
<text text-anchor="middle" x="1995.5" y="-74.5" font-family="Helvetica,sans-Serif" font-size="10.00">_disk/src/irx_imports.h</text>
</a>
</g>
</g>
<!-- Node1&#45;&gt;Node16 -->
<g id="edge15" class="edge">
<title>Node1&#45;&gt;Node16</title>
<path fill="none" stroke="midnightblue" d="M2126.91,-130.96C2097.92,-120.48 2061.59,-107.37 2034.48,-97.58"/>
<polygon fill="midnightblue" stroke="midnightblue" points="2125.85,-134.29 2136.44,-134.4 2128.23,-127.71 2125.85,-134.29"/>
</g>
<!-- Node17 -->
<g id="node17" class="node">
<title>Node17</title>
<g id="a_node17"><a xlink:href="i_link_8c_source.html" target="_top" xlink:title=" ">
<polygon fill="white" stroke="black" points="2070.5,-67.5 2070.5,-97.5 2166.5,-97.5 2166.5,-67.5 2070.5,-67.5"/>
<text text-anchor="start" x="2078.5" y="-85.5" font-family="Helvetica,sans-Serif" font-size="10.00">iop/iLink/iLinkman</text>
<text text-anchor="middle" x="2118.5" y="-74.5" font-family="Helvetica,sans-Serif" font-size="10.00">/src/iLink.c</text>
</a>
</g>
</g>
<!-- Node1&#45;&gt;Node17 -->
<g id="edge16" class="edge">
<title>Node1&#45;&gt;Node17</title>
<path fill="none" stroke="midnightblue" d="M2156.41,-126.74C2147.98,-117.12 2138.31,-106.09 2130.84,-97.58"/>
<polygon fill="midnightblue" stroke="midnightblue" points="2153.91,-129.18 2163.13,-134.4 2159.17,-124.57 2153.91,-129.18"/>
</g>
<!-- Node18 -->
<g id="node18" class="node">
<title>Node18</title>
<g id="a_node18"><a xlink:href="iop_2i_link_2i_linkman_2src_2irx__imports_8h_source.html" target="_top" xlink:title=" ">
<polygon fill="white" stroke="black" points="2184.5,-67.5 2184.5,-97.5 2280.5,-97.5 2280.5,-67.5 2184.5,-67.5"/>
<text text-anchor="start" x="2192.5" y="-85.5" font-family="Helvetica,sans-Serif" font-size="10.00">iop/iLink/iLinkman</text>
<text text-anchor="middle" x="2232.5" y="-74.5" font-family="Helvetica,sans-Serif" font-size="10.00">/src/irx_imports.h</text>
</a>
</g>
</g>
<!-- Node1&#45;&gt;Node18 -->
<g id="edge17" class="edge">
<title>Node1&#45;&gt;Node18</title>
<path fill="none" stroke="midnightblue" d="M2194.59,-126.74C2203.02,-117.12 2212.69,-106.09 2220.16,-97.58"/>
<polygon fill="midnightblue" stroke="midnightblue" points="2191.83,-124.57 2187.87,-134.4 2197.09,-129.18 2191.83,-124.57"/>
</g>
<!-- Node19 -->
<g id="node19" class="node">
<title>Node19</title>
<g id="a_node19"><a xlink:href="iop_2memorycard_2mcman_2src_2irx__imports_8h_source.html" target="_top" xlink:title=" ">
<polygon fill="white" stroke="black" points="2299,-67.5 2299,-97.5 2420,-97.5 2420,-67.5 2299,-67.5"/>
<text text-anchor="start" x="2307" y="-85.5" font-family="Helvetica,sans-Serif" font-size="10.00">iop/memorycard/mcman</text>
<text text-anchor="middle" x="2359.5" y="-74.5" font-family="Helvetica,sans-Serif" font-size="10.00">/src/irx_imports.h</text>
</a>
</g>
</g>
<!-- Node1&#45;&gt;Node19 -->
<g id="edge18" class="edge">
<title>Node1&#45;&gt;Node19</title>
<path fill="none" stroke="midnightblue" d="M2225.17,-130.96C2254.8,-120.48 2291.94,-107.37 2319.65,-97.58"/>
<polygon fill="midnightblue" stroke="midnightblue" points="2223.69,-127.76 2215.43,-134.4 2226.02,-134.37 2223.69,-127.76"/>
</g>
<!-- Node20 -->
<g id="node20" class="node">
<title>Node20</title>
<g id="a_node20"><a xlink:href="mcman-internal_8h_source.html" target="_top" xlink:title=" ">
<polygon fill="white" stroke="black" points="2438,-67.5 2438,-97.5 2559,-97.5 2559,-67.5 2438,-67.5"/>
<text text-anchor="start" x="2446" y="-85.5" font-family="Helvetica,sans-Serif" font-size="10.00">iop/memorycard/mcman</text>
<text text-anchor="middle" x="2498.5" y="-74.5" font-family="Helvetica,sans-Serif" font-size="10.00">/src/mcman&#45;internal.h</text>
</a>
</g>
</g>
<!-- Node1&#45;&gt;Node20 -->
<g id="edge19" class="edge">
<title>Node1&#45;&gt;Node20</title>
<path fill="none" stroke="midnightblue" d="M2231.81,-137.49C2283.3,-127.37 2361.57,-111.89 2429.5,-98 2432.26,-97.44 2435.08,-96.86 2437.93,-96.27"/>
<polygon fill="midnightblue" stroke="midnightblue" points="2231.02,-134.08 2221.88,-139.44 2232.37,-140.94 2231.02,-134.08"/>
</g>
<!-- Node26 -->
<g id="node26" class="node">
<title>Node26</title>
<g id="a_node26"><a xlink:href="iop_2network_2smbman_2src_2irx__imports_8h_source.html" target="_top" xlink:title=" ">
<polygon fill="white" stroke="black" points="2577,-67.5 2577,-97.5 2684,-97.5 2684,-67.5 2577,-67.5"/>
<text text-anchor="start" x="2585" y="-85.5" font-family="Helvetica,sans-Serif" font-size="10.00">iop/network/smbman</text>
<text text-anchor="middle" x="2630.5" y="-74.5" font-family="Helvetica,sans-Serif" font-size="10.00">/src/irx_imports.h</text>
</a>
</g>
</g>
<!-- Node1&#45;&gt;Node26 -->
<g id="edge25" class="edge">
<title>Node1&#45;&gt;Node26</title>
<path fill="none" stroke="midnightblue" d="M2232.09,-143.06C2308.71,-135.28 2449.54,-119.5 2568.5,-98 2571.22,-97.51 2574,-96.97 2576.8,-96.41"/>
<polygon fill="midnightblue" stroke="midnightblue" points="2231.32,-139.62 2221.72,-144.1 2232.02,-146.58 2231.32,-139.62"/>
</g>
<!-- Node27 -->
<g id="node27" class="node">
<title>Node27</title>
<g id="a_node27"><a xlink:href="smb_8c_source.html" target="_top" xlink:title=" ">
<polygon fill="white" stroke="black" points="2702,-67.5 2702,-97.5 2809,-97.5 2809,-67.5 2702,-67.5"/>
<text text-anchor="start" x="2710" y="-85.5" font-family="Helvetica,sans-Serif" font-size="10.00">iop/network/smbman</text>
<text text-anchor="middle" x="2755.5" y="-74.5" font-family="Helvetica,sans-Serif" font-size="10.00">/src/smb.c</text>
</a>
</g>
</g>
<!-- Node1&#45;&gt;Node27 -->
<g id="edge26" class="edge">
<title>Node1&#45;&gt;Node27</title>
<path fill="none" stroke="midnightblue" d="M2231.87,-145.46C2327.36,-139.76 2526.84,-125.49 2693.5,-98 2696.23,-97.55 2699.01,-97.05 2701.82,-96.51"/>
<polygon fill="midnightblue" stroke="midnightblue" points="2231.63,-141.97 2221.85,-146.05 2232.04,-148.95 2231.63,-141.97"/>
</g>
<!-- Node28 -->
<g id="node28" class="node">
<title>Node28</title>
<g id="a_node28"><a xlink:href="iop_2network_2udptty_2src_2irx__imports_8h_source.html" target="_top" xlink:title=" ">
<polygon fill="white" stroke="black" points="2827.5,-67.5 2827.5,-97.5 2923.5,-97.5 2923.5,-67.5 2827.5,-67.5"/>
<text text-anchor="start" x="2835.5" y="-85.5" font-family="Helvetica,sans-Serif" font-size="10.00">iop/network/udptty</text>
<text text-anchor="middle" x="2875.5" y="-74.5" font-family="Helvetica,sans-Serif" font-size="10.00">/src/irx_imports.h</text>
</a>
</g>
</g>
<!-- Node1&#45;&gt;Node28 -->
<g id="edge27" class="edge">
<title>Node1&#45;&gt;Node28</title>
<path fill="none" stroke="midnightblue" d="M2231.91,-147.3C2344.28,-144.2 2603.7,-133.49 2818.5,-98 2821.42,-97.52 2824.41,-96.96 2827.42,-96.35"/>
<polygon fill="midnightblue" stroke="midnightblue" points="2231.73,-143.8 2221.83,-147.57 2231.92,-150.8 2231.73,-143.8"/>
</g>
<!-- Node29 -->
<g id="node29" class="node">
<title>Node29</title>
<g id="a_node29"><a xlink:href="udptty_8c_source.html" target="_top" xlink:title=" ">
<polygon fill="white" stroke="black" points="2941.5,-67.5 2941.5,-97.5 3037.5,-97.5 3037.5,-67.5 2941.5,-67.5"/>
<text text-anchor="start" x="2949.5" y="-85.5" font-family="Helvetica,sans-Serif" font-size="10.00">iop/network/udptty</text>
<text text-anchor="middle" x="2989.5" y="-74.5" font-family="Helvetica,sans-Serif" font-size="10.00">/src/udptty.c</text>
</a>
</g>
</g>
<!-- Node1&#45;&gt;Node29 -->
<g id="edge28" class="edge">
<title>Node1&#45;&gt;Node29</title>
<path fill="none" stroke="midnightblue" d="M2232.12,-148.24C2358.56,-146.89 2673.13,-139.29 2932.5,-98 2935.42,-97.53 2938.42,-96.99 2941.43,-96.39"/>
<polygon fill="midnightblue" stroke="midnightblue" points="2231.88,-144.74 2221.91,-148.34 2231.94,-151.74 2231.88,-144.74"/>
</g>
<!-- Node30 -->
<g id="node30" class="node">
<title>Node30</title>
<g id="a_node30"><a xlink:href="adpcm-stream_8c_source.html" target="_top" xlink:title=" ">
<polygon fill="white" stroke="black" points="3055.5,-67.5 3055.5,-97.5 3165.5,-97.5 3165.5,-67.5 3055.5,-67.5"/>
<text text-anchor="start" x="3063.5" y="-85.5" font-family="Helvetica,sans-Serif" font-size="10.00">iop/sound/ps2snd/src</text>
<text text-anchor="middle" x="3110.5" y="-74.5" font-family="Helvetica,sans-Serif" font-size="10.00">/adpcm&#45;stream.c</text>
</a>
</g>
</g>
<!-- Node1&#45;&gt;Node30 -->
<g id="edge29" class="edge">
<title>Node1&#45;&gt;Node30</title>
<path fill="none" stroke="midnightblue" d="M2231.96,-148.44C2371.11,-147.59 2741.37,-141.11 3046.5,-98 3049.43,-97.59 3052.43,-97.11 3055.45,-96.58"/>
<polygon fill="midnightblue" stroke="midnightblue" points="2231.55,-144.94 2221.57,-148.49 2231.58,-151.94 2231.55,-144.94"/>
</g>
<!-- Node31 -->
<g id="node31" class="node">
<title>Node31</title>
<g id="a_node31"><a xlink:href="iop_2sound_2ps2snd_2src_2irx__imports_8h_source.html" target="_top" xlink:title=" ">
<polygon fill="white" stroke="black" points="3183.5,-67.5 3183.5,-97.5 3293.5,-97.5 3293.5,-67.5 3183.5,-67.5"/>
<text text-anchor="start" x="3191.5" y="-85.5" font-family="Helvetica,sans-Serif" font-size="10.00">iop/sound/ps2snd/src</text>
<text text-anchor="middle" x="3238.5" y="-74.5" font-family="Helvetica,sans-Serif" font-size="10.00">/irx_imports.h</text>
</a>
</g>
</g>
<!-- Node1&#45;&gt;Node31 -->
<g id="edge30" class="edge">
<title>Node1&#45;&gt;Node31</title>
<path fill="none" stroke="midnightblue" d="M2231.62,-149.04C2384,-149.77 2817.97,-147.03 3174.5,-98 3177.43,-97.6 3180.43,-97.13 3183.45,-96.6"/>
<polygon fill="midnightblue" stroke="midnightblue" points="2231.59,-145.54 2221.57,-148.98 2231.55,-152.54 2231.59,-145.54"/>
</g>
<!-- Node32 -->
<g id="node32" class="node">
<title>Node32</title>
<g id="a_node32"><a xlink:href="eesync_8c_source.html" target="_top" xlink:title=" ">
<polygon fill="white" stroke="black" points="3311.5,-67.5 3311.5,-97.5 3425.5,-97.5 3425.5,-67.5 3311.5,-67.5"/>
<text text-anchor="start" x="3319.5" y="-85.5" font-family="Helvetica,sans-Serif" font-size="10.00">iop/system/eesync/src</text>
<text text-anchor="middle" x="3368.5" y="-74.5" font-family="Helvetica,sans-Serif" font-size="10.00">/eesync.c</text>
</a>
</g>
</g>
<!-- Node1&#45;&gt;Node32 -->
<g id="edge31" class="edge">
<title>Node1&#45;&gt;Node32</title>
<path fill="none" stroke="midnightblue" d="M2231.68,-147.26C2429.33,-142.69 3091.93,-125.64 3302.5,-98 3305.41,-97.62 3308.38,-97.17 3311.37,-96.68"/>
<polygon fill="midnightblue" stroke="midnightblue" points="2231.44,-143.76 2221.53,-147.49 2231.61,-150.76 2231.44,-143.76"/>
</g>
<!-- Node33 -->
<g id="node33" class="node">
<title>Node33</title>
<g id="a_node33"><a xlink:href="iop_2system_2eesync_2src_2irx__imports_8h_source.html" target="_top" xlink:title=" ">
<polygon fill="white" stroke="black" points="3443.5,-67.5 3443.5,-97.5 3557.5,-97.5 3557.5,-67.5 3443.5,-67.5"/>
<text text-anchor="start" x="3451.5" y="-85.5" font-family="Helvetica,sans-Serif" font-size="10.00">iop/system/eesync/src</text>
<text text-anchor="middle" x="3500.5" y="-74.5" font-family="Helvetica,sans-Serif" font-size="10.00">/irx_imports.h</text>
</a>
</g>
</g>
<!-- Node1&#45;&gt;Node33 -->
<g id="edge32" class="edge">
<title>Node1&#45;&gt;Node33</title>
<path fill="none" stroke="midnightblue" d="M2232.12,-147.56C2444.95,-143.8 3197.01,-128.61 3434.5,-98 3437.41,-97.63 3440.38,-97.19 3443.37,-96.7"/>
<polygon fill="midnightblue" stroke="midnightblue" points="2231.74,-144.06 2221.8,-147.74 2231.86,-151.06 2231.74,-144.06"/>
</g>
<!-- Node34 -->
<g id="node34" class="node">
<title>Node34</title>
<g id="a_node34"><a xlink:href="iopmgr_8h.html" target="_top" xlink:title=" ">
<polygon fill="white" stroke="black" points="1588.5,-67.5 1588.5,-97.5 1718.5,-97.5 1718.5,-67.5 1588.5,-67.5"/>
<text text-anchor="start" x="1596.5" y="-85.5" font-family="Helvetica,sans-Serif" font-size="10.00">iop/system/iopmgr/include</text>
<text text-anchor="middle" x="1653.5" y="-74.5" font-family="Helvetica,sans-Serif" font-size="10.00">/iopmgr.h</text>
</a>
</g>
</g>
<!-- Node1&#45;&gt;Node34 -->
<g id="edge33" class="edge">
<title>Node1&#45;&gt;Node34</title>
<path fill="none" stroke="midnightblue" d="M2119.33,-143.33C2035.07,-135.3 1871.05,-118.59 1732.5,-98 1727.95,-97.32 1723.26,-96.58 1718.54,-95.8"/>
<polygon fill="midnightblue" stroke="midnightblue" points="2119.16,-146.83 2129.45,-144.29 2119.82,-139.86 2119.16,-146.83"/>
</g>
<!-- Node40 -->
<g id="node40" class="node">
<title>Node40</title>
<g id="a_node40"><a xlink:href="iop_2system_2iopmgr_2src_2slib_8c.html" target="_top" xlink:title=" ">
<polygon fill="white" stroke="black" points="1859,-0.5 1859,-30.5 1972,-30.5 1972,-0.5 1859,-0.5"/>
<text text-anchor="start" x="1867" y="-18.5" font-family="Helvetica,sans-Serif" font-size="10.00">iop/system/iopmgr/src</text>
<text text-anchor="middle" x="1915.5" y="-7.5" font-family="Helvetica,sans-Serif" font-size="10.00">/slib.c</text>
</a>
</g>
</g>
<!-- Node1&#45;&gt;Node40 -->
<g id="edge42" class="edge">
<title>Node1&#45;&gt;Node40</title>
<path fill="none" stroke="midnightblue" d="M2119.15,-145.53C2013.49,-139.38 1794.14,-123.64 1771.5,-98 1762.38,-87.67 1763.53,-78.24 1771.5,-67 1782.07,-52.09 1823.09,-38.58 1858.66,-29.29"/>
<polygon fill="midnightblue" stroke="midnightblue" points="2119.14,-149.03 2129.32,-146.11 2119.54,-142.04 2119.14,-149.03"/>
</g>
<!-- Node41 -->
<g id="node41" class="node">
<title>Node41</title>
<g id="a_node41"><a xlink:href="iop_2system_2iopmgr_2src_2smod_8c.html" target="_top" xlink:title=" ">
<polygon fill="white" stroke="black" points="1990,-0.5 1990,-30.5 2103,-30.5 2103,-0.5 1990,-0.5"/>
<text text-anchor="start" x="1998" y="-18.5" font-family="Helvetica,sans-Serif" font-size="10.00">iop/system/iopmgr/src</text>
<text text-anchor="middle" x="2046.5" y="-7.5" font-family="Helvetica,sans-Serif" font-size="10.00">/smod.c</text>
</a>
</g>
</g>
<!-- Node1&#45;&gt;Node41 -->
<g id="edge43" class="edge">
<title>Node1&#45;&gt;Node41</title>
<path fill="none" stroke="midnightblue" d="M2119.16,-149.47C2025.44,-149.75 1843.79,-144.13 1803.5,-98 1713.59,4.94 1706.13,-89.04 1980.5,-31 1983.6,-30.34 1986.78,-29.67 1989.99,-28.98"/>
<polygon fill="midnightblue" stroke="midnightblue" points="2119.34,-152.97 2129.32,-149.42 2119.3,-145.97 2119.34,-152.97"/>
</g>
<!-- Node42 -->
<g id="node42" class="node">
<title>Node42</title>
<g id="a_node42"><a xlink:href="sio2man_8c.html" target="_top" xlink:title=" ">
<polygon fill="white" stroke="black" points="3575.5,-67.5 3575.5,-97.5 3679.5,-97.5 3679.5,-67.5 3575.5,-67.5"/>
<text text-anchor="start" x="3583.5" y="-85.5" font-family="Helvetica,sans-Serif" font-size="10.00">iop/system/sio2man</text>
<text text-anchor="middle" x="3627.5" y="-74.5" font-family="Helvetica,sans-Serif" font-size="10.00">/src/sio2man.c</text>
</a>
</g>
</g>
<!-- Node1&#45;&gt;Node42 -->
<g id="edge44" class="edge">
<title>Node1&#45;&gt;Node42</title>
<path fill="none" stroke="midnightblue" d="M2231.96,-147.93C2458.5,-145.44 3302.05,-133.87 3566.5,-98 3569.41,-97.6 3572.39,-97.13 3575.38,-96.6"/>
<polygon fill="midnightblue" stroke="midnightblue" points="2231.6,-144.44 2221.64,-148.05 2231.68,-151.44 2231.6,-144.44"/>
</g>
<!-- Node43 -->
<g id="node43" class="node">
<title>Node43</title>
<g id="a_node43"><a xlink:href="iop_2system_2udnl_2src_2irx__imports_8h_source.html" target="_top" xlink:title=" ">
<polygon fill="white" stroke="black" points="3698,-67.5 3698,-97.5 3799,-97.5 3799,-67.5 3698,-67.5"/>
<text text-anchor="start" x="3706" y="-85.5" font-family="Helvetica,sans-Serif" font-size="10.00">iop/system/udnl/src</text>
<text text-anchor="middle" x="3748.5" y="-74.5" font-family="Helvetica,sans-Serif" font-size="10.00">/irx_imports.h</text>
</a>
</g>
</g>
<!-- Node1&#45;&gt;Node43 -->
<g id="edge45" class="edge">
<title>Node1&#45;&gt;Node43</title>
<path fill="none" stroke="midnightblue" d="M2231.75,-148.16C2470.22,-146.46 3398.86,-137.41 3688.5,-98 3691.58,-97.58 3694.73,-97.07 3697.9,-96.5"/>
<polygon fill="midnightblue" stroke="midnightblue" points="2231.55,-144.66 2221.57,-148.23 2231.6,-151.66 2231.55,-144.66"/>
</g>
<!-- Node44 -->
<g id="node44" class="node">
<title>Node44</title>
<g id="a_node44"><a xlink:href="udnl_8c_source.html" target="_top" xlink:title=" ">
<polygon fill="white" stroke="black" points="3817,-67.5 3817,-97.5 3918,-97.5 3918,-67.5 3817,-67.5"/>
<text text-anchor="start" x="3825" y="-85.5" font-family="Helvetica,sans-Serif" font-size="10.00">iop/system/udnl/src</text>
<text text-anchor="middle" x="3867.5" y="-74.5" font-family="Helvetica,sans-Serif" font-size="10.00">/udnl.c</text>
</a>
</g>
</g>
<!-- Node1&#45;&gt;Node44 -->
<g id="edge46" class="edge">
<title>Node1&#45;&gt;Node44</title>
<path fill="none" stroke="midnightblue" d="M2232.04,-148.34C2482.6,-147.41 3494.23,-140.99 3808.5,-98 3811.22,-97.63 3813.99,-97.18 3816.78,-96.68"/>
<polygon fill="midnightblue" stroke="midnightblue" points="2231.71,-144.85 2221.72,-148.38 2231.73,-151.85 2231.71,-144.85"/>
</g>
<!-- Node45 -->
<g id="node45" class="node">
<title>Node45</title>
<g id="a_node45"><a xlink:href="iop_2usb_2camera_2src_2irx__imports_8h_source.html" target="_top" xlink:title=" ">
<polygon fill="white" stroke="black" points="3936.5,-67.5 3936.5,-97.5 4036.5,-97.5 4036.5,-67.5 3936.5,-67.5"/>
<text text-anchor="start" x="3944.5" y="-85.5" font-family="Helvetica,sans-Serif" font-size="10.00">iop/usb/camera/src</text>
<text text-anchor="middle" x="3986.5" y="-74.5" font-family="Helvetica,sans-Serif" font-size="10.00">/irx_imports.h</text>
</a>
</g>
</g>
<!-- Node1&#45;&gt;Node45 -->
<g id="edge47" class="edge">
<title>Node1&#45;&gt;Node45</title>
<path fill="none" stroke="midnightblue" d="M2231.88,-148.48C2493.23,-148.16 3588.48,-144.01 3927.5,-98 3930.43,-97.6 3933.42,-97.12 3936.43,-96.57"/>
<polygon fill="midnightblue" stroke="midnightblue" points="2231.85,-144.98 2221.85,-148.49 2231.86,-151.98 2231.85,-144.98"/>
</g>
<!-- Node46 -->
<g id="node46" class="node">
<title>Node46</title>
<g id="a_node46"><a xlink:href="ps2cam_8c.html" target="_top" xlink:title=" ">
<polygon fill="white" stroke="black" points="4054.5,-67.5 4054.5,-97.5 4154.5,-97.5 4154.5,-67.5 4054.5,-67.5"/>
<text text-anchor="start" x="4062.5" y="-85.5" font-family="Helvetica,sans-Serif" font-size="10.00">iop/usb/camera/src</text>
<text text-anchor="middle" x="4104.5" y="-74.5" font-family="Helvetica,sans-Serif" font-size="10.00">/ps2cam.c</text>
</a>
</g>
</g>
<!-- Node1&#45;&gt;Node46 -->
<g id="edge48" class="edge">
<title>Node1&#45;&gt;Node46</title>
<path fill="none" stroke="midnightblue" d="M2231.65,-148.6C2503.18,-148.85 3681.85,-147.02 4045.5,-98 4048.43,-97.61 4051.42,-97.12 4054.43,-96.58"/>
<polygon fill="midnightblue" stroke="midnightblue" points="2231.63,-145.1 2221.63,-148.59 2231.62,-152.1 2231.63,-145.1"/>
</g>
<!-- Node47 -->
<g id="node47" class="node">
<title>Node47</title>
<g id="a_node47"><a xlink:href="iop_2usb_2keyboard_2src_2irx__imports_8h_source.html" target="_top" xlink:title=" ">
<polygon fill="white" stroke="black" points="4173,-67.5 4173,-97.5 4280,-97.5 4280,-67.5 4173,-67.5"/>
<text text-anchor="start" x="4181" y="-85.5" font-family="Helvetica,sans-Serif" font-size="10.00">iop/usb/keyboard/src</text>
<text text-anchor="middle" x="4226.5" y="-74.5" font-family="Helvetica,sans-Serif" font-size="10.00">/irx_imports.h</text>
</a>
</g>
</g>
<!-- Node1&#45;&gt;Node47 -->
<g id="edge49" class="edge">
<title>Node1&#45;&gt;Node47</title>
<path fill="none" stroke="midnightblue" d="M2231.91,-148.6C2514.17,-148.84 3775.02,-147.13 4163.5,-98 4166.51,-97.62 4169.58,-97.16 4172.67,-96.64"/>
<polygon fill="midnightblue" stroke="midnightblue" points="2231.51,-145.1 2221.51,-148.59 2231.51,-152.1 2231.51,-145.1"/>
</g>
<!-- Node48 -->
<g id="node48" class="node">
<title>Node48</title>
<g id="a_node48"><a xlink:href="ps2kbd_8c.html" target="_top" xlink:title=" ">
<polygon fill="white" stroke="black" points="4298,-67.5 4298,-97.5 4405,-97.5 4405,-67.5 4298,-67.5"/>
<text text-anchor="start" x="4306" y="-85.5" font-family="Helvetica,sans-Serif" font-size="10.00">iop/usb/keyboard/src</text>
<text text-anchor="middle" x="4351.5" y="-74.5" font-family="Helvetica,sans-Serif" font-size="10.00">/ps2kbd.c</text>
</a>
</g>
</g>
<!-- Node1&#45;&gt;Node48 -->
<g id="edge50" class="edge">
<title>Node1&#45;&gt;Node48</title>
<path fill="none" stroke="midnightblue" d="M2232.14,-148.72C2525.55,-149.64 3874.92,-150.86 4289.5,-98 4292.24,-97.65 4295.04,-97.23 4297.85,-96.76"/>
<polygon fill="midnightblue" stroke="midnightblue" points="2231.77,-145.22 2221.75,-148.69 2231.74,-152.22 2231.77,-145.22"/>
</g>
<!-- Node49 -->
<g id="node49" class="node">
<title>Node49</title>
<g id="a_node49"><a xlink:href="iop_2usb_2usbhdfsd_2src_2irx__imports_8h_source.html" target="_top" xlink:title=" ">
<polygon fill="white" stroke="black" points="4423,-67.5 4423,-97.5 4530,-97.5 4530,-67.5 4423,-67.5"/>
<text text-anchor="start" x="4431" y="-85.5" font-family="Helvetica,sans-Serif" font-size="10.00">iop/usb/usbhdfsd/src</text>
<text text-anchor="middle" x="4476.5" y="-74.5" font-family="Helvetica,sans-Serif" font-size="10.00">/irx_imports.h</text>
</a>
</g>
</g>
<!-- Node1&#45;&gt;Node49 -->
<g id="edge51" class="edge">
<title>Node1&#45;&gt;Node49</title>
<path fill="none" stroke="midnightblue" d="M2232.04,-148.81C2535.51,-150.24 3973.73,-153.9 4414.5,-98 4417.24,-97.65 4420.04,-97.23 4422.86,-96.76"/>
<polygon fill="midnightblue" stroke="midnightblue" points="2231.75,-145.31 2221.73,-148.76 2231.71,-152.31 2231.75,-145.31"/>
</g>
<!-- Node21 -->
<g id="node21" class="node">
<title>Node21</title>
<g id="a_node21"><a xlink:href="iop_2memorycard_2mcman_2src_2main_8c_source.html" target="_top" xlink:title=" ">
<polygon fill="white" stroke="black" points="2299,-0.5 2299,-30.5 2420,-30.5 2420,-0.5 2299,-0.5"/>
<text text-anchor="start" x="2307" y="-18.5" font-family="Helvetica,sans-Serif" font-size="10.00">iop/memorycard/mcman</text>
<text text-anchor="middle" x="2359.5" y="-7.5" font-family="Helvetica,sans-Serif" font-size="10.00">/src/main.c</text>
</a>
</g>
</g>
<!-- Node20&#45;&gt;Node21 -->
<g id="edge20" class="edge">
<title>Node20&#45;&gt;Node21</title>
<path fill="none" stroke="midnightblue" d="M2459.22,-63.13C2437.13,-52.8 2409.99,-40.11 2389.6,-30.58"/>
<polygon fill="midnightblue" stroke="midnightblue" points="2457.8,-66.33 2468.34,-67.4 2460.76,-59.99 2457.8,-66.33"/>
</g>
<!-- Node22 -->
<g id="node22" class="node">
<title>Node22</title>
<g id="a_node22"><a xlink:href="mcdev_8c_source.html" target="_top" xlink:title=" ">
<polygon fill="white" stroke="black" points="2438,-0.5 2438,-30.5 2559,-30.5 2559,-0.5 2438,-0.5"/>
<text text-anchor="start" x="2446" y="-18.5" font-family="Helvetica,sans-Serif" font-size="10.00">iop/memorycard/mcman</text>
<text text-anchor="middle" x="2498.5" y="-7.5" font-family="Helvetica,sans-Serif" font-size="10.00">/src/mcdev.c</text>
</a>
</g>
</g>
<!-- Node20&#45;&gt;Node22 -->
<g id="edge21" class="edge">
<title>Node20&#45;&gt;Node22</title>
<path fill="none" stroke="midnightblue" d="M2498.5,-57.11C2498.5,-48.15 2498.5,-38.32 2498.5,-30.58"/>
<polygon fill="midnightblue" stroke="midnightblue" points="2495,-57.4 2498.5,-67.4 2502,-57.4 2495,-57.4"/>
</g>
<!-- Node23 -->
<g id="node23" class="node">
<title>Node23</title>
<g id="a_node23"><a xlink:href="mcsio2_8c_source.html" target="_top" xlink:title=" ">
<polygon fill="white" stroke="black" points="2577,-0.5 2577,-30.5 2698,-30.5 2698,-0.5 2577,-0.5"/>
<text text-anchor="start" x="2585" y="-18.5" font-family="Helvetica,sans-Serif" font-size="10.00">iop/memorycard/mcman</text>
<text text-anchor="middle" x="2637.5" y="-7.5" font-family="Helvetica,sans-Serif" font-size="10.00">/src/mcsio2.c</text>
</a>
</g>
</g>
<!-- Node20&#45;&gt;Node23 -->
<g id="edge22" class="edge">
<title>Node20&#45;&gt;Node23</title>
<path fill="none" stroke="midnightblue" d="M2537.78,-63.13C2559.87,-52.8 2587.01,-40.11 2607.4,-30.58"/>
<polygon fill="midnightblue" stroke="midnightblue" points="2536.24,-59.99 2528.66,-67.4 2539.2,-66.33 2536.24,-59.99"/>
</g>
<!-- Node24 -->
<g id="node24" class="node">
<title>Node24</title>
<g id="a_node24"><a xlink:href="ps1mc__fio_8c_source.html" target="_top" xlink:title=" ">
<polygon fill="white" stroke="black" points="2716,-0.5 2716,-30.5 2837,-30.5 2837,-0.5 2716,-0.5"/>
<text text-anchor="start" x="2724" y="-18.5" font-family="Helvetica,sans-Serif" font-size="10.00">iop/memorycard/mcman</text>
<text text-anchor="middle" x="2776.5" y="-7.5" font-family="Helvetica,sans-Serif" font-size="10.00">/src/ps1mc_fio.c</text>
</a>
</g>
</g>
<!-- Node20&#45;&gt;Node24 -->
<g id="edge23" class="edge">
<title>Node20&#45;&gt;Node24</title>
<path fill="none" stroke="midnightblue" d="M2568.28,-65.19C2613.8,-54.54 2672.64,-40.78 2716.15,-30.61"/>
<polygon fill="midnightblue" stroke="midnightblue" points="2567.42,-61.79 2558.48,-67.48 2569.01,-68.61 2567.42,-61.79"/>
</g>
<!-- Node25 -->
<g id="node25" class="node">
<title>Node25</title>
<g id="a_node25"><a xlink:href="ps2mc__fio_8c_source.html" target="_top" xlink:title=" ">
<polygon fill="white" stroke="black" points="2160,-0.5 2160,-30.5 2281,-30.5 2281,-0.5 2160,-0.5"/>
<text text-anchor="start" x="2168" y="-18.5" font-family="Helvetica,sans-Serif" font-size="10.00">iop/memorycard/mcman</text>
<text text-anchor="middle" x="2220.5" y="-7.5" font-family="Helvetica,sans-Serif" font-size="10.00">/src/ps2mc_fio.c</text>
</a>
</g>
</g>
<!-- Node20&#45;&gt;Node25 -->
<g id="edge24" class="edge">
<title>Node20&#45;&gt;Node25</title>
<path fill="none" stroke="midnightblue" d="M2428.72,-65.19C2383.2,-54.54 2324.36,-40.78 2280.85,-30.61"/>
<polygon fill="midnightblue" stroke="midnightblue" points="2427.99,-68.61 2438.52,-67.48 2429.58,-61.79 2427.99,-68.61"/>
</g>
<!-- Node34&#45;&gt;Node14 -->
<g id="edge36" class="edge">
<title>Node34&#45;&gt;Node14</title>
<path fill="none" stroke="midnightblue" d="M1578.38,-67.55C1577.07,-67.36 1575.78,-67.18 1574.5,-67 1404.7,-43.5 1360.15,-55.51 1190.5,-31 1179.36,-29.39 1167.35,-27.23 1156.32,-25.06"/>
<polygon fill="midnightblue" stroke="midnightblue" points="1578.06,-71.04 1588.48,-69.1 1579.12,-64.12 1578.06,-71.04"/>
</g>
<!-- Node35 -->
<g id="node35" class="node">
<title>Node35</title>
<g id="a_node35"><a xlink:href="devscan_8c.html" target="_top" xlink:title=" ">
<polygon fill="white" stroke="black" points="1331,-6 1331,-25 1460,-25 1460,-6 1331,-6"/>
<text text-anchor="middle" x="1395.5" y="-13" font-family="Helvetica,sans-Serif" font-size="10.00">iop/fs/netfs/src/devscan.c</text>
</a>
</g>
</g>
<!-- Node34&#45;&gt;Node35 -->
<g id="edge34" class="edge">
<title>Node34&#45;&gt;Node35</title>
<path fill="none" stroke="midnightblue" d="M1587.97,-64.99C1537.41,-52.25 1469.52,-35.15 1429.35,-25.03"/>
<polygon fill="midnightblue" stroke="midnightblue" points="1587.28,-68.43 1597.84,-67.48 1588.99,-61.64 1587.28,-68.43"/>
</g>
<!-- Node36 -->
<g id="node36" class="node">
<title>Node36</title>
<g id="a_node36"><a xlink:href="ps2__fio_8c.html" target="_top" xlink:title=" ">
<polygon fill="white" stroke="black" points="1478,-0.5 1478,-30.5 1579,-30.5 1579,-0.5 1478,-0.5"/>
<text text-anchor="start" x="1486" y="-18.5" font-family="Helvetica,sans-Serif" font-size="10.00">iop/fs/netfs/src/ps2</text>
<text text-anchor="middle" x="1528.5" y="-7.5" font-family="Helvetica,sans-Serif" font-size="10.00">_fio.c</text>
</a>
</g>
</g>
<!-- Node34&#45;&gt;Node36 -->
<g id="edge35" class="edge">
<title>Node34&#45;&gt;Node36</title>
<path fill="none" stroke="midnightblue" d="M1617.37,-62.71C1597.66,-52.46 1573.66,-39.98 1555.57,-30.58"/>
<polygon fill="midnightblue" stroke="midnightblue" points="1615.89,-65.89 1626.38,-67.4 1619.12,-59.68 1615.89,-65.89"/>
</g>
<!-- Node37 -->
<g id="node37" class="node">
<title>Node37</title>
<g id="a_node37"><a xlink:href="commandline_8c.html" target="_top" xlink:title=" ">
<polygon fill="white" stroke="black" points="1597,-0.5 1597,-30.5 1710,-30.5 1710,-0.5 1597,-0.5"/>
<text text-anchor="start" x="1605" y="-18.5" font-family="Helvetica,sans-Serif" font-size="10.00">iop/system/iopmgr/src</text>
<text text-anchor="middle" x="1653.5" y="-7.5" font-family="Helvetica,sans-Serif" font-size="10.00">/commandline.c</text>
</a>
</g>
</g>
<!-- Node34&#45;&gt;Node37 -->
<g id="edge37" class="edge">
<title>Node34&#45;&gt;Node37</title>
<path fill="none" stroke="midnightblue" d="M1653.5,-57.11C1653.5,-48.15 1653.5,-38.32 1653.5,-30.58"/>
<polygon fill="midnightblue" stroke="midnightblue" points="1650,-57.4 1653.5,-67.4 1657,-57.4 1650,-57.4"/>
</g>
<!-- Node38 -->
<g id="node38" class="node">
<title>Node38</title>
<g id="a_node38"><a xlink:href="devices_8c.html" target="_top" xlink:title=" ">
<polygon fill="white" stroke="black" points="1728,-0.5 1728,-30.5 1841,-30.5 1841,-0.5 1728,-0.5"/>
<text text-anchor="start" x="1736" y="-18.5" font-family="Helvetica,sans-Serif" font-size="10.00">iop/system/iopmgr/src</text>
<text text-anchor="middle" x="1784.5" y="-7.5" font-family="Helvetica,sans-Serif" font-size="10.00">/devices.c</text>
</a>
</g>
</g>
<!-- Node34&#45;&gt;Node38 -->
<g id="edge38" class="edge">
<title>Node34&#45;&gt;Node38</title>
<path fill="none" stroke="midnightblue" d="M1691.08,-62.85C1711.79,-52.58 1737.09,-40.03 1756.13,-30.58"/>
<polygon fill="midnightblue" stroke="midnightblue" points="1689.33,-59.82 1681.93,-67.4 1692.44,-66.09 1689.33,-59.82"/>
</g>
<!-- Node39 -->
<g id="node39" class="node">
<title>Node39</title>
<g id="a_node39"><a xlink:href="iop_2system_2iopmgr_2src_2main_8c.html" target="_top" xlink:title=" ">
<polygon fill="white" stroke="black" points="1200,-0.5 1200,-30.5 1313,-30.5 1313,-0.5 1200,-0.5"/>
<text text-anchor="start" x="1208" y="-18.5" font-family="Helvetica,sans-Serif" font-size="10.00">iop/system/iopmgr/src</text>
<text text-anchor="middle" x="1256.5" y="-7.5" font-family="Helvetica,sans-Serif" font-size="10.00">/main.c</text>
</a>
</g>
</g>
<!-- Node34&#45;&gt;Node39 -->
<g id="edge39" class="edge">
<title>Node34&#45;&gt;Node39</title>
<path fill="none" stroke="midnightblue" d="M1578.36,-67.64C1577.07,-67.42 1575.78,-67.21 1574.5,-67 1462.4,-48.74 1433.23,-51.38 1321.5,-31 1318.77,-30.5 1315.98,-29.97 1313.17,-29.41"/>
<polygon fill="midnightblue" stroke="midnightblue" points="1577.99,-71.12 1588.44,-69.34 1579.16,-64.22 1577.99,-71.12"/>
</g>
<!-- Node34&#45;&gt;Node40 -->
<g id="edge40" class="edge">
<title>Node34&#45;&gt;Node40</title>
<path fill="none" stroke="midnightblue" d="M1719.8,-65.05C1762.63,-54.43 1817.79,-40.74 1858.62,-30.61"/>
<polygon fill="midnightblue" stroke="midnightblue" points="1718.89,-61.67 1710.03,-67.48 1720.58,-68.47 1718.89,-61.67"/>
</g>
<!-- Node34&#45;&gt;Node41 -->
<g id="edge41" class="edge">
<title>Node34&#45;&gt;Node41</title>
<path fill="none" stroke="midnightblue" d="M1728.5,-71.29C1794.93,-61.92 1894.43,-47.08 1980.5,-31 1983.5,-30.44 1986.57,-29.84 1989.66,-29.22"/>
<polygon fill="midnightblue" stroke="midnightblue" points="1727.96,-67.83 1718.54,-72.69 1728.93,-74.76 1727.96,-67.83"/>
</g>
</g>
</svg>
