<?xml version="1.0" encoding="UTF-8" standalone="no"?>
<!DOCTYPE svg PUBLIC "-//W3C//DTD SVG 1.1//EN"
 "http://www.w3.org/Graphics/SVG/1.1/DTD/svg11.dtd">
<!-- Generated by graphviz version 3.0.0 (20220413.0242)
 -->
<!-- Title: iop/debug/ioptrap/src/ioptrap.c Pages: 1 -->
<!--zoomable 263 -->
<svg id="main" version="1.1" xmlns="http://www.w3.org/2000/svg" xmlns:xlink="http://www.w3.org/1999/xlink" xml:space="preserve" onload="init(evt)">
<style type="text/css"><![CDATA[
.edge:hover path { stroke: red; }
.edge:hover polygon { stroke: red; fill: red; }
]]></style>
<script type="text/javascript"><![CDATA[
var edges = document.getElementsByTagName('g');
if (edges && edges.length) {
  for (var i=0;i<edges.length;i++) {
    if (edges[i].id.substr(0,4)=='edge') {
      edges[i].setAttribute('class','edge');
    }
  }
}
]]></script>
        <defs>
                <circle id="rim" cx="0" cy="0" r="7"/>
                <circle id="rim2" cx="0" cy="0" r="3.5"/>
                <g id="zoomPlus">
                        <use xlink:href="#rim" fill="#404040">
                                <set attributeName="fill" to="#808080" begin="zoomplus.mouseover" end="zoomplus.mouseout"/>
                        </use>
                        <path d="M-4,0h8M0,-4v8" fill="none" stroke="white" stroke-width="1.5" pointer-events="none"/>
                </g>
                <g id="zoomMin">
                        <use xlink:href="#rim" fill="#404040">
                                <set attributeName="fill" to="#808080" begin="zoomminus.mouseover" end="zoomminus.mouseout"/>
                        </use>
                        <path d="M-4,0h8" fill="none" stroke="white" stroke-width="1.5" pointer-events="none"/>
                </g>
                <g id="dirArrow">
                        <path fill="none" stroke="white" stroke-width="1.5" d="M0,-3.0v7 M-2.5,-0.5L0,-3.0L2.5,-0.5"/>
                </g>
               <g id="resetDef">
                       <use xlink:href="#rim2" fill="#404040">
                               <set attributeName="fill" to="#808080" begin="reset.mouseover" end="reset.mouseout"/>
                       </use>
               </g>
        </defs>

<script type="text/javascript">
var viewWidth = 671;
var viewHeight = 263;
var sectionId = 'dynsection-0';
</script>
<script xlink:href="svgpan.js"/>
<svg id="graph" class="graph">
<g id="viewport">
<title>iop/debug/ioptrap/src/ioptrap.c</title>
<polygon fill="white" stroke="transparent" points="-4,4 -4,-259 667,-259 667,4 -4,4"/>
<!-- Node1 -->
<g id="node1" class="node">
<title>Node1</title>
<g id="a_node1"><a xlink:title=" ">
<polygon fill="#bfbfbf" stroke="black" points="234,-224.5 234,-254.5 341,-254.5 341,-224.5 234,-224.5"/>
<text text-anchor="start" x="242" y="-242.5" font-family="Helvetica,sans-Serif" font-size="10.00">iop/debug/ioptrap/src</text>
<text text-anchor="middle" x="287.5" y="-231.5" font-family="Helvetica,sans-Serif" font-size="10.00">/ioptrap.c</text>
</a>
</g>
</g>
<!-- Node2 -->
<g id="node2" class="node">
<title>Node2</title>
<g id="a_node2"><a xlink:title=" ">
<polygon fill="white" stroke="#bfbfbf" points="68,-112.5 68,-131.5 115,-131.5 115,-112.5 68,-112.5"/>
<text text-anchor="middle" x="91.5" y="-119.5" font-family="Helvetica,sans-Serif" font-size="10.00">types.h</text>
</a>
</g>
</g>
<!-- Node1&#45;&gt;Node2 -->
<g id="edge1" class="edge">
<title>Node1&#45;&gt;Node2</title>
<path fill="none" stroke="midnightblue" d="M233.82,-233.55C176.29,-227 90.52,-213.22 70.5,-188 59.49,-174.13 68.46,-154.33 77.86,-140.24"/>
<polygon fill="midnightblue" stroke="midnightblue" points="80.85,-142.07 83.89,-131.92 75.18,-137.96 80.85,-142.07"/>
</g>
<!-- Node3 -->
<g id="node3" class="node">
<title>Node3</title>
<g id="a_node3"><a xlink:href="defs_8h.html" target="_top" xlink:title=" ">
<polygon fill="white" stroke="black" points="0,-112.5 0,-131.5 43,-131.5 43,-112.5 0,-112.5"/>
<text text-anchor="middle" x="21.5" y="-119.5" font-family="Helvetica,sans-Serif" font-size="10.00">defs.h</text>
</a>
</g>
</g>
<!-- Node1&#45;&gt;Node3 -->
<g id="edge2" class="edge">
<title>Node1&#45;&gt;Node3</title>
<path fill="none" stroke="midnightblue" d="M233.89,-238.04C184.85,-235.13 112.4,-224.3 61.5,-188 45.35,-176.49 34.41,-156.22 28.11,-141.37"/>
<polygon fill="midnightblue" stroke="midnightblue" points="31.24,-139.75 24.34,-131.71 24.72,-142.3 31.24,-139.75"/>
</g>
<!-- Node7 -->
<g id="node7" class="node">
<title>Node7</title>
<g id="a_node7"><a xlink:href="irx_8h.html" target="_top" xlink:title=" ">
<polygon fill="white" stroke="black" points="355.5,-112.5 355.5,-131.5 389.5,-131.5 389.5,-112.5 355.5,-112.5"/>
<text text-anchor="middle" x="372.5" y="-119.5" font-family="Helvetica,sans-Serif" font-size="10.00">irx.h</text>
</a>
</g>
</g>
<!-- Node1&#45;&gt;Node7 -->
<g id="edge6" class="edge">
<title>Node1&#45;&gt;Node7</title>
<path fill="none" stroke="midnightblue" d="M326.85,-224.46C343.3,-216.45 360.82,-204.62 370.5,-188 378.58,-174.13 378.3,-155.61 376.46,-141.89"/>
<polygon fill="midnightblue" stroke="midnightblue" points="379.85,-140.96 374.69,-131.7 372.95,-142.15 379.85,-140.96"/>
</g>
<!-- Node8 -->
<g id="node8" class="node">
<title>Node8</title>
<g id="a_node8"><a xlink:href="ioptrap_8h.html" target="_top" xlink:title=" ">
<polygon fill="white" stroke="black" points="80,-168.5 80,-187.5 133,-187.5 133,-168.5 80,-168.5"/>
<text text-anchor="middle" x="106.5" y="-175.5" font-family="Helvetica,sans-Serif" font-size="10.00">ioptrap.h</text>
</a>
</g>
</g>
<!-- Node1&#45;&gt;Node8 -->
<g id="edge8" class="edge">
<title>Node1&#45;&gt;Node8</title>
<path fill="none" stroke="midnightblue" d="M244.61,-224.4C213.47,-214.16 171.81,-200.47 142.42,-190.81"/>
<polygon fill="midnightblue" stroke="midnightblue" points="143.17,-187.37 132.57,-187.57 140.98,-194.02 143.17,-187.37"/>
</g>
<!-- Node9 -->
<g id="node9" class="node">
<title>Node9</title>
<g id="a_node9"><a xlink:href="excepman_8h.html" target="_top" xlink:title=" ">
<polygon fill="white" stroke="black" points="293.5,-168.5 293.5,-187.5 361.5,-187.5 361.5,-168.5 293.5,-168.5"/>
<text text-anchor="middle" x="327.5" y="-175.5" font-family="Helvetica,sans-Serif" font-size="10.00">excepman.h</text>
</a>
</g>
</g>
<!-- Node1&#45;&gt;Node9 -->
<g id="edge11" class="edge">
<title>Node1&#45;&gt;Node9</title>
<path fill="none" stroke="midnightblue" d="M296.98,-224.4C302.67,-215.93 309.95,-205.1 315.98,-196.14"/>
<polygon fill="midnightblue" stroke="midnightblue" points="319.01,-197.91 321.68,-187.66 313.2,-194 319.01,-197.91"/>
</g>
<!-- Node10 -->
<g id="node10" class="node">
<title>Node10</title>
<g id="a_node10"><a xlink:href="loadcore_8h.html" target="_top" xlink:title=" ">
<polygon fill="white" stroke="black" points="418,-168.5 418,-187.5 479,-187.5 479,-168.5 418,-168.5"/>
<text text-anchor="middle" x="448.5" y="-175.5" font-family="Helvetica,sans-Serif" font-size="10.00">loadcore.h</text>
</a>
</g>
</g>
<!-- Node1&#45;&gt;Node10 -->
<g id="edge14" class="edge">
<title>Node1&#45;&gt;Node10</title>
<path fill="none" stroke="midnightblue" d="M325.65,-224.4C353.03,-214.28 389.54,-200.79 415.63,-191.15"/>
<polygon fill="midnightblue" stroke="midnightblue" points="416.91,-194.41 425.07,-187.66 414.48,-187.84 416.91,-194.41"/>
</g>
<!-- Node11 -->
<g id="node11" class="node">
<title>Node11</title>
<g id="a_node11"><a xlink:href="sifman_8h.html" target="_top" xlink:title=" ">
<polygon fill="white" stroke="black" points="151,-168.5 151,-187.5 204,-187.5 204,-168.5 151,-168.5"/>
<text text-anchor="middle" x="177.5" y="-175.5" font-family="Helvetica,sans-Serif" font-size="10.00">sifman.h</text>
</a>
</g>
</g>
<!-- Node1&#45;&gt;Node11 -->
<g id="edge17" class="edge">
<title>Node1&#45;&gt;Node11</title>
<path fill="none" stroke="midnightblue" d="M261.43,-224.4C243.63,-214.77 220.19,-202.09 202.6,-192.58"/>
<polygon fill="midnightblue" stroke="midnightblue" points="203.97,-189.34 193.51,-187.66 200.64,-195.49 203.97,-189.34"/>
</g>
<!-- Node12 -->
<g id="node12" class="node">
<title>Node12</title>
<g id="a_node12"><a xlink:href="stdio_8h.html" target="_top" xlink:title=" ">
<polygon fill="white" stroke="black" points="497,-168.5 497,-187.5 542,-187.5 542,-168.5 497,-168.5"/>
<text text-anchor="middle" x="519.5" y="-175.5" font-family="Helvetica,sans-Serif" font-size="10.00">stdio.h</text>
</a>
</g>
</g>
<!-- Node1&#45;&gt;Node12 -->
<g id="edge20" class="edge">
<title>Node1&#45;&gt;Node12</title>
<path fill="none" stroke="midnightblue" d="M341.38,-225.53C379.64,-216.19 432.44,-203.04 487,-188.34"/>
<polygon fill="midnightblue" stroke="midnightblue" points="488.1,-191.67 496.84,-185.68 486.27,-184.91 488.1,-191.67"/>
</g>
<!-- Node14 -->
<g id="node14" class="node">
<title>Node14</title>
<g id="a_node14"><a xlink:href="sysclib_8h.html" target="_top" xlink:title=" ">
<polygon fill="white" stroke="black" points="560.5,-168.5 560.5,-187.5 614.5,-187.5 614.5,-168.5 560.5,-168.5"/>
<text text-anchor="middle" x="587.5" y="-175.5" font-family="Helvetica,sans-Serif" font-size="10.00">sysclib.h</text>
</a>
</g>
</g>
<!-- Node1&#45;&gt;Node14 -->
<g id="edge23" class="edge">
<title>Node1&#45;&gt;Node14</title>
<path fill="none" stroke="midnightblue" d="M341.02,-229.17C392.29,-220.03 472.05,-205.27 550.37,-188.15"/>
<polygon fill="midnightblue" stroke="midnightblue" points="551.4,-191.51 560.41,-185.94 549.89,-184.68 551.4,-191.51"/>
</g>
<!-- Node17 -->
<g id="node17" class="node">
<title>Node17</title>
<g id="a_node17"><a xlink:href="thbase_8h.html" target="_top" xlink:title=" ">
<polygon fill="white" stroke="black" points="222,-168.5 222,-187.5 275,-187.5 275,-168.5 222,-168.5"/>
<text text-anchor="middle" x="248.5" y="-175.5" font-family="Helvetica,sans-Serif" font-size="10.00">thbase.h</text>
</a>
</g>
</g>
<!-- Node1&#45;&gt;Node17 -->
<g id="edge30" class="edge">
<title>Node1&#45;&gt;Node17</title>
<path fill="none" stroke="midnightblue" d="M278.26,-224.4C272.71,-215.93 265.61,-205.1 259.73,-196.14"/>
<polygon fill="midnightblue" stroke="midnightblue" points="262.58,-194.1 254.17,-187.66 256.73,-197.94 262.58,-194.1"/>
</g>
<!-- Node4 -->
<g id="node4" class="node">
<title>Node4</title>
<g id="a_node4"><a xlink:href="types_8h_source.html" target="_top" xlink:title=" ">
<polygon fill="white" stroke="black" points="326,-56.5 326,-75.5 373,-75.5 373,-56.5 326,-56.5"/>
<text text-anchor="middle" x="349.5" y="-63.5" font-family="Helvetica,sans-Serif" font-size="10.00">types.h</text>
</a>
</g>
</g>
<!-- Node3&#45;&gt;Node4 -->
<g id="edge3" class="edge">
<title>Node3&#45;&gt;Node4</title>
<path fill="none" stroke="midnightblue" d="M43.34,-115.36C48.31,-114.17 53.57,-112.98 58.5,-112 151.11,-93.61 261.55,-78.33 315.9,-71.25"/>
<polygon fill="midnightblue" stroke="midnightblue" points="316.53,-74.7 325.99,-69.94 315.63,-67.76 316.53,-74.7"/>
</g>
<!-- Node5 -->
<g id="node5" class="node">
<title>Node5</title>
<g id="a_node5"><a xlink:title=" ">
<polygon fill="white" stroke="#bfbfbf" points="324,-0.5 324,-19.5 375,-19.5 375,-0.5 324,-0.5"/>
<text text-anchor="middle" x="349.5" y="-7.5" font-family="Helvetica,sans-Serif" font-size="10.00">stddef.h</text>
</a>
</g>
</g>
<!-- Node4&#45;&gt;Node5 -->
<g id="edge4" class="edge">
<title>Node4&#45;&gt;Node5</title>
<path fill="none" stroke="midnightblue" d="M349.5,-56.08C349.5,-49.01 349.5,-38.86 349.5,-29.99"/>
<polygon fill="midnightblue" stroke="midnightblue" points="353,-29.75 349.5,-19.75 346,-29.75 353,-29.75"/>
</g>
<!-- Node6 -->
<g id="node6" class="node">
<title>Node6</title>
<g id="a_node6"><a xlink:href="tamtypes_8h.html" target="_top" xlink:title=" ">
<polygon fill="white" stroke="black" points="485.5,-0.5 485.5,-19.5 549.5,-19.5 549.5,-0.5 485.5,-0.5"/>
<text text-anchor="middle" x="517.5" y="-7.5" font-family="Helvetica,sans-Serif" font-size="10.00">tamtypes.h</text>
</a>
</g>
</g>
<!-- Node4&#45;&gt;Node6 -->
<g id="edge5" class="edge">
<title>Node4&#45;&gt;Node6</title>
<path fill="none" stroke="midnightblue" d="M373.21,-57.38C401.33,-48.34 448.49,-33.18 481.2,-22.67"/>
<polygon fill="midnightblue" stroke="midnightblue" points="482.41,-25.96 490.86,-19.56 480.27,-19.29 482.41,-25.96"/>
</g>
<!-- Node7&#45;&gt;Node4 -->
<g id="edge7" class="edge">
<title>Node7&#45;&gt;Node4</title>
<path fill="none" stroke="midnightblue" d="M368.7,-112.08C365.59,-104.77 361.08,-94.18 357.21,-85.1"/>
<polygon fill="midnightblue" stroke="midnightblue" points="360.37,-83.58 353.23,-75.75 353.93,-86.32 360.37,-83.58"/>
</g>
<!-- Node8&#45;&gt;Node2 -->
<g id="edge9" class="edge">
<title>Node8&#45;&gt;Node2</title>
<path fill="none" stroke="midnightblue" d="M104.02,-168.08C102.01,-160.85 99.11,-150.41 96.61,-141.4"/>
<polygon fill="midnightblue" stroke="midnightblue" points="99.98,-140.45 93.93,-131.75 93.24,-142.32 99.98,-140.45"/>
</g>
<!-- Node8&#45;&gt;Node7 -->
<g id="edge10" class="edge">
<title>Node8&#45;&gt;Node7</title>
<path fill="none" stroke="midnightblue" d="M133.21,-169.96C136.01,-169.27 138.81,-168.61 141.5,-168 214.8,-151.45 302,-135.46 345.3,-127.76"/>
<polygon fill="midnightblue" stroke="midnightblue" points="346.09,-131.17 355.33,-125.99 344.87,-124.28 346.09,-131.17"/>
</g>
<!-- Node9&#45;&gt;Node4 -->
<g id="edge12" class="edge">
<title>Node9&#45;&gt;Node4</title>
<path fill="none" stroke="midnightblue" d="M329.23,-168.37C332.78,-150.62 340.97,-109.67 345.78,-85.6"/>
<polygon fill="midnightblue" stroke="midnightblue" points="349.25,-86.08 347.78,-75.59 342.39,-84.71 349.25,-86.08"/>
</g>
<!-- Node9&#45;&gt;Node7 -->
<g id="edge13" class="edge">
<title>Node9&#45;&gt;Node7</title>
<path fill="none" stroke="midnightblue" d="M334.93,-168.08C341.35,-160.38 350.81,-149.03 358.62,-139.65"/>
<polygon fill="midnightblue" stroke="midnightblue" points="361.49,-141.67 365.21,-131.75 356.12,-137.19 361.49,-141.67"/>
</g>
<!-- Node10&#45;&gt;Node4 -->
<g id="edge15" class="edge">
<title>Node10&#45;&gt;Node4</title>
<path fill="none" stroke="midnightblue" d="M442.47,-168.21C433.5,-155.35 415.81,-130.89 398.5,-112 388.96,-101.59 377.37,-90.87 367.85,-82.5"/>
<polygon fill="midnightblue" stroke="midnightblue" points="369.98,-79.71 360.12,-75.82 365.4,-85.01 369.98,-79.71"/>
</g>
<!-- Node10&#45;&gt;Node7 -->
<g id="edge16" class="edge">
<title>Node10&#45;&gt;Node7</title>
<path fill="none" stroke="midnightblue" d="M436.29,-168.32C424.72,-160.11 407.12,-147.6 393.34,-137.81"/>
<polygon fill="midnightblue" stroke="midnightblue" points="395.11,-134.77 384.93,-131.83 391.06,-140.48 395.11,-134.77"/>
</g>
<!-- Node11&#45;&gt;Node4 -->
<g id="edge18" class="edge">
<title>Node11&#45;&gt;Node4</title>
<path fill="none" stroke="midnightblue" d="M191,-168.37C220.51,-149.49 291.04,-104.38 327.24,-81.24"/>
<polygon fill="midnightblue" stroke="midnightblue" points="329.53,-83.93 336.07,-75.59 325.76,-78.03 329.53,-83.93"/>
</g>
<!-- Node11&#45;&gt;Node7 -->
<g id="edge19" class="edge">
<title>Node11&#45;&gt;Node7</title>
<path fill="none" stroke="midnightblue" d="M204.21,-169.6C241.39,-159.31 308.38,-140.76 345.64,-130.44"/>
<polygon fill="midnightblue" stroke="midnightblue" points="346.61,-133.8 355.32,-127.76 344.75,-127.05 346.61,-133.8"/>
</g>
<!-- Node12&#45;&gt;Node7 -->
<g id="edge22" class="edge">
<title>Node12&#45;&gt;Node7</title>
<path fill="none" stroke="midnightblue" d="M496.85,-168.68C470.6,-159.04 427.37,-143.16 399.42,-132.89"/>
<polygon fill="midnightblue" stroke="midnightblue" points="400.47,-129.55 389.88,-129.38 398.06,-136.12 400.47,-129.55"/>
</g>
<!-- Node13 -->
<g id="node13" class="node">
<title>Node13</title>
<g id="a_node13"><a xlink:title=" ">
<polygon fill="white" stroke="#bfbfbf" points="470,-112.5 470,-131.5 521,-131.5 521,-112.5 470,-112.5"/>
<text text-anchor="middle" x="495.5" y="-119.5" font-family="Helvetica,sans-Serif" font-size="10.00">stdarg.h</text>
</a>
</g>
</g>
<!-- Node12&#45;&gt;Node13 -->
<g id="edge21" class="edge">
<title>Node12&#45;&gt;Node13</title>
<path fill="none" stroke="midnightblue" d="M515.54,-168.08C512.29,-160.77 507.58,-150.18 503.55,-141.1"/>
<polygon fill="midnightblue" stroke="midnightblue" points="506.65,-139.47 499.39,-131.75 500.25,-142.31 506.65,-139.47"/>
</g>
<!-- Node14&#45;&gt;Node4 -->
<g id="edge24" class="edge">
<title>Node14&#45;&gt;Node4</title>
<path fill="none" stroke="midnightblue" d="M582.39,-168.34C573.63,-154.26 554.34,-126.53 530.5,-112 484.37,-83.89 421.51,-73.31 383.3,-69.35"/>
<polygon fill="midnightblue" stroke="midnightblue" points="383.5,-65.85 373.21,-68.39 382.84,-72.82 383.5,-65.85"/>
</g>
<!-- Node14&#45;&gt;Node7 -->
<g id="edge25" class="edge">
<title>Node14&#45;&gt;Node7</title>
<path fill="none" stroke="midnightblue" d="M560.27,-170.16C518.9,-159.77 440.68,-140.12 399.47,-129.77"/>
<polygon fill="midnightblue" stroke="midnightblue" points="400.14,-126.33 389.59,-127.29 398.44,-133.12 400.14,-126.33"/>
</g>
<!-- Node14&#45;&gt;Node13 -->
<g id="edge26" class="edge">
<title>Node14&#45;&gt;Node13</title>
<path fill="none" stroke="midnightblue" d="M572.72,-168.32C558.23,-159.82 535.93,-146.73 519.01,-136.8"/>
<polygon fill="midnightblue" stroke="midnightblue" points="520.64,-133.7 510.24,-131.65 517.1,-139.74 520.64,-133.7"/>
</g>
<!-- Node15 -->
<g id="node15" class="node">
<title>Node15</title>
<g id="a_node15"><a xlink:href="setjmp_8h.html" target="_top" xlink:title=" ">
<polygon fill="white" stroke="black" points="526,-56.5 526,-75.5 579,-75.5 579,-56.5 526,-56.5"/>
<text text-anchor="middle" x="552.5" y="-63.5" font-family="Helvetica,sans-Serif" font-size="10.00">setjmp.h</text>
</a>
</g>
</g>
<!-- Node14&#45;&gt;Node15 -->
<g id="edge27" class="edge">
<title>Node14&#45;&gt;Node15</title>
<path fill="none" stroke="midnightblue" d="M584.75,-168.37C579.08,-150.54 565.96,-109.3 558.31,-85.27"/>
<polygon fill="midnightblue" stroke="midnightblue" points="561.6,-84.06 555.23,-75.59 554.93,-86.18 561.6,-84.06"/>
</g>
<!-- Node16 -->
<g id="node16" class="node">
<title>Node16</title>
<g id="a_node16"><a xlink:href="ctype_8h.html" target="_top" xlink:title=" ">
<polygon fill="white" stroke="black" points="616,-112.5 616,-131.5 663,-131.5 663,-112.5 616,-112.5"/>
<text text-anchor="middle" x="639.5" y="-119.5" font-family="Helvetica,sans-Serif" font-size="10.00">ctype.h</text>
</a>
</g>
</g>
<!-- Node14&#45;&gt;Node16 -->
<g id="edge29" class="edge">
<title>Node14&#45;&gt;Node16</title>
<path fill="none" stroke="midnightblue" d="M596.09,-168.08C603.66,-160.22 614.88,-148.57 624.01,-139.08"/>
<polygon fill="midnightblue" stroke="midnightblue" points="626.66,-141.38 631.07,-131.75 621.62,-136.53 626.66,-141.38"/>
</g>
<!-- Node15&#45;&gt;Node6 -->
<g id="edge28" class="edge">
<title>Node15&#45;&gt;Node6</title>
<path fill="none" stroke="midnightblue" d="M546.72,-56.08C541.83,-48.53 534.67,-37.49 528.67,-28.23"/>
<polygon fill="midnightblue" stroke="midnightblue" points="531.55,-26.24 523.17,-19.75 525.67,-30.05 531.55,-26.24"/>
</g>
<!-- Node17&#45;&gt;Node4 -->
<g id="edge31" class="edge">
<title>Node17&#45;&gt;Node4</title>
<path fill="none" stroke="midnightblue" d="M256.43,-168.37C273.31,-149.97 313.07,-106.67 334.76,-83.05"/>
<polygon fill="midnightblue" stroke="midnightblue" points="337.43,-85.32 341.61,-75.59 332.27,-80.59 337.43,-85.32"/>
</g>
<!-- Node17&#45;&gt;Node7 -->
<g id="edge32" class="edge">
<title>Node17&#45;&gt;Node7</title>
<path fill="none" stroke="midnightblue" d="M268.15,-168.44C289.18,-159.28 322.67,-144.7 346.02,-134.53"/>
<polygon fill="midnightblue" stroke="midnightblue" points="347.57,-137.67 355.34,-130.47 344.77,-131.26 347.57,-137.67"/>
</g>
</g>
</svg>
        <g id="navigator" transform="translate(0 0)" fill="#404254">
                <rect fill="#f2f5e9" fill-opacity="0.5" stroke="#606060" stroke-width=".5" x="0" y="0" width="60" height="60"/>
                <use id="zoomplus" xlink:href="#zoomPlus" x="17" y="9" onmousedown="handleZoom(evt,'in')"/>
                <use id="zoomminus" xlink:href="#zoomMin" x="42" y="9" onmousedown="handleZoom(evt,'out')"/>
                <use id="reset" xlink:href="#resetDef" x="30" y="36" onmousedown="handleReset()"/>
                <g id="arrowUp" xlink:href="#dirArrow" transform="translate(30 24)" onmousedown="handlePan(0,-1)">
                  <use xlink:href="#rim" fill="#404040">
                        <set attributeName="fill" to="#808080" begin="arrowUp.mouseover" end="arrowUp.mouseout"/>
                  </use>
                  <path fill="none" stroke="white" stroke-width="1.5" d="M0,-3.0v7 M-2.5,-0.5L0,-3.0L2.5,-0.5"/>
                </g>
                <g id="arrowRight" xlink:href="#dirArrow" transform="rotate(90) translate(36 -43)" onmousedown="handlePan(1,0)">
                  <use xlink:href="#rim" fill="#404040">
                        <set attributeName="fill" to="#808080" begin="arrowRight.mouseover" end="arrowRight.mouseout"/>
                  </use>
                  <path fill="none" stroke="white" stroke-width="1.5" d="M0,-3.0v7 M-2.5,-0.5L0,-3.0L2.5,-0.5"/>
                </g>
                <g id="arrowDown" xlink:href="#dirArrow" transform="rotate(180) translate(-30 -48)" onmousedown="handlePan(0,1)">
                  <use xlink:href="#rim" fill="#404040">
                        <set attributeName="fill" to="#808080" begin="arrowDown.mouseover" end="arrowDown.mouseout"/>
                  </use>
                  <path fill="none" stroke="white" stroke-width="1.5" d="M0,-3.0v7 M-2.5,-0.5L0,-3.0L2.5,-0.5"/>
                </g>
                <g id="arrowLeft" xlink:href="#dirArrow" transform="rotate(270) translate(-36 17)" onmousedown="handlePan(-1,0)">
                  <use xlink:href="#rim" fill="#404040">
                        <set attributeName="fill" to="#808080" begin="arrowLeft.mouseover" end="arrowLeft.mouseout"/>
                  </use>
                  <path fill="none" stroke="white" stroke-width="1.5" d="M0,-3.0v7 M-2.5,-0.5L0,-3.0L2.5,-0.5"/>
                </g>
        </g>
        <svg viewBox="0 0 15 15" width="100%" height="30px" preserveAspectRatio="xMaxYMin meet">
         <g id="arrow_out" transform="scale(0.3 0.3)">
          <a xlink:href="ioptrap_8c__incl_org.svg" target="_base">
           <rect id="button" ry="5" rx="5" y="6" x="6" height="38" width="38"
                fill="#f2f5e9" fill-opacity="0.5" stroke="#606060" stroke-width="1.0"/>
           <path id="arrow"
             d="M 11.500037,31.436501 C 11.940474,20.09759 22.043105,11.32322 32.158766,21.979434 L 37.068811,17.246167 C 37.068811,17.246167 37.088388,32 37.088388,32 L 22.160133,31.978069 C 22.160133,31.978069 26.997745,27.140456 26.997745,27.140456 C 18.528582,18.264221 13.291696,25.230495 11.500037,31.436501 z"
             style="fill:#404040;"/>
          </a>
         </g>
        </svg>
</svg>
