<?xml version="1.0" encoding="UTF-8" standalone="no"?>
<!DOCTYPE svg PUBLIC "-//W3C//DTD SVG 1.1//EN"
 "http://www.w3.org/Graphics/SVG/1.1/DTD/svg11.dtd">
<!-- Generated by graphviz version 3.0.0 (20220413.0242)
 -->
<!-- Title: common/include/netman.h Pages: 1 -->
<svg width="959pt" height="162pt"
 viewBox="0.00 0.00 958.50 162.00" xmlns="http://www.w3.org/2000/svg" xmlns:xlink="http://www.w3.org/1999/xlink">
<g id="graph0" class="graph" transform="scale(1 1) rotate(0) translate(4 158)">
<title>common/include/netman.h</title>
<polygon fill="white" stroke="transparent" points="-4,4 -4,-158 954.5,-158 954.5,4 -4,4"/>
<!-- Node1 -->
<g id="node1" class="node">
<title>Node1</title>
<g id="a_node1"><a xlink:title=" ">
<polygon fill="#bfbfbf" stroke="black" points="432.5,-134.5 432.5,-153.5 563.5,-153.5 563.5,-134.5 432.5,-134.5"/>
<text text-anchor="middle" x="498" y="-141.5" font-family="Helvetica,sans-Serif" font-size="10.00">common/include/netman.h</text>
</a>
</g>
</g>
<!-- Node2 -->
<g id="node2" class="node">
<title>Node2</title>
<g id="a_node2"><a xlink:href="netman__rpc_8h.html" target="_top" xlink:title=" ">
<polygon fill="white" stroke="black" points="327.5,-67.5 327.5,-97.5 450.5,-97.5 450.5,-67.5 327.5,-67.5"/>
<text text-anchor="start" x="335.5" y="-85.5" font-family="Helvetica,sans-Serif" font-size="10.00">common/include/netman</text>
<text text-anchor="middle" x="389" y="-74.5" font-family="Helvetica,sans-Serif" font-size="10.00">_rpc.h</text>
</a>
</g>
</g>
<!-- Node1&#45;&gt;Node2 -->
<g id="edge1" class="edge">
<title>Node1&#45;&gt;Node2</title>
<path fill="none" stroke="midnightblue" d="M473.35,-129.54C455.85,-119.99 432.42,-107.2 414.69,-97.52"/>
<polygon fill="midnightblue" stroke="midnightblue" points="471.93,-132.76 482.38,-134.48 475.28,-126.61 471.93,-132.76"/>
</g>
<!-- Node3 -->
<g id="node3" class="node">
<title>Node3</title>
<g id="a_node3"><a xlink:href="ee_2network_2netman_2src_2netman_8c_source.html" target="_top" xlink:title=" ">
<polygon fill="white" stroke="black" points="0,-0.5 0,-30.5 116,-30.5 116,-0.5 0,-0.5"/>
<text text-anchor="start" x="8" y="-18.5" font-family="Helvetica,sans-Serif" font-size="10.00">ee/network/netman/src</text>
<text text-anchor="middle" x="58" y="-7.5" font-family="Helvetica,sans-Serif" font-size="10.00">/netman.c</text>
</a>
</g>
</g>
<!-- Node1&#45;&gt;Node3 -->
<g id="edge8" class="edge">
<title>Node1&#45;&gt;Node3</title>
<path fill="none" stroke="midnightblue" d="M422.18,-133.36C373.27,-126.09 308.64,-114.53 253,-98 191.8,-79.82 123.71,-48.7 86.37,-30.63"/>
<polygon fill="midnightblue" stroke="midnightblue" points="421.97,-136.86 432.37,-134.84 422.98,-129.94 421.97,-136.86"/>
</g>
<!-- Node4 -->
<g id="node4" class="node">
<title>Node4</title>
<g id="a_node4"><a xlink:href="ee_2network_2netman_2src_2rpc__client_8c_source.html" target="_top" xlink:title=" ">
<polygon fill="white" stroke="black" points="134,-0.5 134,-30.5 250,-30.5 250,-0.5 134,-0.5"/>
<text text-anchor="start" x="142" y="-18.5" font-family="Helvetica,sans-Serif" font-size="10.00">ee/network/netman/src</text>
<text text-anchor="middle" x="192" y="-7.5" font-family="Helvetica,sans-Serif" font-size="10.00">/rpc_client.c</text>
</a>
</g>
</g>
<!-- Node1&#45;&gt;Node4 -->
<g id="edge9" class="edge">
<title>Node1&#45;&gt;Node4</title>
<path fill="none" stroke="midnightblue" d="M424.04,-132.63C387.42,-125.77 343.2,-114.86 306,-98 267.22,-80.43 228.19,-48.8 207.37,-30.54"/>
<polygon fill="midnightblue" stroke="midnightblue" points="423.69,-136.12 434.15,-134.45 424.93,-129.23 423.69,-136.12"/>
</g>
<!-- Node5 -->
<g id="node5" class="node">
<title>Node5</title>
<g id="a_node5"><a xlink:href="ee_2network_2netman_2src_2rpc__server_8c_source.html" target="_top" xlink:title=" ">
<polygon fill="white" stroke="black" points="268,-0.5 268,-30.5 384,-30.5 384,-0.5 268,-0.5"/>
<text text-anchor="start" x="276" y="-18.5" font-family="Helvetica,sans-Serif" font-size="10.00">ee/network/netman/src</text>
<text text-anchor="middle" x="326" y="-7.5" font-family="Helvetica,sans-Serif" font-size="10.00">/rpc_server.c</text>
</a>
</g>
</g>
<!-- Node1&#45;&gt;Node5 -->
<g id="edge10" class="edge">
<title>Node1&#45;&gt;Node5</title>
<path fill="none" stroke="midnightblue" d="M422.08,-133.46C379.01,-126.31 331.15,-114.84 318,-98 302.86,-78.61 311.84,-48.21 319.25,-30.53"/>
<polygon fill="midnightblue" stroke="midnightblue" points="421.61,-136.93 432.03,-135.05 422.71,-130.01 421.61,-136.93"/>
</g>
<!-- Node6 -->
<g id="node6" class="node">
<title>Node6</title>
<g id="a_node6"><a xlink:href="iop_2network_2netman_2src_2netman_8c_source.html" target="_top" xlink:title=" ">
<polygon fill="white" stroke="black" points="402,-0.5 402,-30.5 504,-30.5 504,-0.5 402,-0.5"/>
<text text-anchor="start" x="410" y="-18.5" font-family="Helvetica,sans-Serif" font-size="10.00">iop/network/netman</text>
<text text-anchor="middle" x="453" y="-7.5" font-family="Helvetica,sans-Serif" font-size="10.00">/src/netman.c</text>
</a>
</g>
</g>
<!-- Node1&#45;&gt;Node6 -->
<g id="edge12" class="edge">
<title>Node1&#45;&gt;Node6</title>
<path fill="none" stroke="midnightblue" d="M491.52,-124.79C482.5,-99.44 466.35,-54.02 458.12,-30.89"/>
<polygon fill="midnightblue" stroke="midnightblue" points="488.26,-126.06 494.91,-134.31 494.85,-123.71 488.26,-126.06"/>
</g>
<!-- Node7 -->
<g id="node7" class="node">
<title>Node7</title>
<g id="a_node7"><a xlink:href="iop_2network_2netman_2src_2rpc__client_8c_source.html" target="_top" xlink:title=" ">
<polygon fill="white" stroke="black" points="522,-0.5 522,-30.5 624,-30.5 624,-0.5 522,-0.5"/>
<text text-anchor="start" x="530" y="-18.5" font-family="Helvetica,sans-Serif" font-size="10.00">iop/network/netman</text>
<text text-anchor="middle" x="573" y="-7.5" font-family="Helvetica,sans-Serif" font-size="10.00">/src/rpc_client.c</text>
</a>
</g>
</g>
<!-- Node1&#45;&gt;Node7 -->
<g id="edge13" class="edge">
<title>Node1&#45;&gt;Node7</title>
<path fill="none" stroke="midnightblue" d="M507.56,-125.53C516.12,-110.03 529.11,-86.84 541,-67 548.47,-54.54 557.34,-40.6 563.84,-30.53"/>
<polygon fill="midnightblue" stroke="midnightblue" points="504.39,-124.04 502.64,-134.49 510.52,-127.41 504.39,-124.04"/>
</g>
<!-- Node8 -->
<g id="node8" class="node">
<title>Node8</title>
<g id="a_node8"><a xlink:href="iop_2network_2netman_2src_2rpc__server_8c_source.html" target="_top" xlink:title=" ">
<polygon fill="white" stroke="black" points="642,-0.5 642,-30.5 744,-30.5 744,-0.5 642,-0.5"/>
<text text-anchor="start" x="650" y="-18.5" font-family="Helvetica,sans-Serif" font-size="10.00">iop/network/netman</text>
<text text-anchor="middle" x="693" y="-7.5" font-family="Helvetica,sans-Serif" font-size="10.00">/src/rpc_server.c</text>
</a>
</g>
</g>
<!-- Node1&#45;&gt;Node8 -->
<g id="edge14" class="edge">
<title>Node1&#45;&gt;Node8</title>
<path fill="none" stroke="midnightblue" d="M513.38,-127.2C533.8,-106.33 568.09,-71.64 575,-67 598.03,-51.53 626.57,-39.16 649.81,-30.54"/>
<polygon fill="midnightblue" stroke="midnightblue" points="510.8,-124.83 506.32,-134.43 515.81,-129.72 510.8,-124.83"/>
</g>
<!-- Node9 -->
<g id="node9" class="node">
<title>Node9</title>
<g id="a_node9"><a xlink:href="ee_2network_2tcpip_2src_2ps2ip_8c.html" target="_top" xlink:title=" ">
<polygon fill="white" stroke="black" points="583.5,-67.5 583.5,-97.5 688.5,-97.5 688.5,-67.5 583.5,-67.5"/>
<text text-anchor="start" x="591.5" y="-85.5" font-family="Helvetica,sans-Serif" font-size="10.00">ee/network/tcpip/src</text>
<text text-anchor="middle" x="636" y="-74.5" font-family="Helvetica,sans-Serif" font-size="10.00">/ps2ip.c</text>
</a>
</g>
</g>
<!-- Node1&#45;&gt;Node9 -->
<g id="edge11" class="edge">
<title>Node1&#45;&gt;Node9</title>
<path fill="none" stroke="midnightblue" d="M527.08,-130.46C549.44,-120.82 580.31,-107.51 603.48,-97.52"/>
<polygon fill="midnightblue" stroke="midnightblue" points="525.57,-127.3 517.77,-134.48 528.34,-133.73 525.57,-127.3"/>
</g>
<!-- Node10 -->
<g id="node10" class="node">
<title>Node10</title>
<g id="a_node10"><a xlink:href="iop_2tcpip_2tcpip-netman_2src_2irx__imports_8h_source.html" target="_top" xlink:title=" ">
<polygon fill="white" stroke="black" points="706.5,-67.5 706.5,-97.5 819.5,-97.5 819.5,-67.5 706.5,-67.5"/>
<text text-anchor="start" x="714.5" y="-85.5" font-family="Helvetica,sans-Serif" font-size="10.00">iop/tcpip/tcpip&#45;netman</text>
<text text-anchor="middle" x="763" y="-74.5" font-family="Helvetica,sans-Serif" font-size="10.00">/src/irx_imports.h</text>
</a>
</g>
</g>
<!-- Node1&#45;&gt;Node10 -->
<g id="edge15" class="edge">
<title>Node1&#45;&gt;Node10</title>
<path fill="none" stroke="midnightblue" d="M545.78,-132.27C590.8,-122.16 658.29,-107.01 706.08,-96.28"/>
<polygon fill="midnightblue" stroke="midnightblue" points="544.96,-128.87 535.97,-134.48 546.49,-135.7 544.96,-128.87"/>
</g>
<!-- Node11 -->
<g id="node11" class="node">
<title>Node11</title>
<g id="a_node11"><a xlink:href="iop_2tcpip_2tcpip-netman_2src_2ps2ip_8c.html" target="_top" xlink:title=" ">
<polygon fill="white" stroke="black" points="837.5,-67.5 837.5,-97.5 950.5,-97.5 950.5,-67.5 837.5,-67.5"/>
<text text-anchor="start" x="845.5" y="-85.5" font-family="Helvetica,sans-Serif" font-size="10.00">iop/tcpip/tcpip&#45;netman</text>
<text text-anchor="middle" x="894" y="-74.5" font-family="Helvetica,sans-Serif" font-size="10.00">/src/ps2ip.c</text>
</a>
</g>
</g>
<!-- Node1&#45;&gt;Node11 -->
<g id="edge16" class="edge">
<title>Node1&#45;&gt;Node11</title>
<path fill="none" stroke="midnightblue" d="M573.66,-134.56C640.93,-126.61 741.85,-113.62 829,-98 831.73,-97.51 834.52,-96.99 837.34,-96.44"/>
<polygon fill="midnightblue" stroke="midnightblue" points="573.1,-131.1 563.57,-135.74 573.91,-138.05 573.1,-131.1"/>
</g>
<!-- Node2&#45;&gt;Node3 -->
<g id="edge2" class="edge">
<title>Node2&#45;&gt;Node3</title>
<path fill="none" stroke="midnightblue" d="M317.3,-68.27C264.15,-58.34 189.97,-44.24 125,-31 122.08,-30.41 119.1,-29.79 116.09,-29.16"/>
<polygon fill="midnightblue" stroke="midnightblue" points="316.83,-71.74 327.31,-70.13 318.12,-64.86 316.83,-71.74"/>
</g>
<!-- Node2&#45;&gt;Node4 -->
<g id="edge3" class="edge">
<title>Node2&#45;&gt;Node4</title>
<path fill="none" stroke="midnightblue" d="M336.65,-64.23C304.78,-53.71 264.59,-40.45 234.66,-30.58"/>
<polygon fill="midnightblue" stroke="midnightblue" points="335.66,-67.59 346.25,-67.4 337.85,-60.94 335.66,-67.59"/>
</g>
<!-- Node2&#45;&gt;Node5 -->
<g id="edge4" class="edge">
<title>Node2&#45;&gt;Node5</title>
<path fill="none" stroke="midnightblue" d="M368.19,-60.02C358.8,-50.34 347.98,-39.17 339.64,-30.58"/>
<polygon fill="midnightblue" stroke="midnightblue" points="365.86,-62.65 375.33,-67.4 370.88,-57.78 365.86,-62.65"/>
</g>
<!-- Node2&#45;&gt;Node6 -->
<g id="edge5" class="edge">
<title>Node2&#45;&gt;Node6</title>
<path fill="none" stroke="midnightblue" d="M410.15,-60.02C419.68,-50.34 430.67,-39.17 439.14,-30.58"/>
<polygon fill="midnightblue" stroke="midnightblue" points="407.41,-57.81 402.89,-67.4 412.4,-62.73 407.41,-57.81"/>
</g>
<!-- Node2&#45;&gt;Node7 -->
<g id="edge6" class="edge">
<title>Node2&#45;&gt;Node7</title>
<path fill="none" stroke="midnightblue" d="M438.67,-63.96C468.3,-53.48 505.44,-40.37 533.15,-30.58"/>
<polygon fill="midnightblue" stroke="midnightblue" points="437.19,-60.76 428.93,-67.4 439.52,-67.37 437.19,-60.76"/>
</g>
<!-- Node2&#45;&gt;Node8 -->
<g id="edge7" class="edge">
<title>Node2&#45;&gt;Node8</title>
<path fill="none" stroke="midnightblue" d="M460.36,-67.38C509.08,-57.58 575.05,-44 633,-31 635.93,-30.34 638.93,-29.66 641.96,-28.96"/>
<polygon fill="midnightblue" stroke="midnightblue" points="459.66,-63.95 450.54,-69.35 461.03,-70.81 459.66,-63.95"/>
</g>
</g>
</svg>
