<?xml version="1.0" encoding="UTF-8" standalone="no"?>
<!DOCTYPE svg PUBLIC "-//W3C//DTD SVG 1.1//EN"
 "http://www.w3.org/Graphics/SVG/1.1/DTD/svg11.dtd">
<!-- Generated by graphviz version 3.0.0 (20220413.0242)
 -->
<!-- Title: ee/rpc/cdvd/src/scmd.c Pages: 1 -->
<svg width="787pt" height="308pt"
 viewBox="0.00 0.00 787.27 308.00" xmlns="http://www.w3.org/2000/svg" xmlns:xlink="http://www.w3.org/1999/xlink">
<g id="graph0" class="graph" transform="scale(1 1) rotate(0) translate(4 304)">
<title>ee/rpc/cdvd/src/scmd.c</title>
<polygon fill="white" stroke="transparent" points="-4,4 -4,-304 783.27,-304 783.27,4 -4,4"/>
<!-- Node1 -->
<g id="node1" class="node">
<title>Node1</title>
<g id="a_node1"><a xlink:title=" ">
<polygon fill="#bfbfbf" stroke="black" points="367.77,-280.5 367.77,-299.5 486.77,-299.5 486.77,-280.5 367.77,-280.5"/>
<text text-anchor="middle" x="427.27" y="-287.5" font-family="Helvetica,sans-Serif" font-size="10.00">ee/rpc/cdvd/src/scmd.c</text>
</a>
</g>
</g>
<!-- Node2 -->
<g id="node2" class="node">
<title>Node2</title>
<g id="a_node2"><a xlink:href="stdio_8h.html" target="_top" xlink:title=" ">
<polygon fill="white" stroke="black" points="97.77,-168.5 97.77,-187.5 142.77,-187.5 142.77,-168.5 97.77,-168.5"/>
<text text-anchor="middle" x="120.27" y="-175.5" font-family="Helvetica,sans-Serif" font-size="10.00">stdio.h</text>
</a>
</g>
</g>
<!-- Node1&#45;&gt;Node2 -->
<g id="edge1" class="edge">
<title>Node1&#45;&gt;Node2</title>
<path fill="none" stroke="midnightblue" d="M367.76,-280.5C327.66,-273.57 274.11,-261.94 229.27,-244 196.13,-230.74 161.27,-208.23 140.15,-193.49"/>
<polygon fill="midnightblue" stroke="midnightblue" points="141.91,-190.44 131.73,-187.51 137.86,-196.15 141.91,-190.44"/>
</g>
<!-- Node8 -->
<g id="node8" class="node">
<title>Node8</title>
<g id="a_node8"><a xlink:href="kernel_8h.html" target="_top" xlink:title=" ">
<polygon fill="white" stroke="black" points="5.27,-168.5 5.27,-187.5 55.27,-187.5 55.27,-168.5 5.27,-168.5"/>
<text text-anchor="middle" x="30.27" y="-175.5" font-family="Helvetica,sans-Serif" font-size="10.00">kernel.h</text>
</a>
</g>
</g>
<!-- Node1&#45;&gt;Node8 -->
<g id="edge7" class="edge">
<title>Node1&#45;&gt;Node8</title>
<path fill="none" stroke="midnightblue" d="M367.49,-281.61C317.78,-274.59 245.51,-262.36 184.27,-244 137.87,-230.09 86.5,-206.68 56.37,-192.08"/>
<polygon fill="midnightblue" stroke="midnightblue" points="57.89,-188.92 47.37,-187.67 54.81,-195.21 57.89,-188.92"/>
</g>
<!-- Node10 -->
<g id="node10" class="node">
<title>Node10</title>
<g id="a_node10"><a xlink:title=" ">
<polygon fill="white" stroke="#bfbfbf" points="487.27,-224.5 487.27,-243.5 535.27,-243.5 535.27,-224.5 487.27,-224.5"/>
<text text-anchor="middle" x="511.27" y="-231.5" font-family="Helvetica,sans-Serif" font-size="10.00">sifrpc.h</text>
</a>
</g>
</g>
<!-- Node1&#45;&gt;Node10 -->
<g id="edge12" class="edge">
<title>Node1&#45;&gt;Node10</title>
<path fill="none" stroke="midnightblue" d="M440.77,-280.32C453.87,-271.9 473.98,-258.97 489.38,-249.07"/>
<polygon fill="midnightblue" stroke="midnightblue" points="491.29,-252.01 497.81,-243.65 487.5,-246.12 491.29,-252.01"/>
</g>
<!-- Node11 -->
<g id="node11" class="node">
<title>Node11</title>
<g id="a_node11"><a xlink:href="libcdvd_8h.html" target="_top" xlink:title=" ">
<polygon fill="white" stroke="black" points="317.77,-168.5 317.77,-187.5 372.77,-187.5 372.77,-168.5 317.77,-168.5"/>
<text text-anchor="middle" x="345.27" y="-175.5" font-family="Helvetica,sans-Serif" font-size="10.00">libcdvd.h</text>
</a>
</g>
</g>
<!-- Node1&#45;&gt;Node11 -->
<g id="edge13" class="edge">
<title>Node1&#45;&gt;Node11</title>
<path fill="none" stroke="midnightblue" d="M400.55,-280.38C383.48,-273.39 362.5,-261.75 351.27,-244 342.65,-230.38 341.76,-211.84 342.66,-198.04"/>
<polygon fill="midnightblue" stroke="midnightblue" points="346.18,-198.09 343.72,-187.78 339.21,-197.37 346.18,-198.09"/>
</g>
<!-- Node13 -->
<g id="node13" class="node">
<title>Node13</title>
<g id="a_node13"><a xlink:href="libcdvd-rpc_8h.html" target="_top" xlink:title=" ">
<polygon fill="white" stroke="black" points="449.77,-56.5 449.77,-75.5 520.77,-75.5 520.77,-56.5 449.77,-56.5"/>
<text text-anchor="middle" x="485.27" y="-63.5" font-family="Helvetica,sans-Serif" font-size="10.00">libcdvd&#45;rpc.h</text>
</a>
</g>
</g>
<!-- Node1&#45;&gt;Node13 -->
<g id="edge16" class="edge">
<title>Node1&#45;&gt;Node13</title>
<path fill="none" stroke="midnightblue" d="M429.84,-280.4C432.53,-271.36 436.82,-256.71 440.27,-244 455.87,-186.52 472.81,-118.09 480.72,-85.73"/>
<polygon fill="midnightblue" stroke="midnightblue" points="484.15,-86.41 483.12,-75.87 477.35,-84.75 484.15,-86.41"/>
</g>
<!-- Node14 -->
<g id="node14" class="node">
<title>Node14</title>
<g id="a_node14"><a xlink:href="string_8h_source.html" target="_top" xlink:title=" ">
<polygon fill="white" stroke="black" points="238.27,-224.5 238.27,-243.5 286.27,-243.5 286.27,-224.5 238.27,-224.5"/>
<text text-anchor="middle" x="262.27" y="-231.5" font-family="Helvetica,sans-Serif" font-size="10.00">string.h</text>
</a>
</g>
</g>
<!-- Node1&#45;&gt;Node14 -->
<g id="edge18" class="edge">
<title>Node1&#45;&gt;Node14</title>
<path fill="none" stroke="midnightblue" d="M401.12,-280.44C372.67,-271.13 327.09,-256.21 295.97,-246.03"/>
<polygon fill="midnightblue" stroke="midnightblue" points="297.01,-242.69 286.41,-242.9 294.83,-249.34 297.01,-242.69"/>
</g>
<!-- Node18 -->
<g id="node18" class="node">
<title>Node18</title>
<g id="a_node18"><a xlink:href="time_8h.html" target="_top" xlink:title=" ">
<polygon fill="white" stroke="black" points="553.77,-224.5 553.77,-243.5 596.77,-243.5 596.77,-224.5 553.77,-224.5"/>
<text text-anchor="middle" x="575.27" y="-231.5" font-family="Helvetica,sans-Serif" font-size="10.00">time.h</text>
</a>
</g>
</g>
<!-- Node1&#45;&gt;Node18 -->
<g id="edge26" class="edge">
<title>Node1&#45;&gt;Node18</title>
<path fill="none" stroke="midnightblue" d="M450.72,-280.44C475.84,-271.28 515.84,-256.68 543.71,-246.52"/>
<polygon fill="midnightblue" stroke="midnightblue" points="545.18,-249.7 553.38,-242.99 542.78,-243.13 545.18,-249.7"/>
</g>
<!-- Node19 -->
<g id="node19" class="node">
<title>Node19</title>
<g id="a_node19"><a xlink:href="osd__config_8h.html" target="_top" xlink:title=" ">
<polygon fill="white" stroke="black" points="359.77,-224.5 359.77,-243.5 430.77,-243.5 430.77,-224.5 359.77,-224.5"/>
<text text-anchor="middle" x="395.27" y="-231.5" font-family="Helvetica,sans-Serif" font-size="10.00">osd_config.h</text>
</a>
</g>
</g>
<!-- Node1&#45;&gt;Node19 -->
<g id="edge27" class="edge">
<title>Node1&#45;&gt;Node19</title>
<path fill="none" stroke="midnightblue" d="M421.99,-280.08C417.56,-272.61 411.11,-261.72 405.65,-252.52"/>
<polygon fill="midnightblue" stroke="midnightblue" points="408.56,-250.57 400.46,-243.75 402.54,-254.14 408.56,-250.57"/>
</g>
<!-- Node20 -->
<g id="node20" class="node">
<title>Node20</title>
<g id="a_node20"><a xlink:title=" ">
<polygon fill="white" stroke="#bfbfbf" points="615.27,-224.5 615.27,-243.5 705.27,-243.5 705.27,-224.5 615.27,-224.5"/>
<text text-anchor="middle" x="660.27" y="-231.5" font-family="Helvetica,sans-Serif" font-size="10.00">sys/_tz_structs.h</text>
</a>
</g>
</g>
<!-- Node1&#45;&gt;Node20 -->
<g id="edge30" class="edge">
<title>Node1&#45;&gt;Node20</title>
<path fill="none" stroke="midnightblue" d="M464.19,-280.44C504.66,-271.06 569.69,-255.99 613.65,-245.8"/>
<polygon fill="midnightblue" stroke="midnightblue" points="614.57,-249.18 623.52,-243.52 612.99,-242.36 614.57,-249.18"/>
</g>
<!-- Node21 -->
<g id="node21" class="node">
<title>Node21</title>
<g id="a_node21"><a xlink:href="ee_2rpc_2cdvd_2src_2internal_8h.html" target="_top" xlink:title=" ">
<polygon fill="white" stroke="black" points="723.27,-224.5 723.27,-243.5 779.27,-243.5 779.27,-224.5 723.27,-224.5"/>
<text text-anchor="middle" x="751.27" y="-231.5" font-family="Helvetica,sans-Serif" font-size="10.00">internal.h</text>
</a>
</g>
</g>
<!-- Node1&#45;&gt;Node21 -->
<g id="edge31" class="edge">
<title>Node1&#45;&gt;Node21</title>
<path fill="none" stroke="midnightblue" d="M486.89,-281.12C542.9,-273.39 629.24,-260.62 713.09,-244.1"/>
<polygon fill="midnightblue" stroke="midnightblue" points="713.92,-247.51 723.04,-242.12 712.55,-240.64 713.92,-247.51"/>
</g>
<!-- Node3 -->
<g id="node3" class="node">
<title>Node3</title>
<g id="a_node3"><a xlink:title=" ">
<polygon fill="white" stroke="#bfbfbf" points="33.77,-112.5 33.77,-131.5 84.77,-131.5 84.77,-112.5 33.77,-112.5"/>
<text text-anchor="middle" x="59.27" y="-119.5" font-family="Helvetica,sans-Serif" font-size="10.00">stdarg.h</text>
</a>
</g>
</g>
<!-- Node2&#45;&gt;Node3 -->
<g id="edge2" class="edge">
<title>Node2&#45;&gt;Node3</title>
<path fill="none" stroke="midnightblue" d="M110.47,-168.32C101.45,-160.34 87.86,-148.31 76.95,-138.65"/>
<polygon fill="midnightblue" stroke="midnightblue" points="79.06,-135.84 69.25,-131.83 74.42,-141.08 79.06,-135.84"/>
</g>
<!-- Node4 -->
<g id="node4" class="node">
<title>Node4</title>
<g id="a_node4"><a xlink:href="irx_8h.html" target="_top" xlink:title=" ">
<polygon fill="white" stroke="black" points="103.27,-112.5 103.27,-131.5 137.27,-131.5 137.27,-112.5 103.27,-112.5"/>
<text text-anchor="middle" x="120.27" y="-119.5" font-family="Helvetica,sans-Serif" font-size="10.00">irx.h</text>
</a>
</g>
</g>
<!-- Node2&#45;&gt;Node4 -->
<g id="edge3" class="edge">
<title>Node2&#45;&gt;Node4</title>
<path fill="none" stroke="midnightblue" d="M120.27,-168.08C120.27,-161.01 120.27,-150.86 120.27,-141.99"/>
<polygon fill="midnightblue" stroke="midnightblue" points="123.77,-141.75 120.27,-131.75 116.77,-141.75 123.77,-141.75"/>
</g>
<!-- Node5 -->
<g id="node5" class="node">
<title>Node5</title>
<g id="a_node5"><a xlink:href="types_8h_source.html" target="_top" xlink:title=" ">
<polygon fill="white" stroke="black" points="122.77,-56.5 122.77,-75.5 169.77,-75.5 169.77,-56.5 122.77,-56.5"/>
<text text-anchor="middle" x="146.27" y="-63.5" font-family="Helvetica,sans-Serif" font-size="10.00">types.h</text>
</a>
</g>
</g>
<!-- Node4&#45;&gt;Node5 -->
<g id="edge4" class="edge">
<title>Node4&#45;&gt;Node5</title>
<path fill="none" stroke="midnightblue" d="M124.56,-112.08C128.12,-104.69 133.29,-93.95 137.69,-84.81"/>
<polygon fill="midnightblue" stroke="midnightblue" points="140.87,-86.28 142.06,-75.75 134.56,-83.24 140.87,-86.28"/>
</g>
<!-- Node6 -->
<g id="node6" class="node">
<title>Node6</title>
<g id="a_node6"><a xlink:title=" ">
<polygon fill="white" stroke="#bfbfbf" points="21.77,-0.5 21.77,-19.5 72.77,-19.5 72.77,-0.5 21.77,-0.5"/>
<text text-anchor="middle" x="47.27" y="-7.5" font-family="Helvetica,sans-Serif" font-size="10.00">stddef.h</text>
</a>
</g>
</g>
<!-- Node5&#45;&gt;Node6 -->
<g id="edge5" class="edge">
<title>Node5&#45;&gt;Node6</title>
<path fill="none" stroke="midnightblue" d="M130.36,-56.32C114.63,-47.74 90.33,-34.49 72.06,-24.52"/>
<polygon fill="midnightblue" stroke="midnightblue" points="73.59,-21.37 63.14,-19.65 70.24,-27.52 73.59,-21.37"/>
</g>
<!-- Node7 -->
<g id="node7" class="node">
<title>Node7</title>
<g id="a_node7"><a xlink:href="tamtypes_8h.html" target="_top" xlink:title=" ">
<polygon fill="white" stroke="black" points="275.27,-0.5 275.27,-19.5 339.27,-19.5 339.27,-0.5 275.27,-0.5"/>
<text text-anchor="middle" x="307.27" y="-7.5" font-family="Helvetica,sans-Serif" font-size="10.00">tamtypes.h</text>
</a>
</g>
</g>
<!-- Node5&#45;&gt;Node7 -->
<g id="edge6" class="edge">
<title>Node5&#45;&gt;Node7</title>
<path fill="none" stroke="midnightblue" d="M170.03,-57.03C197.02,-47.98 241.33,-33.12 272.28,-22.74"/>
<polygon fill="midnightblue" stroke="midnightblue" points="273.45,-26.03 281.82,-19.54 271.23,-19.4 273.45,-26.03"/>
</g>
<!-- Node8&#45;&gt;Node3 -->
<g id="edge9" class="edge">
<title>Node8&#45;&gt;Node3</title>
<path fill="none" stroke="midnightblue" d="M35.06,-168.08C39.03,-160.69 44.79,-149.95 49.7,-140.81"/>
<polygon fill="midnightblue" stroke="midnightblue" points="52.92,-142.22 54.57,-131.75 46.75,-138.91 52.92,-142.22"/>
</g>
<!-- Node8&#45;&gt;Node6 -->
<g id="edge8" class="edge">
<title>Node8&#45;&gt;Node6</title>
<path fill="none" stroke="midnightblue" d="M25.11,-168.2C13.89,-147.83 -10.54,-96.11 5.27,-56 9.78,-44.55 18.74,-34.29 27.22,-26.47"/>
<polygon fill="midnightblue" stroke="midnightblue" points="29.74,-28.93 35.06,-19.76 25.18,-23.61 29.74,-28.93"/>
</g>
<!-- Node9 -->
<g id="node9" class="node">
<title>Node9</title>
<g id="a_node9"><a xlink:href="sifdma_8h.html" target="_top" xlink:title=" ">
<polygon fill="white" stroke="black" points="14.77,-56.5 14.77,-75.5 67.77,-75.5 67.77,-56.5 14.77,-56.5"/>
<text text-anchor="middle" x="41.27" y="-63.5" font-family="Helvetica,sans-Serif" font-size="10.00">sifdma.h</text>
</a>
</g>
</g>
<!-- Node8&#45;&gt;Node9 -->
<g id="edge10" class="edge">
<title>Node8&#45;&gt;Node9</title>
<path fill="none" stroke="midnightblue" d="M27.93,-168.1C24.96,-155.52 20.65,-131.84 24.27,-112 25.96,-102.76 29.44,-92.95 32.82,-84.85"/>
<polygon fill="midnightblue" stroke="midnightblue" points="36.03,-86.25 36.9,-75.69 29.64,-83.4 36.03,-86.25"/>
</g>
<!-- Node9&#45;&gt;Node7 -->
<g id="edge11" class="edge">
<title>Node9&#45;&gt;Node7</title>
<path fill="none" stroke="midnightblue" d="M68.24,-59.53C114.62,-50.11 209.81,-30.78 265.05,-19.57"/>
<polygon fill="midnightblue" stroke="midnightblue" points="265.77,-23 274.88,-17.58 264.38,-16.14 265.77,-23"/>
</g>
<!-- Node12 -->
<g id="node12" class="node">
<title>Node12</title>
<g id="a_node12"><a xlink:href="libcdvd-common_8h.html" target="_top" xlink:title=" ">
<polygon fill="white" stroke="black" points="297.77,-112.5 297.77,-131.5 392.77,-131.5 392.77,-112.5 297.77,-112.5"/>
<text text-anchor="middle" x="345.27" y="-119.5" font-family="Helvetica,sans-Serif" font-size="10.00">libcdvd&#45;common.h</text>
</a>
</g>
</g>
<!-- Node11&#45;&gt;Node12 -->
<g id="edge14" class="edge">
<title>Node11&#45;&gt;Node12</title>
<path fill="none" stroke="midnightblue" d="M345.27,-168.08C345.27,-161.01 345.27,-150.86 345.27,-141.99"/>
<polygon fill="midnightblue" stroke="midnightblue" points="348.77,-141.75 345.27,-131.75 341.77,-141.75 348.77,-141.75"/>
</g>
<!-- Node12&#45;&gt;Node7 -->
<g id="edge15" class="edge">
<title>Node12&#45;&gt;Node7</title>
<path fill="none" stroke="midnightblue" d="M342.29,-112.37C336.13,-94.54 321.88,-53.3 313.58,-29.27"/>
<polygon fill="midnightblue" stroke="midnightblue" points="316.81,-27.9 310.24,-19.59 310.19,-30.19 316.81,-27.9"/>
</g>
<!-- Node13&#45;&gt;Node7 -->
<g id="edge17" class="edge">
<title>Node13&#45;&gt;Node7</title>
<path fill="none" stroke="midnightblue" d="M457.06,-56.44C426.86,-47.28 378.76,-32.69 345.24,-22.52"/>
<polygon fill="midnightblue" stroke="midnightblue" points="345.93,-19.07 335.34,-19.52 343.9,-25.77 345.93,-19.07"/>
</g>
<!-- Node15 -->
<g id="node15" class="node">
<title>Node15</title>
<g id="a_node15"><a xlink:href="sysclib_8h.html" target="_top" xlink:title=" ">
<polygon fill="white" stroke="black" points="176.27,-168.5 176.27,-187.5 230.27,-187.5 230.27,-168.5 176.27,-168.5"/>
<text text-anchor="middle" x="203.27" y="-175.5" font-family="Helvetica,sans-Serif" font-size="10.00">sysclib.h</text>
</a>
</g>
</g>
<!-- Node14&#45;&gt;Node15 -->
<g id="edge19" class="edge">
<title>Node14&#45;&gt;Node15</title>
<path fill="none" stroke="midnightblue" d="M252.79,-224.32C244.07,-216.34 230.93,-204.31 220.37,-194.65"/>
<polygon fill="midnightblue" stroke="midnightblue" points="222.66,-192 212.92,-187.83 217.93,-197.17 222.66,-192"/>
</g>
<!-- Node15&#45;&gt;Node3 -->
<g id="edge22" class="edge">
<title>Node15&#45;&gt;Node3</title>
<path fill="none" stroke="midnightblue" d="M180.45,-168.44C156.44,-159.44 118.44,-145.19 91.4,-135.05"/>
<polygon fill="midnightblue" stroke="midnightblue" points="92.57,-131.75 81.98,-131.52 90.11,-138.3 92.57,-131.75"/>
</g>
<!-- Node15&#45;&gt;Node4 -->
<g id="edge21" class="edge">
<title>Node15&#45;&gt;Node4</title>
<path fill="none" stroke="midnightblue" d="M189.93,-168.32C177.11,-159.98 157.48,-147.21 142.33,-137.35"/>
<polygon fill="midnightblue" stroke="midnightblue" points="143.86,-134.17 133.57,-131.65 140.05,-140.04 143.86,-134.17"/>
</g>
<!-- Node15&#45;&gt;Node5 -->
<g id="edge20" class="edge">
<title>Node15&#45;&gt;Node5</title>
<path fill="none" stroke="midnightblue" d="M198.8,-168.37C189.47,-150.38 167.8,-108.55 155.4,-84.63"/>
<polygon fill="midnightblue" stroke="midnightblue" points="158.43,-82.86 150.72,-75.59 152.21,-86.08 158.43,-82.86"/>
</g>
<!-- Node16 -->
<g id="node16" class="node">
<title>Node16</title>
<g id="a_node16"><a xlink:href="setjmp_8h.html" target="_top" xlink:title=" ">
<polygon fill="white" stroke="black" points="247.77,-56.5 247.77,-75.5 300.77,-75.5 300.77,-56.5 247.77,-56.5"/>
<text text-anchor="middle" x="274.27" y="-63.5" font-family="Helvetica,sans-Serif" font-size="10.00">setjmp.h</text>
</a>
</g>
</g>
<!-- Node15&#45;&gt;Node16 -->
<g id="edge23" class="edge">
<title>Node15&#45;&gt;Node16</title>
<path fill="none" stroke="midnightblue" d="M215.16,-168.19C225.66,-159.88 240.73,-146.55 250.27,-132 259.65,-117.7 266.01,-99.23 269.82,-85.64"/>
<polygon fill="midnightblue" stroke="midnightblue" points="273.31,-86.12 272.42,-75.56 266.53,-84.37 273.31,-86.12"/>
</g>
<!-- Node17 -->
<g id="node17" class="node">
<title>Node17</title>
<g id="a_node17"><a xlink:href="ctype_8h.html" target="_top" xlink:title=" ">
<polygon fill="white" stroke="black" points="193.77,-112.5 193.77,-131.5 240.77,-131.5 240.77,-112.5 193.77,-112.5"/>
<text text-anchor="middle" x="217.27" y="-119.5" font-family="Helvetica,sans-Serif" font-size="10.00">ctype.h</text>
</a>
</g>
</g>
<!-- Node15&#45;&gt;Node17 -->
<g id="edge25" class="edge">
<title>Node15&#45;&gt;Node17</title>
<path fill="none" stroke="midnightblue" d="M205.58,-168.08C207.44,-160.93 210.1,-150.64 212.42,-141.69"/>
<polygon fill="midnightblue" stroke="midnightblue" points="215.88,-142.31 215,-131.75 209.1,-140.55 215.88,-142.31"/>
</g>
<!-- Node16&#45;&gt;Node7 -->
<g id="edge24" class="edge">
<title>Node16&#45;&gt;Node7</title>
<path fill="none" stroke="midnightblue" d="M279.72,-56.08C284.28,-48.61 290.94,-37.72 296.56,-28.52"/>
<polygon fill="midnightblue" stroke="midnightblue" points="299.69,-30.11 301.92,-19.75 293.72,-26.46 299.69,-30.11"/>
</g>
<!-- Node19&#45;&gt;Node7 -->
<g id="edge28" class="edge">
<title>Node19&#45;&gt;Node7</title>
<path fill="none" stroke="midnightblue" d="M398.16,-224.39C404.52,-204.01 417.93,-151.51 402.27,-112 387.48,-74.69 351.67,-43.15 328.48,-25.68"/>
<polygon fill="midnightblue" stroke="midnightblue" points="330.43,-22.76 320.29,-19.69 326.3,-28.41 330.43,-22.76"/>
</g>
<!-- Node19&#45;&gt;Node11 -->
<g id="edge29" class="edge">
<title>Node19&#45;&gt;Node11</title>
<path fill="none" stroke="midnightblue" d="M387.01,-224.08C379.8,-216.3 369.16,-204.8 360.42,-195.37"/>
<polygon fill="midnightblue" stroke="midnightblue" points="362.73,-192.71 353.37,-187.75 357.6,-197.47 362.73,-192.71"/>
</g>
</g>
</svg>
