<?xml version="1.0" encoding="UTF-8" standalone="no"?>
<!DOCTYPE svg PUBLIC "-//W3C//DTD SVG 1.1//EN"
 "http://www.w3.org/Graphics/SVG/1.1/DTD/svg11.dtd">
<!-- Generated by graphviz version 3.0.0 (20220413.0242)
 -->
<!-- Title: iop/kernel/include/sifman.h Pages: 1 -->
<svg width="4682pt" height="173pt"
 viewBox="0.00 0.00 4682.00 173.00" xmlns="http://www.w3.org/2000/svg" xmlns:xlink="http://www.w3.org/1999/xlink">
<g id="graph0" class="graph" transform="scale(1 1) rotate(0) translate(4 169)">
<title>iop/kernel/include/sifman.h</title>
<polygon fill="white" stroke="transparent" points="-4,4 -4,-169 4678,-169 4678,4 -4,4"/>
<!-- Node1 -->
<g id="node1" class="node">
<title>Node1</title>
<g id="a_node1"><a xlink:title=" ">
<polygon fill="#bfbfbf" stroke="black" points="2243.5,-134.5 2243.5,-164.5 2335.5,-164.5 2335.5,-134.5 2243.5,-134.5"/>
<text text-anchor="start" x="2251.5" y="-152.5" font-family="Helvetica,sans-Serif" font-size="10.00">iop/kernel/include</text>
<text text-anchor="middle" x="2289.5" y="-141.5" font-family="Helvetica,sans-Serif" font-size="10.00">/sifman.h</text>
</a>
</g>
</g>
<!-- Node2 -->
<g id="node2" class="node">
<title>Node2</title>
<g id="a_node2"><a xlink:href="common_2sbus_2src_2irx__imports_8h_source.html" target="_top" xlink:title=" ">
<polygon fill="white" stroke="black" points="0,-67.5 0,-97.5 107,-97.5 107,-67.5 0,-67.5"/>
<text text-anchor="start" x="8" y="-85.5" font-family="Helvetica,sans-Serif" font-size="10.00">common/sbus/src/irx</text>
<text text-anchor="middle" x="53.5" y="-74.5" font-family="Helvetica,sans-Serif" font-size="10.00">_imports.h</text>
</a>
</g>
</g>
<!-- Node1&#45;&gt;Node2 -->
<g id="edge1" class="edge">
<title>Node1&#45;&gt;Node2</title>
<path fill="none" stroke="midnightblue" d="M2233.18,-148.74C1935.59,-149.76 543.66,-151.56 116.5,-98 113.49,-97.62 110.42,-97.16 107.33,-96.65"/>
<polygon fill="midnightblue" stroke="midnightblue" points="2233.32,-152.24 2243.31,-148.7 2233.29,-145.24 2233.32,-152.24"/>
</g>
<!-- Node3 -->
<g id="node3" class="node">
<title>Node3</title>
<g id="a_node3"><a xlink:href="iop_2cdvd_2cdfs_2src_2irx__imports_8h_source.html" target="_top" xlink:title=" ">
<polygon fill="white" stroke="black" points="125.5,-67.5 125.5,-97.5 229.5,-97.5 229.5,-67.5 125.5,-67.5"/>
<text text-anchor="start" x="133.5" y="-85.5" font-family="Helvetica,sans-Serif" font-size="10.00">iop/cdvd/cdfs/src/irx</text>
<text text-anchor="middle" x="177.5" y="-74.5" font-family="Helvetica,sans-Serif" font-size="10.00">_imports.h</text>
</a>
</g>
</g>
<!-- Node1&#45;&gt;Node3 -->
<g id="edge2" class="edge">
<title>Node1&#45;&gt;Node3</title>
<path fill="none" stroke="midnightblue" d="M2233.14,-148.7C1945.6,-149.49 639.97,-150.08 238.5,-98 235.59,-97.62 232.61,-97.16 229.61,-96.64"/>
<polygon fill="midnightblue" stroke="midnightblue" points="2233.34,-152.2 2243.33,-148.67 2233.32,-145.2 2233.34,-152.2"/>
</g>
<!-- Node4 -->
<g id="node4" class="node">
<title>Node4</title>
<g id="a_node4"><a xlink:href="iop_2debug_2iop__sbusdbg_2src_2irx__imports_8h_source.html" target="_top" xlink:title=" ">
<polygon fill="white" stroke="black" points="247.5,-67.5 247.5,-97.5 363.5,-97.5 363.5,-67.5 247.5,-67.5"/>
<text text-anchor="start" x="255.5" y="-85.5" font-family="Helvetica,sans-Serif" font-size="10.00">iop/debug/iop_sbusdbg</text>
<text text-anchor="middle" x="305.5" y="-74.5" font-family="Helvetica,sans-Serif" font-size="10.00">/src/irx_imports.h</text>
</a>
</g>
</g>
<!-- Node1&#45;&gt;Node4 -->
<g id="edge3" class="edge">
<title>Node1&#45;&gt;Node4</title>
<path fill="none" stroke="midnightblue" d="M2232.91,-148.41C1956.57,-147.76 747.25,-142.39 373.5,-98 370.26,-97.62 366.95,-97.15 363.62,-96.63"/>
<polygon fill="midnightblue" stroke="midnightblue" points="2233.09,-151.91 2243.1,-148.43 2233.11,-144.91 2233.09,-151.91"/>
</g>
<!-- Node5 -->
<g id="node5" class="node">
<title>Node5</title>
<g id="a_node5"><a xlink:href="iop_2debug_2iopdebug_2src_2irx__imports_8h_source.html" target="_top" xlink:title=" ">
<polygon fill="white" stroke="black" points="382,-67.5 382,-97.5 483,-97.5 483,-67.5 382,-67.5"/>
<text text-anchor="start" x="390" y="-85.5" font-family="Helvetica,sans-Serif" font-size="10.00">iop/debug/iopdebug</text>
<text text-anchor="middle" x="432.5" y="-74.5" font-family="Helvetica,sans-Serif" font-size="10.00">/src/irx_imports.h</text>
</a>
</g>
</g>
<!-- Node1&#45;&gt;Node5 -->
<g id="edge4" class="edge">
<title>Node1&#45;&gt;Node5</title>
<path fill="none" stroke="midnightblue" d="M2233,-148.5C1967.34,-148.26 840.91,-144.47 492.5,-98 489.42,-97.59 486.27,-97.09 483.1,-96.51"/>
<polygon fill="midnightblue" stroke="midnightblue" points="2233.18,-152 2243.18,-148.51 2233.18,-145 2233.18,-152"/>
</g>
<!-- Node6 -->
<g id="node6" class="node">
<title>Node6</title>
<g id="a_node6"><a xlink:href="ioptrap_8c.html" target="_top" xlink:title=" ">
<polygon fill="white" stroke="black" points="501,-67.5 501,-97.5 608,-97.5 608,-67.5 501,-67.5"/>
<text text-anchor="start" x="509" y="-85.5" font-family="Helvetica,sans-Serif" font-size="10.00">iop/debug/ioptrap/src</text>
<text text-anchor="middle" x="554.5" y="-74.5" font-family="Helvetica,sans-Serif" font-size="10.00">/ioptrap.c</text>
</a>
</g>
</g>
<!-- Node1&#45;&gt;Node6 -->
<g id="edge5" class="edge">
<title>Node1&#45;&gt;Node6</title>
<path fill="none" stroke="midnightblue" d="M2233.26,-148.28C1979.6,-147.07 940.3,-139.61 617.5,-98 614.49,-97.61 611.42,-97.15 608.33,-96.62"/>
<polygon fill="midnightblue" stroke="midnightblue" points="2233.34,-151.78 2243.36,-148.33 2233.37,-144.78 2233.34,-151.78"/>
</g>
<!-- Node7 -->
<g id="node7" class="node">
<title>Node7</title>
<g id="a_node7"><a xlink:href="iop_2debug_2ioptrap_2src_2irx__imports_8h_source.html" target="_top" xlink:title=" ">
<polygon fill="white" stroke="black" points="626,-67.5 626,-97.5 733,-97.5 733,-67.5 626,-67.5"/>
<text text-anchor="start" x="634" y="-85.5" font-family="Helvetica,sans-Serif" font-size="10.00">iop/debug/ioptrap/src</text>
<text text-anchor="middle" x="679.5" y="-74.5" font-family="Helvetica,sans-Serif" font-size="10.00">/irx_imports.h</text>
</a>
</g>
</g>
<!-- Node1&#45;&gt;Node7 -->
<g id="edge6" class="edge">
<title>Node1&#45;&gt;Node7</title>
<path fill="none" stroke="midnightblue" d="M2233.17,-148.15C1991.16,-146.41 1038.49,-137.18 741.5,-98 738.76,-97.64 735.96,-97.21 733.15,-96.73"/>
<polygon fill="midnightblue" stroke="midnightblue" points="2233.47,-151.65 2243.49,-148.22 2233.51,-144.65 2233.47,-151.65"/>
</g>
<!-- Node8 -->
<g id="node8" class="node">
<title>Node8</title>
<g id="a_node8"><a xlink:href="fakehost_8c.html" target="_top" xlink:title=" ">
<polygon fill="white" stroke="black" points="750.5,-67.5 750.5,-97.5 848.5,-97.5 848.5,-67.5 750.5,-67.5"/>
<text text-anchor="start" x="758.5" y="-85.5" font-family="Helvetica,sans-Serif" font-size="10.00">iop/fs/fakehost/src</text>
<text text-anchor="middle" x="799.5" y="-74.5" font-family="Helvetica,sans-Serif" font-size="10.00">/fakehost.c</text>
</a>
</g>
</g>
<!-- Node1&#45;&gt;Node8 -->
<g id="edge7" class="edge">
<title>Node1&#45;&gt;Node8</title>
<path fill="none" stroke="midnightblue" d="M2233.26,-148.09C2002.84,-146.17 1130.27,-136.47 857.5,-98 854.62,-97.59 851.68,-97.1 848.72,-96.55"/>
<polygon fill="midnightblue" stroke="midnightblue" points="2233.4,-151.59 2243.43,-148.17 2233.45,-144.59 2233.4,-151.59"/>
</g>
<!-- Node9 -->
<g id="node9" class="node">
<title>Node9</title>
<g id="a_node9"><a xlink:href="nprintf_8c.html" target="_top" xlink:title=" ">
<polygon fill="white" stroke="black" points="866.5,-67.5 866.5,-97.5 964.5,-97.5 964.5,-67.5 866.5,-67.5"/>
<text text-anchor="start" x="874.5" y="-85.5" font-family="Helvetica,sans-Serif" font-size="10.00">iop/fs/fakehost/src</text>
<text text-anchor="middle" x="915.5" y="-74.5" font-family="Helvetica,sans-Serif" font-size="10.00">/nprintf.c</text>
</a>
</g>
</g>
<!-- Node1&#45;&gt;Node9 -->
<g id="edge8" class="edge">
<title>Node1&#45;&gt;Node9</title>
<path fill="none" stroke="midnightblue" d="M2233.22,-147.89C2014.7,-145.27 1222.37,-133.49 973.5,-98 970.62,-97.59 967.68,-97.1 964.72,-96.54"/>
<polygon fill="midnightblue" stroke="midnightblue" points="2233.44,-151.39 2243.49,-148.01 2233.53,-144.39 2233.44,-151.39"/>
</g>
<!-- Node10 -->
<g id="node10" class="node">
<title>Node10</title>
<g id="a_node10"><a xlink:href="file_xio__iop_8c.html" target="_top" xlink:title=" ">
<polygon fill="white" stroke="black" points="982.5,-67.5 982.5,-97.5 1066.5,-97.5 1066.5,-67.5 982.5,-67.5"/>
<text text-anchor="start" x="990.5" y="-85.5" font-family="Helvetica,sans-Serif" font-size="10.00">iop/fs/filexio/src</text>
<text text-anchor="middle" x="1024.5" y="-74.5" font-family="Helvetica,sans-Serif" font-size="10.00">/fileXio_iop.c</text>
</a>
</g>
</g>
<!-- Node1&#45;&gt;Node10 -->
<g id="edge9" class="edge">
<title>Node1&#45;&gt;Node10</title>
<path fill="none" stroke="midnightblue" d="M2233.1,-147.91C2025.32,-145.48 1302.85,-134.52 1075.5,-98 1072.59,-97.53 1069.61,-96.96 1066.63,-96.3"/>
<polygon fill="midnightblue" stroke="midnightblue" points="2233.14,-151.41 2243.18,-148.03 2233.22,-144.41 2233.14,-151.41"/>
</g>
<!-- Node11 -->
<g id="node11" class="node">
<title>Node11</title>
<g id="a_node11"><a xlink:href="iop_2fs_2filexio_2src_2irx__imports_8h_source.html" target="_top" xlink:title=" ">
<polygon fill="white" stroke="black" points="1084.5,-67.5 1084.5,-97.5 1168.5,-97.5 1168.5,-67.5 1084.5,-67.5"/>
<text text-anchor="start" x="1092.5" y="-85.5" font-family="Helvetica,sans-Serif" font-size="10.00">iop/fs/filexio/src</text>
<text text-anchor="middle" x="1126.5" y="-74.5" font-family="Helvetica,sans-Serif" font-size="10.00">/irx_imports.h</text>
</a>
</g>
</g>
<!-- Node1&#45;&gt;Node11 -->
<g id="edge10" class="edge">
<title>Node1&#45;&gt;Node11</title>
<path fill="none" stroke="midnightblue" d="M2233.33,-147.67C2037.29,-144.49 1384.1,-131.59 1177.5,-98 1174.59,-97.53 1171.62,-96.95 1168.63,-96.29"/>
<polygon fill="midnightblue" stroke="midnightblue" points="2233.36,-151.17 2243.41,-147.83 2233.47,-144.17 2233.36,-151.17"/>
</g>
<!-- Node12 -->
<g id="node12" class="node">
<title>Node12</title>
<g id="a_node12"><a xlink:href="iop_2fs_2http_2src_2irx__imports_8h_source.html" target="_top" xlink:title=" ">
<polygon fill="white" stroke="black" points="1186,-67.5 1186,-97.5 1275,-97.5 1275,-67.5 1186,-67.5"/>
<text text-anchor="start" x="1194" y="-85.5" font-family="Helvetica,sans-Serif" font-size="10.00">iop/fs/http/src/irx</text>
<text text-anchor="middle" x="1230.5" y="-74.5" font-family="Helvetica,sans-Serif" font-size="10.00">_imports.h</text>
</a>
</g>
</g>
<!-- Node1&#45;&gt;Node12 -->
<g id="edge11" class="edge">
<title>Node1&#45;&gt;Node12</title>
<path fill="none" stroke="midnightblue" d="M2233.01,-147.24C2049.21,-142.88 1469.44,-127.14 1284.5,-98 1281.43,-97.52 1278.29,-96.93 1275.13,-96.27"/>
<polygon fill="midnightblue" stroke="midnightblue" points="2233.18,-150.74 2243.26,-147.48 2233.34,-143.74 2233.18,-150.74"/>
</g>
<!-- Node13 -->
<g id="node13" class="node">
<title>Node13</title>
<g id="a_node13"><a xlink:href="iop_2memorycard_2mcserv_2src_2irx__imports_8h_source.html" target="_top" xlink:title=" ">
<polygon fill="white" stroke="black" points="1293,-67.5 1293,-97.5 1414,-97.5 1414,-67.5 1293,-67.5"/>
<text text-anchor="start" x="1301" y="-85.5" font-family="Helvetica,sans-Serif" font-size="10.00">iop/memorycard/mcserv</text>
<text text-anchor="middle" x="1353.5" y="-74.5" font-family="Helvetica,sans-Serif" font-size="10.00">/src/irx_imports.h</text>
</a>
</g>
</g>
<!-- Node1&#45;&gt;Node13 -->
<g id="edge12" class="edge">
<title>Node1&#45;&gt;Node13</title>
<path fill="none" stroke="midnightblue" d="M2232.91,-148.05C2094.29,-146.34 1726.9,-138.05 1423.5,-98 1420.42,-97.59 1417.28,-97.13 1414.11,-96.62"/>
<polygon fill="midnightblue" stroke="midnightblue" points="2233.23,-151.56 2243.27,-148.17 2233.32,-144.56 2233.23,-151.56"/>
</g>
<!-- Node14 -->
<g id="node14" class="node">
<title>Node14</title>
<g id="a_node14"><a xlink:href="mcserv_8h_source.html" target="_top" xlink:title=" ">
<polygon fill="white" stroke="black" points="1432,-67.5 1432,-97.5 1553,-97.5 1553,-67.5 1432,-67.5"/>
<text text-anchor="start" x="1440" y="-85.5" font-family="Helvetica,sans-Serif" font-size="10.00">iop/memorycard/mcserv</text>
<text text-anchor="middle" x="1492.5" y="-74.5" font-family="Helvetica,sans-Serif" font-size="10.00">/src/mcserv.h</text>
</a>
</g>
</g>
<!-- Node1&#45;&gt;Node14 -->
<g id="edge13" class="edge">
<title>Node1&#45;&gt;Node14</title>
<path fill="none" stroke="midnightblue" d="M2233.09,-147.17C2110.52,-143.72 1810.95,-132.2 1562.5,-98 1559.43,-97.58 1556.29,-97.1 1553.12,-96.58"/>
<polygon fill="midnightblue" stroke="midnightblue" points="2233.25,-150.68 2243.35,-147.45 2233.45,-143.68 2233.25,-150.68"/>
</g>
<!-- Node16 -->
<g id="node16" class="node">
<title>Node16</title>
<g id="a_node16"><a xlink:href="iop_2network_2netman_2src_2irx__imports_8h_source.html" target="_top" xlink:title=" ">
<polygon fill="white" stroke="black" points="1571.5,-67.5 1571.5,-97.5 1673.5,-97.5 1673.5,-67.5 1571.5,-67.5"/>
<text text-anchor="start" x="1579.5" y="-85.5" font-family="Helvetica,sans-Serif" font-size="10.00">iop/network/netman</text>
<text text-anchor="middle" x="1622.5" y="-74.5" font-family="Helvetica,sans-Serif" font-size="10.00">/src/irx_imports.h</text>
</a>
</g>
</g>
<!-- Node1&#45;&gt;Node16 -->
<g id="edge15" class="edge">
<title>Node1&#45;&gt;Node16</title>
<path fill="none" stroke="midnightblue" d="M2232.82,-146.7C2125.02,-142.63 1883.3,-130.42 1682.5,-98 1679.64,-97.54 1676.72,-97.01 1673.78,-96.44"/>
<polygon fill="midnightblue" stroke="midnightblue" points="2233.01,-150.21 2243.14,-147.08 2233.27,-143.21 2233.01,-150.21"/>
</g>
<!-- Node17 -->
<g id="node17" class="node">
<title>Node17</title>
<g id="a_node17"><a xlink:href="iop_2network_2netman_2src_2netman_8c_source.html" target="_top" xlink:title=" ">
<polygon fill="white" stroke="black" points="1691.5,-67.5 1691.5,-97.5 1793.5,-97.5 1793.5,-67.5 1691.5,-67.5"/>
<text text-anchor="start" x="1699.5" y="-85.5" font-family="Helvetica,sans-Serif" font-size="10.00">iop/network/netman</text>
<text text-anchor="middle" x="1742.5" y="-74.5" font-family="Helvetica,sans-Serif" font-size="10.00">/src/netman.c</text>
</a>
</g>
</g>
<!-- Node1&#45;&gt;Node17 -->
<g id="edge16" class="edge">
<title>Node1&#45;&gt;Node17</title>
<path fill="none" stroke="midnightblue" d="M2233.12,-145.11C2142.06,-139.09 1957.17,-124.59 1802.5,-98 1799.65,-97.51 1796.73,-96.96 1793.79,-96.37"/>
<polygon fill="midnightblue" stroke="midnightblue" points="2233.02,-148.61 2243.23,-145.77 2233.47,-141.63 2233.02,-148.61"/>
</g>
<!-- Node18 -->
<g id="node18" class="node">
<title>Node18</title>
<g id="a_node18"><a xlink:href="iop_2network_2netman_2src_2rpc__client_8c_source.html" target="_top" xlink:title=" ">
<polygon fill="white" stroke="black" points="1811.5,-67.5 1811.5,-97.5 1913.5,-97.5 1913.5,-67.5 1811.5,-67.5"/>
<text text-anchor="start" x="1819.5" y="-85.5" font-family="Helvetica,sans-Serif" font-size="10.00">iop/network/netman</text>
<text text-anchor="middle" x="1862.5" y="-74.5" font-family="Helvetica,sans-Serif" font-size="10.00">/src/rpc_client.c</text>
</a>
</g>
</g>
<!-- Node1&#45;&gt;Node18 -->
<g id="edge17" class="edge">
<title>Node1&#45;&gt;Node18</title>
<path fill="none" stroke="midnightblue" d="M2233.25,-142.54C2160.98,-134.47 2031.82,-118.68 1922.5,-98 1919.66,-97.46 1916.75,-96.88 1913.81,-96.26"/>
<polygon fill="midnightblue" stroke="midnightblue" points="2233.16,-146.05 2243.49,-143.67 2233.93,-139.09 2233.16,-146.05"/>
</g>
<!-- Node19 -->
<g id="node19" class="node">
<title>Node19</title>
<g id="a_node19"><a xlink:href="iop_2network_2netman_2src_2rpc__server_8c_source.html" target="_top" xlink:title=" ">
<polygon fill="white" stroke="black" points="1931.5,-67.5 1931.5,-97.5 2033.5,-97.5 2033.5,-67.5 1931.5,-67.5"/>
<text text-anchor="start" x="1939.5" y="-85.5" font-family="Helvetica,sans-Serif" font-size="10.00">iop/network/netman</text>
<text text-anchor="middle" x="1982.5" y="-74.5" font-family="Helvetica,sans-Serif" font-size="10.00">/src/rpc_server.c</text>
</a>
</g>
</g>
<!-- Node1&#45;&gt;Node19 -->
<g id="edge18" class="edge">
<title>Node1&#45;&gt;Node19</title>
<path fill="none" stroke="midnightblue" d="M2233.43,-137.62C2183.28,-127.76 2107.85,-112.57 2042.5,-98 2039.57,-97.35 2036.57,-96.66 2033.53,-95.96"/>
<polygon fill="midnightblue" stroke="midnightblue" points="2232.93,-141.09 2243.42,-139.59 2234.28,-134.22 2232.93,-141.09"/>
</g>
<!-- Node20 -->
<g id="node20" class="node">
<title>Node20</title>
<g id="a_node20"><a xlink:href="iop_2network_2smbman_2src_2irx__imports_8h_source.html" target="_top" xlink:title=" ">
<polygon fill="white" stroke="black" points="2051,-67.5 2051,-97.5 2158,-97.5 2158,-67.5 2051,-67.5"/>
<text text-anchor="start" x="2059" y="-85.5" font-family="Helvetica,sans-Serif" font-size="10.00">iop/network/smbman</text>
<text text-anchor="middle" x="2104.5" y="-74.5" font-family="Helvetica,sans-Serif" font-size="10.00">/src/irx_imports.h</text>
</a>
</g>
</g>
<!-- Node1&#45;&gt;Node20 -->
<g id="edge19" class="edge">
<title>Node1&#45;&gt;Node20</title>
<path fill="none" stroke="midnightblue" d="M2239.56,-130.96C2209.76,-120.48 2172.43,-107.37 2144.56,-97.58"/>
<polygon fill="midnightblue" stroke="midnightblue" points="2238.76,-134.38 2249.36,-134.4 2241.08,-127.78 2238.76,-134.38"/>
</g>
<!-- Node21 -->
<g id="node21" class="node">
<title>Node21</title>
<g id="a_node21"><a xlink:href="smb__fio_8c_source.html" target="_top" xlink:title=" ">
<polygon fill="white" stroke="black" points="2176,-67.5 2176,-97.5 2283,-97.5 2283,-67.5 2176,-67.5"/>
<text text-anchor="start" x="2184" y="-85.5" font-family="Helvetica,sans-Serif" font-size="10.00">iop/network/smbman</text>
<text text-anchor="middle" x="2229.5" y="-74.5" font-family="Helvetica,sans-Serif" font-size="10.00">/src/smb_fio.c</text>
</a>
</g>
</g>
<!-- Node1&#45;&gt;Node21 -->
<g id="edge20" class="edge">
<title>Node1&#45;&gt;Node21</title>
<path fill="none" stroke="midnightblue" d="M2269.68,-127.02C2260.74,-117.34 2250.43,-106.17 2242.49,-97.58"/>
<polygon fill="midnightblue" stroke="midnightblue" points="2267.13,-129.42 2276.48,-134.4 2272.27,-124.67 2267.13,-129.42"/>
</g>
<!-- Node22 -->
<g id="node22" class="node">
<title>Node22</title>
<g id="a_node22"><a xlink:href="batch_8c.html" target="_top" xlink:title=" ">
<polygon fill="white" stroke="black" points="2300.5,-67.5 2300.5,-97.5 2398.5,-97.5 2398.5,-67.5 2300.5,-67.5"/>
<text text-anchor="start" x="2308.5" y="-85.5" font-family="Helvetica,sans-Serif" font-size="10.00">iop/sound/libsd/src</text>
<text text-anchor="middle" x="2349.5" y="-74.5" font-family="Helvetica,sans-Serif" font-size="10.00">/batch.c</text>
</a>
</g>
</g>
<!-- Node1&#45;&gt;Node22 -->
<g id="edge21" class="edge">
<title>Node1&#45;&gt;Node22</title>
<path fill="none" stroke="midnightblue" d="M2309.32,-127.02C2318.26,-117.34 2328.57,-106.17 2336.51,-97.58"/>
<polygon fill="midnightblue" stroke="midnightblue" points="2306.73,-124.67 2302.52,-134.4 2311.87,-129.42 2306.73,-124.67"/>
</g>
<!-- Node23 -->
<g id="node23" class="node">
<title>Node23</title>
<g id="a_node23"><a xlink:href="iop_2sound_2libsd_2src_2irx__imports_8h_source.html" target="_top" xlink:title=" ">
<polygon fill="white" stroke="black" points="2416.5,-67.5 2416.5,-97.5 2514.5,-97.5 2514.5,-67.5 2416.5,-67.5"/>
<text text-anchor="start" x="2424.5" y="-85.5" font-family="Helvetica,sans-Serif" font-size="10.00">iop/sound/libsd/src</text>
<text text-anchor="middle" x="2465.5" y="-74.5" font-family="Helvetica,sans-Serif" font-size="10.00">/irx_imports.h</text>
</a>
</g>
</g>
<!-- Node1&#45;&gt;Node23 -->
<g id="edge22" class="edge">
<title>Node1&#45;&gt;Node23</title>
<path fill="none" stroke="midnightblue" d="M2337.38,-130.82C2365.67,-120.37 2400.99,-107.32 2427.39,-97.58"/>
<polygon fill="midnightblue" stroke="midnightblue" points="2335.86,-127.65 2327.69,-134.4 2338.28,-134.21 2335.86,-127.65"/>
</g>
<!-- Node24 -->
<g id="node24" class="node">
<title>Node24</title>
<g id="a_node24"><a xlink:href="voice_8c.html" target="_top" xlink:title=" ">
<polygon fill="white" stroke="black" points="2532.5,-67.5 2532.5,-97.5 2630.5,-97.5 2630.5,-67.5 2532.5,-67.5"/>
<text text-anchor="start" x="2540.5" y="-85.5" font-family="Helvetica,sans-Serif" font-size="10.00">iop/sound/libsd/src</text>
<text text-anchor="middle" x="2581.5" y="-74.5" font-family="Helvetica,sans-Serif" font-size="10.00">/voice.c</text>
</a>
</g>
</g>
<!-- Node1&#45;&gt;Node24 -->
<g id="edge23" class="edge">
<title>Node1&#45;&gt;Node24</title>
<path fill="none" stroke="midnightblue" d="M2345.85,-136.87C2393.32,-126.95 2462.97,-112.09 2523.5,-98 2526.43,-97.32 2529.44,-96.6 2532.48,-95.87"/>
<polygon fill="midnightblue" stroke="midnightblue" points="2344.85,-133.51 2335.77,-138.98 2346.28,-140.36 2344.85,-133.51"/>
</g>
<!-- Node25 -->
<g id="node25" class="node">
<title>Node25</title>
<g id="a_node25"><a xlink:href="eesync_8c_source.html" target="_top" xlink:title=" ">
<polygon fill="white" stroke="black" points="2648.5,-67.5 2648.5,-97.5 2762.5,-97.5 2762.5,-67.5 2648.5,-67.5"/>
<text text-anchor="start" x="2656.5" y="-85.5" font-family="Helvetica,sans-Serif" font-size="10.00">iop/system/eesync/src</text>
<text text-anchor="middle" x="2705.5" y="-74.5" font-family="Helvetica,sans-Serif" font-size="10.00">/eesync.c</text>
</a>
</g>
</g>
<!-- Node1&#45;&gt;Node25 -->
<g id="edge24" class="edge">
<title>Node1&#45;&gt;Node25</title>
<path fill="none" stroke="midnightblue" d="M2345.79,-141.66C2415.12,-132.95 2536.37,-116.74 2639.5,-98 2642.39,-97.48 2645.34,-96.92 2648.31,-96.33"/>
<polygon fill="midnightblue" stroke="midnightblue" points="2345.03,-138.23 2335.54,-142.95 2345.89,-145.18 2345.03,-138.23"/>
</g>
<!-- Node26 -->
<g id="node26" class="node">
<title>Node26</title>
<g id="a_node26"><a xlink:href="iop_2system_2eesync_2src_2irx__imports_8h_source.html" target="_top" xlink:title=" ">
<polygon fill="white" stroke="black" points="2780.5,-67.5 2780.5,-97.5 2894.5,-97.5 2894.5,-67.5 2780.5,-67.5"/>
<text text-anchor="start" x="2788.5" y="-85.5" font-family="Helvetica,sans-Serif" font-size="10.00">iop/system/eesync/src</text>
<text text-anchor="middle" x="2837.5" y="-74.5" font-family="Helvetica,sans-Serif" font-size="10.00">/irx_imports.h</text>
</a>
</g>
</g>
<!-- Node1&#45;&gt;Node26 -->
<g id="edge25" class="edge">
<title>Node1&#45;&gt;Node26</title>
<path fill="none" stroke="midnightblue" d="M2345.59,-144.67C2435.75,-138.06 2618.34,-122.77 2771.5,-98 2774.4,-97.53 2777.35,-97.02 2780.34,-96.47"/>
<polygon fill="midnightblue" stroke="midnightblue" points="2345.3,-141.18 2335.58,-145.4 2345.81,-148.16 2345.3,-141.18"/>
</g>
<!-- Node27 -->
<g id="node27" class="node">
<title>Node27</title>
<g id="a_node27"><a xlink:href="iop_2system_2mtapman_2src_2irx__imports_8h_source.html" target="_top" xlink:title=" ">
<polygon fill="white" stroke="black" points="2913,-67.5 2913,-97.5 3020,-97.5 3020,-67.5 2913,-67.5"/>
<text text-anchor="start" x="2921" y="-85.5" font-family="Helvetica,sans-Serif" font-size="10.00">iop/system/mtapman</text>
<text text-anchor="middle" x="2966.5" y="-74.5" font-family="Helvetica,sans-Serif" font-size="10.00">/src/irx_imports.h</text>
</a>
</g>
</g>
<!-- Node1&#45;&gt;Node27 -->
<g id="edge26" class="edge">
<title>Node1&#45;&gt;Node27</title>
<path fill="none" stroke="midnightblue" d="M2345.65,-146.59C2454.06,-142.3 2699.5,-129.7 2903.5,-98 2906.61,-97.52 2909.78,-96.97 2912.99,-96.37"/>
<polygon fill="midnightblue" stroke="midnightblue" points="2345.45,-143.09 2335.6,-146.98 2345.72,-150.09 2345.45,-143.09"/>
</g>
<!-- Node28 -->
<g id="node28" class="node">
<title>Node28</title>
<g id="a_node28"><a xlink:href="rpcservers_8c.html" target="_top" xlink:title=" ">
<polygon fill="white" stroke="black" points="3038,-67.5 3038,-97.5 3145,-97.5 3145,-67.5 3038,-67.5"/>
<text text-anchor="start" x="3046" y="-85.5" font-family="Helvetica,sans-Serif" font-size="10.00">iop/system/mtapman</text>
<text text-anchor="middle" x="3091.5" y="-74.5" font-family="Helvetica,sans-Serif" font-size="10.00">/src/rpcservers.c</text>
</a>
</g>
</g>
<!-- Node1&#45;&gt;Node28 -->
<g id="edge27" class="edge">
<title>Node1&#45;&gt;Node28</title>
<path fill="none" stroke="midnightblue" d="M2345.7,-147.76C2469.78,-145.44 2776.2,-136.01 3029.5,-98 3032.23,-97.59 3035.02,-97.12 3037.83,-96.61"/>
<polygon fill="midnightblue" stroke="midnightblue" points="2345.61,-144.26 2335.68,-147.94 2345.74,-151.26 2345.61,-144.26"/>
</g>
<!-- Node29 -->
<g id="node29" class="node">
<title>Node29</title>
<g id="a_node29"><a xlink:href="iop_2system_2padman_2src_2irx__imports_8h_source.html" target="_top" xlink:title=" ">
<polygon fill="white" stroke="black" points="3163.5,-67.5 3163.5,-97.5 3281.5,-97.5 3281.5,-67.5 3163.5,-67.5"/>
<text text-anchor="start" x="3171.5" y="-85.5" font-family="Helvetica,sans-Serif" font-size="10.00">iop/system/padman/src</text>
<text text-anchor="middle" x="3222.5" y="-74.5" font-family="Helvetica,sans-Serif" font-size="10.00">/irx_imports.h</text>
</a>
</g>
</g>
<!-- Node1&#45;&gt;Node29 -->
<g id="edge28" class="edge">
<title>Node1&#45;&gt;Node29</title>
<path fill="none" stroke="midnightblue" d="M2346.04,-148.16C2484.54,-146.69 2851.57,-138.9 3154.5,-98 3157.37,-97.61 3160.3,-97.17 3163.25,-96.69"/>
<polygon fill="midnightblue" stroke="midnightblue" points="2345.65,-144.66 2335.69,-148.26 2345.72,-151.66 2345.65,-144.66"/>
</g>
<!-- Node30 -->
<g id="node30" class="node">
<title>Node30</title>
<g id="a_node30"><a xlink:href="pad_data_8c.html" target="_top" xlink:title=" ">
<polygon fill="white" stroke="black" points="3299.5,-67.5 3299.5,-97.5 3417.5,-97.5 3417.5,-67.5 3299.5,-67.5"/>
<text text-anchor="start" x="3307.5" y="-85.5" font-family="Helvetica,sans-Serif" font-size="10.00">iop/system/padman/src</text>
<text text-anchor="middle" x="3358.5" y="-74.5" font-family="Helvetica,sans-Serif" font-size="10.00">/padData.c</text>
</a>
</g>
</g>
<!-- Node1&#45;&gt;Node30 -->
<g id="edge29" class="edge">
<title>Node1&#45;&gt;Node30</title>
<path fill="none" stroke="midnightblue" d="M2345.7,-148.8C2498.3,-148.94 2932.95,-144.84 3290.5,-98 3293.37,-97.62 3296.3,-97.19 3299.26,-96.71"/>
<polygon fill="midnightblue" stroke="midnightblue" points="2345.64,-145.3 2335.63,-148.78 2345.63,-152.3 2345.64,-145.3"/>
</g>
<!-- Node31 -->
<g id="node31" class="node">
<title>Node31</title>
<g id="a_node31"><a xlink:href="pad_init_8c.html" target="_top" xlink:title=" ">
<polygon fill="white" stroke="black" points="3435.5,-67.5 3435.5,-97.5 3553.5,-97.5 3553.5,-67.5 3435.5,-67.5"/>
<text text-anchor="start" x="3443.5" y="-85.5" font-family="Helvetica,sans-Serif" font-size="10.00">iop/system/padman/src</text>
<text text-anchor="middle" x="3494.5" y="-74.5" font-family="Helvetica,sans-Serif" font-size="10.00">/padInit.c</text>
</a>
</g>
</g>
<!-- Node1&#45;&gt;Node31 -->
<g id="edge30" class="edge">
<title>Node1&#45;&gt;Node31</title>
<path fill="none" stroke="midnightblue" d="M2345.84,-147.23C2544.8,-142.57 3213.85,-125.2 3426.5,-98 3429.37,-97.63 3432.31,-97.21 3435.26,-96.74"/>
<polygon fill="midnightblue" stroke="midnightblue" points="2345.53,-143.74 2335.62,-147.47 2345.7,-150.74 2345.53,-143.74"/>
</g>
<!-- Node32 -->
<g id="node32" class="node">
<title>Node32</title>
<g id="a_node32"><a xlink:href="rpcserver_8c.html" target="_top" xlink:title=" ">
<polygon fill="white" stroke="black" points="3571.5,-67.5 3571.5,-97.5 3689.5,-97.5 3689.5,-67.5 3571.5,-67.5"/>
<text text-anchor="start" x="3579.5" y="-85.5" font-family="Helvetica,sans-Serif" font-size="10.00">iop/system/padman/src</text>
<text text-anchor="middle" x="3630.5" y="-74.5" font-family="Helvetica,sans-Serif" font-size="10.00">/rpcserver.c</text>
</a>
</g>
</g>
<!-- Node1&#45;&gt;Node32 -->
<g id="edge31" class="edge">
<title>Node1&#45;&gt;Node32</title>
<path fill="none" stroke="midnightblue" d="M2345.7,-147.55C2559.45,-143.72 3321.88,-128.2 3562.5,-98 3565.37,-97.64 3568.31,-97.22 3571.26,-96.75"/>
<polygon fill="midnightblue" stroke="midnightblue" points="2345.58,-144.05 2335.64,-147.72 2345.7,-151.05 2345.58,-144.05"/>
</g>
<!-- Node33 -->
<g id="node33" class="node">
<title>Node33</title>
<g id="a_node33"><a xlink:href="iop_2system_2rmman_2src_2irx__imports_8h_source.html" target="_top" xlink:title=" ">
<polygon fill="white" stroke="black" points="3708,-67.5 3708,-97.5 3821,-97.5 3821,-67.5 3708,-67.5"/>
<text text-anchor="start" x="3716" y="-85.5" font-family="Helvetica,sans-Serif" font-size="10.00">iop/system/rmman/src</text>
<text text-anchor="middle" x="3764.5" y="-74.5" font-family="Helvetica,sans-Serif" font-size="10.00">/irx_imports.h</text>
</a>
</g>
</g>
<!-- Node1&#45;&gt;Node33 -->
<g id="edge32" class="edge">
<title>Node1&#45;&gt;Node33</title>
<path fill="none" stroke="midnightblue" d="M2345.57,-147.84C2573.32,-144.96 3429.9,-132.04 3698.5,-98 3701.53,-97.62 3704.62,-97.16 3707.73,-96.65"/>
<polygon fill="midnightblue" stroke="midnightblue" points="2345.47,-144.34 2335.51,-147.97 2345.56,-151.34 2345.47,-144.34"/>
</g>
<!-- Node34 -->
<g id="node34" class="node">
<title>Node34</title>
<g id="a_node34"><a xlink:href="rmman_8c_source.html" target="_top" xlink:title=" ">
<polygon fill="white" stroke="black" points="3839,-67.5 3839,-97.5 3952,-97.5 3952,-67.5 3839,-67.5"/>
<text text-anchor="start" x="3847" y="-85.5" font-family="Helvetica,sans-Serif" font-size="10.00">iop/system/rmman/src</text>
<text text-anchor="middle" x="3895.5" y="-74.5" font-family="Helvetica,sans-Serif" font-size="10.00">/rmman.c</text>
</a>
</g>
</g>
<!-- Node1&#45;&gt;Node34 -->
<g id="edge33" class="edge">
<title>Node1&#45;&gt;Node34</title>
<path fill="none" stroke="midnightblue" d="M2345.96,-148.06C2587.49,-145.97 3534.82,-135.49 3830.5,-98 3833.25,-97.65 3836.06,-97.24 3838.89,-96.78"/>
<polygon fill="midnightblue" stroke="midnightblue" points="2345.63,-144.56 2335.66,-148.15 2345.69,-151.56 2345.63,-144.56"/>
</g>
<!-- Node35 -->
<g id="node35" class="node">
<title>Node35</title>
<g id="a_node35"><a xlink:href="iop_2system_2sbusintr_2src_2irx__imports_8h_source.html" target="_top" xlink:title=" ">
<polygon fill="white" stroke="black" points="3970,-67.5 3970,-97.5 4071,-97.5 4071,-67.5 3970,-67.5"/>
<text text-anchor="start" x="3978" y="-85.5" font-family="Helvetica,sans-Serif" font-size="10.00">iop/system/sbusintr</text>
<text text-anchor="middle" x="4020.5" y="-74.5" font-family="Helvetica,sans-Serif" font-size="10.00">/src/irx_imports.h</text>
</a>
</g>
</g>
<!-- Node1&#45;&gt;Node35 -->
<g id="edge34" class="edge">
<title>Node1&#45;&gt;Node35</title>
<path fill="none" stroke="midnightblue" d="M2345.75,-148.39C2599.48,-147.66 3639.02,-142 3961.5,-98 3964.22,-97.63 3966.99,-97.18 3969.78,-96.68"/>
<polygon fill="midnightblue" stroke="midnightblue" points="2345.65,-144.89 2335.66,-148.42 2345.67,-151.89 2345.65,-144.89"/>
</g>
<!-- Node36 -->
<g id="node36" class="node">
<title>Node36</title>
<g id="a_node36"><a xlink:href="sbusintr_8c.html" target="_top" xlink:title=" ">
<polygon fill="white" stroke="black" points="4089,-67.5 4089,-97.5 4190,-97.5 4190,-67.5 4089,-67.5"/>
<text text-anchor="start" x="4097" y="-85.5" font-family="Helvetica,sans-Serif" font-size="10.00">iop/system/sbusintr</text>
<text text-anchor="middle" x="4139.5" y="-74.5" font-family="Helvetica,sans-Serif" font-size="10.00">/src/sbusintr.c</text>
</a>
</g>
</g>
<!-- Node1&#45;&gt;Node36 -->
<g id="edge35" class="edge">
<title>Node1&#45;&gt;Node36</title>
<path fill="none" stroke="midnightblue" d="M2345.82,-148.52C2610.61,-148.39 3733.35,-145.01 4080.5,-98 4083.22,-97.63 4085.99,-97.19 4088.78,-96.69"/>
<polygon fill="midnightblue" stroke="midnightblue" points="2345.67,-145.02 2335.67,-148.53 2345.67,-152.02 2345.67,-145.02"/>
</g>
<!-- Node37 -->
<g id="node37" class="node">
<title>Node37</title>
<g id="a_node37"><a xlink:href="iop_2system_2siftoo_2src_2irx__imports_8h_source.html" target="_top" xlink:title=" ">
<polygon fill="white" stroke="black" points="4208,-67.5 4208,-97.5 4315,-97.5 4315,-67.5 4208,-67.5"/>
<text text-anchor="start" x="4216" y="-85.5" font-family="Helvetica,sans-Serif" font-size="10.00">iop/system/siftoo/src</text>
<text text-anchor="middle" x="4261.5" y="-74.5" font-family="Helvetica,sans-Serif" font-size="10.00">/irx_imports.h</text>
</a>
</g>
</g>
<!-- Node1&#45;&gt;Node37 -->
<g id="edge36" class="edge">
<title>Node1&#45;&gt;Node37</title>
<path fill="none" stroke="midnightblue" d="M2345.93,-148.55C2621.49,-148.58 3827.38,-145.93 4199.5,-98 4202.24,-97.65 4205.04,-97.22 4207.85,-96.75"/>
<polygon fill="midnightblue" stroke="midnightblue" points="2345.77,-145.05 2335.77,-148.55 2345.77,-152.05 2345.77,-145.05"/>
</g>
<!-- Node38 -->
<g id="node38" class="node">
<title>Node38</title>
<g id="a_node38"><a xlink:href="siftoo_8c_source.html" target="_top" xlink:title=" ">
<polygon fill="white" stroke="black" points="4333,-67.5 4333,-97.5 4440,-97.5 4440,-67.5 4333,-67.5"/>
<text text-anchor="start" x="4341" y="-85.5" font-family="Helvetica,sans-Serif" font-size="10.00">iop/system/siftoo/src</text>
<text text-anchor="middle" x="4386.5" y="-74.5" font-family="Helvetica,sans-Serif" font-size="10.00">/siftoo.c</text>
</a>
</g>
</g>
<!-- Node1&#45;&gt;Node38 -->
<g id="edge37" class="edge">
<title>Node1&#45;&gt;Node38</title>
<path fill="none" stroke="midnightblue" d="M2345.88,-148.66C2632.11,-149.24 3926.29,-148.96 4324.5,-98 4327.24,-97.65 4330.04,-97.23 4332.85,-96.76"/>
<polygon fill="midnightblue" stroke="midnightblue" points="2345.74,-145.16 2335.73,-148.64 2345.73,-152.16 2345.74,-145.16"/>
</g>
<!-- Node39 -->
<g id="node39" class="node">
<title>Node39</title>
<g id="a_node39"><a xlink:href="iop_2tcpip_2tcpips_2src_2irx__imports_8h_source.html" target="_top" xlink:title=" ">
<polygon fill="white" stroke="black" points="4458,-67.5 4458,-97.5 4557,-97.5 4557,-67.5 4458,-67.5"/>
<text text-anchor="start" x="4466" y="-85.5" font-family="Helvetica,sans-Serif" font-size="10.00">iop/tcpip/tcpips/src</text>
<text text-anchor="middle" x="4507.5" y="-74.5" font-family="Helvetica,sans-Serif" font-size="10.00">/irx_imports.h</text>
</a>
</g>
</g>
<!-- Node1&#45;&gt;Node39 -->
<g id="edge38" class="edge">
<title>Node1&#45;&gt;Node39</title>
<path fill="none" stroke="midnightblue" d="M2346.18,-147.93C2665.76,-144.59 4235.97,-126.82 4449.5,-98 4452.28,-97.63 4455.11,-97.17 4457.97,-96.65"/>
<polygon fill="midnightblue" stroke="midnightblue" points="2345.74,-144.43 2335.77,-148.03 2345.81,-151.43 2345.74,-144.43"/>
</g>
<!-- Node40 -->
<g id="node40" class="node">
<title>Node40</title>
<g id="a_node40"><a xlink:href="ps2ips_8c.html" target="_top" xlink:title=" ">
<polygon fill="white" stroke="black" points="4575,-67.5 4575,-97.5 4674,-97.5 4674,-67.5 4575,-67.5"/>
<text text-anchor="start" x="4583" y="-85.5" font-family="Helvetica,sans-Serif" font-size="10.00">iop/tcpip/tcpips/src</text>
<text text-anchor="middle" x="4624.5" y="-74.5" font-family="Helvetica,sans-Serif" font-size="10.00">/ps2ips.c</text>
</a>
</g>
</g>
<!-- Node1&#45;&gt;Node40 -->
<g id="edge39" class="edge">
<title>Node1&#45;&gt;Node40</title>
<path fill="none" stroke="midnightblue" d="M2346.07,-148C2675.58,-144.99 4340.68,-128.35 4566.5,-98 4569.28,-97.63 4572.11,-97.17 4574.97,-96.65"/>
<polygon fill="midnightblue" stroke="midnightblue" points="2345.78,-144.5 2335.81,-148.09 2345.84,-151.5 2345.78,-144.5"/>
</g>
<!-- Node15 -->
<g id="node15" class="node">
<title>Node15</title>
<g id="a_node15"><a xlink:href="mcserv_8c_source.html" target="_top" xlink:title=" ">
<polygon fill="white" stroke="black" points="1432,-0.5 1432,-30.5 1553,-30.5 1553,-0.5 1432,-0.5"/>
<text text-anchor="start" x="1440" y="-18.5" font-family="Helvetica,sans-Serif" font-size="10.00">iop/memorycard/mcserv</text>
<text text-anchor="middle" x="1492.5" y="-7.5" font-family="Helvetica,sans-Serif" font-size="10.00">/src/mcserv.c</text>
</a>
</g>
</g>
<!-- Node14&#45;&gt;Node15 -->
<g id="edge14" class="edge">
<title>Node14&#45;&gt;Node15</title>
<path fill="none" stroke="midnightblue" d="M1492.5,-57.11C1492.5,-48.15 1492.5,-38.32 1492.5,-30.58"/>
<polygon fill="midnightblue" stroke="midnightblue" points="1489,-57.4 1492.5,-67.4 1496,-57.4 1489,-57.4"/>
</g>
</g>
</svg>
