<?xml version="1.0" encoding="UTF-8" standalone="no"?>
<!DOCTYPE svg PUBLIC "-//W3C//DTD SVG 1.1//EN"
 "http://www.w3.org/Graphics/SVG/1.1/DTD/svg11.dtd">
<!-- Generated by graphviz version 3.0.0 (20220413.0242)
 -->
<!-- Title: bdm_mounts Pages: 1 -->
<svg width="166pt" height="106pt"
 viewBox="0.00 0.00 165.50 106.00" xmlns="http://www.w3.org/2000/svg" xmlns:xlink="http://www.w3.org/1999/xlink">
<g id="graph0" class="graph" transform="scale(1 1) rotate(0) translate(4 102)">
<title>bdm_mounts</title>
<polygon fill="white" stroke="transparent" points="-4,4 -4,-102 161.5,-102 161.5,4 -4,4"/>
<!-- Node1 -->
<g id="node1" class="node">
<title>Node1</title>
<g id="a_node1"><a xlink:title=" ">
<polygon fill="#bfbfbf" stroke="black" points="44.5,-0.5 44.5,-19.5 117.5,-19.5 117.5,-0.5 44.5,-0.5"/>
<text text-anchor="middle" x="81" y="-7.5" font-family="Helvetica,sans-Serif" font-size="10.00">bdm_mounts</text>
</a>
</g>
</g>
<!-- Node2 -->
<g id="node2" class="node">
<title>Node2</title>
<g id="a_node2"><a xlink:href="structblock__device.html" target="_top" xlink:title=" ">
<polygon fill="white" stroke="#bfbfbf" points="0,-78.5 0,-97.5 74,-97.5 74,-78.5 0,-78.5"/>
<text text-anchor="middle" x="37" y="-85.5" font-family="Helvetica,sans-Serif" font-size="10.00">block_device</text>
</a>
</g>
</g>
<!-- Node2&#45;&gt;Node1 -->
<g id="edge1" class="edge">
<title>Node2&#45;&gt;Node1</title>
<path fill="none" stroke="#9a32cd" stroke-dasharray="5,2" d="M47.09,-69.57C56.14,-53.95 69.02,-31.7 76.01,-19.62"/>
<polygon fill="#9a32cd" stroke="#9a32cd" points="44.03,-67.87 42.05,-78.28 50.09,-71.38 44.03,-67.87"/>
<text text-anchor="middle" x="73" y="-52" font-family="Helvetica,sans-Serif" font-size="10.00"> bd</text>
<text text-anchor="middle" x="73" y="-41" font-family="Helvetica,sans-Serif" font-size="10.00">cbd</text>
</g>
<!-- Node3 -->
<g id="node3" class="node">
<title>Node3</title>
<g id="a_node3"><a xlink:href="structfile__system.html" target="_top" xlink:title=" ">
<polygon fill="white" stroke="#bfbfbf" points="92.5,-78.5 92.5,-97.5 157.5,-97.5 157.5,-78.5 92.5,-78.5"/>
<text text-anchor="middle" x="125" y="-85.5" font-family="Helvetica,sans-Serif" font-size="10.00">file_system</text>
</a>
</g>
</g>
<!-- Node3&#45;&gt;Node1 -->
<g id="edge2" class="edge">
<title>Node3&#45;&gt;Node1</title>
<path fill="none" stroke="#9a32cd" stroke-dasharray="5,2" d="M114.91,-69.57C105.86,-53.95 92.98,-31.7 85.99,-19.62"/>
<polygon fill="#9a32cd" stroke="#9a32cd" points="111.91,-71.38 119.95,-78.28 117.97,-67.87 111.91,-71.38"/>
<text text-anchor="middle" x="113.5" y="-46.5" font-family="Helvetica,sans-Serif" font-size="10.00"> fs</text>
</g>
</g>
</svg>
