<?xml version="1.0" encoding="UTF-8" standalone="no"?>
<!DOCTYPE svg PUBLIC "-//W3C//DTD SVG 1.1//EN"
 "http://www.w3.org/Graphics/SVG/1.1/DTD/svg11.dtd">
<!-- Generated by graphviz version 3.0.0 (20220413.0242)
 -->
<!-- Title: iop/kernel/include/xsio2man.h Pages: 1 -->
<svg width="1701pt" height="173pt"
 viewBox="0.00 0.00 1700.50 173.00" xmlns="http://www.w3.org/2000/svg" xmlns:xlink="http://www.w3.org/1999/xlink">
<g id="graph0" class="graph" transform="scale(1 1) rotate(0) translate(4 169)">
<title>iop/kernel/include/xsio2man.h</title>
<polygon fill="white" stroke="transparent" points="-4,4 -4,-169 1696.5,-169 1696.5,4 -4,4"/>
<!-- Node1 -->
<g id="node1" class="node">
<title>Node1</title>
<g id="a_node1"><a xlink:title=" ">
<polygon fill="#bfbfbf" stroke="black" points="877.5,-134.5 877.5,-164.5 969.5,-164.5 969.5,-134.5 877.5,-134.5"/>
<text text-anchor="start" x="885.5" y="-152.5" font-family="Helvetica,sans-Serif" font-size="10.00">iop/kernel/include</text>
<text text-anchor="middle" x="923.5" y="-141.5" font-family="Helvetica,sans-Serif" font-size="10.00">/xsio2man.h</text>
</a>
</g>
</g>
<!-- Node2 -->
<g id="node2" class="node">
<title>Node2</title>
<g id="a_node2"><a xlink:href="iop_2memorycard_2mcman_2src_2irx__imports_8h_source.html" target="_top" xlink:title=" ">
<polygon fill="white" stroke="black" points="139,-67.5 139,-97.5 260,-97.5 260,-67.5 139,-67.5"/>
<text text-anchor="start" x="147" y="-85.5" font-family="Helvetica,sans-Serif" font-size="10.00">iop/memorycard/mcman</text>
<text text-anchor="middle" x="199.5" y="-74.5" font-family="Helvetica,sans-Serif" font-size="10.00">/src/irx_imports.h</text>
</a>
</g>
</g>
<!-- Node1&#45;&gt;Node2 -->
<g id="edge1" class="edge">
<title>Node1&#45;&gt;Node2</title>
<path fill="none" stroke="midnightblue" d="M867.01,-146.62C753.23,-142.29 488.57,-129.47 268.5,-98 265.71,-97.6 262.87,-97.16 260,-96.68"/>
<polygon fill="midnightblue" stroke="midnightblue" points="867.09,-150.13 877.22,-147 867.35,-143.13 867.09,-150.13"/>
</g>
<!-- Node3 -->
<g id="node3" class="node">
<title>Node3</title>
<g id="a_node3"><a xlink:href="mcman-internal_8h_source.html" target="_top" xlink:title=" ">
<polygon fill="white" stroke="black" points="278,-67.5 278,-97.5 399,-97.5 399,-67.5 278,-67.5"/>
<text text-anchor="start" x="286" y="-85.5" font-family="Helvetica,sans-Serif" font-size="10.00">iop/memorycard/mcman</text>
<text text-anchor="middle" x="338.5" y="-74.5" font-family="Helvetica,sans-Serif" font-size="10.00">/src/mcman&#45;internal.h</text>
</a>
</g>
</g>
<!-- Node1&#45;&gt;Node3 -->
<g id="edge2" class="edge">
<title>Node1&#45;&gt;Node3</title>
<path fill="none" stroke="midnightblue" d="M867.13,-145.01C771.98,-138.67 573.65,-123.51 407.5,-98 404.72,-97.57 401.88,-97.11 399.01,-96.61"/>
<polygon fill="midnightblue" stroke="midnightblue" points="867.18,-148.52 877.38,-145.69 867.64,-141.54 867.18,-148.52"/>
</g>
<!-- Node9 -->
<g id="node9" class="node">
<title>Node9</title>
<g id="a_node9"><a xlink:href="mx4sio_8c_source.html" target="_top" xlink:title=" ">
<polygon fill="white" stroke="black" points="417,-67.5 417,-97.5 528,-97.5 528,-67.5 417,-67.5"/>
<text text-anchor="start" x="425" y="-85.5" font-family="Helvetica,sans-Serif" font-size="10.00">iop/sio/mx4sio_bd/src</text>
<text text-anchor="middle" x="472.5" y="-74.5" font-family="Helvetica,sans-Serif" font-size="10.00">/mx4sio.c</text>
</a>
</g>
</g>
<!-- Node1&#45;&gt;Node9 -->
<g id="edge8" class="edge">
<title>Node1&#45;&gt;Node9</title>
<path fill="none" stroke="midnightblue" d="M867.18,-142.81C791.62,-134.8 653.41,-118.82 536.5,-98 533.81,-97.52 531.06,-97 528.29,-96.46"/>
<polygon fill="midnightblue" stroke="midnightblue" points="867.11,-146.32 877.42,-143.89 867.84,-139.36 867.11,-146.32"/>
</g>
<!-- Node10 -->
<g id="node10" class="node">
<title>Node10</title>
<g id="a_node10"><a xlink:href="freemtap_8c.html" target="_top" xlink:title=" ">
<polygon fill="white" stroke="black" points="546,-67.5 546,-97.5 653,-97.5 653,-67.5 546,-67.5"/>
<text text-anchor="start" x="554" y="-85.5" font-family="Helvetica,sans-Serif" font-size="10.00">iop/system/mtapman</text>
<text text-anchor="middle" x="599.5" y="-74.5" font-family="Helvetica,sans-Serif" font-size="10.00">/src/freemtap.c</text>
</a>
</g>
</g>
<!-- Node1&#45;&gt;Node10 -->
<g id="edge9" class="edge">
<title>Node1&#45;&gt;Node10</title>
<path fill="none" stroke="midnightblue" d="M867.58,-138.38C814.45,-128.61 732.37,-113.11 661.5,-98 658.8,-97.42 656.03,-96.82 653.24,-96.2"/>
<polygon fill="midnightblue" stroke="midnightblue" points="867.01,-141.83 877.48,-140.2 868.28,-134.95 867.01,-141.83"/>
</g>
<!-- Node11 -->
<g id="node11" class="node">
<title>Node11</title>
<g id="a_node11"><a xlink:href="iop_2system_2mtapman_2src_2irx__imports_8h_source.html" target="_top" xlink:title=" ">
<polygon fill="white" stroke="black" points="671,-67.5 671,-97.5 778,-97.5 778,-67.5 671,-67.5"/>
<text text-anchor="start" x="679" y="-85.5" font-family="Helvetica,sans-Serif" font-size="10.00">iop/system/mtapman</text>
<text text-anchor="middle" x="724.5" y="-74.5" font-family="Helvetica,sans-Serif" font-size="10.00">/src/irx_imports.h</text>
</a>
</g>
</g>
<!-- Node1&#45;&gt;Node11 -->
<g id="edge10" class="edge">
<title>Node1&#45;&gt;Node11</title>
<path fill="none" stroke="midnightblue" d="M870.62,-131.23C838.43,-120.71 797.83,-107.45 767.6,-97.58"/>
<polygon fill="midnightblue" stroke="midnightblue" points="869.73,-134.62 880.32,-134.4 871.9,-127.96 869.73,-134.62"/>
</g>
<!-- Node12 -->
<g id="node12" class="node">
<title>Node12</title>
<g id="a_node12"><a xlink:href="iop_2system_2padman_2src_2irx__imports_8h_source.html" target="_top" xlink:title=" ">
<polygon fill="white" stroke="black" points="796.5,-67.5 796.5,-97.5 914.5,-97.5 914.5,-67.5 796.5,-67.5"/>
<text text-anchor="start" x="804.5" y="-85.5" font-family="Helvetica,sans-Serif" font-size="10.00">iop/system/padman/src</text>
<text text-anchor="middle" x="855.5" y="-74.5" font-family="Helvetica,sans-Serif" font-size="10.00">/irx_imports.h</text>
</a>
</g>
</g>
<!-- Node1&#45;&gt;Node12 -->
<g id="edge11" class="edge">
<title>Node1&#45;&gt;Node12</title>
<path fill="none" stroke="midnightblue" d="M901.33,-127.31C891.13,-117.56 879.31,-106.26 870.23,-97.58"/>
<polygon fill="midnightblue" stroke="midnightblue" points="899.1,-130.02 908.75,-134.4 903.93,-124.96 899.1,-130.02"/>
</g>
<!-- Node13 -->
<g id="node13" class="node">
<title>Node13</title>
<g id="a_node13"><a xlink:href="pad_data_8c.html" target="_top" xlink:title=" ">
<polygon fill="white" stroke="black" points="932.5,-67.5 932.5,-97.5 1050.5,-97.5 1050.5,-67.5 932.5,-67.5"/>
<text text-anchor="start" x="940.5" y="-85.5" font-family="Helvetica,sans-Serif" font-size="10.00">iop/system/padman/src</text>
<text text-anchor="middle" x="991.5" y="-74.5" font-family="Helvetica,sans-Serif" font-size="10.00">/padData.c</text>
</a>
</g>
</g>
<!-- Node1&#45;&gt;Node13 -->
<g id="edge12" class="edge">
<title>Node1&#45;&gt;Node13</title>
<path fill="none" stroke="midnightblue" d="M945.67,-127.31C955.87,-117.56 967.69,-106.26 976.77,-97.58"/>
<polygon fill="midnightblue" stroke="midnightblue" points="943.07,-124.96 938.25,-134.4 947.9,-130.02 943.07,-124.96"/>
</g>
<!-- Node14 -->
<g id="node14" class="node">
<title>Node14</title>
<g id="a_node14"><a xlink:href="pad_init_8c.html" target="_top" xlink:title=" ">
<polygon fill="white" stroke="black" points="1068.5,-67.5 1068.5,-97.5 1186.5,-97.5 1186.5,-67.5 1068.5,-67.5"/>
<text text-anchor="start" x="1076.5" y="-85.5" font-family="Helvetica,sans-Serif" font-size="10.00">iop/system/padman/src</text>
<text text-anchor="middle" x="1127.5" y="-74.5" font-family="Helvetica,sans-Serif" font-size="10.00">/padInit.c</text>
</a>
</g>
</g>
<!-- Node1&#45;&gt;Node14 -->
<g id="edge13" class="edge">
<title>Node1&#45;&gt;Node14</title>
<path fill="none" stroke="midnightblue" d="M977.46,-131.31C1010.46,-120.79 1052.16,-107.51 1083.21,-97.61"/>
<polygon fill="midnightblue" stroke="midnightblue" points="975.98,-128.11 967.51,-134.48 978.1,-134.77 975.98,-128.11"/>
</g>
<!-- Node15 -->
<g id="node15" class="node">
<title>Node15</title>
<g id="a_node15"><a xlink:href="pad_misc_funcs_8c.html" target="_top" xlink:title=" ">
<polygon fill="white" stroke="black" points="1204.5,-67.5 1204.5,-97.5 1322.5,-97.5 1322.5,-67.5 1204.5,-67.5"/>
<text text-anchor="start" x="1212.5" y="-85.5" font-family="Helvetica,sans-Serif" font-size="10.00">iop/system/padman/src</text>
<text text-anchor="middle" x="1263.5" y="-74.5" font-family="Helvetica,sans-Serif" font-size="10.00">/padMiscFuncs.c</text>
</a>
</g>
</g>
<!-- Node1&#45;&gt;Node15 -->
<g id="edge14" class="edge">
<title>Node1&#45;&gt;Node15</title>
<path fill="none" stroke="midnightblue" d="M979.68,-138.52C1034.74,-128.63 1121.01,-112.86 1195.5,-98 1198.34,-97.43 1201.25,-96.85 1204.18,-96.25"/>
<polygon fill="midnightblue" stroke="midnightblue" points="979,-135.08 969.77,-140.29 980.23,-141.97 979,-135.08"/>
</g>
<!-- Node16 -->
<g id="node16" class="node">
<title>Node16</title>
<g id="a_node16"><a xlink:href="rsio2man_8h.html" target="_top" xlink:title=" ">
<polygon fill="white" stroke="black" points="1341,-67.5 1341,-97.5 1448,-97.5 1448,-67.5 1341,-67.5"/>
<text text-anchor="start" x="1349" y="-85.5" font-family="Helvetica,sans-Serif" font-size="10.00">iop/system/rsio2man</text>
<text text-anchor="middle" x="1394.5" y="-74.5" font-family="Helvetica,sans-Serif" font-size="10.00">/include/rsio2man.h</text>
</a>
</g>
</g>
<!-- Node1&#45;&gt;Node16 -->
<g id="edge15" class="edge">
<title>Node1&#45;&gt;Node16</title>
<path fill="none" stroke="midnightblue" d="M979.83,-143.38C1058.79,-135.79 1206.72,-120.02 1331.5,-98 1334.59,-97.45 1337.77,-96.85 1340.96,-96.22"/>
<polygon fill="midnightblue" stroke="midnightblue" points="979.24,-139.92 969.62,-144.36 979.91,-146.89 979.24,-139.92"/>
</g>
<!-- Node19 -->
<g id="node19" class="node">
<title>Node19</title>
<g id="a_node19"><a xlink:href="iop_2system_2sio2man_2src_2irx__imports_8h_source.html" target="_top" xlink:title=" ">
<polygon fill="white" stroke="black" points="1466.5,-67.5 1466.5,-97.5 1570.5,-97.5 1570.5,-67.5 1466.5,-67.5"/>
<text text-anchor="start" x="1474.5" y="-85.5" font-family="Helvetica,sans-Serif" font-size="10.00">iop/system/sio2man</text>
<text text-anchor="middle" x="1518.5" y="-74.5" font-family="Helvetica,sans-Serif" font-size="10.00">/src/irx_imports.h</text>
</a>
</g>
</g>
<!-- Node1&#45;&gt;Node19 -->
<g id="edge18" class="edge">
<title>Node1&#45;&gt;Node19</title>
<path fill="none" stroke="midnightblue" d="M980.11,-145.74C1077.96,-140.39 1284.86,-126.54 1457.5,-98 1460.4,-97.52 1463.37,-96.98 1466.35,-96.4"/>
<polygon fill="midnightblue" stroke="midnightblue" points="979.65,-142.26 969.85,-146.29 980.02,-149.25 979.65,-142.26"/>
</g>
<!-- Node20 -->
<g id="node20" class="node">
<title>Node20</title>
<g id="a_node20"><a xlink:href="sio2man_8c.html" target="_top" xlink:title=" ">
<polygon fill="white" stroke="black" points="1588.5,-67.5 1588.5,-97.5 1692.5,-97.5 1692.5,-67.5 1588.5,-67.5"/>
<text text-anchor="start" x="1596.5" y="-85.5" font-family="Helvetica,sans-Serif" font-size="10.00">iop/system/sio2man</text>
<text text-anchor="middle" x="1640.5" y="-74.5" font-family="Helvetica,sans-Serif" font-size="10.00">/src/sio2man.c</text>
</a>
</g>
</g>
<!-- Node1&#45;&gt;Node20 -->
<g id="edge19" class="edge">
<title>Node1&#45;&gt;Node20</title>
<path fill="none" stroke="midnightblue" d="M979.73,-147.13C1093.57,-143.72 1359.26,-132.44 1579.5,-98 1582.4,-97.55 1585.37,-97.03 1588.36,-96.46"/>
<polygon fill="midnightblue" stroke="midnightblue" points="979.41,-143.64 969.52,-147.43 979.61,-150.64 979.41,-143.64"/>
</g>
<!-- Node4 -->
<g id="node4" class="node">
<title>Node4</title>
<g id="a_node4"><a xlink:href="iop_2memorycard_2mcman_2src_2main_8c_source.html" target="_top" xlink:title=" ">
<polygon fill="white" stroke="black" points="0,-0.5 0,-30.5 121,-30.5 121,-0.5 0,-0.5"/>
<text text-anchor="start" x="8" y="-18.5" font-family="Helvetica,sans-Serif" font-size="10.00">iop/memorycard/mcman</text>
<text text-anchor="middle" x="60.5" y="-7.5" font-family="Helvetica,sans-Serif" font-size="10.00">/src/main.c</text>
</a>
</g>
</g>
<!-- Node3&#45;&gt;Node4 -->
<g id="edge3" class="edge">
<title>Node3&#45;&gt;Node4</title>
<path fill="none" stroke="midnightblue" d="M268.72,-65.19C223.2,-54.54 164.36,-40.78 120.85,-30.61"/>
<polygon fill="midnightblue" stroke="midnightblue" points="267.99,-68.61 278.52,-67.48 269.58,-61.79 267.99,-68.61"/>
</g>
<!-- Node5 -->
<g id="node5" class="node">
<title>Node5</title>
<g id="a_node5"><a xlink:href="mcdev_8c_source.html" target="_top" xlink:title=" ">
<polygon fill="white" stroke="black" points="139,-0.5 139,-30.5 260,-30.5 260,-0.5 139,-0.5"/>
<text text-anchor="start" x="147" y="-18.5" font-family="Helvetica,sans-Serif" font-size="10.00">iop/memorycard/mcman</text>
<text text-anchor="middle" x="199.5" y="-7.5" font-family="Helvetica,sans-Serif" font-size="10.00">/src/mcdev.c</text>
</a>
</g>
</g>
<!-- Node3&#45;&gt;Node5 -->
<g id="edge4" class="edge">
<title>Node3&#45;&gt;Node5</title>
<path fill="none" stroke="midnightblue" d="M299.22,-63.13C277.13,-52.8 249.99,-40.11 229.6,-30.58"/>
<polygon fill="midnightblue" stroke="midnightblue" points="297.8,-66.33 308.34,-67.4 300.76,-59.99 297.8,-66.33"/>
</g>
<!-- Node6 -->
<g id="node6" class="node">
<title>Node6</title>
<g id="a_node6"><a xlink:href="mcsio2_8c_source.html" target="_top" xlink:title=" ">
<polygon fill="white" stroke="black" points="278,-0.5 278,-30.5 399,-30.5 399,-0.5 278,-0.5"/>
<text text-anchor="start" x="286" y="-18.5" font-family="Helvetica,sans-Serif" font-size="10.00">iop/memorycard/mcman</text>
<text text-anchor="middle" x="338.5" y="-7.5" font-family="Helvetica,sans-Serif" font-size="10.00">/src/mcsio2.c</text>
</a>
</g>
</g>
<!-- Node3&#45;&gt;Node6 -->
<g id="edge5" class="edge">
<title>Node3&#45;&gt;Node6</title>
<path fill="none" stroke="midnightblue" d="M338.5,-57.11C338.5,-48.15 338.5,-38.32 338.5,-30.58"/>
<polygon fill="midnightblue" stroke="midnightblue" points="335,-57.4 338.5,-67.4 342,-57.4 335,-57.4"/>
</g>
<!-- Node7 -->
<g id="node7" class="node">
<title>Node7</title>
<g id="a_node7"><a xlink:href="ps1mc__fio_8c_source.html" target="_top" xlink:title=" ">
<polygon fill="white" stroke="black" points="417,-0.5 417,-30.5 538,-30.5 538,-0.5 417,-0.5"/>
<text text-anchor="start" x="425" y="-18.5" font-family="Helvetica,sans-Serif" font-size="10.00">iop/memorycard/mcman</text>
<text text-anchor="middle" x="477.5" y="-7.5" font-family="Helvetica,sans-Serif" font-size="10.00">/src/ps1mc_fio.c</text>
</a>
</g>
</g>
<!-- Node3&#45;&gt;Node7 -->
<g id="edge6" class="edge">
<title>Node3&#45;&gt;Node7</title>
<path fill="none" stroke="midnightblue" d="M377.78,-63.13C399.87,-52.8 427.01,-40.11 447.4,-30.58"/>
<polygon fill="midnightblue" stroke="midnightblue" points="376.24,-59.99 368.66,-67.4 379.2,-66.33 376.24,-59.99"/>
</g>
<!-- Node8 -->
<g id="node8" class="node">
<title>Node8</title>
<g id="a_node8"><a xlink:href="ps2mc__fio_8c_source.html" target="_top" xlink:title=" ">
<polygon fill="white" stroke="black" points="556,-0.5 556,-30.5 677,-30.5 677,-0.5 556,-0.5"/>
<text text-anchor="start" x="564" y="-18.5" font-family="Helvetica,sans-Serif" font-size="10.00">iop/memorycard/mcman</text>
<text text-anchor="middle" x="616.5" y="-7.5" font-family="Helvetica,sans-Serif" font-size="10.00">/src/ps2mc_fio.c</text>
</a>
</g>
</g>
<!-- Node3&#45;&gt;Node8 -->
<g id="edge7" class="edge">
<title>Node3&#45;&gt;Node8</title>
<path fill="none" stroke="midnightblue" d="M408.28,-65.19C453.8,-54.54 512.64,-40.78 556.15,-30.61"/>
<polygon fill="midnightblue" stroke="midnightblue" points="407.42,-61.79 398.48,-67.48 409.01,-68.61 407.42,-61.79"/>
</g>
<!-- Node17 -->
<g id="node17" class="node">
<title>Node17</title>
<g id="a_node17"><a xlink:href="iop_2system_2rmman_2src_2irx__imports_8h_source.html" target="_top" xlink:title=" ">
<polygon fill="white" stroke="black" points="1272,-0.5 1272,-30.5 1385,-30.5 1385,-0.5 1272,-0.5"/>
<text text-anchor="start" x="1280" y="-18.5" font-family="Helvetica,sans-Serif" font-size="10.00">iop/system/rmman/src</text>
<text text-anchor="middle" x="1328.5" y="-7.5" font-family="Helvetica,sans-Serif" font-size="10.00">/irx_imports.h</text>
</a>
</g>
</g>
<!-- Node16&#45;&gt;Node17 -->
<g id="edge16" class="edge">
<title>Node16&#45;&gt;Node17</title>
<path fill="none" stroke="midnightblue" d="M1372.99,-60.31C1363.09,-50.56 1351.61,-39.26 1342.79,-30.58"/>
<polygon fill="midnightblue" stroke="midnightblue" points="1370.6,-62.87 1380.18,-67.4 1375.51,-57.89 1370.6,-62.87"/>
</g>
<!-- Node18 -->
<g id="node18" class="node">
<title>Node18</title>
<g id="a_node18"><a xlink:href="rmman_8c_source.html" target="_top" xlink:title=" ">
<polygon fill="white" stroke="black" points="1403,-0.5 1403,-30.5 1516,-30.5 1516,-0.5 1403,-0.5"/>
<text text-anchor="start" x="1411" y="-18.5" font-family="Helvetica,sans-Serif" font-size="10.00">iop/system/rmman/src</text>
<text text-anchor="middle" x="1459.5" y="-7.5" font-family="Helvetica,sans-Serif" font-size="10.00">/rmman.c</text>
</a>
</g>
</g>
<!-- Node16&#45;&gt;Node18 -->
<g id="edge17" class="edge">
<title>Node16&#45;&gt;Node18</title>
<path fill="none" stroke="midnightblue" d="M1415.69,-60.31C1425.44,-50.56 1436.74,-39.26 1445.42,-30.58"/>
<polygon fill="midnightblue" stroke="midnightblue" points="1413.2,-57.85 1408.6,-67.4 1418.15,-62.8 1413.2,-57.85"/>
</g>
</g>
</svg>
